<svg width="660" height="424" viewBox="0 0 660 424" fill="none" xmlns="http://www.w3.org/2000/svg">
<mask id="mask0_1339_61688" style="mask-type:luminance" maskUnits="userSpaceOnUse" x="0" y="24" width="660" height="400">
<path d="M660 24H0V424H660V24Z" fill="white"/>
</mask>
<g mask="url(#mask0_1339_61688)">
<g opacity="0.2">
<path opacity="0.0909" d="M423.36 108.79L122.61 281.9C115.05 286.27 110.77 293.12 110.8 300.72C110.84 309.02 116.04 316.79 125.14 322.04L249.03 393.57C249.23 393.68 255.29 397.15 255.52 397.22C263.16 401.4 272.65 403.5 281.9 403.13C289.38 403.13 297.82 400.54 303.18 397.45L602.27 225.3C609.83 220.93 614.12 214.08 614.08 206.48C614.04 198.18 608.84 190.41 599.75 185.16L470.8 110.71C468.11 109.16 464.36 107.46 461.24 106.46C456.09 104.81 450.5 103.84 444.84 103.78C436.68 103.69 429.2 105.42 423.36 108.79Z" fill="black"/>
<path opacity="0.1818" d="M423.6 109.31L122.86 282.42C115.61 286.61 111.56 293.13 111.63 300.33C111.7 308.17 116.68 315.55 125.39 320.58L249.86 392.44C250.26 392.67 255.95 395.89 256.42 396.03C264.25 400.08 273.93 401.94 282.97 401.19C289.7 401.19 299.12 397.81 303.95 395.02L601.38 223.82C608.63 219.63 612.69 213.11 612.61 205.91C612.54 198.06 607.56 190.69 598.85 185.66L470.68 111.66C468.26 110.26 464.03 108.27 461.23 107.34C456.15 105.65 450.61 104.57 444.99 104.46C436.87 104.31 429.39 105.97 423.6 109.31Z" fill="black"/>
<path opacity="0.2727" d="M423.84 109.83L123.1 282.94C116.16 286.95 112.34 293.14 112.44 299.95C112.55 307.33 117.29 314.31 125.62 319.13L250.67 391.33C251.27 391.67 256.6 394.65 257.29 394.86C265.32 398.79 275.18 400.39 284.01 399.26C289.99 399.26 300.4 395.09 304.68 392.61L600.46 222.37C607.4 218.36 611.23 212.17 611.11 205.36C611 197.97 606.26 190.99 597.93 186.18L470.53 112.63C468.38 111.39 463.66 109.09 461.18 108.25C456.16 106.53 450.68 105.34 445.09 105.17C437.07 104.93 429.57 106.52 423.84 109.83Z" fill="black"/>
<path opacity="0.3636" d="M424.08 110.35L123.34 283.46C116.71 287.29 113.12 293.15 113.26 299.56C113.41 306.49 117.92 313.07 125.87 317.66L251.51 390.2C252.31 390.66 257.27 393.39 258.2 393.68C266.42 397.49 276.47 398.83 285.08 397.33C290.31 397.33 301.7 392.37 305.45 390.2L599.56 220.9C606.19 217.07 609.79 211.21 609.64 204.8C609.49 197.87 604.98 191.29 597.03 186.7L470.41 113.59C468.53 112.5 463.32 109.9 461.16 109.14C456.2 107.39 450.78 106.08 445.23 105.86C437.27 105.55 429.76 107.07 424.08 110.35Z" fill="black"/>
<path opacity="0.4545" d="M424.32 110.87L123.58 283.97C117.26 287.62 113.9 293.15 114.08 299.16C114.27 305.63 118.55 311.82 126.11 316.19L252.33 389.07C253.32 389.64 257.93 392.13 259.09 392.49C267.51 396.18 277.74 397.26 286.14 395.39C290.63 395.39 302.99 389.64 306.21 387.78L598.66 219.44C604.98 215.79 608.35 210.26 608.16 204.25C607.97 197.78 603.69 191.59 596.13 187.22L470.28 114.56C468.66 113.63 462.98 110.71 461.13 110.04C456.23 108.26 450.87 106.84 445.36 106.56C437.47 106.17 429.94 107.62 424.32 110.87Z" fill="black"/>
<path opacity="0.5455" d="M424.57 111.38L123.82 284.49C117.81 287.96 114.68 293.16 114.89 298.77C115.11 304.78 119.16 310.58 126.34 314.72L253.15 387.93C254.34 388.62 258.58 390.86 259.97 391.29C268.58 394.86 279 395.68 287.19 393.44C290.93 393.44 304.27 386.89 306.95 385.35L597.74 217.97C603.75 214.5 606.89 209.3 606.67 203.69C606.45 197.68 602.4 191.88 595.22 187.74L470.15 115.53C468.8 114.75 462.64 111.52 461.11 110.94C456.27 109.12 450.97 107.6 445.49 107.26C437.67 106.79 430.13 108.17 424.57 111.38Z" fill="black"/>
<path opacity="0.6364" d="M424.81 111.9L124.06 285.01C118.36 288.3 115.46 293.16 115.71 298.39C115.97 303.94 119.79 309.34 126.59 313.27L253.98 386.82C255.37 387.62 259.25 389.63 260.87 390.13C269.68 393.57 280.28 394.14 288.26 391.52C291.25 391.52 305.57 384.18 307.72 382.95L596.85 216.52C602.55 213.23 605.46 208.37 605.2 203.14C604.94 197.59 601.12 192.18 594.32 188.26L470.02 116.5C468.94 115.88 462.3 112.32 461.08 111.84C456.3 109.99 451.06 108.35 445.62 107.96C437.87 107.41 430.32 108.72 424.81 111.9Z" fill="black"/>
<path opacity="0.7273" d="M425.05 112.42L124.3 285.53C118.91 288.64 116.24 293.17 116.53 298C116.83 303.09 120.41 308.1 126.83 311.81L254.8 385.7C256.39 386.62 259.91 388.38 261.76 388.95C270.76 392.27 281.55 392.59 289.31 389.59C291.55 389.59 306.86 381.46 308.46 380.53L595.94 215.06C601.33 211.95 604.01 207.42 603.71 202.59C603.41 197.5 599.83 192.49 593.41 188.78L469.89 117.46C469.08 116.99 461.96 113.1 461.05 112.74C456.33 110.85 451.14 109.11 445.74 108.66C438.07 108.02 430.5 109.27 425.05 112.42Z" fill="black"/>
<path opacity="0.8182" d="M425.29 112.94L124.54 286.05C119.46 288.99 117.02 293.18 117.34 297.61C117.68 302.24 121.03 306.86 127.06 310.34L255.62 384.56C257.41 385.59 260.56 387.11 262.65 387.75C271.85 390.95 282.82 391.01 290.37 387.64C291.87 387.64 308.15 378.72 309.22 378.1L595.04 213.58C600.12 210.64 602.57 206.45 602.24 202.02C601.91 197.39 598.55 192.77 592.52 189.29L469.77 118.42C469.23 118.11 461.64 113.88 461.03 113.63C456.36 111.71 451.24 109.85 445.88 109.35C438.27 108.64 430.69 109.82 425.29 112.94Z" fill="black"/>
<path opacity="0.9091" d="M425.53 113.46L124.79 286.56C120.02 289.32 117.81 293.18 118.17 297.21C118.54 301.38 121.67 305.61 127.32 308.87L256.46 383.43C258.45 384.58 261.24 385.85 263.55 386.56C272.94 389.64 284.09 389.44 291.44 385.7C292.19 385.7 309.45 375.99 309.99 375.68L594.15 212.12C598.93 209.36 601.14 205.5 600.77 201.47C600.4 197.29 597.27 193.07 591.62 189.81L469.65 119.39C469.38 119.23 461.32 114.66 461.02 114.53C456.4 112.57 451.35 110.61 446.02 110.05C438.46 109.26 430.87 110.37 425.53 113.46Z" fill="black"/>
<path d="M292.5 383.77L593.24 210.66C602.27 205.45 601.14 196.34 590.72 190.33L460.99 115.43C450.57 109.41 434.8 108.76 425.77 113.97L125.03 287.08C116.01 292.29 117.13 301.4 127.56 307.41L257.28 382.31C267.7 388.33 283.47 388.98 292.5 383.77Z" fill="black"/>
</g>
</g>
<mask id="mask1_1339_61688" style="mask-type:luminance" maskUnits="userSpaceOnUse" x="0" y="24" width="660" height="400">
<path d="M660 24H0V424H660V24Z" fill="white"/>
</mask>
<g mask="url(#mask1_1339_61688)">
<path d="M249.89 385.96L128.61 315.94C114.93 308.04 116.65 294.25 132.44 285.12L417.63 120.47C433.42 111.35 457.32 110.36 471 118.26L592.28 188.28C605.96 196.18 604.24 209.98 588.45 219.09L303.26 383.75C287.47 392.87 263.57 393.86 249.89 385.96Z" fill="url(#paint0_linear_1339_61688)"/>
</g>
<mask id="mask2_1339_61688" style="mask-type:luminance" maskUnits="userSpaceOnUse" x="0" y="24" width="660" height="400">
<path d="M660 24H0V424H660V24Z" fill="white"/>
</mask>
<g mask="url(#mask2_1339_61688)">
<path d="M249.89 383.88L128.61 313.86C122.5 310.33 119.46 305.63 119.38 300.68C119.37 300.24 119.39 290.73 119.43 290.3C119.93 284.58 124.33 287.73 132.45 283.04L417.64 118.39C433.43 109.27 457.33 108.28 471.01 116.18L592.29 186.2C598.4 189.73 601.44 183.52 601.53 188.46C601.53 188.89 601.52 200.23 601.48 200.66C600.99 206.39 596.59 212.32 588.46 217.02L303.26 381.67C287.47 390.79 263.57 391.78 249.89 383.88Z" fill="url(#paint1_linear_1339_61688)"/>
</g>
<mask id="mask3_1339_61688" style="mask-type:luminance" maskUnits="userSpaceOnUse" x="0" y="24" width="660" height="400">
<path d="M660 24H0V424H660V24Z" fill="white"/>
</mask>
<g mask="url(#mask3_1339_61688)">
<path d="M249.89 373.49L128.61 303.47C114.93 295.57 116.65 281.77 132.44 272.65L417.63 108C433.42 98.8799 457.32 97.8899 471 105.79L592.28 175.81C605.96 183.71 604.24 197.51 588.45 206.62L303.26 371.28C287.47 380.4 263.57 381.39 249.89 373.49Z" fill="url(#paint2_linear_1339_61688)"/>
</g>
<mask id="mask4_1339_61688" style="mask-type:luminance" maskUnits="userSpaceOnUse" x="0" y="24" width="660" height="400">
<path d="M660 24H0V424H660V24Z" fill="white"/>
</mask>
<g mask="url(#mask4_1339_61688)">
<path opacity="0.2" d="M601.52 204.32C601.5 203.62 601.43 203.16 601.29 202.85C602.51 209.53 598.14 216.89 588.45 222.49L303.26 387.14C287.47 396.26 263.57 397.25 249.89 389.35L128.61 319.33C122.71 315.92 119.69 311.42 119.41 306.66C119.38 308.69 119.37 316.16 119.37 316.54C119.45 321.48 122.49 326.19 128.6 329.72L249.88 399.74C263.56 407.64 287.46 406.65 303.25 397.53L588.44 232.88C596.57 228.19 600.97 222.26 601.46 216.53C601.51 216.09 601.52 204.75 601.52 204.32Z" fill="url(#paint3_linear_1339_61688)"/>
</g>
<mask id="mask5_1339_61688" style="mask-type:luminance" maskUnits="userSpaceOnUse" x="0" y="24" width="660" height="400">
<path d="M660 24H0V424H660V24Z" fill="white"/>
</mask>
<g mask="url(#mask5_1339_61688)">
<path d="M128.61 302.1L249.89 372.12C263.57 380.02 287.47 379.03 303.26 369.91L588.45 205.26C596.76 200.46 601.17 194.36 601.5 188.51C601.84 194.76 597.42 201.44 588.45 206.62L303.26 371.28C287.47 380.4 263.57 381.39 249.89 373.49L128.61 303.47C122.13 299.73 119.11 294.66 119.4 289.4C119.66 294.17 122.69 298.69 128.61 302.1Z" fill="url(#paint4_radial_1339_61688)"/>
</g>
<mask id="mask6_1339_61688" style="mask-type:luminance" maskUnits="userSpaceOnUse" x="0" y="24" width="660" height="400">
<path d="M660 24H0V424H660V24Z" fill="white"/>
</mask>
<g mask="url(#mask6_1339_61688)">
<path d="M135.64 274.7L421.17 109.85C435.02 101.85 455.97 100.99 467.96 107.91L588.6 177.56C600.59 184.48 599.09 196.58 585.24 204.57L299.72 369.43C285.87 377.43 264.92 378.3 252.92 371.37L132.29 301.71C120.29 294.79 121.79 282.7 135.64 274.7Z" fill="url(#paint5_linear_1339_61688)"/>
</g>
<mask id="mask7_1339_61688" style="mask-type:luminance" maskUnits="userSpaceOnUse" x="0" y="24" width="660" height="400">
<path d="M660 24H0V424H660V24Z" fill="white"/>
</mask>
<g mask="url(#mask7_1339_61688)">
<path d="M141.18 277.08L425.29 113.05C436.88 106.36 454.41 105.63 464.45 111.43L582.52 179.6C592.55 185.4 591.3 195.52 579.71 202.21L295.59 366.23C284 372.92 266.46 373.65 256.43 367.85L138.36 299.69C128.33 293.89 129.59 283.77 141.18 277.08Z" fill="#1F0D3D"/>
</g>
<mask id="mask8_1339_61688" style="mask-type:luminance" maskUnits="userSpaceOnUse" x="0" y="24" width="660" height="400">
<path d="M660 24H0V424H660V24Z" fill="white"/>
</mask>
<g mask="url(#mask8_1339_61688)">
<path d="M564.73 172.09C558.9 175.46 549.43 175.44 543.57 172.05L477.5 133.91C471.64 130.53 471.61 125.05 477.43 121.69L463.41 113.6C453.95 108.14 438.66 108.11 429.26 113.54L142.03 279.38C132.63 284.81 132.68 293.64 142.14 299.1L257.47 365.69C266.93 371.15 282.22 371.18 291.62 365.75L578.86 199.9C588.26 194.47 588.21 185.64 578.75 180.18L564.73 172.09Z" fill="#3D065F"/>
</g>
<mask id="mask9_1339_61688" style="mask-type:luminance" maskUnits="userSpaceOnUse" x="0" y="24" width="660" height="400">
<path d="M660 24H0V424H660V24Z" fill="white"/>
</mask>
<g mask="url(#mask9_1339_61688)">
<path d="M274.64 367.46C280.66 367.46 286.27 366.13 290.45 363.72L577.69 197.88C581.46 195.7 583.54 192.94 583.54 190.1C583.54 187.23 581.42 184.43 577.58 182.21L564.68 174.76C561.71 176.17 558.05 176.94 554.22 176.94C549.8 176.94 545.6 175.92 542.41 174.08L476.34 135.94C472.74 133.86 470.76 130.96 470.76 127.77C470.76 125.66 471.63 123.68 473.26 121.98L462.26 115.63C458.02 113.18 452.33 111.83 446.26 111.83C440.24 111.83 434.63 113.16 430.45 115.57L143.19 281.4C139.42 283.58 137.34 286.34 137.34 289.18C137.34 292.05 139.46 294.85 143.3 297.07L258.63 363.66C262.87 366.11 268.56 367.46 274.64 367.46Z" fill="url(#paint6_linear_1339_61688)"/>
</g>
<mask id="mask10_1339_61688" style="mask-type:luminance" maskUnits="userSpaceOnUse" x="0" y="24" width="660" height="400">
<path d="M660 24H0V424H660V24Z" fill="white"/>
</mask>
<g mask="url(#mask10_1339_61688)">
<path d="M534.58 246.83L547.8 239.2C549.45 238.25 550.79 235.69 550.79 233.49C550.79 231.29 549.45 230.28 547.8 231.23L534.58 238.86C532.93 239.81 531.59 242.37 531.59 244.57C531.6 246.77 532.93 247.78 534.58 246.83Z" fill="url(#paint7_linear_1339_61688)"/>
</g>
<mask id="mask11_1339_61688" style="mask-type:luminance" maskUnits="userSpaceOnUse" x="0" y="24" width="660" height="400">
<path d="M660 24H0V424H660V24Z" fill="white"/>
</mask>
<g mask="url(#mask11_1339_61688)">
<path d="M534.58 246.83L547.8 239.2C549.45 238.25 550.79 235.69 550.79 233.49C550.79 231.29 549.45 230.28 547.8 231.23L534.58 238.86C532.93 239.81 531.59 242.37 531.59 244.57C531.6 246.77 532.93 247.78 534.58 246.83Z" fill="url(#paint8_linear_1339_61688)"/>
</g>
<mask id="mask12_1339_61688" style="mask-type:luminance" maskUnits="userSpaceOnUse" x="0" y="24" width="660" height="400">
<path d="M660 24H0V424H660V24Z" fill="white"/>
</mask>
<g mask="url(#mask12_1339_61688)">
<path d="M533.4 246.4C533.63 246.4 533.91 246.31 534.19 246.15L547.41 238.52C548.82 237.71 550.01 235.4 550.01 233.49C550.01 232.64 549.74 231.65 548.99 231.65C548.76 231.65 548.48 231.74 548.2 231.9L534.98 239.53C533.57 240.34 532.38 242.65 532.38 244.57C532.38 245.42 532.64 246.4 533.4 246.4Z" fill="url(#paint9_linear_1339_61688)"/>
</g>
<mask id="mask13_1339_61688" style="mask-type:luminance" maskUnits="userSpaceOnUse" x="0" y="24" width="660" height="400">
<path d="M660 24H0V424H660V24Z" fill="white"/>
</mask>
<g mask="url(#mask13_1339_61688)">
<path d="M510.98 260.45L524.2 252.82C525.85 251.87 527.19 249.31 527.19 247.11C527.19 244.91 525.85 243.9 524.2 244.85L510.98 252.48C509.33 253.43 507.99 255.99 507.99 258.19C508 260.39 509.33 261.4 510.98 260.45Z" fill="url(#paint10_linear_1339_61688)"/>
</g>
<mask id="mask14_1339_61688" style="mask-type:luminance" maskUnits="userSpaceOnUse" x="0" y="24" width="660" height="400">
<path d="M660 24H0V424H660V24Z" fill="white"/>
</mask>
<g mask="url(#mask14_1339_61688)">
<path d="M510.98 260.45L524.2 252.82C525.85 251.87 527.19 249.31 527.19 247.11C527.19 244.91 525.85 243.9 524.2 244.85L510.98 252.48C509.33 253.43 507.99 255.99 507.99 258.19C508 260.39 509.33 261.4 510.98 260.45Z" fill="url(#paint11_linear_1339_61688)"/>
</g>
<mask id="mask15_1339_61688" style="mask-type:luminance" maskUnits="userSpaceOnUse" x="0" y="24" width="660" height="400">
<path d="M660 24H0V424H660V24Z" fill="white"/>
</mask>
<g mask="url(#mask15_1339_61688)">
<path d="M509.8 260.03C510.03 260.03 510.31 259.94 510.6 259.78L523.82 252.15C525.23 251.34 526.42 249.03 526.42 247.11C526.42 246.26 526.15 245.27 525.4 245.27C525.16 245.27 524.89 245.36 524.6 245.52L511.38 253.15C509.97 253.96 508.79 256.27 508.79 258.18C508.78 259.04 509.04 260.03 509.8 260.03Z" fill="url(#paint12_linear_1339_61688)"/>
</g>
<mask id="mask16_1339_61688" style="mask-type:luminance" maskUnits="userSpaceOnUse" x="0" y="24" width="660" height="400">
<path d="M660 24H0V424H660V24Z" fill="white"/>
</mask>
<g mask="url(#mask16_1339_61688)">
<path d="M395.78 318.1L588.45 206.37C596.58 201.68 600.98 195.75 601.47 190.01C601.49 189.82 601.5 187.51 601.51 184.95C601.51 185 601.51 196.85 601.47 197.28C600.98 203.01 596.58 208.94 588.45 213.64L395.78 318.1Z" fill="#3D065F"/>
</g>
<mask id="mask17_1339_61688" style="mask-type:luminance" maskUnits="userSpaceOnUse" x="0" y="24" width="660" height="400">
<path d="M660 24H0V424H660V24Z" fill="white"/>
</mask>
<g mask="url(#mask17_1339_61688)">
<path d="M178.16 341.63L199.87 354.16C199.87 350.19 197.46 345.59 194.48 343.87L183.54 337.55C180.57 335.84 178.16 337.66 178.16 341.63Z" fill="black"/>
</g>
<path opacity="0.1" d="M312.777 220.864C330.977 228.474 339.977 222.424 353.657 214.524C367.337 206.624 368.887 198.834 358.367 193.904C338.527 184.614 327.227 193.994 313.547 201.894C299.857 209.784 302.057 216.384 312.777 220.864Z" fill="black"/>
<path opacity="0.1" d="M389.777 271.864C409.727 279.474 418.727 273.674 432.397 265.774C446.077 257.874 452.037 251.084 437.107 245.154C422.517 239.364 407.947 245.464 394.267 253.364C380.597 261.254 378.927 267.724 389.777 271.864Z" fill="black"/>
<path d="M391.957 175.054C391.717 178.084 390.577 180.924 389.767 182.614C388.847 184.524 388.537 186.724 387.517 186.364C386.497 186.004 387.807 177.114 387.807 177.114L391.957 175.054Z" fill="url(#paint13_radial_1339_61688)"/>
<path d="M439.127 253.584C439.127 253.584 440.127 257.434 439.357 259.044C438.587 260.664 435.047 261.964 432.207 260.584C429.357 259.204 428.127 256.274 427.057 255.504C425.977 254.734 419.907 254.044 415.367 250.194C410.827 246.344 411.447 242.114 415.987 242.044C420.527 241.964 428.757 244.044 431.677 245.964C434.587 247.884 439.127 253.584 439.127 253.584Z" fill="#10054D"/>
<path d="M436.977 257.734C433.727 258.414 429.597 255.584 427.667 253.964C425.737 252.344 422.357 253.194 417.977 249.734C413.597 246.274 412.057 243.884 414.057 242.734C416.057 241.584 423.337 241.914 429.027 244.984C434.717 248.064 438.517 250.274 438.517 250.274C438.517 250.274 439.897 254.504 439.207 255.424C438.517 256.354 438.817 257.354 436.977 257.734Z" fill="url(#paint14_linear_1339_61688)"/>
<path d="M437.017 160.684C437.017 160.684 439.437 171.064 437.827 184.224C436.207 197.374 438.747 223.804 439.327 233.154C439.907 242.504 443.157 253.984 438.407 256.354C435.677 257.714 430.787 256.934 426.977 252.544C423.167 248.164 422.357 243.894 422.827 243.084C423.287 242.274 423.977 238.704 422.477 230.964C420.977 223.234 417.977 204.424 418.207 198.304C418.437 192.184 420.627 163.454 420.627 163.454L437.017 160.684Z" fill="url(#paint15_linear_1339_61688)"/>
<path d="M418.207 198.304C417.977 204.424 420.977 223.234 422.477 230.964C423.977 238.694 423.287 242.274 422.827 243.084C422.367 243.894 423.177 248.164 426.977 252.544C428.467 254.264 430.127 255.424 431.757 256.124C430.117 253.024 427.667 246.634 427.667 236.044C427.667 220.124 424.357 199.814 423.897 188.744C423.627 182.254 425.147 169.994 425.147 162.124L420.627 163.474C420.627 163.454 418.437 192.184 418.207 198.304Z" fill="#189FCA"/>
<path d="M390.857 92.7839C390.857 92.7839 380.967 91.7639 377.027 93.6839C373.087 95.6039 366.697 101.764 366.687 103.754C366.677 105.524 372.027 107.844 375.227 106.944C378.427 106.044 378.797 105.554 381.387 105.014C383.987 104.474 389.167 102.784 391.057 101.784C392.947 100.774 390.857 92.7839 390.857 92.7839Z" fill="url(#paint16_radial_1339_61688)"/>
<path d="M334.097 188.404L332.787 195.864C332.787 195.864 336.477 198.014 338.167 198.554C339.857 199.094 342.627 198.014 344.017 199.784C345.397 201.554 351.077 206.074 355.787 207.014C360.857 208.024 364.407 206.394 364.477 204.934C364.557 203.474 363.247 201.084 358.627 198.084C354.007 195.084 350.087 187.774 350.087 187.774L334.097 188.404Z" fill="#10054D"/>
<path d="M333.707 193.164C334.397 194.014 342.877 196.014 344.267 197.774C345.847 199.774 353.767 204.664 357.767 205.354C361.407 205.984 364.197 204.164 363.847 202.774C363.347 200.774 360.007 198.934 357.087 196.704C354.167 194.474 351.007 189.324 351.007 189.324L333.617 188.094L333.707 193.164Z" fill="url(#paint17_linear_1339_61688)"/>
<path d="M309.167 202.014L309.017 208.934L312.167 212.084L313.167 211.704C313.167 211.704 315.237 216.784 321.267 220.684C326.477 224.054 332.787 223.234 334.317 222.004C335.857 220.774 335.857 219.624 332.007 214.464C328.157 209.314 322.617 201.844 322.617 201.844L309.167 202.014Z" fill="#10054D"/>
<path d="M309.567 206.074C309.567 206.074 315.177 211.244 317.107 214.284C320.027 218.864 327.727 222.384 332.797 220.694C337.877 219.004 331.027 213.694 329.647 211.384C328.267 209.074 324.337 203.304 324.337 203.304L309.337 203.154L309.567 206.074Z" fill="url(#paint18_linear_1339_61688)"/>
<path d="M351.437 103.024C351.437 103.024 353.017 136.164 352.787 144.124C352.557 152.084 347.967 172.794 348.767 176.484C349.577 180.174 351.307 183.424 351.767 185.734C352.227 188.044 352.897 191.204 352.897 191.204C352.897 191.204 347.937 195.934 342.277 195.244C336.627 194.554 333.687 193.524 333.157 192.124C332.627 190.724 333.967 154.614 333.967 154.614L333.197 107.864L351.437 103.024Z" fill="url(#paint19_linear_1339_61688)"/>
<path d="M337.777 185.114C336.947 175.904 339.637 164.434 342.527 151.974C344.957 141.484 343.657 115.994 343.177 108.184L333.407 110.784L333.987 154.634C333.987 154.634 332.657 190.744 333.177 192.134C333.677 193.464 336.377 194.464 341.537 195.154C339.867 191.974 338.027 187.944 337.777 185.114Z" fill="#7B37DE"/>
<path d="M335.777 105.194C335.777 105.194 333.517 131.534 332.947 143.194C332.367 154.854 329.487 171.244 327.987 177.364C326.487 183.484 324.757 192.134 325.217 196.404C325.677 200.674 327.637 204.024 325.097 205.864C322.557 207.714 314.017 208.754 311.937 207.714C309.857 206.674 308.127 206.904 308.127 202.754C308.127 198.604 308.707 175.174 310.317 165.824C311.937 156.474 309.327 123.744 309.277 119.554C309.157 109.744 312.967 104.324 312.967 104.324L335.777 105.194Z" fill="url(#paint20_linear_1339_61688)"/>
<path d="M330.167 23.9941C326.017 25.1441 320.817 24.8041 325.317 35.5341C329.817 46.2641 346.087 82.8441 346.087 82.8441C346.087 82.8441 351.627 69.5741 350.817 58.0341C350.017 46.4941 343.097 26.7641 343.097 26.7641L330.167 23.9941Z" fill="url(#paint21_linear_1339_61688)"/>
<path d="M338.327 37.1543L340.097 36.3843L341.247 37.6143L340.787 40.1543C340.787 40.1543 345.707 49.7743 347.557 55.6143C349.407 61.4643 349.787 69.3843 349.097 73.0743C348.407 76.7643 345.017 82.1543 345.017 82.1543C345.017 82.1543 342.557 64.4643 341.787 60.2243C341.017 55.9943 338.637 40.9143 338.637 40.9143L336.867 39.8343L338.327 37.1543Z" fill="url(#paint22_linear_1339_61688)"/>
<path d="M338.947 24.4543C338.947 24.4543 344.107 23.8143 348.027 27.3543C350.847 29.9043 352.397 33.1943 353.277 39.6843C354.057 45.4343 353.027 58.1443 353.257 61.3743C353.487 64.6043 354.527 85.0343 355.107 91.3743C355.687 97.7243 357.647 104.994 354.067 108.564C350.487 112.144 346.677 113.984 345.757 111.914C344.837 109.834 342.067 91.2543 343.567 85.7143C345.067 80.1743 349.217 68.8643 348.987 62.0543C348.757 55.2443 345.757 37.0143 343.797 33.4343C341.827 29.8843 338.947 24.4543 338.947 24.4543Z" fill="url(#paint23_linear_1339_61688)"/>
<path d="M351.647 50.484C351.187 44.174 351.027 39.254 351.027 39.254L348.577 37.924L350.197 35.044C350.197 35.044 347.257 33.334 346.257 31.104C345.387 29.154 343.137 26.734 341.367 24.374H341.357C339.947 24.274 338.927 24.454 338.927 24.454C338.927 24.454 341.807 29.874 343.777 33.454C345.737 37.034 348.737 55.264 348.967 62.074C349.107 66.284 347.577 72.194 346.037 77.414C346.777 75.774 348.107 72.314 348.397 71.374C350.027 66.044 352.107 56.794 351.647 50.484Z" fill="#D1D3D4"/>
<path d="M351.097 49.8443C350.637 43.5343 350.477 38.6142 350.477 38.6142L347.627 37.8443L349.637 34.1743C349.637 34.1743 347.387 33.3643 346.447 31.2343C345.587 29.2843 343.887 26.1742 341.367 24.3842H341.357C339.947 24.2842 338.927 24.4643 338.927 24.4643C338.927 24.4643 341.807 29.8843 343.777 33.4643C345.737 37.0443 348.737 55.2743 348.967 62.0843C349.107 66.2943 347.577 72.2043 346.037 77.4243C346.777 75.7843 348.107 72.3243 348.397 71.3843C350.027 66.0443 351.557 56.1543 351.097 49.8443Z" fill="url(#paint24_linear_1339_61688)"/>
<path d="M312.977 104.314C312.977 104.314 309.167 109.734 309.287 119.544C309.337 123.734 311.937 156.474 310.327 165.814C308.707 175.164 308.137 198.584 308.137 202.744C308.137 206.894 309.867 206.664 311.947 207.704C312.757 208.104 314.557 208.194 316.597 208.044C314.957 205.234 313.257 200.894 312.777 194.524C311.777 181.194 316.607 166.354 315.947 154.194C315.357 143.424 315.027 119.234 316.807 104.794L312.977 104.314Z" fill="#7834DD"/>
<path d="M340.507 26.2139L330.177 24.0039C326.977 24.8939 323.157 24.8939 323.637 29.7639C325.827 33.5339 328.617 38.0339 330.407 39.7739C333.717 43.0039 336.107 45.9539 336.107 45.9539L339.097 35.3139L344.187 42.2639C344.187 42.2639 344.487 36.1639 344.017 34.1639C343.787 33.1339 342.107 29.5239 340.507 26.2139Z" fill="#D1D3D4"/>
<path d="M340.507 26.2139L330.177 24.0039C326.977 24.8939 323.157 24.8939 323.637 29.7639C325.827 33.5339 328.617 38.0339 330.407 39.7739C333.717 43.0039 335.947 44.3939 335.947 44.3939L339.097 35.3139L344.017 40.7039C344.017 40.7039 344.477 36.1639 344.017 34.1639C343.787 33.1339 342.107 29.5239 340.507 26.2139Z" fill="url(#paint25_linear_1339_61688)"/>
<path d="M326.557 24.3042C326.557 24.3042 323.327 25.3042 325.097 29.9242C326.867 34.5442 333.867 42.3142 338.407 52.9242C342.947 63.5442 346.027 74.7742 345.717 87.6242C345.407 100.474 344.477 112.034 341.567 115.084C338.277 118.524 328.257 122.394 317.637 120.544C307.017 118.694 303.947 114.624 305.097 112.084C306.247 109.544 312.477 83.0842 312.947 79.1542C313.407 75.2342 309.717 64.7642 308.567 60.6142C307.417 56.4642 305.417 48.0742 306.877 43.4542C308.337 38.8342 310.957 38.3042 313.647 35.5342C315.397 33.7342 318.047 31.1042 321.167 28.4242C322.827 26.9742 324.457 24.9242 326.557 24.3042Z" fill="url(#paint26_linear_1339_61688)"/>
<path d="M338.407 52.924C333.867 42.304 326.867 34.534 325.097 29.924C323.587 25.984 325.717 24.684 326.367 24.384V24.374C324.457 24.974 322.737 26.064 321.187 27.354C320.827 30.444 320.567 31.174 321.867 36.684C323.247 42.534 322.907 44.914 322.907 44.914L326.827 45.764V49.614C326.827 49.614 328.517 48.194 333.717 56.544C338.967 64.984 342.677 69.284 345.437 79.364C344.587 69.864 341.947 61.204 338.407 52.924Z" fill="#D1D3D4"/>
<path d="M338.407 52.924C333.867 42.304 326.867 34.534 325.097 29.924C323.587 25.984 325.717 24.684 326.367 24.384V24.374C324.457 24.974 322.737 26.064 321.187 27.354C320.827 30.444 320.567 31.174 321.867 36.684C323.247 42.534 323.637 43.834 323.637 43.834L327.557 44.684V48.534C327.557 48.534 330.237 48.204 335.027 56.794C339.497 64.804 342.677 69.284 345.437 79.364C344.587 69.864 341.947 61.204 338.407 52.924Z" fill="url(#paint27_linear_1339_61688)"/>
<path d="M335.397 56.5839C330.607 47.9839 327.897 48.0239 327.897 48.0239V44.1739L323.977 43.3239C323.977 43.3239 323.597 42.0139 322.207 36.1739C320.947 30.8539 321.247 29.8739 321.587 27.0439C321.457 27.1539 321.317 27.2439 321.187 27.3539C320.827 30.4439 320.567 31.1739 321.867 36.6839C323.247 42.5339 323.637 43.8339 323.637 43.8339L327.557 44.6839V48.5339C327.557 48.5339 330.237 48.2039 335.027 56.7939C339.497 64.8039 342.677 69.2839 345.437 79.3639C345.337 78.2139 345.137 77.4839 344.987 76.3639C342.407 68.1839 339.427 63.8139 335.397 56.5839Z" fill="url(#paint28_radial_1339_61688)"/>
<path d="M314.247 91.9243C314.247 91.9243 317.477 93.2343 320.867 94.2343C324.247 95.2343 328.327 96.3143 328.327 96.3143C328.327 96.3143 328.287 101.294 326.287 101.374C324.287 101.454 314.057 98.7543 313.437 97.5243C312.827 96.2943 314.247 91.9243 314.247 91.9243Z" fill="#D1D3D4"/>
<path d="M314.247 91.9243C314.247 91.9243 317.477 93.2343 320.867 94.2343C324.247 95.2343 328.327 96.3143 328.327 96.3143C328.327 96.3143 328.017 100.394 326.017 100.464C324.017 100.544 313.787 97.8443 313.167 96.6143C312.557 95.3843 314.247 91.9243 314.247 91.9243Z" fill="url(#paint29_linear_1339_61688)"/>
<path d="M362.557 88.0039C362.557 88.0039 362.867 91.6939 361.017 95.0839C359.167 98.4639 355.867 101.234 355.867 101.234C355.867 101.234 355.327 94.2339 357.177 91.6139C359.017 89.0039 362.557 88.0039 362.557 88.0039Z" fill="url(#paint30_linear_1339_61688)"/>
<path d="M360.357 88.314C360.357 88.314 362.657 90.114 364.427 90.284C366.187 90.444 372.097 90.224 374.027 90.894C375.867 91.534 381.617 93.254 381.777 94.804C381.937 96.354 379.827 95.324 378.147 95.094C376.467 94.864 373.697 94.654 373.697 94.654C373.697 94.654 377.097 98.194 379.197 99.364C381.297 100.544 384.677 101.144 385.237 102.324C385.797 103.504 385.067 104.634 383.357 105.824C380.777 107.614 378.647 107.034 376.437 107.114C372.597 107.254 368.147 105.704 366.377 104.234C364.597 102.764 359.567 98.784 358.437 98.114C357.317 97.444 353.217 95.904 353.217 95.904L360.057 88.144L360.357 88.314Z" fill="url(#paint31_radial_1339_61688)"/>
<path d="M383.357 105.824C385.067 104.634 385.797 103.504 385.237 102.324C385.147 102.124 384.957 101.944 384.727 101.774C383.317 103.564 378.777 104.494 375.947 103.864C372.947 103.194 365.187 98.0043 362.937 95.8343C361.787 94.7243 358.017 93.3143 354.607 92.1943L353.217 95.9043C353.217 95.9043 357.317 97.4443 358.437 98.1143C359.557 98.7843 364.597 102.754 366.377 104.234C368.157 105.704 372.597 107.264 376.437 107.114C378.647 107.024 380.777 107.614 383.357 105.824Z" fill="url(#paint32_radial_1339_61688)"/>
<path d="M320.527 107.114C320.647 98.614 326.147 87.864 328.777 81.494C331.407 75.124 328.027 55.874 324.027 47.494C320.777 40.684 311.337 43.044 306.497 45.174C305.847 49.934 307.527 56.944 308.557 60.624C309.707 64.774 313.407 75.244 312.937 79.164C312.477 83.084 306.247 109.554 305.087 112.094C303.937 114.634 307.007 118.714 317.627 120.554C319.447 120.874 321.247 121.014 323.007 121.024C321.917 117.824 320.447 112.494 320.527 107.114Z" fill="#7834DD"/>
<path d="M309.527 39.4842C305.047 40.9142 304.797 49.5442 307.607 55.8642C309.447 59.9842 313.787 69.3142 315.327 73.3142C316.867 77.3142 319.327 85.5442 323.637 87.8542C327.947 90.1642 339.257 93.9342 343.717 95.8542C348.177 97.7742 355.867 101.244 355.867 101.244C355.867 101.244 357.177 95.9342 359.097 92.6242C361.017 89.3142 362.557 88.0042 362.557 88.0042C362.557 88.0042 347.327 80.8542 342.097 77.9242C336.867 75.0042 334.177 73.3842 333.017 70.6942C331.867 68.0042 328.127 56.3442 326.897 53.4842C323.817 46.3342 320.137 36.1042 309.527 39.4842Z" fill="url(#paint33_linear_1339_61688)"/>
<path d="M414.977 267.274C414.977 267.274 416.667 272.274 414.597 273.354C412.517 274.434 409.287 275.044 406.677 273.894C404.057 272.744 402.987 271.584 400.217 271.584C397.447 271.584 386.677 266.274 384.597 263.664C382.517 261.044 384.597 258.044 389.747 258.434C394.897 258.814 402.287 259.434 403.597 259.894C404.897 260.354 414.977 267.274 414.977 267.274Z" fill="#10054D"/>
<path d="M412.667 270.964C407.827 271.534 406.287 270.194 401.817 269.274C397.357 268.354 384.667 263.204 384.897 260.364C385.127 257.514 388.047 258.124 390.507 258.354C392.967 258.584 400.817 259.124 401.427 259.124C402.037 259.124 414.817 264.894 414.817 264.894C414.817 264.894 415.737 269.044 414.897 269.664C414.047 270.274 413.977 270.814 412.667 270.964Z" fill="url(#paint34_linear_1339_61688)"/>
<path d="M422.017 164.144C422.017 164.144 424.897 170.374 422.137 181.104C419.367 191.834 416.137 204.524 416.017 218.144C415.897 231.764 417.517 266.954 415.437 268.924C413.357 270.884 406.057 271.554 403.087 269.384C398.277 265.854 395.707 260.844 396.167 259.114C396.627 257.384 400.317 251.154 399.047 245.614C397.777 240.074 393.507 220.914 394.317 207.884C395.127 194.844 397.317 160.804 397.317 160.804L422.017 164.144Z" fill="url(#paint35_linear_1339_61688)"/>
<path d="M410.207 56.4843C407.147 57.9843 404.047 60.4843 403.897 68.1743C403.747 75.8643 403.667 79.5643 405.207 80.5643C406.747 81.5643 407.897 80.5643 408.207 82.7143C408.517 84.8643 407.897 88.4043 407.897 88.4043L424.667 84.6343C424.667 84.6343 423.517 81.9443 424.587 79.1743C425.667 76.4043 430.507 71.0243 426.817 63.0943C423.127 55.1743 413.817 54.7143 410.207 56.4843Z" fill="url(#paint36_radial_1339_61688)"/>
<path d="M403.737 63.0243C403.687 64.4943 404.587 66.8743 406.657 67.0243C408.737 67.1743 409.737 69.6443 409.277 70.7943C408.817 71.9443 409.127 72.2543 409.127 72.2543C409.127 72.2543 410.667 71.6343 411.357 72.8743C412.047 74.1043 411.127 76.7243 410.667 77.7243C410.207 78.7243 413.667 81.8043 416.517 82.0343C419.367 82.2643 423.207 81.9543 424.437 80.4943C425.667 79.0343 430.207 74.1043 428.587 66.2643C426.967 58.4143 419.737 53.7243 413.047 55.0343C406.357 56.3243 403.817 60.9443 403.737 63.0243Z" fill="url(#paint37_linear_1339_61688)"/>
<path d="M389.567 92.2343C389.567 92.2343 387.437 93.7943 387.817 96.7143C388.197 99.6343 390.967 104.104 390.967 104.104L420.127 102.484C420.127 102.484 442.607 101.524 441.607 92.3543C440.657 83.6143 434.667 84.0143 421.667 87.4043C408.667 90.7843 403.587 91.3243 399.357 91.7143C395.127 92.1043 389.567 92.2343 389.567 92.2343Z" fill="url(#paint38_linear_1339_61688)"/>
<path d="M405.147 92.734C405.147 92.734 406.967 86.404 410.737 85.634C414.507 84.864 417.817 85.324 420.357 84.174C422.897 83.024 424.267 80.854 424.267 80.854C424.267 80.854 427.167 81.654 425.017 84.274C422.867 86.894 405.147 92.734 405.147 92.734Z" fill="url(#paint39_linear_1339_61688)"/>
<path d="M389.157 100.744C390.277 102.924 390.967 104.104 390.967 104.104L420.127 102.484C420.127 102.484 442.527 101.524 441.607 92.4043C436.227 93.7243 422.677 99.2543 410.337 99.9243C399.037 100.534 392.097 100.694 389.157 100.744Z" fill="#D1D3D4"/>
<path d="M406.017 161.984L397.317 160.804C397.317 160.804 395.127 194.844 394.317 207.884C393.507 220.924 397.777 240.084 399.047 245.614C400.317 251.154 396.627 257.384 396.167 259.114C395.747 260.694 397.857 264.994 401.877 268.414C401.237 261.124 401.847 253.534 402.277 248.354C402.777 242.354 398.277 220.604 399.527 207.604C400.607 196.294 404.917 168.904 406.017 161.984Z" fill="#1AA8D0"/>
<path d="M419.127 86.7943C422.587 85.6443 426.207 83.4843 426.207 83.4843C426.207 83.4843 431.527 83.4043 434.607 83.8643C437.687 84.3243 442.377 87.1743 442.067 92.9443C441.757 98.7143 440.517 106.104 438.587 114.184C436.667 122.264 436.737 128.104 438.207 136.184C439.667 144.264 444.747 161.954 444.357 163.884C443.977 165.804 439.587 172.654 429.507 176.194C419.427 179.734 402.657 180.574 395.887 172.814C389.117 165.044 397.877 138.284 398.267 125.204C398.647 112.124 393.887 106.654 399.427 99.8843C404.967 93.1143 411.197 89.0343 414.737 88.1143C418.277 87.1743 419.127 86.7943 419.127 86.7943Z" fill="url(#paint40_linear_1339_61688)"/>
<path d="M404.667 93.1739C406.287 91.0239 409.517 88.0939 412.517 87.7139C415.517 87.3339 421.307 86.1539 423.237 84.7339C425.447 83.1139 425.697 81.7339 425.697 81.7339L430.197 83.4039C430.197 83.4039 430.587 88.7739 424.277 90.6939C417.967 92.6139 410.857 92.5239 406.277 95.1939C401.957 97.7039 399.287 100.174 399.287 100.174L404.667 93.1739Z" fill="#D1D3D4"/>
<path d="M404.667 93.1739C406.287 91.0239 409.517 88.0939 412.517 87.7139C415.517 87.3339 421.307 86.1539 423.237 84.7339C425.447 83.1139 425.697 81.7339 425.697 81.7339L430.197 83.4039C430.197 83.4039 430.137 87.7939 423.827 89.7139C417.517 91.6339 409.287 92.1739 405.287 95.1739C401.287 98.1739 399.287 100.174 399.287 100.174L404.667 93.1739Z" fill="url(#paint41_linear_1339_61688)"/>
<path d="M429.737 83.2339C429.637 84.1239 428.877 87.6639 423.387 89.3439C417.077 91.2639 408.847 91.8039 404.847 94.8039C403.337 95.9339 402.117 96.9239 401.177 97.7139L399.277 100.184C399.277 100.184 401.277 98.1839 405.277 95.1839C409.277 92.1839 417.507 91.6439 423.817 89.7239C430.127 87.8039 430.187 83.4139 430.187 83.4139L429.737 83.2339Z" fill="url(#paint42_radial_1339_61688)"/>
<path d="M326.707 22.7642L325.397 25.6142C325.397 25.6142 329.317 32.0742 332.247 33.9242C335.167 35.7742 338.627 37.8442 339.627 36.3842C340.627 34.9242 341.707 30.9242 341.707 30.9242L326.707 22.7642Z" fill="url(#paint43_radial_1339_61688)"/>
<path d="M326.557 24.3043L328.177 24.3843C328.177 24.3843 333.097 30.0743 336.097 31.3043C339.097 32.5343 342.017 32.6843 343.327 30.6143C344.637 28.5343 346.557 15.8443 345.477 10.8443C344.397 5.84431 337.327 -3.61569 327.017 3.22431C316.707 10.0743 324.017 22.1543 324.397 22.5343C324.787 22.9243 326.557 24.3043 326.557 24.3043Z" fill="url(#paint44_radial_1339_61688)"/>
<path d="M324.397 22.7341C324.397 22.7341 322.897 19.3141 324.247 18.3041C324.447 18.1541 324.647 18.0641 324.847 17.9941C325.587 17.7641 326.397 18.0641 326.927 18.6441L328.357 20.1941C328.357 20.1941 328.607 18.5741 329.327 15.5341C329.787 13.5741 332.247 11.8441 337.327 12.3041C340.027 12.5541 343.407 13.9241 345.247 12.4541C347.097 10.9941 345.627 7.8341 344.707 6.3041C343.787 4.7641 335.087 -4.1759 325.937 2.3641C316.787 8.9041 321.937 20.3241 324.397 22.7341Z" fill="url(#paint45_linear_1339_61688)"/>
<path d="M411.777 104.614C407.457 98.1843 401.217 103.334 396.747 107.694C396.827 112.044 398.517 117.194 398.277 125.194C397.897 138.274 389.127 165.034 395.897 172.804C399.167 176.554 404.767 178.294 410.817 178.694C410.297 175.704 409.827 172.114 409.657 168.114C409.157 156.864 412.537 150.614 413.907 135.494C415.277 120.364 417.397 112.984 411.777 104.614Z" fill="#1AA8D0"/>
<path d="M428.697 66.894C427.297 68.054 424.867 69.434 420.777 70.194C416.517 70.994 412.317 70.324 409.307 69.524C409.417 69.994 409.417 70.444 409.277 70.784C408.817 71.934 409.127 72.244 409.127 72.244C409.127 72.244 410.667 71.624 411.357 72.864C412.047 74.094 411.127 76.714 410.667 77.714C410.207 78.714 413.667 81.794 416.517 82.024C419.367 82.254 423.207 81.944 424.437 80.484C425.627 79.064 429.937 74.364 428.697 66.894Z" fill="#D1D3D4"/>
<path d="M401.567 200.784V233.214L405.447 230.964V198.414L401.567 200.784Z" fill="url(#paint46_linear_1339_61688)"/>
<path d="M401.587 200.784V233.214L362.147 210.544V178.004L401.587 200.784Z" fill="url(#paint47_linear_1339_61688)"/>
<path d="M383.677 212.264V214.434C383.677 215.254 382.787 215.764 382.077 215.364L379.067 213.634C378.437 213.274 378.047 212.594 378.047 211.874V210.254C378.047 209.434 378.937 208.914 379.647 209.334L383.147 211.354C383.477 211.534 383.677 211.884 383.677 212.264Z" fill="url(#paint48_linear_1339_61688)"/>
<path d="M401.587 200.784V210.654C401.587 211.904 400.577 212.914 399.317 212.914H383.287C381.517 212.914 379.847 212.114 378.747 210.724L364.097 192.354C362.837 190.774 362.147 188.814 362.147 186.794V177.994L401.587 200.784Z" fill="url(#paint49_linear_1339_61688)"/>
<path d="M401.587 200.784V210.654C401.587 211.904 400.577 212.914 399.317 212.914H383.287C381.517 212.914 379.847 212.114 378.747 210.724L364.097 192.354C362.837 190.774 362.147 188.814 362.147 186.794V177.994L401.587 200.784Z" fill="url(#paint50_radial_1339_61688)"/>
<path d="M362.147 178.004L401.587 200.784L405.447 198.414L365.977 175.674L362.147 178.004Z" fill="url(#paint51_linear_1339_61688)"/>
<path d="M386.777 180.984L381.677 178.044C380.427 177.324 379.297 177.274 378.487 177.764L377.217 178.394L377.397 179.354C377.297 179.714 377.247 180.114 377.247 180.564V183.874L378.377 184.524L378.677 186.124L379.987 185.454V182.474C379.987 181.074 380.977 180.514 382.197 181.214L386.217 183.534C387.437 184.234 388.427 185.944 388.427 187.344V190.324L389.657 191.034L389.867 192.574L391.177 191.904V188.594C391.207 185.814 389.227 182.404 386.777 180.984Z" fill="url(#paint52_linear_1339_61688)"/>
<path d="M375.947 181.235V184.545L378.697 186.135V183.155C378.697 181.755 379.687 181.185 380.907 181.895L384.927 184.215C386.147 184.925 387.137 186.625 387.137 188.025V191.005L389.887 192.595V189.285C389.887 186.485 387.907 183.065 385.467 181.655L380.367 178.715C377.927 177.305 375.947 178.435 375.947 181.235Z" fill="url(#paint53_linear_1339_61688)"/>
<path d="M401.667 211.734L401.977 200.984L405.447 198.414L401.477 200.174L374.477 185.174L401.107 200.804L401.667 211.734Z" fill="url(#paint54_radial_1339_61688)"/>
<path d="M385.547 166.344C385.547 166.344 381.237 171.634 379.267 175.234C378.217 177.164 378.257 177.524 378.727 181.504C378.947 183.364 379.307 184.714 380.307 184.834C380.767 184.894 380.477 183.794 380.477 183.794C380.477 183.794 380.647 185.624 381.857 185.914C383.067 186.204 382.437 184.744 382.437 184.744C382.437 184.744 382.767 186.704 383.987 186.914C385.197 187.124 384.527 185.584 384.527 185.584C384.527 185.584 384.937 187.644 385.907 187.984C386.877 188.324 387.027 187.704 387.027 186.284C387.027 184.624 387.747 183.164 389.237 180.514C390.817 177.704 392.157 176.444 391.987 173.794C391.817 171.144 394.007 168.914 394.007 168.914L385.547 166.344Z" fill="url(#paint55_radial_1339_61688)"/>
<path d="M401.777 100.864C407.157 98.9843 412.427 102.314 413.737 107.934C415.047 113.554 412.277 134.864 410.117 140.784C407.967 146.704 394.577 173.244 394.577 173.244C394.577 173.244 389.887 172.624 386.957 171.324C384.037 170.014 382.647 167.324 382.647 167.324C382.647 167.324 391.877 144.474 393.647 139.164C395.417 133.854 394.777 120.384 395.337 114.394C396.027 107.114 396.577 102.674 401.777 100.864Z" fill="url(#paint56_linear_1339_61688)"/>
<path d="M368.427 96.4043C367.857 97.0743 368.187 98.5743 370.107 98.7343C372.027 98.9043 376.187 98.4443 377.777 98.4443C379.357 98.4443 387.067 95.4443 387.067 95.4443L368.427 96.4043Z" fill="#D1D3D4"/>
<path d="M377.867 92.9539C376.017 94.0139 373.147 94.6039 371.647 95.3639C370.137 96.1339 368.807 95.7039 368.427 96.4039C368.047 97.1039 368.307 98.9739 372.077 98.1339C375.847 97.3039 377.977 96.7439 380.227 96.8339C382.477 96.9239 386.827 96.8639 387.647 95.6439C388.467 94.4239 386.907 92.7739 386.907 92.7739L377.867 92.9539Z" fill="url(#paint57_radial_1339_61688)"/>
<path d="M365.207 103.674C364.827 102.964 368.597 103.104 369.727 103.534C370.857 103.964 374.797 105.544 375.737 106.154C376.387 106.574 377.287 107.264 374.857 107.404C370.207 107.674 366.587 106.274 365.207 103.674Z" fill="url(#paint58_radial_1339_61688)"/>
<defs>
<linearGradient id="paint0_linear_1339_61688" x1="601.515" y1="252.109" x2="119.371" y2="252.109" gradientUnits="userSpaceOnUse">
<stop stop-color="#2F054A"/>
<stop offset="1" stop-color="#5824B0"/>
</linearGradient>
<linearGradient id="paint1_linear_1339_61688" x1="538.126" y1="250.031" x2="55.9798" y2="250.031" gradientUnits="userSpaceOnUse">
<stop offset="0.0556" stop-color="#2F0D5E"/>
<stop offset="0.2777" stop-color="#2F105F"/>
<stop offset="0.4697" stop-color="#311B61"/>
<stop offset="0.482" stop-color="#351F65"/>
<stop offset="0.4954" stop-color="#422C73"/>
<stop offset="0.5093" stop-color="#584188"/>
<stop offset="0.5235" stop-color="#765FA7"/>
<stop offset="0.5303" stop-color="#8770B8"/>
<stop offset="0.5366" stop-color="#7E67AE"/>
<stop offset="0.5617" stop-color="#5C468D"/>
<stop offset="0.5857" stop-color="#442E75"/>
<stop offset="0.6078" stop-color="#362066"/>
<stop offset="0.6263" stop-color="#311B61"/>
<stop offset="0.6724" stop-color="#2A1155"/>
<stop offset="0.7491" stop-color="#230446"/>
<stop offset="0.8131" stop-color="#200041"/>
<stop offset="1" stop-color="#200041"/>
</linearGradient>
<linearGradient id="paint2_linear_1339_61688" x1="601.515" y1="239.638" x2="119.371" y2="239.638" gradientUnits="userSpaceOnUse">
<stop stop-color="#58098A"/>
<stop offset="1" stop-color="#9E3BDB"/>
</linearGradient>
<linearGradient id="paint3_linear_1339_61688" x1="23.0411" y1="303.963" x2="505.187" y2="303.963" gradientUnits="userSpaceOnUse">
<stop offset="0.0556" stop-color="#2F0D5E"/>
<stop offset="0.2777" stop-color="#2F105F"/>
<stop offset="0.4697" stop-color="#311B61"/>
<stop offset="0.482" stop-color="#351F65"/>
<stop offset="0.4954" stop-color="#422C73"/>
<stop offset="0.5093" stop-color="#584188"/>
<stop offset="0.5235" stop-color="#765FA7"/>
<stop offset="0.5303" stop-color="#8770B8"/>
<stop offset="0.5366" stop-color="#7E67AE"/>
<stop offset="0.5617" stop-color="#5C468D"/>
<stop offset="0.5857" stop-color="#442E75"/>
<stop offset="0.6078" stop-color="#362066"/>
<stop offset="0.6263" stop-color="#311B61"/>
<stop offset="0.6724" stop-color="#2A1155"/>
<stop offset="0.7491" stop-color="#230446"/>
<stop offset="0.8131" stop-color="#200041"/>
<stop offset="1" stop-color="#200041"/>
</linearGradient>
<radialGradient id="paint4_radial_1339_61688" cx="0" cy="0" r="1" gradientUnits="userSpaceOnUse" gradientTransform="translate(328.171 292.967) scale(183.259 183.259)">
<stop stop-color="white"/>
<stop offset="1"/>
</radialGradient>
<linearGradient id="paint5_linear_1339_61688" x1="596.698" y1="239.639" x2="124.188" y2="239.639" gradientUnits="userSpaceOnUse">
<stop stop-color="#2F054A"/>
<stop offset="1" stop-color="#5E1D9A"/>
</linearGradient>
<linearGradient id="paint6_linear_1339_61688" x1="384.49" y1="119.4" x2="300.805" y2="537.826" gradientUnits="userSpaceOnUse">
<stop offset="0.0101" stop-color="#9F19AB"/>
<stop offset="0.4293" stop-color="#5F27BD"/>
<stop offset="0.904" stop-color="#3D065F"/>
</linearGradient>
<linearGradient id="paint7_linear_1339_61688" x1="551.257" y1="233.219" x2="536.882" y2="228.239" gradientUnits="userSpaceOnUse">
<stop stop-color="#3D065F"/>
<stop offset="1" stop-color="#5F27BD"/>
</linearGradient>
<linearGradient id="paint8_linear_1339_61688" x1="551.257" y1="233.219" x2="536.882" y2="228.239" gradientUnits="userSpaceOnUse">
<stop stop-color="#2F054A"/>
<stop offset="1" stop-color="#5824B0"/>
</linearGradient>
<linearGradient id="paint9_linear_1339_61688" x1="538.743" y1="319.94" x2="548.849" y2="328.937" gradientUnits="userSpaceOnUse">
<stop offset="0.0556" stop-color="#9F79B8"/>
<stop offset="0.2575" stop-color="#A17BBA"/>
<stop offset="0.3569" stop-color="#A783BF"/>
<stop offset="0.4338" stop-color="#B290C9"/>
<stop offset="0.4949" stop-color="#C1A1D5"/>
<stop offset="0.5067" stop-color="#C4A5D7"/>
<stop offset="0.5196" stop-color="#CDB3DD"/>
<stop offset="0.5329" stop-color="#DBC8E7"/>
<stop offset="0.5466" stop-color="#EFE7F4"/>
<stop offset="0.5556" stop-color="white"/>
<stop offset="0.5678" stop-color="#ECE0F3"/>
<stop offset="0.5801" stop-color="#DDC8EA"/>
<stop offset="0.5915" stop-color="#D4B9E5"/>
<stop offset="0.601" stop-color="#D1B4E3"/>
<stop offset="0.658" stop-color="#B395D6"/>
<stop offset="0.7155" stop-color="#9C7DCB"/>
<stop offset="0.7687" stop-color="#8E6EC5"/>
<stop offset="0.8131" stop-color="#8969C3"/>
<stop offset="1" stop-color="#B086CC"/>
</linearGradient>
<linearGradient id="paint10_linear_1339_61688" x1="527.655" y1="246.843" x2="513.282" y2="241.864" gradientUnits="userSpaceOnUse">
<stop stop-color="#3D065F"/>
<stop offset="1" stop-color="#5F27BD"/>
</linearGradient>
<linearGradient id="paint11_linear_1339_61688" x1="527.655" y1="246.843" x2="513.282" y2="241.864" gradientUnits="userSpaceOnUse">
<stop stop-color="#2F054A"/>
<stop offset="1" stop-color="#5824B0"/>
</linearGradient>
<linearGradient id="paint12_linear_1339_61688" x1="514.737" y1="346.935" x2="524.847" y2="355.935" gradientUnits="userSpaceOnUse">
<stop offset="0.0556" stop-color="#9F79B8"/>
<stop offset="0.2575" stop-color="#A17BBA"/>
<stop offset="0.3569" stop-color="#A783BF"/>
<stop offset="0.4338" stop-color="#B290C9"/>
<stop offset="0.4949" stop-color="#C1A1D5"/>
<stop offset="0.5067" stop-color="#C4A5D7"/>
<stop offset="0.5196" stop-color="#CDB3DD"/>
<stop offset="0.5329" stop-color="#DBC8E7"/>
<stop offset="0.5466" stop-color="#EFE7F4"/>
<stop offset="0.5556" stop-color="white"/>
<stop offset="0.5678" stop-color="#ECE0F3"/>
<stop offset="0.5801" stop-color="#DDC8EA"/>
<stop offset="0.5915" stop-color="#D4B9E5"/>
<stop offset="0.601" stop-color="#D1B4E3"/>
<stop offset="0.658" stop-color="#B395D6"/>
<stop offset="0.7155" stop-color="#9C7DCB"/>
<stop offset="0.7687" stop-color="#8E6EC5"/>
<stop offset="0.8131" stop-color="#8969C3"/>
<stop offset="1" stop-color="#B086CC"/>
</linearGradient>
<radialGradient id="paint13_radial_1339_61688" cx="0" cy="0" r="1" gradientUnits="userSpaceOnUse" gradientTransform="translate(401.153 180.381) scale(13.3049 13.305)">
<stop offset="0.0303" stop-color="#FEDFCB"/>
<stop offset="0.7778" stop-color="#F9B69E"/>
<stop offset="0.9949" stop-color="#F2A78C"/>
</radialGradient>
<linearGradient id="paint14_linear_1339_61688" x1="426.292" y1="252.361" x2="426.292" y2="237.236" gradientUnits="userSpaceOnUse">
<stop offset="0.0909" stop-color="#25054D"/>
<stop offset="0.4708" stop-color="#330A68"/>
<stop offset="0.8939" stop-color="#45108A"/>
</linearGradient>
<linearGradient id="paint15_linear_1339_61688" x1="418.191" y1="208.822" x2="440.942" y2="208.822" gradientUnits="userSpaceOnUse">
<stop offset="0.0354" stop-color="#138BBD"/>
<stop offset="0.2257" stop-color="#169AC7"/>
<stop offset="0.5946" stop-color="#1FC3DF"/>
<stop offset="1" stop-color="#2AF6FF"/>
</linearGradient>
<radialGradient id="paint16_radial_1339_61688" cx="0" cy="0" r="1" gradientUnits="userSpaceOnUse" gradientTransform="translate(388.505 108.231) rotate(4.44485) scale(17.1224 17.1224)">
<stop offset="0.0303" stop-color="#FEDFCB"/>
<stop offset="0.7778" stop-color="#F9B69E"/>
<stop offset="0.9949" stop-color="#F2A78C"/>
</radialGradient>
<linearGradient id="paint17_linear_1339_61688" x1="333.633" y1="196.79" x2="363.885" y2="196.79" gradientUnits="userSpaceOnUse">
<stop offset="0.0909" stop-color="#25054D"/>
<stop offset="0.4708" stop-color="#330A68"/>
<stop offset="0.8939" stop-color="#45108A"/>
</linearGradient>
<linearGradient id="paint18_linear_1339_61688" x1="309.334" y1="212.131" x2="334.647" y2="212.131" gradientUnits="userSpaceOnUse">
<stop offset="0.0909" stop-color="#25054D"/>
<stop offset="0.4708" stop-color="#330A68"/>
<stop offset="0.8939" stop-color="#45108A"/>
</linearGradient>
<linearGradient id="paint19_linear_1339_61688" x1="333.049" y1="149.172" x2="352.905" y2="149.172" gradientUnits="userSpaceOnUse">
<stop offset="0.0354" stop-color="#6B24D6"/>
<stop offset="0.2945" stop-color="#7733DC"/>
<stop offset="0.7943" stop-color="#975CED"/>
<stop offset="1" stop-color="#A56EF4"/>
</linearGradient>
<linearGradient id="paint20_linear_1339_61688" x1="308.129" y1="156.218" x2="335.772" y2="156.218" gradientUnits="userSpaceOnUse">
<stop offset="0.0354" stop-color="#6B24D6"/>
<stop offset="0.2945" stop-color="#7733DC"/>
<stop offset="0.7943" stop-color="#975CED"/>
<stop offset="1" stop-color="#A56EF4"/>
</linearGradient>
<linearGradient id="paint21_linear_1339_61688" x1="332.29" y1="56.6762" x2="351.124" y2="42.8428" gradientUnits="userSpaceOnUse">
<stop offset="0.0354" stop-color="#9D9EB3"/>
<stop offset="0.5808" stop-color="#D4D1D8"/>
<stop offset="1" stop-color="#EEEBF2"/>
</linearGradient>
<linearGradient id="paint22_linear_1339_61688" x1="338.497" y1="61.6156" x2="349.831" y2="54.6155" gradientUnits="userSpaceOnUse">
<stop offset="0.0354" stop-color="#9F19AB"/>
<stop offset="0.2438" stop-color="#AE25B1"/>
<stop offset="0.6455" stop-color="#D744BF"/>
<stop offset="1" stop-color="#FF63CE"/>
</linearGradient>
<linearGradient id="paint23_linear_1339_61688" x1="338.803" y1="68.4657" x2="372.969" y2="69.4657" gradientUnits="userSpaceOnUse">
<stop offset="0.0354" stop-color="#6B24D6"/>
<stop offset="0.2945" stop-color="#7733DC"/>
<stop offset="0.7943" stop-color="#975CED"/>
<stop offset="1" stop-color="#A56EF4"/>
</linearGradient>
<linearGradient id="paint24_linear_1339_61688" x1="338.942" y1="50.8862" x2="351.18" y2="50.8862" gradientUnits="userSpaceOnUse">
<stop offset="0.0354" stop-color="#6B24D6"/>
<stop offset="0.2945" stop-color="#7733DC"/>
<stop offset="0.7943" stop-color="#975CED"/>
<stop offset="1" stop-color="#A56EF4"/>
</linearGradient>
<linearGradient id="paint25_linear_1339_61688" x1="320.06" y1="40.8107" x2="339.81" y2="30.3735" gradientUnits="userSpaceOnUse">
<stop offset="0.0354" stop-color="#9D9EB3"/>
<stop offset="0.5808" stop-color="#D4D1D8"/>
<stop offset="1" stop-color="#EEEBF2"/>
</linearGradient>
<linearGradient id="paint26_linear_1339_61688" x1="305.537" y1="76.4156" x2="353.35" y2="67.8292" gradientUnits="userSpaceOnUse">
<stop offset="0.0354" stop-color="#6B24D6"/>
<stop offset="0.2945" stop-color="#7733DC"/>
<stop offset="0.7943" stop-color="#975CED"/>
<stop offset="1" stop-color="#A56EF4"/>
</linearGradient>
<linearGradient id="paint27_linear_1339_61688" x1="315.363" y1="60.5044" x2="336.697" y2="51.5043" gradientUnits="userSpaceOnUse">
<stop offset="0.0354" stop-color="#6B24D6"/>
<stop offset="0.2945" stop-color="#7733DC"/>
<stop offset="0.7943" stop-color="#975CED"/>
<stop offset="1" stop-color="#A56EF4"/>
</linearGradient>
<radialGradient id="paint28_radial_1339_61688" cx="0" cy="0" r="1" gradientUnits="userSpaceOnUse" gradientTransform="translate(322.912 56.956) scale(17.5137 17.5137)">
<stop stop-color="white"/>
<stop offset="1"/>
</radialGradient>
<linearGradient id="paint29_linear_1339_61688" x1="309.086" y1="97.2501" x2="330.087" y2="95.2501" gradientUnits="userSpaceOnUse">
<stop offset="0.0354" stop-color="#6B24D6"/>
<stop offset="0.2945" stop-color="#7733DC"/>
<stop offset="0.7943" stop-color="#975CED"/>
<stop offset="1" stop-color="#A56EF4"/>
</linearGradient>
<linearGradient id="paint30_linear_1339_61688" x1="355.793" y1="94.6195" x2="362.578" y2="94.6195" gradientUnits="userSpaceOnUse">
<stop offset="0.0354" stop-color="#6B24D6"/>
<stop offset="0.2945" stop-color="#7733DC"/>
<stop offset="0.7943" stop-color="#975CED"/>
<stop offset="1" stop-color="#A56EF4"/>
</linearGradient>
<radialGradient id="paint31_radial_1339_61688" cx="0" cy="0" r="1" gradientUnits="userSpaceOnUse" gradientTransform="translate(377.731 92.2781) scale(20.6736 20.6736)">
<stop offset="0.0303" stop-color="#FEDFCB"/>
<stop offset="1" stop-color="#F9B69E"/>
</radialGradient>
<radialGradient id="paint32_radial_1339_61688" cx="0" cy="0" r="1" gradientUnits="userSpaceOnUse" gradientTransform="translate(383.273 83.0112) scale(32.1124 32.1124)">
<stop offset="0.0303" stop-color="#FEDFCB"/>
<stop offset="0.7778" stop-color="#F9B69E"/>
<stop offset="0.9949" stop-color="#F2A78C"/>
</radialGradient>
<linearGradient id="paint33_linear_1339_61688" x1="279.885" y1="72.6926" x2="352.682" y2="69.1425" gradientUnits="userSpaceOnUse">
<stop offset="0.0354" stop-color="#6B24D6"/>
<stop offset="0.2945" stop-color="#7733DC"/>
<stop offset="0.7943" stop-color="#975CED"/>
<stop offset="1" stop-color="#A56EF4"/>
</linearGradient>
<linearGradient id="paint34_linear_1339_61688" x1="398.487" y1="269.148" x2="404.486" y2="251.526" gradientUnits="userSpaceOnUse">
<stop offset="0.0909" stop-color="#25054D"/>
<stop offset="0.4708" stop-color="#330A68"/>
<stop offset="0.8939" stop-color="#45108A"/>
</linearGradient>
<linearGradient id="paint35_linear_1339_61688" x1="394.216" y1="215.77" x2="423.329" y2="215.77" gradientUnits="userSpaceOnUse">
<stop offset="0.0354" stop-color="#138BBD"/>
<stop offset="0.2257" stop-color="#169AC7"/>
<stop offset="0.5946" stop-color="#1FC3DF"/>
<stop offset="1" stop-color="#2AF6FF"/>
</linearGradient>
<radialGradient id="paint36_radial_1339_61688" cx="0" cy="0" r="1" gradientUnits="userSpaceOnUse" gradientTransform="translate(408.273 69.528) scale(20.2655 20.2655)">
<stop offset="0.0303" stop-color="#FEDFCB"/>
<stop offset="1" stop-color="#F9B69E"/>
</radialGradient>
<linearGradient id="paint37_linear_1339_61688" x1="424.889" y1="80.8093" x2="411.222" y2="56.6426" gradientUnits="userSpaceOnUse">
<stop offset="0.0354" stop-color="#602213"/>
<stop offset="0.571" stop-color="#6D310E"/>
<stop offset="1" stop-color="#7A4108"/>
</linearGradient>
<linearGradient id="paint38_linear_1339_61688" x1="387.768" y1="94.637" x2="441.638" y2="94.637" gradientUnits="userSpaceOnUse">
<stop offset="0.0354" stop-color="#138BBD"/>
<stop offset="0.2257" stop-color="#169AC7"/>
<stop offset="0.5946" stop-color="#1FC3DF"/>
<stop offset="1" stop-color="#2AF6FF"/>
</linearGradient>
<linearGradient id="paint39_linear_1339_61688" x1="418.348" y1="92.5372" x2="414.099" y2="84.9957" gradientUnits="userSpaceOnUse">
<stop offset="0.0354" stop-color="#9D9EB3"/>
<stop offset="0.5808" stop-color="#D4D1D8"/>
<stop offset="1" stop-color="#EEEBF2"/>
</linearGradient>
<linearGradient id="paint40_linear_1339_61688" x1="393.335" y1="131.135" x2="444.38" y2="131.135" gradientUnits="userSpaceOnUse">
<stop offset="0.0354" stop-color="#138BBD"/>
<stop offset="0.2257" stop-color="#169AC7"/>
<stop offset="0.5946" stop-color="#1FC3DF"/>
<stop offset="1" stop-color="#2AF6FF"/>
</linearGradient>
<linearGradient id="paint41_linear_1339_61688" x1="406.652" y1="112.88" x2="419.152" y2="80.7128" gradientUnits="userSpaceOnUse">
<stop offset="0.0354" stop-color="#138BBD"/>
<stop offset="0.2257" stop-color="#169AC7"/>
<stop offset="0.5946" stop-color="#1FC3DF"/>
<stop offset="1" stop-color="#2AF6FF"/>
</linearGradient>
<radialGradient id="paint42_radial_1339_61688" cx="0" cy="0" r="1" gradientUnits="userSpaceOnUse" gradientTransform="translate(416.109 93.7065) scale(12.4634 12.4634)">
<stop stop-color="white"/>
<stop offset="1"/>
</radialGradient>
<radialGradient id="paint43_radial_1339_61688" cx="0" cy="0" r="1" gradientUnits="userSpaceOnUse" gradientTransform="translate(347.461 16.6737) scale(22.6645 22.6645)">
<stop offset="0.0303" stop-color="#FEDFCB"/>
<stop offset="1" stop-color="#F9B69E"/>
</radialGradient>
<radialGradient id="paint44_radial_1339_61688" cx="0" cy="0" r="1" gradientUnits="userSpaceOnUse" gradientTransform="translate(343.46 16.8614) scale(24.1755 24.1755)">
<stop offset="0.0303" stop-color="#FEDFCB"/>
<stop offset="1" stop-color="#F9B69E"/>
</radialGradient>
<linearGradient id="paint45_linear_1339_61688" x1="320.715" y1="11.367" x2="346.138" y2="11.367" gradientUnits="userSpaceOnUse">
<stop offset="0.0354" stop-color="#602213"/>
<stop offset="0.571" stop-color="#6D310E"/>
<stop offset="1" stop-color="#7A4108"/>
</linearGradient>
<linearGradient id="paint46_linear_1339_61688" x1="399.784" y1="216.932" x2="424.963" y2="209.393" gradientUnits="userSpaceOnUse">
<stop offset="0.0909" stop-color="#25054D"/>
<stop offset="0.4708" stop-color="#330A68"/>
<stop offset="0.8939" stop-color="#45108A"/>
</linearGradient>
<linearGradient id="paint47_linear_1339_61688" x1="342.046" y1="214.535" x2="471.846" y2="185.438" gradientUnits="userSpaceOnUse">
<stop offset="0.0909" stop-color="#25054D"/>
<stop offset="0.4708" stop-color="#330A68"/>
<stop offset="0.8939" stop-color="#45108A"/>
</linearGradient>
<linearGradient id="paint48_linear_1339_61688" x1="372.346" y1="214.25" x2="389.86" y2="210.324" gradientUnits="userSpaceOnUse">
<stop offset="0.0354" stop-color="#FFA98C"/>
<stop offset="0.3169" stop-color="#FFB892"/>
<stop offset="0.8601" stop-color="#FEE1A3"/>
<stop offset="1" stop-color="#FEECA8"/>
</linearGradient>
<linearGradient id="paint49_linear_1339_61688" x1="326.356" y1="207.678" x2="440.251" y2="182.146" gradientUnits="userSpaceOnUse">
<stop offset="0.0909" stop-color="#25054D"/>
<stop offset="0.4708" stop-color="#330A68"/>
<stop offset="0.8939" stop-color="#45108A"/>
</linearGradient>
<radialGradient id="paint50_radial_1339_61688" cx="0" cy="0" r="1" gradientUnits="userSpaceOnUse" gradientTransform="translate(372.293 223.741) scale(22.8533 22.8533)">
<stop stop-color="white"/>
<stop offset="1"/>
</radialGradient>
<linearGradient id="paint51_linear_1339_61688" x1="389.206" y1="177.9" x2="383.017" y2="189.695" gradientUnits="userSpaceOnUse">
<stop offset="0.0909" stop-color="#25054D"/>
<stop offset="0.4708" stop-color="#330A68"/>
<stop offset="0.8939" stop-color="#45108A"/>
</linearGradient>
<linearGradient id="paint52_linear_1339_61688" x1="387.903" y1="192.091" x2="382.07" y2="181.258" gradientUnits="userSpaceOnUse">
<stop offset="0.0909" stop-color="#25054D"/>
<stop offset="0.4708" stop-color="#330A68"/>
<stop offset="0.8939" stop-color="#45108A"/>
</linearGradient>
<linearGradient id="paint53_linear_1339_61688" x1="360.41" y1="178.684" x2="402.931" y2="172.168" gradientUnits="userSpaceOnUse">
<stop offset="0.0909" stop-color="#25054D"/>
<stop offset="0.4708" stop-color="#330A68"/>
<stop offset="0.8939" stop-color="#45108A"/>
</linearGradient>
<radialGradient id="paint54_radial_1339_61688" cx="0" cy="0" r="1" gradientUnits="userSpaceOnUse" gradientTransform="translate(389.963 198.454) scale(14.4239 14.4239)">
<stop stop-color="white"/>
<stop offset="1"/>
</radialGradient>
<radialGradient id="paint55_radial_1339_61688" cx="0" cy="0" r="1" gradientUnits="userSpaceOnUse" gradientTransform="translate(380.589 172.073) rotate(6.44206) scale(14.1476 14.1476)">
<stop offset="0.0303" stop-color="#FEDFCB"/>
<stop offset="1" stop-color="#F9B69E"/>
</radialGradient>
<linearGradient id="paint56_linear_1339_61688" x1="382.649" y1="136.791" x2="414.066" y2="136.791" gradientUnits="userSpaceOnUse">
<stop offset="0.0354" stop-color="#138BBD"/>
<stop offset="0.2257" stop-color="#169AC7"/>
<stop offset="0.5946" stop-color="#1FC3DF"/>
<stop offset="1" stop-color="#2AF6FF"/>
</linearGradient>
<radialGradient id="paint57_radial_1339_61688" cx="0" cy="0" r="1" gradientUnits="userSpaceOnUse" gradientTransform="translate(368.083 84.8531) rotate(4.44485) scale(19.1943 19.1943)">
<stop offset="0.0303" stop-color="#FEDFCB"/>
<stop offset="1" stop-color="#F9B69E"/>
</radialGradient>
<radialGradient id="paint58_radial_1339_61688" cx="0" cy="0" r="1" gradientUnits="userSpaceOnUse" gradientTransform="translate(372.679 102.141) scale(9.28882 9.2888)">
<stop offset="0.0303" stop-color="#FEDFCB"/>
<stop offset="1" stop-color="#F9B69E"/>
</radialGradient>
</defs>
</svg>
