<svg width="420" height="340" viewBox="0 0 420 340" fill="none" xmlns="http://www.w3.org/2000/svg">
<path d="M420 274.354H0V339.015H420V274.354Z" fill="url(#paint0_radial_1335_61451)"/>
<path d="M21.2602 277.798C20.75 277.798 20.2527 277.785 19.7935 277.759C19.3344 277.734 18.888 277.696 18.4672 277.645C18.4672 277.645 18.4672 277.645 18.4544 277.645C18.0335 277.594 17.6509 277.53 17.2811 277.466C17.2811 277.466 17.2811 277.466 17.2683 277.466C16.8985 277.39 16.5669 277.313 16.248 277.224C16.248 277.224 16.248 277.224 16.2353 277.224C15.9292 277.134 15.6359 277.032 15.3808 276.918C15.1257 276.803 14.8962 276.688 14.6921 276.561C14.5008 276.433 14.335 276.306 14.2075 276.165C14.1947 276.152 14.182 276.14 14.182 276.127C14.0544 275.987 13.9397 275.846 13.8759 275.693L16.7072 281.573C16.7327 281.636 16.7709 281.7 16.8092 281.764C16.8475 281.828 16.8985 281.879 16.9367 281.943C16.9622 281.968 16.9877 281.994 17.0132 282.019C17.026 282.032 17.0388 282.045 17.0388 282.057C17.0515 282.07 17.077 282.096 17.0898 282.121C17.1536 282.172 17.2046 282.236 17.2811 282.287C17.3193 282.312 17.3576 282.351 17.3959 282.376C17.4341 282.402 17.4851 282.44 17.5234 282.465C17.5744 282.491 17.6127 282.529 17.6637 282.555C17.7147 282.58 17.7657 282.606 17.804 282.644C17.8422 282.67 17.8805 282.682 17.9188 282.708C17.957 282.733 17.9953 282.746 18.0463 282.772C18.0846 282.797 18.1356 282.81 18.1738 282.835C18.1738 282.835 18.1866 282.835 18.1866 282.848C18.2249 282.861 18.2631 282.886 18.3014 282.899C18.3396 282.912 18.3779 282.937 18.4289 282.95C18.4672 282.963 18.5182 282.988 18.5564 283.001C18.5947 283.014 18.6457 283.039 18.684 283.052C18.7222 283.065 18.7733 283.078 18.8243 283.103C18.8625 283.116 18.9135 283.129 18.9518 283.141C18.9773 283.154 19.0156 283.154 19.0411 283.167C19.0538 283.167 19.0666 283.18 19.0666 283.18C19.1048 283.192 19.1559 283.205 19.1941 283.218C19.2451 283.231 19.2834 283.243 19.3344 283.256C19.3727 283.269 19.4237 283.282 19.4619 283.294C19.5002 283.307 19.5512 283.32 19.5895 283.333C19.6277 283.345 19.6787 283.358 19.7298 283.371C19.7808 283.384 19.819 283.397 19.8701 283.397C19.9083 283.409 19.9593 283.422 19.9976 283.422C20.0103 283.422 20.0231 283.422 20.0359 283.435C20.0359 283.435 20.0358 283.435 20.0486 283.435C20.0741 283.435 20.1124 283.448 20.1379 283.448C20.1889 283.46 20.2272 283.46 20.2782 283.473C20.3292 283.486 20.3674 283.486 20.4185 283.499C20.4695 283.511 20.5077 283.511 20.5588 283.524C20.6098 283.537 20.648 283.537 20.699 283.55C20.75 283.562 20.8011 283.562 20.8393 283.575C20.8903 283.588 20.9414 283.588 20.9924 283.601C21.0434 283.613 21.0944 283.613 21.1454 283.626C21.1709 283.626 21.1837 283.626 21.2092 283.639C21.2347 283.639 21.2602 283.639 21.2857 283.652C21.3367 283.652 21.3877 283.664 21.4387 283.664C21.4897 283.664 21.5408 283.677 21.5918 283.677C21.6428 283.677 21.6938 283.69 21.7448 283.69C21.7958 283.69 21.8468 283.703 21.8979 283.703C21.9489 283.703 21.9999 283.715 22.0509 283.715C22.1019 283.715 22.1529 283.728 22.2167 283.728C22.2677 283.728 22.3315 283.741 22.3825 283.741C22.4208 283.741 22.4718 283.741 22.51 283.754H22.5228C22.5355 283.754 22.5356 283.754 22.5483 283.754C22.5993 283.754 22.6631 283.754 22.7141 283.766C22.7651 283.766 22.8289 283.766 22.8799 283.779C22.9437 283.779 22.9947 283.779 23.0584 283.792C23.1222 283.792 23.1732 283.792 23.237 283.792C23.3008 283.792 23.3518 283.792 23.4155 283.792C23.4793 283.792 23.5303 283.792 23.5941 283.792C23.6196 283.792 23.6578 283.792 23.6834 283.792C23.7089 283.792 23.7471 283.792 23.7726 283.792C23.7981 283.792 23.8364 283.792 23.8619 283.792C23.8874 283.792 23.9257 283.792 23.9512 283.792L21.2602 277.798Z" fill="url(#paint1_linear_1335_61451)"/>
<path d="M331.631 210.791C332.625 210.791 333.633 210.842 334.602 210.931C335.571 211.02 336.502 211.16 337.344 211.326C338.186 211.492 338.951 211.696 339.563 211.913C340.188 212.13 340.673 212.385 340.966 212.64L409.912 273.257C410.613 273.87 410.958 274.456 410.996 275.005C411.034 275.54 410.741 276.038 410.167 276.459C409.593 276.879 408.726 277.211 407.591 277.453C406.468 277.683 405.078 277.823 403.471 277.823H21.2602C19.6532 277.823 18.2758 277.696 17.1408 277.453C16.0185 277.224 15.1512 276.879 14.5645 276.459C13.9906 276.038 13.6973 275.553 13.7356 275.005C13.7738 274.469 14.1182 273.882 14.8196 273.257L83.7653 212.64C84.0587 212.385 84.5433 212.142 85.1682 211.913C85.7932 211.696 86.5456 211.492 87.3873 211.326C88.2291 211.16 89.1601 211.033 90.1293 210.931C91.0986 210.842 92.1062 210.791 93.1009 210.791H331.631Z" fill="url(#paint2_linear_1335_61451)"/>
<path d="M400.041 270.26L338.058 213.826C337.791 213.584 337.332 213.341 336.732 213.137C336.145 212.92 335.406 212.729 334.589 212.576C333.773 212.423 332.868 212.296 331.937 212.206C330.993 212.117 330.011 212.066 329.029 212.066H95.7027C94.7206 212.066 93.7386 212.117 92.7949 212.206C91.8511 212.296 90.9456 212.423 90.1421 212.576C89.3259 212.729 88.599 212.92 87.9996 213.137C87.4001 213.354 86.941 213.584 86.6732 213.826L24.6909 270.26C24.0787 270.822 23.7981 271.344 23.8109 271.829C23.8237 272.314 24.1425 272.76 24.7164 273.13C25.3031 273.5 26.1576 273.806 27.2416 274.023C28.3257 274.24 29.6521 274.354 31.1697 274.354H393.524C395.041 274.354 396.368 274.24 397.452 274.023C398.536 273.806 399.39 273.513 399.977 273.13C400.564 272.76 400.87 272.314 400.883 271.829C400.934 271.344 400.64 270.809 400.041 270.26Z" fill="url(#paint3_linear_1335_61451)"/>
<path d="M410.537 276.127C410.397 276.28 410.231 276.408 410.04 276.535C410.027 276.535 410.027 276.548 410.027 276.548C409.835 276.676 409.606 276.79 409.351 276.905C409.338 276.905 409.325 276.918 409.313 276.918C409.096 277.007 408.853 277.096 408.586 277.173C408.522 277.198 408.445 277.211 408.369 277.237C408.088 277.313 407.782 277.39 407.463 277.453C407.451 277.453 407.438 277.453 407.425 277.453C407.068 277.517 406.685 277.581 406.29 277.632C406.277 277.632 406.264 277.632 406.264 277.632C405.856 277.683 405.41 277.721 404.951 277.747H404.938C404.466 277.772 403.982 277.785 403.471 277.785L400.717 283.703C400.755 283.703 400.78 283.703 400.819 283.703C400.857 283.703 400.882 283.703 400.921 283.703C400.959 283.703 400.984 283.703 401.023 283.703C401.061 283.703 401.086 283.703 401.125 283.703C401.188 283.703 401.265 283.703 401.329 283.703C401.393 283.703 401.456 283.703 401.533 283.703C401.597 283.703 401.66 283.703 401.724 283.69C401.788 283.677 401.852 283.69 401.916 283.677C401.992 283.677 402.069 283.664 402.132 283.664C402.145 283.664 402.158 283.664 402.171 283.664H402.183C402.234 283.664 402.285 283.664 402.336 283.652C402.413 283.652 402.477 283.639 402.553 283.639C402.63 283.639 402.693 283.626 402.77 283.626C402.872 283.613 402.974 283.613 403.063 283.601C403.165 283.588 403.255 283.575 403.357 283.575C403.395 283.575 403.433 283.562 403.471 283.562H403.484H403.497C403.535 283.562 403.586 283.55 403.624 283.55C403.714 283.537 403.803 283.524 403.892 283.511C404.147 283.473 404.39 283.435 404.619 283.384C404.632 283.384 404.645 283.384 404.657 283.384C404.657 283.384 404.657 283.384 404.67 283.384C404.913 283.333 405.142 283.282 405.359 283.218C405.423 283.205 405.486 283.18 405.55 283.154C405.589 283.142 405.627 283.142 405.652 283.129C405.691 283.116 405.716 283.103 405.754 283.091C405.831 283.065 405.907 283.052 405.971 283.027C406.15 282.963 406.315 282.899 406.468 282.835C406.481 282.835 406.494 282.823 406.507 282.823H406.52C406.596 282.784 406.673 282.746 406.749 282.721C406.826 282.682 406.889 282.644 406.953 282.606C407.017 282.568 407.081 282.529 407.144 282.491C407.157 282.478 407.17 282.478 407.17 282.466C407.17 282.466 407.17 282.466 407.183 282.466C407.183 282.466 407.183 282.466 407.195 282.453C407.234 282.427 407.285 282.389 407.323 282.364C407.361 282.338 407.399 282.313 407.438 282.274C407.476 282.249 407.502 282.223 407.54 282.185C407.578 282.16 407.604 282.121 407.629 282.096C407.655 282.07 407.667 282.058 407.693 282.032C407.693 282.032 407.693 282.032 407.706 282.019C407.718 282.006 407.718 282.007 407.731 281.994C407.757 281.968 407.782 281.943 407.795 281.917C407.82 281.892 407.833 281.866 407.859 281.841C407.884 281.815 407.897 281.79 407.91 281.764C407.922 281.739 407.948 281.713 407.961 281.688C407.973 281.675 407.973 281.662 407.973 281.662C407.973 281.649 407.986 281.637 407.986 281.624C407.986 281.611 407.999 281.598 407.999 281.586C407.999 281.573 408.012 281.56 408.012 281.547C408.955 279.596 409.886 277.632 410.843 275.668C410.779 275.834 410.677 275.987 410.537 276.127Z" fill="url(#paint4_linear_1335_61451)"/>
<path d="M21.2602 277.797L24.0149 283.715H400.729L403.471 277.797H21.2602Z" fill="url(#paint5_linear_1335_61451)"/>
<path d="M124.232 228.583H98.4574C95.0394 228.583 92.2719 225.815 92.2719 222.397V144.83C92.2719 141.412 95.0394 138.645 98.4574 138.645H124.232C127.65 138.645 130.418 141.412 130.418 144.83V222.397C130.431 225.815 127.65 228.583 124.232 228.583Z" fill="url(#paint6_linear_1335_61451)"/>
<path d="M168.883 228.582H143.108C139.69 228.582 136.922 225.814 136.922 222.396V109.591C136.922 106.173 139.69 103.406 143.108 103.406H168.883C172.3 103.406 175.068 106.173 175.068 109.591V222.396C175.068 225.814 172.3 228.582 168.883 228.582Z" fill="url(#paint7_linear_1335_61451)"/>
<path d="M213.52 228.582H187.745C184.327 228.582 181.56 225.815 181.56 222.397V128.862C181.56 125.444 184.327 122.677 187.745 122.677H213.52C216.938 122.677 219.705 125.444 219.705 128.862V222.397C219.705 225.815 216.938 228.582 213.52 228.582Z" fill="url(#paint8_linear_1335_61451)"/>
<path d="M258.157 228.582H232.382C228.965 228.582 226.197 225.815 226.197 222.397V84.3139C226.197 80.8959 228.965 78.1284 232.382 78.1284H258.157C261.575 78.1284 264.343 80.8959 264.343 84.3139V222.397C264.343 225.815 261.575 228.582 258.157 228.582Z" fill="url(#paint9_linear_1335_61451)"/>
<path d="M251.372 34.9829H229.589C227.982 34.9829 226.682 36.2838 226.682 37.8907C226.682 39.4977 227.982 40.7985 229.589 40.7985H244.575L199.95 86.1884L157.137 67.6192C156.129 67.1856 154.943 67.3514 154.101 68.0656L109.464 105.829C108.239 106.862 108.086 108.698 109.119 109.923C109.693 110.599 110.51 110.956 111.338 110.956C112.002 110.956 112.665 110.726 113.213 110.267L156.473 73.6772L199.453 92.3229C200.562 92.8075 201.838 92.5524 202.679 91.698L248.452 45.1475V59.6993C248.452 61.3062 249.753 62.6071 251.36 62.6071C252.967 62.6071 254.268 61.3062 254.268 59.6993V37.9162C254.28 36.2838 252.979 34.9829 251.372 34.9829Z" fill="url(#paint10_linear_1335_61451)"/>
<path d="M348.567 73.4096C342.56 54.9425 328.889 40.2759 298.726 40.2759C268.564 40.2759 254.893 54.9425 248.886 73.4096C234.117 118.851 268.768 141.246 276.637 167.237H320.816C328.685 141.246 363.336 118.851 348.567 73.4096Z" fill="url(#paint11_linear_1335_61451)"/>
<path d="M318.635 180.603H278.818C275.668 180.603 273.105 178.052 273.105 174.889C273.105 171.739 275.655 169.176 278.818 169.176H318.635C321.785 169.176 324.348 171.726 324.348 174.889C324.336 178.052 321.785 180.603 318.635 180.603Z" fill="url(#paint12_linear_1335_61451)"/>
<path d="M318.635 194.824H278.818C275.668 194.824 273.105 192.273 273.105 189.11C273.105 185.96 275.655 183.396 278.818 183.396H318.635C321.785 183.396 324.348 185.947 324.348 189.11C324.336 192.273 321.785 194.824 318.635 194.824Z" fill="url(#paint13_linear_1335_61451)"/>
<path d="M299.823 203.763C296.431 203.763 293.676 201.009 293.676 197.616H305.958C305.971 201.021 303.216 203.763 299.823 203.763Z" fill="url(#paint14_linear_1335_61451)"/>
<path d="M313.393 125.827C313.393 125.814 313.393 125.814 313.393 125.801C313.393 125.776 313.38 125.75 313.38 125.712C313.368 125.686 313.368 125.661 313.355 125.635C313.342 125.61 313.329 125.597 313.317 125.572C313.304 125.546 313.291 125.533 313.265 125.508C313.253 125.495 313.227 125.482 313.202 125.47C313.176 125.457 313.151 125.444 313.125 125.431C313.112 125.431 313.112 125.419 313.112 125.419C313.087 125.419 313.074 125.419 313.049 125.419C313.023 125.419 313.01 125.406 312.985 125.406C312.972 125.406 312.959 125.406 312.947 125.406H312.934C311.404 125.457 310.74 127.587 310.052 129.831C309.503 131.63 308.878 133.683 307.909 133.683C306.953 133.683 306.328 131.642 305.766 129.831C305.065 127.548 304.415 125.393 302.833 125.393C301.264 125.393 300.601 127.548 299.913 129.831C299.364 131.63 298.739 133.683 297.783 133.683C296.826 133.683 296.201 131.642 295.653 129.831C294.951 127.548 294.301 125.393 292.732 125.393C291.164 125.393 290.5 127.548 289.812 129.831C289.263 131.63 288.638 133.683 287.682 133.683C286.725 133.683 286.1 131.642 285.552 129.831C284.863 127.574 284.213 125.444 282.683 125.406H282.67C282.657 125.406 282.644 125.406 282.631 125.406C282.606 125.406 282.593 125.419 282.568 125.419C282.542 125.419 282.529 125.419 282.504 125.419C282.491 125.419 282.491 125.431 282.491 125.431C282.466 125.444 282.44 125.457 282.415 125.47C282.389 125.482 282.376 125.495 282.351 125.508C282.325 125.521 282.313 125.546 282.3 125.572C282.287 125.597 282.274 125.61 282.262 125.635C282.249 125.661 282.249 125.686 282.236 125.712C282.223 125.737 282.223 125.763 282.223 125.801C282.223 125.814 282.223 125.814 282.223 125.827C282.223 125.852 282.236 125.865 282.236 125.89C282.236 125.916 282.236 125.929 282.236 125.954L289.901 151.168V165.962C289.901 166.192 290.092 166.37 290.309 166.37C290.539 166.37 290.717 166.179 290.717 165.962V151.104C290.717 151.066 290.717 151.028 290.705 150.989L283.282 126.605C283.881 127.268 284.34 128.747 284.749 130.099C285.45 132.382 286.1 134.537 287.669 134.537C289.238 134.537 289.901 132.382 290.59 130.099C291.138 128.301 291.763 126.248 292.72 126.248C293.676 126.248 294.301 128.288 294.849 130.099C295.551 132.382 296.201 134.537 297.77 134.537C299.339 134.537 300.002 132.382 300.691 130.099C301.239 128.301 301.864 126.248 302.82 126.248C303.777 126.248 304.402 128.288 304.963 130.099C305.664 132.382 306.315 134.537 307.896 134.537C309.478 134.537 310.128 132.382 310.83 130.099C311.238 128.747 311.697 127.268 312.296 126.605L304.874 150.989C304.861 151.028 304.861 151.066 304.861 151.104V165.962C304.861 166.192 305.052 166.37 305.269 166.37C305.499 166.37 305.677 166.179 305.677 165.962V151.168L313.342 125.954C313.342 125.929 313.342 125.916 313.342 125.89C313.38 125.865 313.393 125.852 313.393 125.827Z" fill="url(#paint15_linear_1335_61451)"/>
<path d="M314.248 31.2972C310.549 30.5703 308.789 26.3233 310.893 23.1987C312.296 21.1071 312.028 18.3141 310.256 16.5414L301.953 8.23879C300.168 6.4533 297.387 6.18547 295.296 7.60112C292.171 9.70545 287.911 7.94547 287.197 4.24694C286.713 1.77275 284.557 0 282.032 0H270.286C267.774 0 265.605 1.7855 265.121 4.24694C264.394 7.94547 260.147 9.70545 257.022 7.60112C254.931 6.19823 252.138 6.46605 250.365 8.23879L242.062 16.5414C240.277 18.3269 240.009 21.1071 241.425 23.1987C243.529 26.3233 241.769 30.583 238.071 31.2972C235.596 31.7819 233.824 33.9372 233.824 36.4624V48.2084C233.824 50.7209 235.609 52.889 238.071 53.3736C241.769 54.1006 243.529 58.3475 241.425 61.4721C240.022 63.5637 240.29 66.3567 242.062 68.1295L250.365 76.432C252.151 78.2175 254.931 78.4854 257.022 77.0697C260.147 74.9654 264.407 76.7254 265.121 80.4239C265.605 82.8981 267.761 84.6708 270.286 84.6708H282.032C284.545 84.6708 286.713 82.8853 287.197 80.4239C287.924 76.7254 292.171 74.9654 295.296 77.0697C297.387 78.4726 300.18 78.2048 301.953 76.432L310.256 68.1295C312.041 66.344 312.309 63.5637 310.893 61.4721C308.789 58.3475 310.549 54.0878 314.248 53.3736C316.722 52.889 318.494 50.7336 318.494 48.2084V36.4624C318.494 33.95 316.709 31.7819 314.248 31.2972ZM276.14 65.9996C263.068 65.9996 252.482 55.4014 252.482 42.3418C252.482 29.2694 263.08 18.684 276.14 18.684C289.212 18.684 299.798 29.2822 299.798 42.3418C299.798 55.4014 289.2 65.9996 276.14 65.9996Z" fill="url(#paint16_linear_1335_61451)"/>
<path d="M392.07 168.538C387.019 167.556 384.609 161.74 387.491 157.481C389.417 154.624 389.047 150.823 386.611 148.387L375.261 137.037C372.825 134.601 369.024 134.244 366.167 136.157C361.908 139.026 356.092 136.616 355.11 131.578C354.447 128.199 351.501 125.775 348.057 125.775H332.013C328.583 125.775 325.624 128.211 324.961 131.578C323.979 136.629 318.163 139.039 313.903 136.157C311.046 134.231 307.246 134.601 304.81 137.037L293.459 148.387C291.023 150.823 290.666 154.624 292.579 157.481C295.449 161.74 293.038 167.556 288.001 168.538C284.634 169.201 282.198 172.147 282.198 175.591V191.635C282.198 195.065 284.634 198.024 288.001 198.687C293.051 199.669 295.462 205.485 292.579 209.745C290.653 212.602 291.023 216.402 293.459 218.838L304.81 230.189C307.246 232.625 311.046 232.982 313.903 231.069C318.163 228.199 323.979 230.61 324.961 235.647C325.624 239.014 328.57 241.45 332.013 241.45H348.057C351.488 241.45 354.447 239.014 355.11 235.647C356.092 230.597 361.908 228.186 366.167 231.069C369.024 232.995 372.825 232.625 375.261 230.189L386.611 218.838C389.047 216.402 389.404 212.602 387.491 209.745C384.622 205.485 387.032 199.669 392.07 198.687C395.437 198.024 397.873 195.078 397.873 191.635V175.591C397.873 172.147 395.437 169.201 392.07 168.538ZM340.035 215.918C322.193 215.918 307.73 201.455 307.73 183.613C307.73 165.771 322.193 151.308 340.035 151.308C357.877 151.308 372.34 165.771 372.34 183.613C372.34 201.455 357.877 215.918 340.035 215.918Z" fill="url(#paint17_linear_1335_61451)"/>
<path d="M124.207 116.236C119.016 115.228 116.529 109.234 119.488 104.847C121.465 101.914 121.082 97.9854 118.583 95.4857L106.9 83.8035C104.401 81.3038 100.472 80.9212 97.5392 82.898C93.1519 85.8568 87.1705 83.3698 86.1502 78.1792C85.4743 74.7102 82.4262 72.1978 78.8935 72.1978H62.3776C58.8449 72.1978 55.7968 74.6974 55.1209 78.1792C54.1133 83.3698 48.1191 85.8568 43.7319 82.898C40.7986 80.9212 36.8705 81.3038 34.3708 83.8035L22.6886 95.4857C20.1889 97.9854 19.8063 101.914 21.7831 104.847C24.7419 109.234 22.255 115.215 17.0643 116.236C13.5953 116.912 11.0828 119.96 11.0828 123.493V140.008C11.0828 143.541 13.5825 146.589 17.0643 147.265C22.255 148.273 24.7419 154.267 21.7831 158.654C19.8063 161.587 20.1889 165.515 22.6886 168.015L34.3708 179.697C36.8705 182.197 40.7986 182.58 43.7319 180.603C48.1191 177.644 54.1006 180.131 55.1209 185.322C55.7968 188.791 58.8449 191.303 62.3776 191.303H78.8935C82.4262 191.303 85.4743 188.803 86.1502 185.322C87.1578 180.131 93.1519 177.644 97.5392 180.603C100.472 182.58 104.401 182.197 106.9 179.697L118.583 168.015C121.082 165.515 121.465 161.587 119.488 158.654C116.529 154.267 119.016 148.285 124.207 147.265C127.676 146.589 130.188 143.541 130.188 140.008V123.493C130.188 119.96 127.689 116.912 124.207 116.236ZM70.6547 165.005C52.2896 165.005 37.4062 150.122 37.4062 131.757C37.4062 113.392 52.2896 98.5083 70.6547 98.5083C89.0198 98.5083 103.903 113.392 103.903 131.757C103.903 150.122 89.0198 165.005 70.6547 165.005Z" fill="url(#paint18_linear_1335_61451)"/>
<path d="M264.343 242.037C280.902 242.037 294.327 228.612 294.327 212.053C294.327 195.493 280.902 182.069 264.343 182.069C247.783 182.069 234.359 195.493 234.359 212.053C234.359 228.612 247.783 242.037 264.343 242.037Z" fill="url(#paint19_linear_1335_61451)"/>
<path d="M267.263 214.858C267.582 215.139 267.748 215.496 267.748 215.93C267.748 216.363 267.595 216.746 267.276 217.052C266.957 217.371 266.498 217.588 265.861 217.728V214.119C266.473 214.335 266.932 214.59 267.263 214.858ZM289.863 212.053C289.863 226.145 278.436 237.56 264.356 237.56C250.263 237.56 238.849 226.132 238.849 212.053C238.849 197.96 250.276 186.545 264.356 186.545C278.436 186.545 289.863 197.96 289.863 212.053ZM271.957 215.623C271.957 214.476 271.663 213.545 271.09 212.843C270.516 212.142 269.801 211.606 268.96 211.249C268.118 210.892 267.085 210.573 265.861 210.293V205.842C267.225 205.995 268.552 206.454 269.865 207.206L271.179 203.992C269.789 203.1 268.016 202.577 265.873 202.398V199.541H263.259V202.449C261.269 202.679 259.752 203.304 258.693 204.349C257.635 205.382 257.112 206.632 257.112 208.073C257.112 209.247 257.405 210.178 257.979 210.879C258.553 211.581 259.267 212.116 260.121 212.486C260.976 212.856 262.022 213.188 263.259 213.481V217.843C262.315 217.753 261.397 217.549 260.517 217.218C259.624 216.886 258.846 216.478 258.183 215.993L256.742 219.182C257.456 219.743 258.4 220.215 259.56 220.597C260.734 220.98 261.958 221.21 263.246 221.273V224.117H265.861V221.184C267.825 220.942 269.342 220.304 270.388 219.284C271.434 218.276 271.957 217.052 271.957 215.623ZM261.308 207.857C261.308 208.29 261.473 208.647 261.805 208.928C262.137 209.208 262.621 209.438 263.246 209.629V205.918C262.583 206.071 262.098 206.326 261.779 206.658C261.473 207.002 261.308 207.397 261.308 207.857Z" fill="url(#paint20_linear_1335_61451)"/>
<path d="M236.897 229.207C244.358 235.992 234.474 245.047 210 245.047C185.513 245.047 175.642 235.992 183.103 229.207C187.898 224.845 199.338 222.307 210 222.307C220.662 222.307 232.102 224.845 236.897 229.207Z" fill="url(#paint21_linear_1335_61451)"/>
<path d="M212.717 230.138C213.023 230.24 213.201 230.355 213.214 230.508C213.239 230.661 213.099 230.801 212.819 230.916C212.525 231.03 212.079 231.12 211.479 231.171L211.403 229.883C211.964 229.959 212.41 230.048 212.717 230.138ZM232.893 229.207C238.083 234.755 229.003 241.501 210 241.501C190.997 241.501 181.917 234.755 187.107 229.207C190.678 225.393 200.524 223.072 210 223.072C219.476 223.072 229.322 225.393 232.893 229.207ZM217.168 230.406C217.053 230.01 216.708 229.691 216.122 229.462C215.548 229.232 214.872 229.066 214.107 228.952C213.341 228.837 212.423 228.748 211.339 228.658L211.263 227.37C212.398 227.408 213.52 227.536 214.655 227.753L215.535 226.873C214.362 226.643 212.921 226.503 211.199 226.465L211.161 225.763H209.146L209.12 226.477C207.526 226.541 206.289 226.694 205.383 226.962C204.452 227.243 203.929 227.587 203.815 227.995C203.725 228.34 203.904 228.62 204.35 228.837C204.809 229.054 205.421 229.232 206.161 229.347C206.914 229.462 207.857 229.577 208.98 229.679L208.916 231.222C208.01 231.184 207.13 231.107 206.289 230.992C205.46 230.865 204.746 230.724 204.146 230.546L202.45 231.732C203.1 231.949 204.006 232.14 205.141 232.293C206.301 232.446 207.539 232.548 208.852 232.574L208.801 233.811H211.594L211.518 232.548C213.507 232.446 214.999 232.191 215.956 231.783C216.925 231.375 217.308 230.916 217.168 230.406ZM207.424 227.931C207.411 228.059 207.539 228.161 207.819 228.25C208.1 228.327 208.508 228.403 209.056 228.467L209.095 227.396C208.546 227.434 208.125 227.511 207.857 227.6C207.577 227.689 207.437 227.791 207.424 227.931Z" fill="url(#paint22_linear_1335_61451)"/>
<path d="M180.667 233.671V233.862C180.667 233.798 180.68 233.735 180.68 233.671H180.667Z" fill="url(#paint23_linear_1335_61451)"/>
<path d="M210 245.047C190.87 245.047 180.654 239.524 180.667 233.862V237.675H180.692C181.113 243.197 191.278 248.503 210 248.503C228.722 248.503 238.9 243.197 239.308 237.675H239.32V237.548C239.333 237.395 239.333 237.242 239.32 237.101V234.104C239.053 239.665 228.863 245.047 210 245.047Z" fill="url(#paint24_linear_1335_61451)"/>
<path d="M176.713 237.012C184.174 243.797 174.29 252.852 149.816 252.852C125.342 252.852 115.458 243.797 122.919 237.012C127.714 232.65 139.154 230.112 149.816 230.112C160.478 230.112 171.918 232.65 176.713 237.012Z" fill="url(#paint25_linear_1335_61451)"/>
<path d="M152.533 237.943C152.839 238.045 153.017 238.16 153.03 238.313C153.055 238.466 152.915 238.607 152.635 238.721C152.341 238.836 151.895 238.925 151.295 238.976L151.219 237.688C151.78 237.765 152.226 237.854 152.533 237.943ZM172.709 237.012C177.899 242.56 168.819 249.307 149.816 249.307C130.813 249.307 121.733 242.56 126.923 237.012C130.494 233.199 140.34 230.878 149.816 230.878C159.292 230.878 169.138 233.199 172.709 237.012ZM156.984 238.211C156.869 237.816 156.524 237.497 155.938 237.267C155.364 237.038 154.688 236.872 153.923 236.757C153.157 236.643 152.239 236.553 151.155 236.464L151.079 235.176C152.214 235.214 153.336 235.342 154.471 235.559L155.351 234.679C154.178 234.449 152.737 234.309 151.015 234.27L150.977 233.569H148.962L148.936 234.283C147.342 234.347 146.105 234.5 145.199 234.768C144.268 235.048 143.745 235.393 143.631 235.801C143.541 236.145 143.72 236.426 144.166 236.643C144.625 236.859 145.238 237.038 145.977 237.153C146.73 237.267 147.673 237.382 148.796 237.484L148.732 239.027C147.826 238.989 146.946 238.913 146.105 238.798C145.276 238.67 144.562 238.53 143.962 238.352L142.266 239.538C142.916 239.754 143.822 239.946 144.957 240.099C146.117 240.252 147.355 240.354 148.668 240.379L148.617 241.616H151.41L151.334 240.354C153.323 240.252 154.815 239.997 155.772 239.589C156.741 239.181 157.124 238.721 156.984 238.211ZM147.24 235.737C147.227 235.865 147.355 235.967 147.635 236.056C147.916 236.132 148.324 236.209 148.872 236.273L148.911 235.201C148.362 235.24 147.941 235.316 147.673 235.405C147.393 235.495 147.253 235.609 147.24 235.737Z" fill="url(#paint26_linear_1335_61451)"/>
<path d="M120.483 241.476V241.667C120.483 241.604 120.496 241.54 120.496 241.476H120.483Z" fill="url(#paint27_linear_1335_61451)"/>
<path d="M149.816 252.852C130.686 252.852 120.47 247.33 120.483 241.667V245.481H120.508C120.929 251.003 131.094 256.309 149.816 256.309C168.538 256.309 178.716 251.003 179.124 245.481H179.136V245.353C179.149 245.2 179.149 245.047 179.136 244.907V241.91C178.869 247.47 168.679 252.852 149.816 252.852Z" fill="url(#paint28_linear_1335_61451)"/>
<path d="M231.949 221.733C239.41 228.518 229.526 237.573 205.052 237.573C180.578 237.573 170.694 228.518 178.154 221.733C182.95 217.371 194.39 214.833 205.052 214.833C215.714 214.833 227.141 217.371 231.949 221.733Z" fill="url(#paint29_linear_1335_61451)"/>
<path d="M207.768 222.665C208.074 222.767 208.253 222.881 208.266 223.034C208.291 223.187 208.151 223.328 207.87 223.443C207.577 223.557 207.13 223.647 206.531 223.698L206.455 222.41C207.016 222.486 207.449 222.563 207.768 222.665ZM227.932 221.734C233.122 227.281 224.042 234.028 205.039 234.028C186.036 234.028 176.956 227.281 182.146 221.734C185.717 217.92 195.563 215.599 205.039 215.599C214.515 215.599 224.373 217.92 227.932 221.734ZM212.206 222.932C212.092 222.537 211.747 222.218 211.161 221.989C210.587 221.759 209.911 221.593 209.146 221.478C208.38 221.364 207.462 221.274 206.378 221.185L206.301 219.897C207.437 219.935 208.559 220.063 209.694 220.28L210.574 219.4C209.401 219.17 207.959 219.03 206.238 218.992L206.199 218.29H204.184L204.159 219.004C202.565 219.068 201.328 219.221 200.422 219.489C199.491 219.77 198.968 220.114 198.853 220.522C198.764 220.866 198.943 221.147 199.389 221.364C199.848 221.581 200.46 221.759 201.2 221.874C201.953 221.989 202.896 222.103 204.019 222.205L203.955 223.749C203.049 223.71 202.169 223.634 201.328 223.519C200.499 223.392 199.784 223.251 199.185 223.073L197.489 224.259C198.139 224.476 199.045 224.667 200.18 224.82C201.34 224.973 202.577 225.075 203.891 225.1L203.84 226.338H206.633L206.557 225.075C208.546 224.973 210.038 224.718 210.995 224.31C211.964 223.902 212.347 223.443 212.206 222.932ZM202.463 220.458C202.45 220.586 202.577 220.688 202.858 220.777C203.139 220.854 203.547 220.93 204.095 220.994L204.133 219.923C203.585 219.961 203.164 220.037 202.896 220.127C202.628 220.216 202.475 220.318 202.463 220.458Z" fill="url(#paint30_linear_1335_61451)"/>
<path d="M175.706 226.197V226.389C175.706 226.325 175.718 226.261 175.718 226.197H175.706Z" fill="url(#paint31_linear_1335_61451)"/>
<path d="M205.052 237.574C185.921 237.574 175.706 232.051 175.718 226.389V230.202H175.744C176.165 235.724 186.329 241.03 205.052 241.03C223.774 241.03 233.951 235.724 234.359 230.202H234.372V230.074C234.385 229.921 234.385 229.768 234.372 229.628V226.631C234.104 232.192 223.914 237.574 205.052 237.574Z" fill="url(#paint32_linear_1335_61451)"/>
<path d="M231.949 214.132C239.41 220.917 229.526 229.972 205.052 229.972C180.578 229.972 170.694 220.917 178.154 214.132C182.95 209.77 194.39 207.232 205.052 207.232C215.714 207.232 227.141 209.77 231.949 214.132Z" fill="url(#paint33_linear_1335_61451)"/>
<path d="M207.768 215.076C208.074 215.178 208.253 215.293 208.266 215.446C208.291 215.599 208.151 215.739 207.87 215.854C207.577 215.969 207.13 216.058 206.531 216.109L206.455 214.821C207.016 214.897 207.449 214.974 207.768 215.076ZM227.932 214.132C233.122 219.68 224.042 226.426 205.039 226.426C186.036 226.426 176.956 219.68 182.146 214.132C185.717 210.319 195.563 207.998 205.039 207.998C214.515 207.998 224.373 210.319 227.932 214.132ZM212.206 215.331C212.092 214.935 211.747 214.617 211.161 214.387C210.587 214.158 209.911 213.992 209.146 213.877C208.38 213.762 207.462 213.673 206.378 213.584L206.301 212.296C207.437 212.334 208.559 212.461 209.694 212.678L210.574 211.798C209.401 211.569 207.959 211.428 206.238 211.39L206.199 210.689H204.184L204.159 211.403C202.565 211.467 201.328 211.62 200.422 211.887C199.491 212.168 198.968 212.512 198.853 212.92C198.764 213.265 198.943 213.545 199.389 213.762C199.848 213.979 200.46 214.158 201.2 214.272C201.953 214.387 202.896 214.502 204.019 214.604L203.955 216.147C203.049 216.109 202.169 216.032 201.328 215.918C200.499 215.79 199.784 215.65 199.185 215.471L197.489 216.657C198.139 216.874 199.045 217.065 200.18 217.218C201.34 217.371 202.577 217.473 203.891 217.499L203.84 218.736H206.633L206.557 217.473C208.546 217.371 210.038 217.116 210.995 216.708C211.964 216.313 212.347 215.854 212.206 215.331ZM202.463 212.857C202.45 212.984 202.577 213.086 202.858 213.175C203.139 213.252 203.547 213.329 204.095 213.392L204.133 212.321C203.585 212.359 203.164 212.436 202.896 212.525C202.628 212.614 202.475 212.729 202.463 212.857Z" fill="url(#paint34_linear_1335_61451)"/>
<path d="M175.706 218.608V218.8C175.706 218.736 175.718 218.672 175.718 218.608H175.706Z" fill="url(#paint35_linear_1335_61451)"/>
<path d="M205.052 229.972C185.921 229.972 175.706 224.45 175.718 218.787V222.6H175.744C176.165 228.123 186.329 233.428 205.052 233.428C223.774 233.428 233.951 228.135 234.359 222.6H234.372V222.473C234.385 222.32 234.385 222.167 234.372 222.026V219.029C234.104 224.59 223.914 229.972 205.052 229.972Z" fill="url(#paint36_linear_1335_61451)"/>
<path d="M233.811 204.592C241.271 211.377 231.387 220.432 206.913 220.432C182.439 220.432 172.555 211.377 180.016 204.592C184.812 200.23 196.251 197.692 206.913 197.692C217.575 197.692 229.015 200.23 233.811 204.592Z" fill="url(#paint37_linear_1335_61451)"/>
<path d="M209.63 205.536C209.936 205.638 210.115 205.753 210.128 205.906C210.153 206.059 210.013 206.199 209.732 206.314C209.439 206.428 208.992 206.518 208.393 206.569L208.317 205.281C208.89 205.357 209.324 205.434 209.63 205.536ZM229.806 204.592C234.997 210.14 225.916 216.886 206.914 216.886C187.911 216.886 178.83 210.14 184.021 204.592C187.592 200.779 197.438 198.458 206.914 198.458C216.39 198.47 226.235 200.779 229.806 204.592ZM214.081 205.804C213.966 205.408 213.622 205.089 213.035 204.86C212.461 204.63 211.785 204.464 211.02 204.35C210.255 204.235 209.337 204.146 208.253 204.056L208.176 202.768C209.311 202.806 210.434 202.934 211.569 203.151L212.449 202.271C211.275 202.041 209.834 201.901 208.112 201.863L208.074 201.161H206.059L206.034 201.875C204.439 201.939 203.202 202.092 202.297 202.36C201.366 202.641 200.843 202.985 200.728 203.393C200.639 203.737 200.817 204.018 201.264 204.235C201.723 204.452 202.335 204.63 203.075 204.745C203.827 204.86 204.771 204.975 205.893 205.077L205.83 206.62C204.924 206.582 204.044 206.505 203.202 206.39C202.373 206.263 201.659 206.122 201.06 205.944L199.364 207.13C200.014 207.347 200.919 207.538 202.055 207.691C203.215 207.844 204.452 207.946 205.766 207.972L205.715 209.209H208.508L208.431 207.946C210.421 207.844 211.913 207.589 212.87 207.181C213.839 206.773 214.221 206.314 214.081 205.804ZM204.337 203.317C204.325 203.444 204.452 203.546 204.733 203.635C205.013 203.712 205.421 203.788 205.97 203.852L206.008 202.781C205.46 202.819 205.039 202.896 204.771 202.985C204.49 203.074 204.35 203.189 204.337 203.317Z" fill="url(#paint38_linear_1335_61451)"/>
<path d="M177.58 209.068V209.26C177.58 209.196 177.593 209.132 177.593 209.068H177.58Z" fill="url(#paint39_linear_1335_61451)"/>
<path d="M206.914 220.432C187.783 220.432 177.568 214.91 177.58 209.247V213.06H177.606C178.027 218.583 188.191 223.888 206.914 223.888C225.636 223.888 235.813 218.583 236.221 213.06H236.234V212.933C236.247 212.78 236.247 212.627 236.234 212.486V209.489C235.966 215.05 225.789 220.432 206.914 220.432Z" fill="url(#paint40_linear_1335_61451)"/>
<path d="M236.897 195.946C244.358 202.73 234.474 211.785 210 211.785C185.513 211.785 175.642 202.73 183.103 195.946C187.898 191.584 199.338 189.046 210 189.046C220.662 189.046 232.102 191.584 236.897 195.946Z" fill="url(#paint41_linear_1335_61451)"/>
<path d="M212.717 196.876C213.023 196.979 213.201 197.093 213.214 197.246C213.239 197.399 213.099 197.54 212.819 197.654C212.525 197.769 212.079 197.859 211.479 197.91L211.403 196.621C211.964 196.698 212.41 196.774 212.717 196.876ZM232.893 195.945C238.083 201.481 229.003 208.24 210 208.24C190.997 208.24 181.917 201.493 187.107 195.945C190.678 192.132 200.524 189.811 210 189.811C219.476 189.811 229.322 192.132 232.893 195.945ZM217.168 197.144C217.053 196.749 216.708 196.43 216.122 196.201C215.548 195.971 214.872 195.805 214.107 195.69C213.341 195.576 212.423 195.486 211.339 195.397L211.263 194.109C212.398 194.147 213.52 194.275 214.655 194.492L215.535 193.612C214.362 193.382 212.921 193.242 211.199 193.203L211.161 192.502H209.146L209.12 193.216C207.526 193.28 206.289 193.433 205.383 193.701C204.452 193.981 203.929 194.326 203.815 194.734C203.725 195.078 203.904 195.359 204.35 195.576C204.809 195.792 205.421 195.971 206.161 196.086C206.914 196.201 207.857 196.315 208.98 196.417L208.916 197.961C208.01 197.922 207.13 197.846 206.289 197.731C205.46 197.603 204.746 197.463 204.146 197.285L202.45 198.471C203.1 198.687 204.006 198.879 205.141 199.032C206.301 199.185 207.539 199.287 208.852 199.312L208.801 200.55H211.594L211.518 199.287C213.507 199.185 214.999 198.93 215.956 198.522C216.925 198.114 217.308 197.654 217.168 197.144ZM207.424 194.67C207.411 194.798 207.539 194.9 207.819 194.989C208.1 195.065 208.508 195.142 209.056 195.206L209.095 194.134C208.546 194.173 208.125 194.249 207.857 194.339C207.577 194.428 207.437 194.53 207.424 194.67Z" fill="url(#paint42_linear_1335_61451)"/>
<path d="M180.667 200.409V200.6C180.667 200.537 180.68 200.473 180.68 200.409H180.667Z" fill="url(#paint43_linear_1335_61451)"/>
<path d="M210 211.773C190.87 211.773 180.654 206.25 180.667 200.588V204.401H180.692C181.113 209.924 191.278 215.229 210 215.229C228.722 215.229 238.9 209.924 239.308 204.401H239.32V204.274C239.333 204.121 239.333 203.968 239.32 203.827V200.83C239.053 206.404 228.863 211.773 210 211.773Z" fill="url(#paint44_linear_1335_61451)"/>
<path d="M310.957 235.469C318.418 242.254 308.534 251.309 284.06 251.309C259.586 251.309 249.702 242.254 257.162 235.469C261.958 231.107 273.398 228.569 284.06 228.569C294.722 228.569 306.162 231.107 310.957 235.469Z" fill="url(#paint45_linear_1335_61451)"/>
<path d="M286.776 236.413C287.083 236.515 287.261 236.63 287.274 236.783C287.299 236.936 287.159 237.076 286.878 237.191C286.585 237.305 286.139 237.395 285.539 237.446L285.463 236.158C286.024 236.234 286.458 236.311 286.776 236.413ZM306.953 235.469C312.143 241.017 303.063 247.763 284.06 247.763C265.057 247.763 255.977 241.017 261.167 235.469C264.738 231.656 274.584 229.334 284.06 229.334C293.523 229.347 303.382 231.656 306.953 235.469ZM291.215 236.668C291.1 236.272 290.756 235.954 290.169 235.724C289.595 235.494 288.919 235.329 288.154 235.214C287.389 235.099 286.47 235.01 285.386 234.921L285.31 233.632C286.445 233.671 287.567 233.798 288.702 234.015L289.582 233.135C288.409 232.905 286.968 232.765 285.246 232.727L285.208 232.025H283.193L283.167 232.74C281.573 232.803 280.336 232.956 279.43 233.224C278.499 233.505 277.976 233.849 277.862 234.257C277.772 234.602 277.951 234.882 278.397 235.099C278.856 235.316 279.469 235.494 280.208 235.609C280.961 235.724 281.905 235.839 283.027 235.941L282.963 237.484C282.058 237.446 281.178 237.369 280.336 237.254C279.507 237.127 278.793 236.987 278.193 236.808L276.497 237.994C277.147 238.211 278.053 238.402 279.188 238.555C280.349 238.708 281.586 238.81 282.899 238.836L282.848 240.073H285.641L285.565 238.81C287.554 238.708 289.047 238.453 290.003 238.045C290.985 237.65 291.368 237.191 291.215 236.668ZM281.471 234.194C281.458 234.321 281.586 234.423 281.866 234.512C282.147 234.589 282.555 234.665 283.103 234.729L283.142 233.658C282.593 233.696 282.172 233.773 281.905 233.862C281.637 233.951 281.484 234.066 281.471 234.194Z" fill="url(#paint46_linear_1335_61451)"/>
<path d="M254.714 239.945V240.137C254.714 240.073 254.727 240.009 254.727 239.945H254.714Z" fill="url(#paint47_linear_1335_61451)"/>
<path d="M284.06 251.309C264.93 251.309 254.714 245.787 254.727 240.124V243.937H254.752C255.173 249.46 265.338 254.765 284.06 254.765C302.782 254.765 312.959 249.46 313.368 243.937H313.38V243.81C313.393 243.657 313.393 243.504 313.38 243.363V240.366C313.112 245.927 302.922 251.309 284.06 251.309Z" fill="url(#paint48_linear_1335_61451)"/>
<defs>
<radialGradient id="paint0_radial_1335_61451" cx="0" cy="0" r="1" gradientUnits="userSpaceOnUse" gradientTransform="translate(209.999 272.952) scale(196.509 51.0876)">
<stop stop-color="#462FA7"/>
<stop offset="0.1026" stop-color="#503BAC" stop-opacity="0.8974"/>
<stop offset="0.2869" stop-color="#6C5AB9" stop-opacity="0.7131"/>
<stop offset="0.5318" stop-color="#998DCF" stop-opacity="0.4682"/>
<stop offset="0.8245" stop-color="#D7D2EC" stop-opacity="0.1755"/>
<stop offset="1" stop-color="white" stop-opacity="0"/>
</radialGradient>
<linearGradient id="paint1_linear_1335_61451" x1="13.8779" y1="279.697" x2="24.0138" y2="279.697" gradientUnits="userSpaceOnUse">
<stop stop-color="#296D97"/>
<stop offset="0.2539" stop-color="#4481AC"/>
<stop offset="0.7964" stop-color="#89B5E3"/>
<stop offset="1" stop-color="#A4C9F9"/>
</linearGradient>
<linearGradient id="paint2_linear_1335_61451" x1="212.368" y1="277.803" x2="212.368" y2="210.794" gradientUnits="userSpaceOnUse">
<stop stop-color="#005BE4"/>
<stop offset="1" stop-color="#83B7FF"/>
</linearGradient>
<linearGradient id="paint3_linear_1335_61451" x1="220.967" y1="316.3" x2="194.276" y2="178.135" gradientUnits="userSpaceOnUse">
<stop stop-color="white" stop-opacity="0"/>
<stop offset="0.386" stop-color="white" stop-opacity="0.6"/>
<stop offset="0.6354" stop-color="white" stop-opacity="0"/>
<stop offset="1" stop-color="white" stop-opacity="0.6"/>
</linearGradient>
<linearGradient id="paint4_linear_1335_61451" x1="400.723" y1="279.698" x2="410.859" y2="279.698" gradientUnits="userSpaceOnUse">
<stop stop-color="#296D97"/>
<stop offset="0.2539" stop-color="#4481AC"/>
<stop offset="0.7964" stop-color="#89B5E3"/>
<stop offset="1" stop-color="#A4C9F9"/>
</linearGradient>
<linearGradient id="paint5_linear_1335_61451" x1="21.2597" y1="280.762" x2="403.477" y2="280.762" gradientUnits="userSpaceOnUse">
<stop stop-color="#296D97"/>
<stop offset="0.2539" stop-color="#4481AC"/>
<stop offset="0.7964" stop-color="#89B5E3"/>
<stop offset="1" stop-color="#A4C9F9"/>
</linearGradient>
<linearGradient id="paint6_linear_1335_61451" x1="111.351" y1="211.977" x2="111.351" y2="138.809" gradientUnits="userSpaceOnUse">
<stop stop-color="white" stop-opacity="0.5"/>
<stop offset="0.9606" stop-color="#44EBFF" stop-opacity="0.8843"/>
<stop offset="1" stop-color="#3CEAFF" stop-opacity="0.9"/>
</linearGradient>
<linearGradient id="paint7_linear_1335_61451" x1="155.991" y1="205.47" x2="155.991" y2="103.638" gradientUnits="userSpaceOnUse">
<stop stop-color="white" stop-opacity="0.5"/>
<stop offset="0.9606" stop-color="#44EBFF" stop-opacity="0.8843"/>
<stop offset="1" stop-color="#3CEAFF" stop-opacity="0.9"/>
</linearGradient>
<linearGradient id="paint8_linear_1335_61451" x1="200.63" y1="209.027" x2="200.63" y2="122.863" gradientUnits="userSpaceOnUse">
<stop stop-color="white" stop-opacity="0.5"/>
<stop offset="0.9606" stop-color="#44EBFF" stop-opacity="0.8843"/>
<stop offset="1" stop-color="#3CEAFF" stop-opacity="0.9"/>
</linearGradient>
<linearGradient id="paint9_linear_1335_61451" x1="245.27" y1="200.804" x2="245.27" y2="78.407" gradientUnits="userSpaceOnUse">
<stop stop-color="white" stop-opacity="0.5"/>
<stop offset="0.9606" stop-color="#44EBFF" stop-opacity="0.8843"/>
<stop offset="1" stop-color="#3CEAFF" stop-opacity="0.9"/>
</linearGradient>
<linearGradient id="paint10_linear_1335_61451" x1="181.361" y1="110.94" x2="181.361" y2="34.9858" gradientUnits="userSpaceOnUse">
<stop stop-color="white" stop-opacity="0.5"/>
<stop offset="0.9606" stop-color="#44EBFF" stop-opacity="0.8843"/>
<stop offset="1" stop-color="#3CEAFF" stop-opacity="0.9"/>
</linearGradient>
<linearGradient id="paint11_linear_1335_61451" x1="298.72" y1="167.231" x2="298.72" y2="40.2806" gradientUnits="userSpaceOnUse">
<stop stop-color="#FFC79C" stop-opacity="0.5"/>
<stop offset="0.2737" stop-color="#FFCE9A" stop-opacity="0.6095"/>
<stop offset="0.6601" stop-color="#FFE095" stop-opacity="0.764"/>
<stop offset="1" stop-color="#FFF68E" stop-opacity="0.9"/>
</linearGradient>
<linearGradient id="paint12_linear_1335_61451" x1="298.72" y1="180.603" x2="298.72" y2="169.183" gradientUnits="userSpaceOnUse">
<stop stop-color="#FFC79C" stop-opacity="0.5"/>
<stop offset="0.2737" stop-color="#FFCE9A" stop-opacity="0.6095"/>
<stop offset="0.6601" stop-color="#FFE095" stop-opacity="0.764"/>
<stop offset="1" stop-color="#FFF68E" stop-opacity="0.9"/>
</linearGradient>
<linearGradient id="paint13_linear_1335_61451" x1="298.72" y1="194.824" x2="298.72" y2="183.404" gradientUnits="userSpaceOnUse">
<stop stop-color="#FFC79C" stop-opacity="0.5"/>
<stop offset="0.2737" stop-color="#FFCE9A" stop-opacity="0.6095"/>
<stop offset="0.6601" stop-color="#FFE095" stop-opacity="0.764"/>
<stop offset="1" stop-color="#FFF68E" stop-opacity="0.9"/>
</linearGradient>
<linearGradient id="paint14_linear_1335_61451" x1="299.825" y1="203.768" x2="299.825" y2="197.624" gradientUnits="userSpaceOnUse">
<stop stop-color="#FFC79C" stop-opacity="0.5"/>
<stop offset="0.2737" stop-color="#FFCE9A" stop-opacity="0.6095"/>
<stop offset="0.6601" stop-color="#FFE095" stop-opacity="0.764"/>
<stop offset="1" stop-color="#FFF68E" stop-opacity="0.9"/>
</linearGradient>
<linearGradient id="paint15_linear_1335_61451" x1="297.793" y1="166.383" x2="297.793" y2="125.414" gradientUnits="userSpaceOnUse">
<stop stop-color="#FFC79C" stop-opacity="0.5"/>
<stop offset="0.2737" stop-color="#FFCE9A" stop-opacity="0.6095"/>
<stop offset="0.6601" stop-color="#FFE095" stop-opacity="0.764"/>
<stop offset="1" stop-color="#FFF68E" stop-opacity="0.9"/>
</linearGradient>
<linearGradient id="paint16_linear_1335_61451" x1="233.782" y1="42.3403" x2="318.494" y2="42.3403" gradientUnits="userSpaceOnUse">
<stop stop-color="#4CC4FF" stop-opacity="0.2"/>
<stop offset="1" stop-color="#4CC4FF" stop-opacity="0.9"/>
</linearGradient>
<linearGradient id="paint17_linear_1335_61451" x1="282.195" y1="183.61" x2="397.875" y2="183.61" gradientUnits="userSpaceOnUse">
<stop stop-color="#4CC4FF" stop-opacity="0.2"/>
<stop offset="1" stop-color="#4CC4FF" stop-opacity="0.9"/>
</linearGradient>
<linearGradient id="paint18_linear_1335_61451" x1="130.675" y1="191.769" x2="36.3915" y2="97.4861" gradientUnits="userSpaceOnUse">
<stop stop-color="#4CC4FF" stop-opacity="0.2"/>
<stop offset="1" stop-color="#4CC4FF" stop-opacity="0.9"/>
</linearGradient>
<linearGradient id="paint19_linear_1335_61451" x1="294.569" y1="242.278" x2="247.089" y2="194.798" gradientUnits="userSpaceOnUse">
<stop stop-color="#FFF7BE" stop-opacity="0.5"/>
<stop offset="0.1809" stop-color="#FFF4B7" stop-opacity="0.5724"/>
<stop offset="0.4369" stop-color="#FFEAA5" stop-opacity="0.6748"/>
<stop offset="0.7362" stop-color="#FFDB87" stop-opacity="0.7945"/>
<stop offset="1" stop-color="#FFCA66" stop-opacity="0.9"/>
</linearGradient>
<linearGradient id="paint20_linear_1335_61451" x1="290.066" y1="237.774" x2="249.66" y2="197.369" gradientUnits="userSpaceOnUse">
<stop stop-color="#F15EA0" stop-opacity="0.5"/>
<stop offset="0.2561" stop-color="#EC5AA7" stop-opacity="0.6024"/>
<stop offset="0.6184" stop-color="#DF50B9" stop-opacity="0.7473"/>
<stop offset="1" stop-color="#CC42D4" stop-opacity="0.9"/>
</linearGradient>
<linearGradient id="paint21_linear_1335_61451" x1="232.51" y1="256.372" x2="197.147" y2="221.01" gradientUnits="userSpaceOnUse">
<stop stop-color="#FFF7BE" stop-opacity="0.5"/>
<stop offset="0.1809" stop-color="#FFF4B7" stop-opacity="0.5724"/>
<stop offset="0.4369" stop-color="#FFEAA5" stop-opacity="0.6748"/>
<stop offset="0.7362" stop-color="#FFDB87" stop-opacity="0.7945"/>
<stop offset="1" stop-color="#FFCA66" stop-opacity="0.9"/>
</linearGradient>
<linearGradient id="paint22_linear_1335_61451" x1="228.594" y1="250.985" x2="199.382" y2="221.773" gradientUnits="userSpaceOnUse">
<stop stop-color="#F15EA0" stop-opacity="0.5"/>
<stop offset="0.2561" stop-color="#EC5AA7" stop-opacity="0.6024"/>
<stop offset="0.6184" stop-color="#DF50B9" stop-opacity="0.7473"/>
<stop offset="1" stop-color="#CC42D4" stop-opacity="0.9"/>
</linearGradient>
<linearGradient id="paint23_linear_1335_61451" x1="180.734" y1="233.831" x2="180.629" y2="233.725" gradientUnits="userSpaceOnUse">
<stop stop-color="#FFCA66" stop-opacity="0.9"/>
<stop offset="0.2638" stop-color="#FFDB87" stop-opacity="0.7945"/>
<stop offset="0.5631" stop-color="#FFEAA5" stop-opacity="0.6748"/>
<stop offset="0.8191" stop-color="#FFF4B7" stop-opacity="0.5724"/>
<stop offset="1" stop-color="#FFF7BE" stop-opacity="0.5"/>
</linearGradient>
<linearGradient id="paint24_linear_1335_61451" x1="232.877" y1="259.703" x2="196.842" y2="223.668" gradientUnits="userSpaceOnUse">
<stop stop-color="#FFCA66" stop-opacity="0.9"/>
<stop offset="0.2638" stop-color="#FFDB87" stop-opacity="0.7945"/>
<stop offset="0.5631" stop-color="#FFEAA5" stop-opacity="0.6748"/>
<stop offset="0.8191" stop-color="#FFF4B7" stop-opacity="0.5724"/>
<stop offset="1" stop-color="#FFF7BE" stop-opacity="0.5"/>
</linearGradient>
<linearGradient id="paint25_linear_1335_61451" x1="172.326" y1="264.179" x2="136.964" y2="228.817" gradientUnits="userSpaceOnUse">
<stop stop-color="#FFF7BE" stop-opacity="0.5"/>
<stop offset="0.1809" stop-color="#FFF4B7" stop-opacity="0.5724"/>
<stop offset="0.4369" stop-color="#FFEAA5" stop-opacity="0.6748"/>
<stop offset="0.7362" stop-color="#FFDB87" stop-opacity="0.7945"/>
<stop offset="1" stop-color="#FFCA66" stop-opacity="0.9"/>
</linearGradient>
<linearGradient id="paint26_linear_1335_61451" x1="168.411" y1="258.793" x2="139.199" y2="229.581" gradientUnits="userSpaceOnUse">
<stop stop-color="#F15EA0" stop-opacity="0.5"/>
<stop offset="0.2561" stop-color="#EC5AA7" stop-opacity="0.6024"/>
<stop offset="0.6184" stop-color="#DF50B9" stop-opacity="0.7473"/>
<stop offset="1" stop-color="#CC42D4" stop-opacity="0.9"/>
</linearGradient>
<linearGradient id="paint27_linear_1335_61451" x1="120.551" y1="241.638" x2="120.445" y2="241.532" gradientUnits="userSpaceOnUse">
<stop stop-color="#FFCA66" stop-opacity="0.9"/>
<stop offset="0.2638" stop-color="#FFDB87" stop-opacity="0.7945"/>
<stop offset="0.5631" stop-color="#FFEAA5" stop-opacity="0.6748"/>
<stop offset="0.8191" stop-color="#FFF4B7" stop-opacity="0.5724"/>
<stop offset="1" stop-color="#FFF7BE" stop-opacity="0.5"/>
</linearGradient>
<linearGradient id="paint28_linear_1335_61451" x1="172.694" y1="267.51" x2="136.658" y2="231.475" gradientUnits="userSpaceOnUse">
<stop stop-color="#FFCA66" stop-opacity="0.9"/>
<stop offset="0.2638" stop-color="#FFDB87" stop-opacity="0.7945"/>
<stop offset="0.5631" stop-color="#FFEAA5" stop-opacity="0.6748"/>
<stop offset="0.8191" stop-color="#FFF4B7" stop-opacity="0.5724"/>
<stop offset="1" stop-color="#FFF7BE" stop-opacity="0.5"/>
</linearGradient>
<linearGradient id="paint29_linear_1335_61451" x1="227.556" y1="248.898" x2="192.194" y2="213.535" gradientUnits="userSpaceOnUse">
<stop stop-color="#FFF7BE" stop-opacity="0.5"/>
<stop offset="0.1809" stop-color="#FFF4B7" stop-opacity="0.5724"/>
<stop offset="0.4369" stop-color="#FFEAA5" stop-opacity="0.6748"/>
<stop offset="0.7362" stop-color="#FFDB87" stop-opacity="0.7945"/>
<stop offset="1" stop-color="#FFCA66" stop-opacity="0.9"/>
</linearGradient>
<linearGradient id="paint30_linear_1335_61451" x1="223.641" y1="243.512" x2="194.429" y2="214.299" gradientUnits="userSpaceOnUse">
<stop stop-color="#F15EA0" stop-opacity="0.5"/>
<stop offset="0.2561" stop-color="#EC5AA7" stop-opacity="0.6024"/>
<stop offset="0.6184" stop-color="#DF50B9" stop-opacity="0.7473"/>
<stop offset="1" stop-color="#CC42D4" stop-opacity="0.9"/>
</linearGradient>
<linearGradient id="paint31_linear_1335_61451" x1="175.781" y1="226.356" x2="175.675" y2="226.251" gradientUnits="userSpaceOnUse">
<stop stop-color="#FFCA66" stop-opacity="0.9"/>
<stop offset="0.2638" stop-color="#FFDB87" stop-opacity="0.7945"/>
<stop offset="0.5631" stop-color="#FFEAA5" stop-opacity="0.6748"/>
<stop offset="0.8191" stop-color="#FFF4B7" stop-opacity="0.5724"/>
<stop offset="1" stop-color="#FFF7BE" stop-opacity="0.5"/>
</linearGradient>
<linearGradient id="paint32_linear_1335_61451" x1="227.923" y1="252.229" x2="191.888" y2="216.194" gradientUnits="userSpaceOnUse">
<stop stop-color="#FFCA66" stop-opacity="0.9"/>
<stop offset="0.2638" stop-color="#FFDB87" stop-opacity="0.7945"/>
<stop offset="0.5631" stop-color="#FFEAA5" stop-opacity="0.6748"/>
<stop offset="0.8191" stop-color="#FFF4B7" stop-opacity="0.5724"/>
<stop offset="1" stop-color="#FFF7BE" stop-opacity="0.5"/>
</linearGradient>
<linearGradient id="paint33_linear_1335_61451" x1="227.556" y1="241.306" x2="192.193" y2="205.943" gradientUnits="userSpaceOnUse">
<stop stop-color="#FFF7BE" stop-opacity="0.5"/>
<stop offset="0.1809" stop-color="#FFF4B7" stop-opacity="0.5724"/>
<stop offset="0.4369" stop-color="#FFEAA5" stop-opacity="0.6748"/>
<stop offset="0.7362" stop-color="#FFDB87" stop-opacity="0.7945"/>
<stop offset="1" stop-color="#FFCA66" stop-opacity="0.9"/>
</linearGradient>
<linearGradient id="paint34_linear_1335_61451" x1="223.641" y1="235.919" x2="194.429" y2="206.707" gradientUnits="userSpaceOnUse">
<stop stop-color="#F15EA0" stop-opacity="0.5"/>
<stop offset="0.2561" stop-color="#EC5AA7" stop-opacity="0.6024"/>
<stop offset="0.6184" stop-color="#DF50B9" stop-opacity="0.7473"/>
<stop offset="1" stop-color="#CC42D4" stop-opacity="0.9"/>
</linearGradient>
<linearGradient id="paint35_linear_1335_61451" x1="175.781" y1="218.764" x2="175.675" y2="218.658" gradientUnits="userSpaceOnUse">
<stop stop-color="#FFCA66" stop-opacity="0.9"/>
<stop offset="0.2638" stop-color="#FFDB87" stop-opacity="0.7945"/>
<stop offset="0.5631" stop-color="#FFEAA5" stop-opacity="0.6748"/>
<stop offset="0.8191" stop-color="#FFF4B7" stop-opacity="0.5724"/>
<stop offset="1" stop-color="#FFF7BE" stop-opacity="0.5"/>
</linearGradient>
<linearGradient id="paint36_linear_1335_61451" x1="227.923" y1="244.636" x2="191.888" y2="208.601" gradientUnits="userSpaceOnUse">
<stop stop-color="#FFCA66" stop-opacity="0.9"/>
<stop offset="0.2638" stop-color="#FFDB87" stop-opacity="0.7945"/>
<stop offset="0.5631" stop-color="#FFEAA5" stop-opacity="0.6748"/>
<stop offset="0.8191" stop-color="#FFF4B7" stop-opacity="0.5724"/>
<stop offset="1" stop-color="#FFF7BE" stop-opacity="0.5"/>
</linearGradient>
<linearGradient id="paint37_linear_1335_61451" x1="229.427" y1="231.767" x2="194.065" y2="196.405" gradientUnits="userSpaceOnUse">
<stop stop-color="#FFF7BE" stop-opacity="0.5"/>
<stop offset="0.1809" stop-color="#FFF4B7" stop-opacity="0.5724"/>
<stop offset="0.4369" stop-color="#FFEAA5" stop-opacity="0.6748"/>
<stop offset="0.7362" stop-color="#FFDB87" stop-opacity="0.7945"/>
<stop offset="1" stop-color="#FFCA66" stop-opacity="0.9"/>
</linearGradient>
<linearGradient id="paint38_linear_1335_61451" x1="225.512" y1="226.38" x2="196.3" y2="197.168" gradientUnits="userSpaceOnUse">
<stop stop-color="#F15EA0" stop-opacity="0.5"/>
<stop offset="0.2561" stop-color="#EC5AA7" stop-opacity="0.6024"/>
<stop offset="0.6184" stop-color="#DF50B9" stop-opacity="0.7473"/>
<stop offset="1" stop-color="#CC42D4" stop-opacity="0.9"/>
</linearGradient>
<linearGradient id="paint39_linear_1335_61451" x1="177.652" y1="209.225" x2="177.546" y2="209.119" gradientUnits="userSpaceOnUse">
<stop stop-color="#FFCA66" stop-opacity="0.9"/>
<stop offset="0.2638" stop-color="#FFDB87" stop-opacity="0.7945"/>
<stop offset="0.5631" stop-color="#FFEAA5" stop-opacity="0.6748"/>
<stop offset="0.8191" stop-color="#FFF4B7" stop-opacity="0.5724"/>
<stop offset="1" stop-color="#FFF7BE" stop-opacity="0.5"/>
</linearGradient>
<linearGradient id="paint40_linear_1335_61451" x1="229.795" y1="235.098" x2="193.759" y2="199.062" gradientUnits="userSpaceOnUse">
<stop stop-color="#FFCA66" stop-opacity="0.9"/>
<stop offset="0.2638" stop-color="#FFDB87" stop-opacity="0.7945"/>
<stop offset="0.5631" stop-color="#FFEAA5" stop-opacity="0.6748"/>
<stop offset="0.8191" stop-color="#FFF4B7" stop-opacity="0.5724"/>
<stop offset="1" stop-color="#FFF7BE" stop-opacity="0.5"/>
</linearGradient>
<linearGradient id="paint41_linear_1335_61451" x1="232.51" y1="223.11" x2="197.147" y2="187.747" gradientUnits="userSpaceOnUse">
<stop stop-color="#FFF7BE" stop-opacity="0.5"/>
<stop offset="0.1809" stop-color="#FFF4B7" stop-opacity="0.5724"/>
<stop offset="0.4369" stop-color="#FFEAA5" stop-opacity="0.6748"/>
<stop offset="0.7362" stop-color="#FFDB87" stop-opacity="0.7945"/>
<stop offset="1" stop-color="#FFCA66" stop-opacity="0.9"/>
</linearGradient>
<linearGradient id="paint42_linear_1335_61451" x1="228.594" y1="217.723" x2="199.382" y2="188.511" gradientUnits="userSpaceOnUse">
<stop stop-color="#F15EA0" stop-opacity="0.5"/>
<stop offset="0.2561" stop-color="#EC5AA7" stop-opacity="0.6024"/>
<stop offset="0.6184" stop-color="#DF50B9" stop-opacity="0.7473"/>
<stop offset="1" stop-color="#CC42D4" stop-opacity="0.9"/>
</linearGradient>
<linearGradient id="paint43_linear_1335_61451" x1="180.734" y1="200.567" x2="180.629" y2="200.462" gradientUnits="userSpaceOnUse">
<stop stop-color="#FFCA66" stop-opacity="0.9"/>
<stop offset="0.2638" stop-color="#FFDB87" stop-opacity="0.7945"/>
<stop offset="0.5631" stop-color="#FFEAA5" stop-opacity="0.6748"/>
<stop offset="0.8191" stop-color="#FFF4B7" stop-opacity="0.5724"/>
<stop offset="1" stop-color="#FFF7BE" stop-opacity="0.5"/>
</linearGradient>
<linearGradient id="paint44_linear_1335_61451" x1="232.877" y1="226.44" x2="196.842" y2="190.405" gradientUnits="userSpaceOnUse">
<stop stop-color="#FFCA66" stop-opacity="0.9"/>
<stop offset="0.2638" stop-color="#FFDB87" stop-opacity="0.7945"/>
<stop offset="0.5631" stop-color="#FFEAA5" stop-opacity="0.6748"/>
<stop offset="0.8191" stop-color="#FFF4B7" stop-opacity="0.5724"/>
<stop offset="1" stop-color="#FFF7BE" stop-opacity="0.5"/>
</linearGradient>
<linearGradient id="paint45_linear_1335_61451" x1="306.566" y1="262.642" x2="271.203" y2="227.279" gradientUnits="userSpaceOnUse">
<stop stop-color="#FFF7BE" stop-opacity="0.5"/>
<stop offset="0.1809" stop-color="#FFF4B7" stop-opacity="0.5724"/>
<stop offset="0.4369" stop-color="#FFEAA5" stop-opacity="0.6748"/>
<stop offset="0.7362" stop-color="#FFDB87" stop-opacity="0.7945"/>
<stop offset="1" stop-color="#FFCA66" stop-opacity="0.9"/>
</linearGradient>
<linearGradient id="paint46_linear_1335_61451" x1="302.651" y1="257.255" x2="273.439" y2="228.043" gradientUnits="userSpaceOnUse">
<stop stop-color="#F15EA0" stop-opacity="0.5"/>
<stop offset="0.2561" stop-color="#EC5AA7" stop-opacity="0.6024"/>
<stop offset="0.6184" stop-color="#DF50B9" stop-opacity="0.7473"/>
<stop offset="1" stop-color="#CC42D4" stop-opacity="0.9"/>
</linearGradient>
<linearGradient id="paint47_linear_1335_61451" x1="254.79" y1="240.099" x2="254.685" y2="239.994" gradientUnits="userSpaceOnUse">
<stop stop-color="#FFCA66" stop-opacity="0.9"/>
<stop offset="0.2638" stop-color="#FFDB87" stop-opacity="0.7945"/>
<stop offset="0.5631" stop-color="#FFEAA5" stop-opacity="0.6748"/>
<stop offset="0.8191" stop-color="#FFF4B7" stop-opacity="0.5724"/>
<stop offset="1" stop-color="#FFF7BE" stop-opacity="0.5"/>
</linearGradient>
<linearGradient id="paint48_linear_1335_61451" x1="306.933" y1="265.972" x2="270.898" y2="229.937" gradientUnits="userSpaceOnUse">
<stop stop-color="#FFCA66" stop-opacity="0.9"/>
<stop offset="0.2638" stop-color="#FFDB87" stop-opacity="0.7945"/>
<stop offset="0.5631" stop-color="#FFEAA5" stop-opacity="0.6748"/>
<stop offset="0.8191" stop-color="#FFF4B7" stop-opacity="0.5724"/>
<stop offset="1" stop-color="#FFF7BE" stop-opacity="0.5"/>
</linearGradient>
</defs>
</svg>
