<svg width="57" height="58" viewBox="0 0 57 58" fill="none" xmlns="http://www.w3.org/2000/svg">
<path d="M57 29.2402C57 44.9804 44.2401 57.7402 28.5 57.7402C12.7599 57.7402 0 44.9804 0 29.2402C0 13.5001 12.7599 0.740234 28.5 0.740234C44.2401 0.740234 57 13.5001 57 29.2402Z" fill="url(#paint0_linear_694_25940)"/>
<g clip-path="url(#clip0_694_25940)">
<path d="M29 17.2402C32.3962 17.2402 32.82 17.2527 34.1525 17.3152C35.4837 17.3777 36.39 17.5865 37.1875 17.8965C38.0125 18.214 38.7075 18.644 39.4025 19.3377C40.0381 19.9626 40.5299 20.7185 40.8438 21.5527C41.1525 22.349 41.3625 23.2565 41.425 24.5877C41.4838 25.9202 41.5 26.344 41.5 29.7402C41.5 33.1365 41.4875 33.5602 41.425 34.8927C41.3625 36.224 41.1525 37.1302 40.8438 37.9277C40.5308 38.7625 40.0389 39.5185 39.4025 40.1427C38.7775 40.7781 38.0216 41.2699 37.1875 41.584C36.3912 41.8927 35.4837 42.1027 34.1525 42.1652C32.82 42.224 32.3962 42.2402 29 42.2402C25.6038 42.2402 25.18 42.2277 23.8475 42.1652C22.5162 42.1027 21.61 41.8927 20.8125 41.584C19.9779 41.2708 19.2219 40.7789 18.5975 40.1427C17.9618 39.518 17.4699 38.7621 17.1563 37.9277C16.8463 37.1315 16.6375 36.224 16.575 34.8927C16.5162 33.5602 16.5 33.1365 16.5 29.7402C16.5 26.344 16.5125 25.9202 16.575 24.5877C16.6375 23.2552 16.8463 22.3502 17.1563 21.5527C17.469 20.718 17.961 19.9619 18.5975 19.3377C19.2221 18.7018 19.978 18.2099 20.8125 17.8965C21.61 17.5865 22.515 17.3777 23.8475 17.3152C25.18 17.2565 25.6038 17.2402 29 17.2402ZM29 23.4902C27.3424 23.4902 25.7527 24.1487 24.5806 25.3208C23.4085 26.4929 22.75 28.0826 22.75 29.7402C22.75 31.3978 23.4085 32.9875 24.5806 34.1597C25.7527 35.3318 27.3424 35.9902 29 35.9902C30.6576 35.9902 32.2473 35.3318 33.4194 34.1597C34.5915 32.9875 35.25 31.3978 35.25 29.7402C35.25 28.0826 34.5915 26.4929 33.4194 25.3208C32.2473 24.1487 30.6576 23.4902 29 23.4902ZM37.125 23.1777C37.125 22.7633 36.9604 22.3659 36.6674 22.0729C36.3743 21.7799 35.9769 21.6152 35.5625 21.6152C35.1481 21.6152 34.7507 21.7799 34.4576 22.0729C34.1646 22.3659 34 22.7633 34 23.1777C34 23.5921 34.1646 23.9896 34.4576 24.2826C34.7507 24.5756 35.1481 24.7402 35.5625 24.7402C35.9769 24.7402 36.3743 24.5756 36.6674 24.2826C36.9604 23.9896 37.125 23.5921 37.125 23.1777ZM29 25.9902C29.9946 25.9902 30.9484 26.3853 31.6517 27.0886C32.3549 27.7918 32.75 28.7457 32.75 29.7402C32.75 30.7348 32.3549 31.6886 31.6517 32.3919C30.9484 33.0951 29.9946 33.4902 29 33.4902C28.0054 33.4902 27.0516 33.0951 26.3483 32.3919C25.6451 31.6886 25.25 30.7348 25.25 29.7402C25.25 28.7457 25.6451 27.7918 26.3483 27.0886C27.0516 26.3853 28.0054 25.9902 29 25.9902Z" fill="white"/>
</g>
<defs>
<linearGradient id="paint0_linear_694_25940" x1="48.5" y1="9.24024" x2="7" y2="50.2402" gradientUnits="userSpaceOnUse">
<stop stop-color="#FF00D3"/>
<stop offset="0.838542" stop-color="#FF7E4F"/>
</linearGradient>
<clipPath id="clip0_694_25940">
<rect width="30" height="30" fill="white" transform="translate(14 14.7402)"/>
</clipPath>
</defs>
</svg>
