<svg width="57" height="58" viewBox="0 0 57 58" fill="none" xmlns="http://www.w3.org/2000/svg">
<circle cx="28.5" cy="29.2402" r="28.5" fill="url(#paint0_linear_694_25968)"/>
<g clip-path="url(#clip0_694_25968)">
<path d="M22.675 20.9905C22.6747 21.6535 22.4109 22.2893 21.9419 22.7579C21.4728 23.2265 20.8368 23.4896 20.1737 23.4893C19.5107 23.4889 18.8749 23.2252 18.4063 22.7561C17.9377 22.2871 17.6747 21.651 17.675 20.988C17.6753 20.325 17.939 19.6892 18.4081 19.2206C18.8772 18.752 19.5132 18.4889 20.1762 18.4893C20.8393 18.4896 21.475 18.7533 21.9436 19.2224C22.4122 19.6915 22.6753 20.3275 22.675 20.9905ZM22.75 25.3405H17.75V40.9905H22.75V25.3405ZM30.65 25.3405H25.675V40.9905H30.6V32.778C30.6 28.203 36.5625 27.778 36.5625 32.778V40.9905H41.5V31.078C41.5 23.3655 32.675 23.653 30.6 27.4405L30.65 25.3405Z" fill="white"/>
</g>
<defs>
<linearGradient id="paint0_linear_694_25968" x1="12.5" y1="-3.25976" x2="46" y2="54.2402" gradientUnits="userSpaceOnUse">
<stop stop-color="#0288D1"/>
<stop offset="1" stop-color="#03A9F4"/>
</linearGradient>
<clipPath id="clip0_694_25968">
<rect width="30" height="30" fill="white" transform="translate(14 14.7402)"/>
</clipPath>
</defs>
</svg>
