<svg width="18" height="19" viewBox="0 0 18 19" fill="none" xmlns="http://www.w3.org/2000/svg">
<path fillRule="evenodd" clipRule="evenodd" d="M5.50778 3.90543C5.50778 9.02218 9.65573 13.1701 14.7725 13.1701C15.1483 13.1701 15.5191 13.1477 15.8838 13.104C14.566 15.2614 12.189 16.7 9.47837 16.7C5.33623 16.7 1.97837 13.3421 1.97837 9.19998C1.97837 6.48954 3.41673 4.11275 5.57379 2.79485C5.53019 3.15928 5.50778 3.52992 5.50778 3.90543ZM7.03599 2.10626C6.90209 2.68435 6.83131 3.28662 6.83131 3.90543C6.83131 8.29122 10.3867 11.8466 14.7725 11.8466C15.3915 11.8466 15.994 11.7758 16.5723 11.6418C16.5738 11.6414 16.5753 11.6411 16.5768 11.6407C16.6265 11.6292 16.6761 11.6172 16.7254 11.6047C16.9077 11.5586 17.0875 11.5062 17.2645 11.4477C17.6111 11.3333 17.9701 11.633 17.8552 11.9794C17.7888 12.1797 17.7154 12.3768 17.6353 12.5705C17.6127 12.6251 17.5896 12.6794 17.5659 12.7334C17.5646 12.7364 17.5633 12.7394 17.562 12.7424C16.1974 15.8518 13.0915 18.0235 9.47837 18.0235C4.60527 18.0235 0.654837 14.0731 0.654837 9.19998C0.654837 5.58708 2.82626 2.48134 5.93524 1.11665C5.93824 1.11533 5.94124 1.11402 5.94424 1.1127C5.99828 1.08905 6.05261 1.06593 6.10721 1.04334C6.30087 0.963212 6.498 0.889781 6.69831 0.823334C7.04469 0.708436 7.34439 1.06746 7.22999 1.41401C7.17154 1.59104 7.11916 1.77083 7.07307 1.95312C7.0606 2.00247 7.04859 2.052 7.03704 2.10171C7.03669 2.10323 7.03634 2.10474 7.03599 2.10626Z" fill="black"/>
</svg>
