<svg width="1466" height="384" viewBox="0 0 1466 384" fill="none" xmlns="http://www.w3.org/2000/svg">
<g filter="url(#filter0_f_2219_80718)">
<path d="M235.629 104.19C248.097 111.397 248.164 123.057 235.78 130.264L177.621 164.065C165.236 171.273 145.071 171.273 132.602 164.065L74.0569 130.281C61.5883 123.073 61.521 111.414 73.9057 104.207L132.065 70.4054C144.449 63.1982 164.614 63.1982 177.083 70.4054L235.629 104.207V104.19Z" fill="#44C4FF"/>
</g>
<g filter="url(#filter1_f_2219_80718)">
<path d="M527.629 249.19C540.097 256.397 540.164 268.057 527.78 275.264L469.621 309.065C457.236 316.273 437.071 316.273 424.602 309.065L366.057 275.281C353.588 268.073 353.521 256.414 365.906 249.207L424.065 215.405C436.449 208.198 456.614 208.198 469.083 215.405L527.629 249.19Z" fill="#F05225"/>
<path d="M469.369 308.633L469.369 308.633L527.528 274.832C533.629 271.282 536.55 266.705 536.524 262.23C536.498 257.753 533.522 253.175 527.379 249.623L469.369 308.633ZM469.369 308.633C463.271 312.182 455.226 313.971 447.143 313.971C439.06 313.971 430.993 312.182 424.853 308.633L424.852 308.632L366.307 274.848L469.369 308.633ZM468.833 215.838L527.378 249.623L366.307 274.848C360.163 271.296 357.187 266.717 357.161 262.241C357.135 257.766 360.057 253.189 366.157 249.639L424.316 215.838L424.316 215.838C430.414 212.289 438.459 210.5 446.542 210.5C454.625 210.5 462.692 212.289 468.833 215.838L468.833 215.838Z" stroke="#F05326"/>
</g>
<g filter="url(#filter2_f_2219_80718)">
<path d="M811.629 116.19C824.097 123.397 824.164 135.057 811.78 142.264L753.621 176.065C741.236 183.273 721.071 183.273 708.602 176.065L650.057 142.281C637.588 135.073 637.521 123.414 649.906 116.207L708.065 82.4054C720.449 75.1982 740.614 75.1982 753.083 82.4054L811.629 116.207V116.19Z" fill="#852DEE"/>
<path d="M812.129 117.071V117.073L811.379 116.64L752.833 82.8384L752.833 82.8383C746.692 79.2889 738.625 77.5 730.542 77.5C722.459 77.5 714.414 79.2889 708.316 82.8375L708.316 82.8377L650.157 116.639C644.057 120.189 641.135 124.766 641.161 129.241C641.187 133.717 644.163 138.296 650.307 141.848L812.129 117.071ZM812.129 117.071C817.765 120.555 820.499 124.94 820.524 129.23C820.55 133.705 817.629 138.282 811.528 141.832L753.369 175.633L753.369 175.633C747.271 179.182 739.226 180.971 731.143 180.971C723.06 180.971 714.993 179.182 708.853 175.633L708.852 175.632L650.307 141.848L812.129 117.071Z" stroke="#852DEE"/>
</g>
<g filter="url(#filter3_f_2219_80718)">
<path d="M1105.63 254.19C1118.1 261.397 1118.16 273.057 1105.78 280.264L1047.62 314.065C1035.24 321.273 1015.07 321.273 1002.6 314.065L944.057 280.281C931.588 273.073 931.521 261.414 943.906 254.207L1002.06 220.405C1014.45 213.198 1034.61 213.198 1047.08 220.405L1105.63 254.19Z" fill="#FF44A0"/>
<path d="M1047.37 313.633L1047.37 313.633L1105.53 279.832C1111.63 276.282 1114.55 271.705 1114.52 267.23C1114.5 262.753 1111.52 258.174 1105.38 254.623L1046.83 220.838L1046.83 220.838C1040.69 217.289 1032.63 215.5 1024.54 215.5C1016.46 215.5 1008.41 217.289 1002.32 220.838L1002.32 220.838L944.157 254.639C938.057 258.189 935.135 262.766 935.161 267.241C935.187 271.717 938.163 276.296 944.307 279.848L1047.37 313.633ZM1047.37 313.633C1041.27 317.182 1033.23 318.971 1025.14 318.971C1017.06 318.971 1008.99 317.182 1002.85 313.633L1002.85 313.632L944.307 279.848L1047.37 313.633Z" stroke="#FF44A0"/>
</g>
<g filter="url(#filter4_f_2219_80718)">
<path d="M1391.63 116.19C1404.1 123.397 1404.16 135.057 1391.78 142.264L1333.62 176.065C1321.24 183.273 1301.07 183.273 1288.6 176.065L1230.06 142.281C1217.59 135.073 1217.52 123.414 1229.91 116.207L1288.06 82.4054C1300.45 75.1982 1320.61 75.1982 1333.08 82.4054L1391.63 116.207V116.19Z" fill="#FF445B"/>
<path d="M1392.13 117.071V117.073L1391.38 116.64L1332.83 82.8384L1332.83 82.8383C1326.69 79.2889 1318.63 77.5 1310.54 77.5C1302.46 77.5 1294.41 79.2889 1288.32 82.8375L1288.32 82.8377L1230.16 116.639C1224.06 120.189 1221.14 124.766 1221.16 129.241C1221.19 133.717 1224.16 138.296 1230.31 141.848L1392.13 117.071ZM1392.13 117.071C1397.76 120.555 1400.5 124.94 1400.52 129.23C1400.55 133.705 1397.63 138.282 1391.53 141.832L1333.37 175.633L1333.37 175.633C1327.27 179.182 1319.23 180.971 1311.14 180.971C1303.06 180.971 1294.99 179.182 1288.85 175.633L1288.85 175.632L1230.31 141.848L1392.13 117.071Z" stroke="#FF445B"/>
</g>
<path d="M149.602 102.19L448.547 247.796L730.789 102.19L1026.89 247.796L1311.67 103.854" stroke="#F5F5F5" stroke-width="12" stroke-miterlimit="10"/>
<path d="M529.475 246.229C533.705 243.779 536.553 240.773 537.95 237.556V239.581C537.95 244.026 535.016 248.558 528.956 252.084C528.956 252.084 528.956 252.084 528.956 252.084L470.797 285.886C464.691 289.435 456.645 291.224 448.564 291.224C440.483 291.224 432.421 289.435 426.28 285.885L426.28 285.885L367.734 252.084L367.734 252.083C361.557 248.524 358.576 243.909 358.608 239.399H358.608V239.396V237.405C360.024 240.671 362.933 243.73 367.251 246.229L367.251 246.23L425.797 280.014C432.125 283.672 440.375 285.487 448.587 285.487C456.8 285.487 465.03 283.672 471.316 280.014L528.724 246.649V246.664L529.475 246.229Z" fill="#F05326" stroke="#F05326"/>
<path d="M470.814 279.149L470.814 279.149L528.973 245.347C535.073 241.797 537.994 237.221 537.969 232.746C537.943 228.269 534.967 223.69 528.823 220.139L470.814 279.149ZM470.814 279.149C464.716 282.697 456.671 284.486 448.587 284.486C440.504 284.486 432.438 282.698 426.297 279.148L426.297 279.148L367.751 245.363L470.814 279.149ZM470.277 186.354L528.823 220.139L367.751 245.363C361.608 241.812 358.632 237.233 358.606 232.757C358.58 228.281 361.501 223.705 367.602 220.155L425.76 186.353L425.761 186.353C431.858 182.805 439.904 181.016 447.987 181.016C456.07 181.016 464.137 182.805 470.277 186.354L470.277 186.354Z" fill="#F6F5FF" stroke="#F05326"/>
<path d="M354.06 194.845L354.059 194.845C352.676 195.646 351.452 195.979 350.406 195.911C349.374 195.844 348.462 195.385 347.685 194.494C346.098 192.673 345.088 189.061 345.029 183.515C344.997 172.271 349.197 163.784 354.963 160.448C356.464 159.582 357.75 159.225 358.824 159.286C359.879 159.346 360.781 159.812 361.533 160.705C363.077 162.536 363.976 166.147 363.993 171.525C364.026 182.951 360.355 191.212 354.06 194.845ZM354.245 163.227L354.245 163.227C352.352 164.319 350.791 166.537 349.709 169.585C348.622 172.645 347.995 176.598 348.012 181.252C348.029 185.875 348.626 189.106 349.753 190.928C350.326 191.855 351.065 192.46 351.967 192.647C352.859 192.833 353.812 192.589 354.778 192.032C356.967 190.771 358.528 188.407 359.538 185.322C360.55 182.233 361.027 178.366 361.01 174.007C360.993 169.678 360.523 166.384 359.472 164.462C358.938 163.486 358.221 162.803 357.284 162.576C356.357 162.351 355.334 162.601 354.245 163.227Z" fill="url(#paint0_linear_2219_80718)" stroke="url(#paint1_linear_2219_80718)"/>
<path d="M374.036 180.104L386.511 172.894V175.536L368.724 185.811V184.007L371.762 178.836C371.762 178.835 371.762 178.835 371.763 178.834C375.508 172.554 378.238 167.809 380.036 163.992C381.832 160.175 382.721 157.237 382.738 154.576H382.738V154.572C382.738 153.68 382.644 152.835 382.419 152.108C382.194 151.382 381.828 150.742 381.262 150.311C380.092 149.418 378.371 149.606 376.14 150.897L376.14 150.897C373.664 152.329 371.591 154.807 370.197 156.828L369.439 155.342C371.432 152.315 374.207 149.362 377.447 147.496L378.012 147.17L378.004 147.162C380.788 145.693 382.637 145.794 383.786 146.588C385.048 147.459 385.713 149.321 385.721 151.684C385.729 154.707 384.786 158.021 383.046 161.907C381.308 165.792 378.793 170.208 375.693 175.433C375.692 175.433 375.692 175.434 375.692 175.435L373.358 179.295L373.286 179.415V179.554V179.671V180.538L374.036 180.104Z" fill="url(#paint2_linear_2219_80718)" stroke="url(#paint3_linear_2219_80718)"/>
<path d="M459.371 236.94L459.624 237.086C460.099 237.428 460.277 237.797 460.285 238.092C460.295 238.426 460.092 238.856 459.451 239.235C458.881 239.572 458.127 239.771 457.33 239.812C457.84 239.773 458.348 239.638 458.767 239.39C459.274 239.09 459.632 238.626 459.617 238.062C459.603 237.506 459.23 237.05 458.716 236.748L458.716 236.748L458.709 236.744C458.483 236.616 458.235 236.518 457.976 236.448C458.492 236.543 458.972 236.709 459.371 236.94ZM455.224 239.394C455.634 239.627 456.121 239.761 456.61 239.807C455.845 239.755 455.115 239.558 454.543 239.231C453.867 238.845 453.639 238.409 453.633 238.077C453.627 237.748 453.835 237.319 454.482 236.937C454.91 236.684 455.44 236.509 456.015 236.42C455.718 236.491 455.435 236.599 455.183 236.748C454.672 237.051 454.319 237.518 454.33 238.079C454.341 238.635 454.706 239.094 455.22 239.392L455.22 239.392L455.224 239.394Z" fill="#2E2793" stroke="url(#paint4_linear_2219_80718)"/>
<path d="M451.504 232.579L451.504 232.579L451.5 232.577C451.213 232.414 450.888 232.3 450.551 232.23C451.147 232.318 451.706 232.496 452.163 232.757C452.829 233.142 453.066 233.583 453.076 233.925C453.086 234.26 452.883 234.689 452.242 235.068C451.667 235.407 450.908 235.607 450.104 235.646C450.619 235.608 451.136 235.473 451.558 235.223C452.071 234.92 452.42 234.449 452.402 233.886C452.384 233.333 452.015 232.876 451.504 232.579ZM449.031 232.204C448.647 232.27 448.276 232.393 447.957 232.582C447.447 232.883 447.092 233.352 447.107 233.915C447.121 234.473 447.493 234.93 448.013 235.226C448.413 235.458 448.893 235.591 449.376 235.638C448.62 235.584 447.899 235.387 447.333 235.064C446.659 234.679 446.424 234.238 446.415 233.898C446.407 233.564 446.613 233.133 447.256 232.754C447.743 232.466 448.363 232.278 449.031 232.204Z" fill="#2E2793" stroke="url(#paint5_linear_2219_80718)"/>
<path d="M444.92 228.59L445.173 228.736C445.648 229.079 445.826 229.448 445.834 229.743C445.844 230.077 445.641 230.506 445 230.885C444.429 231.222 443.676 231.422 442.878 231.463C443.389 231.423 443.897 231.288 444.316 231.04C444.823 230.74 445.181 230.277 445.166 229.713C445.151 229.157 444.779 228.701 444.264 228.398L444.264 228.398L444.258 228.394C444.032 228.266 443.784 228.168 443.524 228.098C444.041 228.194 444.521 228.36 444.92 228.59ZM440.773 231.045C441.183 231.278 441.67 231.411 442.159 231.457C441.394 231.405 440.663 231.208 440.091 230.881C439.416 230.496 439.188 230.059 439.182 229.727C439.176 229.398 439.384 228.969 440.031 228.588C440.458 228.335 440.989 228.16 441.563 228.07C441.267 228.142 440.983 228.25 440.732 228.399C440.224 228.699 439.868 229.162 439.879 229.723C439.89 230.277 440.255 230.734 440.763 231.039L440.762 231.039L440.773 231.045Z" fill="#2E2793" stroke="url(#paint6_linear_2219_80718)"/>
<mask id="path-18-inside-1_2219_80718" fill="white">
<path d="M473.065 233.096C476.627 235.162 476.728 238.506 473.266 240.572L462.36 247.074C458.899 249.14 453.185 249.14 449.623 247.074L438.213 240.488L423.543 239.749C423.341 239.749 423.156 239.682 423.022 239.614C422.938 239.564 422.854 239.497 422.82 239.43C422.703 239.262 422.77 239.06 423.005 238.909L429.139 235.246L427.038 234.037C423.459 231.97 423.375 228.627 426.837 226.561L437.742 220.059C441.204 217.993 446.901 218.01 450.48 220.059L473.065 233.096ZM461.134 246.368L472.04 239.866C473.451 239.026 474.123 237.934 474.09 236.825C474.073 235.733 473.334 234.625 471.872 233.785L449.287 220.748C447.825 219.908 445.943 219.488 444.061 219.488C442.196 219.488 440.33 219.908 438.919 220.748L428.013 227.25C426.601 228.09 425.929 229.198 425.946 230.29C425.98 231.399 426.719 232.491 428.181 233.331L430.903 234.894C431.054 234.978 431.155 235.112 431.155 235.246C431.155 235.364 431.071 235.498 430.92 235.599L425.442 238.858L438.616 239.53C438.818 239.53 439.003 239.598 439.137 239.682L450.749 246.385C452.211 247.225 454.093 247.645 455.958 247.645C457.84 247.645 459.705 247.225 461.117 246.385"/>
</mask>
<path d="M473.065 233.096C476.627 235.162 476.728 238.506 473.266 240.572L462.36 247.074C458.899 249.14 453.185 249.14 449.623 247.074L438.213 240.488L423.543 239.749C423.341 239.749 423.156 239.682 423.022 239.614C422.938 239.564 422.854 239.497 422.82 239.43C422.703 239.262 422.77 239.06 423.005 238.909L429.139 235.246L427.038 234.037C423.459 231.97 423.375 228.627 426.837 226.561L437.742 220.059C441.204 217.993 446.901 218.01 450.48 220.059L473.065 233.096ZM461.134 246.368L472.04 239.866C473.451 239.026 474.123 237.934 474.09 236.825C474.073 235.733 473.334 234.625 471.872 233.785L449.287 220.748C447.825 219.908 445.943 219.488 444.061 219.488C442.196 219.488 440.33 219.908 438.919 220.748L428.013 227.25C426.601 228.09 425.929 229.198 425.946 230.29C425.98 231.399 426.719 232.491 428.181 233.331L430.903 234.894C431.054 234.978 431.155 235.112 431.155 235.246C431.155 235.364 431.071 235.498 430.92 235.599L425.442 238.858L438.616 239.53C438.818 239.53 439.003 239.598 439.137 239.682L450.749 246.385C452.211 247.225 454.093 247.645 455.958 247.645C457.84 247.645 459.705 247.225 461.117 246.385" fill="#2E2793"/>
<path d="M473.065 233.096L473.566 232.231L473.565 232.23L473.065 233.096ZM473.266 240.572L473.778 241.431L473.779 241.431L473.266 240.572ZM462.36 247.074L461.848 246.215L461.848 246.215L462.36 247.074ZM449.623 247.074L450.125 246.208L450.123 246.207L449.623 247.074ZM438.213 240.488L438.713 239.622L438.504 239.501L438.263 239.489L438.213 240.488ZM423.543 239.749L423.593 238.75L423.568 238.749H423.543V239.749ZM423.022 239.614L422.508 240.472L422.541 240.492L422.575 240.509L423.022 239.614ZM422.82 239.43L423.715 238.982L423.682 238.916L423.64 238.856L422.82 239.43ZM423.005 238.909L422.493 238.05L422.478 238.059L422.465 238.067L423.005 238.909ZM429.139 235.246L429.651 236.105L431.115 235.231L429.638 234.38L429.139 235.246ZM427.038 234.037L426.538 234.903L426.539 234.903L427.038 234.037ZM426.837 226.561L426.324 225.702L426.324 225.702L426.837 226.561ZM437.742 220.059L438.255 220.918L438.255 220.918L437.742 220.059ZM450.48 220.059L450.98 219.193L450.977 219.191L450.48 220.059ZM472.04 239.866L471.528 239.007L471.528 239.007L472.04 239.866ZM474.09 236.825L473.09 236.841L473.09 236.848L473.09 236.856L474.09 236.825ZM471.872 233.785L471.372 234.651L471.373 234.652L471.872 233.785ZM449.287 220.748L449.787 219.882L449.785 219.881L449.287 220.748ZM438.919 220.748L438.407 219.889L438.407 219.889L438.919 220.748ZM428.013 227.25L428.524 228.109L428.525 228.108L428.013 227.25ZM425.946 230.29L424.946 230.306L424.946 230.313L424.946 230.321L425.946 230.29ZM428.181 233.331L427.683 234.198L427.683 234.198L428.181 233.331ZM430.903 234.894L430.405 235.761L430.418 235.768L430.903 234.894ZM430.92 235.599L431.431 236.459L431.453 236.445L431.475 236.431L430.92 235.599ZM425.442 238.858L424.931 237.999L422.09 239.689L425.391 239.857L425.442 238.858ZM438.616 239.53L438.565 240.529L438.591 240.53H438.616V239.53ZM439.137 239.682L438.607 240.53L438.622 240.539L438.637 240.548L439.137 239.682ZM450.749 246.385L450.249 247.251L450.251 247.252L450.749 246.385ZM472.563 233.961C474.166 234.891 474.775 235.976 474.8 236.862C474.824 237.733 474.291 238.795 472.754 239.713L473.779 241.431C475.703 240.282 476.85 238.639 476.799 236.806C476.748 234.987 475.526 233.368 473.566 232.231L472.563 233.961ZM472.754 239.713L461.848 246.215L462.873 247.932L473.778 241.431L472.754 239.713ZM461.848 246.215C460.31 247.133 458.205 247.623 456.03 247.623C453.855 247.623 451.719 247.133 450.125 246.208L449.121 247.939C451.089 249.08 453.591 249.623 456.03 249.623C458.467 249.623 460.949 249.08 462.873 247.932L461.848 246.215ZM450.123 246.207L438.713 239.622L437.713 241.354L449.123 247.94L450.123 246.207ZM438.263 239.489L423.593 238.75L423.493 240.747L438.163 241.487L438.263 239.489ZM423.543 238.749C423.552 238.749 423.549 238.75 423.532 238.745C423.515 238.74 423.493 238.732 423.469 238.72L422.575 240.509C422.786 240.614 423.129 240.749 423.543 240.749V238.749ZM423.536 238.757C423.533 238.754 423.543 238.76 423.564 238.778C423.575 238.788 423.595 238.807 423.619 238.836C423.643 238.864 423.68 238.912 423.715 238.982L421.926 239.877C422.024 240.072 422.158 240.205 422.241 240.278C422.333 240.359 422.427 240.424 422.508 240.472L423.536 238.757ZM423.64 238.856C423.691 238.93 423.738 239.03 423.756 239.154C423.774 239.278 423.759 239.395 423.725 239.492C423.66 239.677 423.549 239.748 423.546 239.75L422.465 238.067C422.226 238.221 421.964 238.468 421.836 238.833C421.695 239.238 421.765 239.665 422.001 240.003L423.64 238.856ZM423.518 239.767L429.651 236.105L428.626 234.388L422.493 238.05L423.518 239.767ZM429.638 234.38L427.537 233.17L426.539 234.903L428.64 236.113L429.638 234.38ZM427.538 233.171C425.927 232.241 425.32 231.156 425.297 230.272C425.274 229.401 425.81 228.338 427.349 227.419L426.324 225.702C424.401 226.85 423.249 228.492 423.297 230.325C423.345 232.147 424.57 233.766 426.538 234.903L427.538 233.171ZM427.349 227.42L438.255 220.918L437.23 219.2L426.324 225.702L427.349 227.42ZM438.255 220.918C439.792 220 441.892 219.514 444.066 219.516C446.238 219.518 448.377 220.007 449.983 220.927L450.977 219.191C449.004 218.061 446.504 217.518 444.068 217.516C441.633 217.513 439.154 218.052 437.23 219.2L438.255 220.918ZM449.98 220.925L472.565 233.962L473.565 232.23L450.98 219.193L449.98 220.925ZM461.646 247.227L472.552 240.725L471.528 239.007L460.622 245.509L461.646 247.227ZM472.551 240.726C474.16 239.768 475.137 238.383 475.089 236.795L473.09 236.856C473.109 237.485 472.742 238.285 471.528 239.007L472.551 240.726ZM475.09 236.81C475.066 235.243 474.013 233.862 472.37 232.918L471.373 234.652C472.654 235.388 473.08 236.224 473.09 236.841L475.09 236.81ZM472.372 232.919L449.787 219.882L448.787 221.614L471.372 234.651L472.372 232.919ZM449.785 219.881C448.139 218.935 446.076 218.488 444.061 218.488V220.488C445.81 220.488 447.511 220.881 448.789 221.615L449.785 219.881ZM444.061 218.488C442.064 218.488 440.011 218.935 438.407 219.889L439.43 221.607C440.65 220.881 442.327 220.488 444.061 220.488V218.488ZM438.407 219.889L427.501 226.391L428.525 228.108L439.431 221.607L438.407 219.889ZM427.501 226.39C425.887 227.351 424.922 228.749 424.946 230.306L426.946 230.275C426.936 229.648 427.316 228.828 428.524 228.109L427.501 226.39ZM424.946 230.321C424.994 231.895 426.039 233.254 427.683 234.198L428.679 232.464C427.399 231.728 426.965 230.903 426.945 230.26L424.946 230.321ZM427.683 234.198L430.405 235.761L431.401 234.026L428.679 232.464L427.683 234.198ZM430.418 235.768C430.382 235.748 430.328 235.71 430.276 235.638C430.224 235.566 430.155 235.433 430.155 235.246H432.155C432.155 234.614 431.719 234.203 431.389 234.019L430.418 235.768ZM430.155 235.246C430.155 235.069 430.217 234.944 430.258 234.881C430.301 234.815 430.344 234.781 430.365 234.767L431.475 236.431C431.783 236.225 432.155 235.821 432.155 235.246H430.155ZM430.409 234.74L424.931 237.999L425.953 239.718L431.431 236.459L430.409 234.74ZM425.391 239.857L438.565 240.529L438.667 238.532L425.493 237.86L425.391 239.857ZM438.616 240.53C438.611 240.53 438.608 240.53 438.606 240.53C438.605 240.529 438.605 240.529 438.606 240.53C438.607 240.53 438.609 240.531 438.61 240.531C438.611 240.531 438.61 240.531 438.607 240.53L439.667 238.833C439.399 238.666 439.033 238.53 438.616 238.53V240.53ZM438.637 240.548L450.249 247.251L451.249 245.519L439.637 238.815L438.637 240.548ZM450.251 247.252C451.896 248.197 453.959 248.645 455.958 248.645V246.645C454.227 246.645 452.525 246.252 451.247 245.518L450.251 247.252ZM455.958 248.645C457.971 248.645 460.025 248.198 461.628 247.244L460.606 245.525C459.386 246.251 457.71 246.645 455.958 246.645V248.645Z" fill="url(#paint7_linear_2219_80718)" mask="url(#path-18-inside-1_2219_80718)"/>
<path d="M1106.14 245.78L1047.98 279.581C1035.6 286.789 1015.43 286.789 1002.97 279.581L944.42 245.797C938.152 242.168 935.01 237.413 935.027 232.676V239.396C934.993 244.15 938.135 248.905 944.403 252.517L1002.95 286.318C1015.42 293.525 1035.57 293.525 1047.97 286.318L1106.13 252.517C1112.28 248.938 1115.37 244.268 1115.37 239.581V232.861C1115.37 237.548 1112.29 242.235 1106.14 245.797V245.78Z" fill="#FF44A0"/>
<path d="M1047.73 279.149L1047.73 279.149L1105.89 245.347C1111.99 241.797 1114.91 237.221 1114.89 232.746C1114.86 228.269 1111.89 223.69 1105.74 220.139L1047.2 186.354L1047.2 186.354C1041.06 182.805 1032.99 181.016 1024.91 181.016C1016.82 181.016 1008.78 182.805 1002.68 186.353L1002.68 186.353L944.52 220.155C938.42 223.705 935.499 228.281 935.525 232.757C935.551 237.233 938.526 241.812 944.67 245.363L1047.73 279.149ZM1047.73 279.149C1041.63 282.697 1033.59 284.486 1025.51 284.486C1017.42 284.486 1009.36 282.698 1003.22 279.148L1003.22 279.148L944.67 245.363L1047.73 279.149Z" fill="#FFF5F9" stroke="#FF44A0"/>
<path d="M931.934 160.418C938.135 156.84 941.681 161.141 941.714 171.926C941.748 183.434 938.051 191.918 931.531 195.682C925.784 199.008 921.869 195.06 921.751 183.922C921.718 172.582 925.969 163.879 931.934 160.418ZM931.75 192.002C935.833 189.65 937.766 183.065 937.732 174.413C937.698 165.761 935.833 161.695 931.716 164.064C928.238 166.08 925.7 172.43 925.734 181.654C925.767 190.877 928.137 194.086 931.75 192.002Z" fill="#C5357C"/>
<path d="M961.476 165.005L965.593 162.619V166.215L961.476 168.6L961.509 177.823L957.762 179.991L957.728 170.767L944.05 178.663V175.656L957.107 146.475L961.408 143.988L961.476 165.005ZM957.695 155.883C957.695 154.119 957.728 152.321 957.812 150.507L957.678 150.591C956.771 153.094 956.065 154.959 955.241 156.991L948.083 172.649V172.75L957.728 167.189L957.695 155.899" fill="#C5357C"/>
<path d="M1032.15 228.51C1036.41 230.962 1036.54 234.961 1032.41 237.414C1028.27 239.883 1021.47 239.866 1017.2 237.414C1012.95 234.944 1012.83 230.962 1016.98 228.51C1021.11 226.057 1027.9 226.057 1032.15 228.51ZM1024.83 238.27C1027.15 238.27 1029.45 237.75 1031.2 236.708C1032.93 235.666 1033.77 234.322 1033.73 232.945C1033.68 231.584 1032.78 230.223 1030.98 229.198C1029.18 228.157 1026.84 227.636 1024.53 227.636C1022.21 227.636 1019.9 228.157 1018.17 229.198C1016.43 230.24 1015.59 231.601 1015.62 232.962C1015.67 234.322 1016.58 235.683 1018.37 236.708C1020.17 237.75 1022.51 238.27 1024.83 238.27Z" fill="#93277C"/>
<path d="M1045.58 240.774C1045.82 240.975 1045.78 241.227 1045.5 241.395L1040.44 244.419C1040.15 244.587 1039.72 244.604 1039.38 244.47L1035.53 242.991C1034.05 243.529 1032.47 243.932 1030.84 244.234L1030.04 246.771C1029.95 246.99 1029.63 247.174 1029.23 247.174H1021.95C1021.72 247.174 1021.52 247.124 1021.35 247.023C1021.23 246.956 1021.15 246.872 1021.11 246.771L1020.26 244.419C1018.44 244.15 1016.64 243.747 1014.96 243.176L1011.65 244.47C1011.32 244.604 1010.88 244.57 1010.59 244.419L1005.37 241.412C1005.08 241.244 1005.03 240.975 1005.25 240.79L1007.42 238.842C1006.39 237.834 1005.67 236.758 1005.2 235.666L1001.25 235.297C1001.07 235.28 1000.9 235.23 1000.78 235.162C1000.63 235.078 1000.53 234.961 1000.53 234.826L1000.41 230.559C1000.41 230.307 1000.71 230.122 1001.12 230.072L1005.33 229.669C1005.81 228.644 1006.53 227.653 1007.54 226.712L1004.86 224.595C1004.61 224.394 1004.65 224.125 1004.93 223.957L1009.99 220.933C1010.29 220.765 1010.75 220.731 1011.08 220.882L1015.08 222.562C1016.56 222.109 1018.09 221.756 1019.67 221.538L1020.39 218.614C1020.44 218.379 1020.79 218.194 1021.2 218.194H1028.47C1028.71 218.194 1028.91 218.262 1029.08 218.346C1029.2 218.413 1029.28 218.514 1029.31 218.614L1030.26 221.739C1031.68 221.974 1033.08 222.327 1034.39 222.764L1038.74 220.899C1039.06 220.748 1039.53 220.782 1039.83 220.95L1045.06 223.957C1045.35 224.125 1045.4 224.394 1045.16 224.595L1042.03 227.166C1042.76 227.888 1043.36 228.661 1043.8 229.45L1049.21 230.089C1049.38 230.106 1049.53 230.156 1049.65 230.223C1049.8 230.307 1049.9 230.442 1049.9 230.576L1050.02 234.843C1050.02 235.078 1049.75 235.28 1049.36 235.33L1044.3 235.935C1043.97 236.792 1043.45 237.615 1042.77 238.405L1045.61 240.841L1045.58 240.774ZM1039.7 243.445L1043.82 240.992L1041.06 238.64C1040.89 238.489 1040.88 238.287 1041.03 238.119L1041.21 237.918C1041.88 237.128 1042.39 236.305 1042.69 235.482L1042.74 235.33C1042.81 235.162 1043.01 235.028 1043.28 234.978L1048.3 234.373L1048.2 230.912L1043.36 230.341H1043.14C1042.91 230.341 1042.69 230.29 1042.54 230.19C1042.44 230.122 1042.35 230.055 1042.32 229.971L1042.24 229.786C1041.83 229.014 1041.25 228.274 1040.52 227.552L1040.32 227.35C1040.1 227.182 1040.1 226.947 1040.32 226.779L1043.36 224.276L1039.16 221.857L1034.94 223.671C1034.67 223.789 1034.31 223.789 1034 223.688L1033.63 223.554C1032.39 223.134 1031.1 222.814 1029.75 222.596L1029.28 222.512C1029.13 222.495 1028.99 222.445 1028.89 222.378C1028.78 222.31 1028.69 222.21 1028.66 222.109L1027.75 219.102H1021.92L1021.23 221.941C1021.18 222.142 1020.91 222.31 1020.58 222.361L1020.17 222.394C1018.68 222.596 1017.23 222.915 1015.85 223.352C1015.72 223.386 1015.59 223.453 1015.42 223.503C1015.13 223.604 1014.8 223.587 1014.51 223.47L1010.68 221.84L1006.61 224.259L1009.22 226.326C1009.44 226.494 1009.43 226.712 1009.25 226.897L1009.03 227.065C1008.07 227.955 1007.38 228.896 1006.91 229.887L1006.8 230.156C1006.71 230.341 1006.44 230.475 1006.12 230.509L1002.06 230.895L1002.16 234.322L1005.99 234.675C1006.17 234.675 1006.34 234.742 1006.46 234.81C1006.58 234.877 1006.66 234.961 1006.7 235.062L1006.76 235.28C1007.2 236.322 1007.89 237.313 1008.83 238.27C1008.88 238.321 1008.98 238.405 1009.12 238.539C1009.27 238.69 1009.25 238.892 1009.08 239.043L1007 240.925L1011.25 243.378L1014.43 242.134C1014.68 242.034 1014.98 242.017 1015.27 242.101C1015.48 242.168 1015.64 242.235 1015.75 242.269C1017.3 242.773 1018.96 243.159 1020.64 243.394L1021.06 243.428C1021.23 243.445 1021.4 243.495 1021.52 243.562C1021.63 243.63 1021.72 243.714 1021.75 243.814L1022.58 246.099H1028.47L1029.25 243.68C1029.3 243.495 1029.53 243.344 1029.84 243.31L1030.26 243.243C1031.8 242.974 1033.3 242.571 1034.69 242.067L1034.98 241.95C1035.26 241.832 1035.63 241.832 1035.94 241.95L1039.67 243.394" fill="#93277C"/>
<path d="M811.264 103.451L753.105 137.252C740.72 144.459 720.556 144.459 708.087 137.252L649.541 103.467C643.273 99.8387 640.131 95.0843 640.148 90.3467V97.0667C640.114 101.821 643.257 106.575 649.524 110.187L708.07 143.972C720.539 151.179 740.687 151.179 753.088 143.972L811.247 110.171C817.398 106.592 820.49 101.922 820.49 97.2347V90.5147C820.49 95.2019 817.414 99.8891 811.264 103.451Z" fill="#852DEE"/>
<path d="M811.63 78.258V78.2596L810.88 77.8265L752.334 44.0249L752.334 44.0248C746.193 40.4754 738.126 38.6865 730.043 38.6865C721.96 38.6865 713.915 40.4755 707.817 44.0241L707.817 44.0242L649.658 77.8257C643.558 81.3758 640.636 85.9523 640.662 90.4274C640.688 94.9039 643.664 99.4828 649.808 103.034L811.63 78.258ZM811.63 78.258C817.266 81.7417 820 86.1261 820.025 90.4164C820.051 94.8915 817.13 99.4681 811.029 103.018L752.87 136.82L752.87 136.82C746.772 140.368 738.727 142.157 730.644 142.157C722.561 142.157 714.494 140.368 708.354 136.819L708.353 136.819L649.808 103.034L811.63 78.258Z" fill="#F5F0FA" stroke="#852DEE"/>
<path d="M636.652 17.5347C642.87 13.9563 646.415 18.2571 646.449 29.0259C646.483 40.5339 642.786 49.0179 636.266 52.7811C630.519 56.1075 626.603 52.1595 626.469 41.0211C626.435 29.6811 630.687 20.9788 636.652 17.518V17.5347ZM636.467 49.1188C640.551 46.7668 642.466 40.1811 642.45 31.5459C642.433 22.9107 640.551 18.8283 636.434 21.1971C632.955 23.2131 630.435 29.5635 630.452 38.7699C630.468 47.9763 632.838 51.202 636.467 49.1188Z" fill="#7400FF"/>
<path d="M658.766 4.78358C664.564 1.44038 667.202 3.87637 667.219 7.97557C667.219 11.47 665.421 15.4852 661.808 19.0804V19.198C665.438 17.938 668.395 19.366 668.412 24.0868C668.412 29.4964 664.765 36.3508 657.708 40.4332C654.397 42.3484 651.507 42.8188 650.045 42.55L651.12 38.3836C652.246 38.5684 654.885 38.35 657.657 36.754C662.782 33.7972 664.345 29.1436 664.295 26.3548C664.244 21.6508 660.514 21.7684 656.666 23.986L654.448 25.2628V21.8188L656.666 20.542C659.556 18.862 663.219 15.0316 663.219 11.0332C663.219 8.32838 661.707 6.78276 658.044 8.91636C655.691 10.2772 653.423 12.7804 652.162 14.5444L651.12 11.8228C652.666 9.63876 655.641 6.61478 658.817 4.78358H658.766Z" fill="#7400FF"/>
<path d="M741.712 81.2407C748.887 85.3903 749.055 92.0935 742.098 96.2431C735.141 100.393 723.681 100.393 716.505 96.2431C709.33 92.0935 709.145 85.3735 716.102 81.2407C723.059 77.1079 734.52 77.0911 741.695 81.2407H741.712ZM729.361 98.3767C733.578 98.3767 737.746 97.4359 740.905 95.5543C744.064 93.6727 745.593 91.2199 745.543 88.7503C745.476 86.2975 743.812 83.8279 740.552 81.9631C737.292 80.0983 733.074 79.1407 728.873 79.1407C724.656 79.1407 720.488 80.0815 717.329 81.9631C714.17 83.8447 712.641 86.2975 712.691 88.7671C712.775 91.2367 714.422 93.6895 717.682 95.5711C720.942 97.4527 725.16 98.3767 729.361 98.3767Z" fill="#8E00FF"/>
<path d="M734.704 85.1378L733.377 85.9274C734.2 86.4482 734.553 86.9018 734.738 87.2882L733.477 87.6242C733.36 87.3554 733.074 86.8514 732.167 86.3138C731.074 85.6922 730.033 85.8266 729.495 86.1458C728.789 86.5658 728.957 87.0866 729.697 88.0946C730.57 89.2874 730.587 90.1274 729.377 90.8666C728.285 91.505 726.504 91.6562 724.807 90.9674L723.378 91.8242L722.471 91.3034L723.866 90.4802C723.059 90.0098 722.454 89.3714 722.303 88.8674L723.563 88.5146C723.748 89.0018 724.218 89.5898 725.008 90.0434C726.016 90.6314 727.26 90.6818 728.033 90.2114C728.806 89.741 728.705 89.1698 728.067 88.313C727.176 87.1538 726.907 86.2634 728.117 85.541C729.26 84.869 730.957 84.8354 732.469 85.457L733.847 84.6338L734.721 85.1378H734.704Z" fill="#8E00FF"/>
<path d="M746.669 78.3002C756.668 84.0794 756.92 93.437 747.224 99.2162C737.528 104.995 721.547 104.995 711.548 99.2162C701.55 93.437 701.281 84.0794 710.977 78.3002C720.673 72.521 736.654 72.521 746.652 78.3002H746.669ZM729.478 102.559C735.494 102.559 741.493 101.215 746.014 98.5106C750.534 95.8058 752.735 92.2778 752.651 88.7498C752.551 85.2218 750.164 81.677 745.493 78.989C740.821 76.301 734.755 74.9402 728.722 74.9402C722.706 74.9402 716.707 76.2842 712.187 78.989C707.667 81.6938 705.465 85.2218 705.549 88.7498C705.65 92.2778 708.036 95.8226 712.708 98.5106C717.38 101.199 723.429 102.559 729.462 102.559" fill="#8E00FF"/>
<path d="M1391.14 103.451L1332.98 137.252C1320.6 144.459 1300.43 144.459 1287.96 137.252L1229.42 103.467C1223.15 99.8387 1220.01 95.0843 1220.02 90.3467V97.0667C1219.99 101.821 1223.13 106.575 1229.4 110.187L1287.95 143.972C1300.42 151.179 1320.56 151.179 1332.97 143.972L1391.12 110.171C1397.27 106.592 1400.37 101.922 1400.37 97.2347V90.5147C1400.37 95.2019 1397.29 99.8891 1391.14 103.451Z" fill="#FF445B"/>
<path d="M1391.49 78.258V78.2596L1390.74 77.8265L1332.19 44.0249L1332.19 44.0248C1326.05 40.4754 1317.99 38.6865 1309.9 38.6865C1301.82 38.6865 1293.78 40.4755 1287.68 44.0241L1287.68 44.0242L1229.52 77.8257C1223.42 81.3758 1220.5 85.9523 1220.52 90.4274C1220.55 94.9039 1223.52 99.4828 1229.67 103.034L1391.49 78.258ZM1391.49 78.258C1397.13 81.7417 1399.86 86.1261 1399.89 90.4164C1399.91 94.8915 1396.99 99.4681 1390.89 103.018L1332.73 136.82L1332.73 136.82C1326.63 140.368 1318.59 142.157 1310.5 142.157C1302.42 142.157 1294.35 140.368 1288.21 136.819L1288.21 136.819L1229.67 103.034L1391.49 78.258Z" fill="#FFF5F5" stroke="#FF445B"/>
<path d="M1216.5 17.5013C1222.7 13.9229 1226.24 18.2237 1226.28 29.0093C1226.31 40.5173 1222.61 49.0013 1216.09 52.7645C1210.35 56.0909 1206.43 52.1429 1206.31 41.0045C1206.28 29.6645 1210.53 20.9621 1216.5 17.5013ZM1216.31 49.0853C1220.38 46.7333 1222.31 40.1477 1222.29 31.5125C1222.28 22.8773 1220.39 18.7949 1216.28 21.1637C1212.8 23.1797 1210.26 29.5301 1210.3 38.7533C1210.33 47.9765 1212.7 51.1853 1216.33 49.0853" fill="#C53546"/>
<path d="M1247.48 0.197266V4.04448L1236.26 10.5293L1235.15 19.8701C1235.84 19.3661 1236.46 18.8957 1237.55 18.2741C1239.82 16.9637 1242.09 16.2245 1243.9 16.4429C1246.22 16.6109 1248.12 18.4421 1248.14 22.7093C1248.15 29.3117 1243.6 36.8885 1237.22 40.5845C1233.99 42.4493 1231.28 42.9701 1229.87 42.7349L1230.86 38.6693C1232.09 38.8037 1234.49 38.4509 1237.17 36.9053C1240.91 34.7381 1244.14 30.0677 1244.12 25.5485C1244.07 21.1973 1241.52 19.5509 1235.62 22.9445C1233.94 23.9189 1232.64 24.8765 1231.54 25.6661L1233.4 8.32848L1247.48 0.197266Z" fill="#C53546"/>
<path d="M1333.1 86.4987C1334.97 87.5739 1335.69 89.0691 1335.27 90.4635C1335.18 90.7323 1334.75 90.9003 1334.29 90.8499C1334.13 90.8331 1333.97 90.7827 1333.86 90.7155C1333.65 90.5979 1333.57 90.4467 1333.6 90.2787C1333.92 89.1867 1333.37 88.0275 1331.92 87.1875L1314.33 77.0403C1311.99 75.7131 1308.3 75.7131 1306.06 77.0403L1289.01 87.2043C1286.75 88.5483 1286.8 90.7155 1289.14 92.0595L1306.73 102.207C1309.05 103.534 1312.75 103.534 1315 102.207L1321.64 98.2587C1321.96 98.0571 1322.5 98.0571 1322.83 98.2587C1323.17 98.4603 1323.19 98.7627 1322.85 98.9643L1316.21 102.912C1313.32 104.643 1308.55 104.643 1305.56 102.912L1287.96 92.7651C1284.97 91.0347 1284.91 88.2459 1287.8 86.5155L1304.85 76.3515C1307.74 74.6211 1312.52 74.6211 1315.51 76.3515L1333.1 86.4987Z" fill="#932B27"/>
<path d="M1335.29 93.9743C1335.45 94.0751 1335.55 94.1927 1335.54 94.3439C1335.54 94.6127 1335.13 94.8311 1334.68 94.8143L1305.24 94.0751C1305.02 94.0751 1304.82 94.0079 1304.68 93.9239C1304.53 93.8399 1304.43 93.7055 1304.43 93.5711L1304.26 87.5399C1304.26 87.2711 1304.63 87.0527 1305.09 87.0527C1305.32 87.0527 1305.53 87.1199 1305.68 87.2039C1305.83 87.2879 1305.93 87.4223 1305.95 87.5567L1306.08 93.1007L1334.71 93.8231C1334.93 93.8231 1335.13 93.8903 1335.27 93.9743H1335.29Z" fill="#932B27"/>
<path d="M234.345 103.451L176.186 137.252C163.801 144.459 143.637 144.459 131.168 137.252L72.6223 103.467C66.3376 99.8387 63.212 95.0843 63.2288 90.3467V97.0667C63.1952 101.821 66.3375 106.575 72.6055 110.187L131.151 143.972C143.62 151.179 163.768 151.179 176.169 143.972L234.328 110.171C240.479 106.592 243.571 101.922 243.571 97.2347V90.5147C243.571 95.2019 240.495 99.8891 234.345 103.451Z" fill="#44C4FF"/>
<path d="M234.694 78.258V78.2596L233.944 77.8266L175.398 44.0249L175.398 44.0248C169.258 40.4754 161.191 38.6865 153.108 38.6865C145.025 38.6865 136.979 40.4755 130.882 44.0241L130.881 44.0242L72.7226 77.8257C66.6222 81.3758 63.7008 85.9523 63.7267 90.4274C63.7527 94.9039 66.7286 99.4828 72.8723 103.034L234.694 78.258ZM234.694 78.258C240.33 81.7417 243.065 86.1261 243.09 90.4164C243.116 94.8915 240.194 99.4681 234.094 103.018L175.935 136.82L175.935 136.82C169.837 140.368 161.792 142.157 153.709 142.157C145.626 142.157 137.559 140.368 131.418 136.819L131.418 136.819L72.8726 103.034L234.694 78.258Z" fill="#F5FBFF" stroke="#44C4FF"/>
<path d="M179.076 103.232H179.429L187.815 103.266L187.781 104.24L180.152 104.207L180.169 103.552H179.06L179.076 103.232Z" fill="#277193"/>
<path d="M178.489 103.551H179.06H180.169L180.152 104.206L180.068 108.624L178.388 108.608L178.472 104.055L178.489 103.551Z" fill="#277193"/>
<path d="M175.816 102.476L175.833 101.652H176.774L179.429 103.232H179.076L179.06 103.551H178.488L178.471 104.055L175.816 102.476Z" fill="#277193"/>
<path d="M174.17 101.015H174.741H175.851L175.834 101.653L175.817 102.476L175.75 106.071H174.069L174.153 101.502L174.17 101.015Z" fill="#277193"/>
<path d="M174.758 100.662H175.094L183.496 100.713L183.479 101.687L176.775 101.653H175.833L175.85 101.015H174.741L174.758 100.662Z" fill="#277193"/>
<path d="M134.781 77.5616C145.233 71.6144 162.054 71.6984 172.288 77.7464C182.32 83.66 182.32 93.152 172.456 99.116L171.28 98.4272C180.488 92.8328 180.471 83.9624 171.095 78.4352C161.533 72.7736 145.771 72.7064 135.974 78.2672L135.84 78.3512C126.177 83.9288 126.06 92.984 135.571 98.612C144.964 104.156 160.273 104.341 170.086 99.116L171.263 99.8048C160.777 105.399 144.393 105.214 134.361 99.3008C124.194 93.2864 124.329 83.6264 134.647 77.6624L134.798 77.5785L134.781 77.5616Z" fill="#277193"/>
<path d="M152.711 88.8509L153.921 88.1621L158.475 90.8501L159.651 91.5557L164.054 94.1429L165.23 94.8485L171.279 98.4101L172.456 99.0989L175.094 100.661H174.758L174.741 101.014H174.17L174.153 101.501L171.246 99.7877L170.07 99.0989L164.037 95.5205L162.861 94.8317L158.458 92.2277L157.282 91.5389L152.711 88.8509Z" fill="#277193"/>
<path d="M147.552 85.1046C150.812 83.2566 156.055 83.2902 159.214 85.155C162.205 86.919 162.323 89.691 159.651 91.5558L158.475 90.8502C160.491 89.3718 160.34 87.2046 158.021 85.827C156.794 85.1046 155.164 84.7014 153.4 84.7014C151.652 84.7014 149.989 85.071 148.745 85.7934C146.157 87.2886 146.124 89.6742 148.644 91.1694C150.98 92.547 154.694 92.6814 157.282 91.539L158.458 92.2278C155.198 93.7398 150.409 93.6054 147.434 91.8414C144.275 89.9766 144.309 86.9694 147.518 85.1214H147.569L147.552 85.1046Z" fill="#277193"/>
<path d="M141.923 81.8628C141.923 81.8628 141.973 81.8292 142.007 81.8124C148.409 78.1836 158.676 78.234 164.927 81.93C167.952 83.7108 169.582 86.0796 169.549 88.5828C169.498 90.918 167.986 93.1188 165.247 94.8492L164.054 94.1436C166.406 92.598 167.801 90.6492 167.851 88.566C167.902 86.3316 166.44 84.198 163.718 82.602C158.122 79.2924 148.896 79.2588 143.183 82.5012L143.099 82.5516C137.453 85.8108 137.385 91.1028 142.948 94.4124C145.653 96.0084 149.283 96.8988 153.165 96.9156C156.761 96.9324 160.172 96.1932 162.861 94.8324L164.037 95.5212C161.029 97.0668 157.198 97.9068 153.148 97.89C148.812 97.8732 144.762 96.882 141.738 95.0844C135.52 91.4052 135.571 85.5084 141.923 81.846V81.8628Z" fill="#277193"/>
<path d="M58.5409 15.8717C64.7584 12.2933 68.3041 16.5941 68.3377 27.3629C68.3713 38.8709 64.6744 47.3549 58.1544 51.1181C52.4074 54.4445 48.4921 50.4965 48.3576 39.3581C48.324 28.0181 52.5755 19.3157 58.5409 15.8549V15.8717ZM58.3561 47.4557C62.4395 45.1037 64.3551 38.5181 64.3383 29.8829C64.3215 21.2477 62.4395 17.1653 58.3225 19.5341C54.844 21.5501 52.3234 27.9005 52.3402 37.1069C52.357 46.3133 54.7264 49.5389 58.3561 47.4557Z" fill="#3598C5"/>
<path d="M84.4532 1.50781L84.5541 35.3262L80.7059 37.5438L80.6219 7.99261L80.5379 8.04301L75.4294 14.1582L74.6396 11.1174L81.0756 3.45662L84.4532 1.50781Z" fill="#3598C5"/>
<defs>
<filter id="filter0_f_2219_80718" x="0.661133" y="1" width="308.363" height="232.471" filterUnits="userSpaceOnUse" color-interpolation-filters="sRGB">
<feFlood flood-opacity="0" result="BackgroundImageFix"/>
<feBlend mode="normal" in="SourceGraphic" in2="BackgroundImageFix" result="shape"/>
<feGaussianBlur stdDeviation="32" result="effect1_foregroundBlur_2219_80718"/>
</filter>
<filter id="filter1_f_2219_80718" x="292.661" y="146" width="308.363" height="232.471" filterUnits="userSpaceOnUse" color-interpolation-filters="sRGB">
<feFlood flood-opacity="0" result="BackgroundImageFix"/>
<feBlend mode="normal" in="SourceGraphic" in2="BackgroundImageFix" result="shape"/>
<feGaussianBlur stdDeviation="32" result="effect1_foregroundBlur_2219_80718"/>
</filter>
<filter id="filter2_f_2219_80718" x="576.661" y="13" width="308.363" height="232.471" filterUnits="userSpaceOnUse" color-interpolation-filters="sRGB">
<feFlood flood-opacity="0" result="BackgroundImageFix"/>
<feBlend mode="normal" in="SourceGraphic" in2="BackgroundImageFix" result="shape"/>
<feGaussianBlur stdDeviation="32" result="effect1_foregroundBlur_2219_80718"/>
</filter>
<filter id="filter3_f_2219_80718" x="870.661" y="151" width="308.363" height="232.471" filterUnits="userSpaceOnUse" color-interpolation-filters="sRGB">
<feFlood flood-opacity="0" result="BackgroundImageFix"/>
<feBlend mode="normal" in="SourceGraphic" in2="BackgroundImageFix" result="shape"/>
<feGaussianBlur stdDeviation="32" result="effect1_foregroundBlur_2219_80718"/>
</filter>
<filter id="filter4_f_2219_80718" x="1156.66" y="13" width="308.363" height="232.471" filterUnits="userSpaceOnUse" color-interpolation-filters="sRGB">
<feFlood flood-opacity="0" result="BackgroundImageFix"/>
<feBlend mode="normal" in="SourceGraphic" in2="BackgroundImageFix" result="shape"/>
<feGaussianBlur stdDeviation="32" result="effect1_foregroundBlur_2219_80718"/>
</filter>
<linearGradient id="paint0_linear_2219_80718" x1="346.731" y1="169.017" x2="365.095" y2="174.503" gradientUnits="userSpaceOnUse">
<stop stop-color="#F05225"/>
<stop offset="1" stop-color="#EEA820"/>
</linearGradient>
<linearGradient id="paint1_linear_2219_80718" x1="346.731" y1="169.017" x2="365.095" y2="174.503" gradientUnits="userSpaceOnUse">
<stop stop-color="#F05225"/>
<stop offset="1" stop-color="#EEA820"/>
</linearGradient>
<linearGradient id="paint2_linear_2219_80718" x1="370.295" y1="156.712" x2="387.952" y2="161.251" gradientUnits="userSpaceOnUse">
<stop stop-color="#F05225"/>
<stop offset="1" stop-color="#EEA820"/>
</linearGradient>
<linearGradient id="paint3_linear_2219_80718" x1="370.295" y1="156.712" x2="387.952" y2="161.251" gradientUnits="userSpaceOnUse">
<stop stop-color="#F05225"/>
<stop offset="1" stop-color="#EEA820"/>
</linearGradient>
<linearGradient id="paint4_linear_2219_80718" x1="453.977" y1="237.067" x2="457.949" y2="240.898" gradientUnits="userSpaceOnUse">
<stop stop-color="#F05225"/>
<stop offset="1" stop-color="#EEA820"/>
</linearGradient>
<linearGradient id="paint5_linear_2219_80718" x1="446.76" y1="232.888" x2="450.747" y2="236.723" gradientUnits="userSpaceOnUse">
<stop stop-color="#F05225"/>
<stop offset="1" stop-color="#EEA820"/>
</linearGradient>
<linearGradient id="paint6_linear_2219_80718" x1="439.526" y1="228.717" x2="443.498" y2="232.549" gradientUnits="userSpaceOnUse">
<stop stop-color="#F05225"/>
<stop offset="1" stop-color="#EEA820"/>
</linearGradient>
<linearGradient id="paint7_linear_2219_80718" x1="428.612" y1="226.704" x2="455.392" y2="253.273" gradientUnits="userSpaceOnUse">
<stop stop-color="#F05225"/>
<stop offset="1" stop-color="#EEA820"/>
</linearGradient>
</defs>
</svg>
