<svg width="23" height="22" viewBox="0 0 23 22" fill="none" xmlns="http://www.w3.org/2000/svg">
<path fillRule="evenodd" clipRule="evenodd" d="M11.5648 15.4763C14.245 15.4763 16.4177 13.3036 16.4177 10.6234C16.4177 7.94319 14.245 5.77045 11.5648 5.77045C8.88459 5.77045 6.71186 7.94319 6.71186 10.6234C6.71186 13.3036 8.88459 15.4763 11.5648 15.4763ZM11.5648 16.7999C14.976 16.7999 17.7413 14.0346 17.7413 10.6234C17.7413 7.21222 14.976 4.44692 11.5648 4.44692C8.15363 4.44692 5.38833 7.21222 5.38833 10.6234C5.38833 14.0346 8.15363 16.7999 11.5648 16.7999Z" fill="#fff"/>
<path fillRule="evenodd" clipRule="evenodd" d="M22.153 10.6234C22.153 10.9889 21.8567 11.2852 21.4913 11.2852L19.2854 11.2852C18.9199 11.2852 18.6236 10.9889 18.6236 10.6234C18.6236 10.2579 18.9199 9.96163 19.2854 9.96163L21.4913 9.96163C21.8568 9.96163 22.153 10.2579 22.153 10.6234ZM4.50597 10.6234C4.50597 10.9889 4.20969 11.2852 3.84421 11.2852H1.63833C1.27284 11.2852 0.976562 10.9889 0.976562 10.6234C0.976563 10.2579 1.27285 9.96163 1.63833 9.96163H3.84421C4.20969 9.96163 4.50597 10.2579 4.50597 10.6234Z" fill="#fff"/>
<path fillRule="evenodd" clipRule="evenodd" d="M19.0517 3.13648C19.3101 3.39492 19.3101 3.81392 19.0517 4.07236L17.4919 5.63215C17.2335 5.89059 16.8145 5.89059 16.556 5.63215C16.2976 5.37372 16.2976 4.95471 16.556 4.69628L18.1158 3.13648C18.3743 2.87805 18.7933 2.87805 19.0517 3.13648ZM6.57335 15.6148C6.83179 15.8733 6.83179 16.2923 6.57335 16.5507L5.01356 18.1105C4.75512 18.3689 4.33612 18.3689 4.07768 18.1105C3.81925 17.8521 3.81925 17.4331 4.07768 17.1746L5.63748 15.6148C5.89591 15.3564 6.31492 15.3564 6.57335 15.6148Z" fill="#fff"/>
<path fillRule="evenodd" clipRule="evenodd" d="M11.5648 0.0351563C11.9303 0.0351564 12.2266 0.331439 12.2266 0.696921L12.2266 2.9028C12.2266 3.26829 11.9303 3.56457 11.5648 3.56457C11.1993 3.56457 10.903 3.26829 10.903 2.9028L10.903 0.696921C10.903 0.331438 11.1993 0.0351561 11.5648 0.0351563ZM11.5648 17.6822C11.9303 17.6822 12.2266 17.9785 12.2266 18.344V20.5499C12.2266 20.9153 11.9303 21.2116 11.5648 21.2116C11.1993 21.2116 10.903 20.9153 10.903 20.5499V18.344C10.903 17.9785 11.1993 17.6822 11.5648 17.6822Z" fill="#fff"/>
<path fillRule="evenodd" clipRule="evenodd" d="M4.07789 3.13648C4.33632 2.87805 4.75533 2.87805 5.01376 3.13648L6.57356 4.69628C6.83199 4.95471 6.83199 5.37372 6.57356 5.63215C6.31512 5.89059 5.89612 5.89059 5.63768 5.63215L4.07789 4.07236C3.81945 3.81392 3.81945 3.39492 4.07789 3.13648ZM16.5562 15.6148C16.8147 15.3564 17.2337 15.3564 17.4921 15.6148L19.0519 17.1746C19.3103 17.4331 19.3103 17.8521 19.0519 18.1105C18.7935 18.3689 18.3745 18.3689 18.116 18.1105L16.5562 16.5507C16.2978 16.2923 16.2978 15.8733 16.5562 15.6148Z" fill="#fff"/>
</svg>
