<svg width="14" height="14" viewBox="0 0 14 14" fill="none" xmlns="http://www.w3.org/2000/svg">
<g clip-path="url(#clip0_2092_50843)">
<path d="M12.1575 7.43924C12.1114 7.1028 12.0687 6.72486 12.0056 6.35058C11.9408 5.96858 12.1432 5.63702 12.5114 5.55565C12.86 5.47876 13.2017 5.70129 13.2766 6.07923C13.7397 8.42009 13.1565 10.4664 11.457 12.1429C10.0055 13.5745 8.22081 14.1526 6.19384 13.9468C3.49528 13.673 1.18729 11.6043 0.592272 8.94652C-0.18113 5.49504 1.87313 2.10539 5.29988 1.20225C6.55427 0.871502 7.80418 0.92683 9.03535 1.34138C9.40678 1.46628 9.59127 1.82306 9.47316 2.17333C9.35505 2.52401 8.99788 2.69732 8.62279 2.57283C7.46329 2.18879 6.29891 2.1713 5.15978 2.60904C3.30916 3.31976 2.16433 4.66146 1.81041 6.61664C1.32739 9.28377 3.02774 11.8728 5.65543 12.5331C8.60405 13.2739 11.5392 11.3622 12.0556 8.36069C12.1053 8.07144 12.1208 7.7769 12.1571 7.43924H12.1575Z" fill="black"/>
<path d="M6.29732 7.923C6.34905 7.84286 6.3743 7.78346 6.41665 7.74075C8.14999 6.00565 9.88576 4.27259 11.6191 2.53749C11.791 2.36541 11.9824 2.26329 12.2308 2.30316C12.4841 2.34344 12.6584 2.48745 12.7448 2.72544C12.8319 2.96506 12.7794 3.18515 12.6149 3.37839C12.5819 3.41704 12.5444 3.45162 12.5086 3.48742C10.6156 5.37914 8.72261 7.27087 6.83003 9.16218C6.45127 9.54053 6.10876 9.53971 5.72715 9.15852C5.11665 8.54829 4.50494 7.93928 3.89566 7.32742C3.63623 7.06705 3.60691 6.71189 3.81584 6.44543C4.06427 6.1281 4.50494 6.10451 4.8055 6.40067C5.25757 6.84615 5.70475 7.2965 6.15315 7.74603C6.19225 7.78509 6.22361 7.83228 6.29692 7.9226L6.29732 7.923Z" fill="black"/>
</g>
<defs>
<clipPath id="clip0_2092_50843">
<rect width="13" height="13" fill="black" transform="translate(0.429688 0.987915)"/>
</clipPath>
</defs>
</svg>
