<svg width="20" height="22" viewBox="0 0 20 22" fill="none" xmlns="http://www.w3.org/2000/svg">
<g clip-path="url(#clip0_2075_49050)">
<path d="M6.58379 21.0796C4.55533 18.2859 2.55096 15.5258 0.546875 12.7657C0.553042 12.7577 0.559503 12.7498 0.565671 12.7415C2.26374 13.8804 3.9618 15.0193 5.67102 16.1658C5.71273 16.1004 5.74503 16.0526 5.77469 16.0034C7.1782 13.6732 8.69154 11.4182 10.3461 9.2595C12.1217 6.94287 14.0362 4.75087 16.1813 2.76897C17.1995 1.82812 18.2664 0.947076 19.4059 0.156497C19.4488 0.126736 19.4934 0.0996269 19.5469 0.0795898C13.8401 6.20474 9.7435 13.3303 6.58379 21.0796Z" fill="url(#paint0_linear_2075_49050)"/>
</g>
<defs>
<linearGradient id="paint0_linear_2075_49050" x1="0.528872" y1="10.5793" x2="19.4973" y2="10.5793" gradientUnits="userSpaceOnUse">
<stop stop-color="#0DA1DA"/>
<stop offset="1" stop-color="#5DB98E"/>
</linearGradient>
<clipPath id="clip0_2075_49050">
<rect width="19" height="21" fill="white" transform="translate(0.546875 0.0795898)"/>
</clipPath>
</defs>
</svg>
