<svg width="57" height="58" viewBox="0 0 57 58" fill="none" xmlns="http://www.w3.org/2000/svg">
<circle cx="28.5" cy="29.2402" r="28.5" fill="url(#paint0_linear_694_25997)"/>
<g clip-path="url(#clip0_694_25997)">
<path d="M41.7025 21.8099C40.7482 22.232 39.7362 22.5092 38.7 22.6324C39.7922 21.9792 40.6096 20.9512 41 19.7399C39.975 20.3499 38.8513 20.7774 37.68 21.0086C36.8933 20.1669 35.8505 19.6086 34.7137 19.4206C33.5769 19.2327 32.4099 19.4255 31.3941 19.9692C30.3782 20.5129 29.5705 21.377 29.0964 22.4271C28.6223 23.4773 28.5084 24.6546 28.7725 25.7761C26.6939 25.672 24.6604 25.1318 22.8041 24.1907C20.9478 23.2497 19.3102 21.9287 17.9975 20.3136C17.5329 21.1117 17.2887 22.0189 17.29 22.9424C17.29 24.7549 18.2125 26.3561 19.615 27.2936C18.785 27.2675 17.9733 27.0434 17.2475 26.6399V26.7049C17.2478 27.912 17.6655 29.0819 18.4298 30.0162C19.1942 30.9505 20.2581 31.5917 21.4413 31.8311C20.6708 32.0399 19.8629 32.0707 19.0788 31.9211C19.4123 32.9602 20.0625 33.8689 20.9382 34.52C21.814 35.1712 22.8714 35.5321 23.9625 35.5524C22.8781 36.4041 21.6365 37.0336 20.3086 37.4051C18.9807 37.7766 17.5927 37.8827 16.2238 37.7174C18.6134 39.2542 21.3951 40.0701 24.2363 40.0674C33.8525 40.0674 39.1113 32.1011 39.1113 25.1924C39.1113 24.9674 39.105 24.7399 39.095 24.5174C40.1186 23.7776 41.002 22.8612 41.7038 21.8111L41.7025 21.8099Z" fill="white"/>
</g>
<defs>
<linearGradient id="paint0_linear_694_25997" x1="5.5" y1="5.74023" x2="42.5" y2="52.2402" gradientUnits="userSpaceOnUse">
<stop stop-color="#0258FF"/>
<stop offset="1" stop-color="#28A2F2"/>
</linearGradient>
<clipPath id="clip0_694_25997">
<rect width="30" height="30" fill="white" transform="translate(14 14.7402)"/>
</clipPath>
</defs>
</svg>
