<svg width="30" height="30" viewBox="0 0 30 30" fill="none" xmlns="http://www.w3.org/2000/svg">
<g clip-path="url(#clip0_3222_60115)">
<rect width="30" height="30" rx="15" fill="#00DA23"/>
<path d="M10.253 21.494L10.977 21.917C12.1979 22.6291 13.5866 23.0029 15 23C16.5823 23 18.129 22.5308 19.4446 21.6517C20.7602 20.7727 21.7855 19.5233 22.391 18.0615C22.9965 16.5997 23.155 14.9911 22.8463 13.4393C22.5376 11.8874 21.7757 10.462 20.6569 9.34314C19.538 8.22432 18.1126 7.4624 16.5607 7.15372C15.0089 6.84504 13.4003 7.00346 11.9385 7.60896C10.4767 8.21446 9.22731 9.23984 8.34825 10.5554C7.4692 11.871 7.00001 13.4177 7.00001 15C7.00001 16.436 7.37701 17.813 8.08401 19.024L8.50601 19.748L7.85301 22.149L10.253 21.494ZM5.00401 25L6.35601 20.032C5.46515 18.5048 4.99711 16.768 5.00001 15C5.00001 9.477 9.47701 5 15 5C20.523 5 25 9.477 25 15C25 20.523 20.523 25 15 25C13.2328 25.0028 11.4967 24.5352 9.97001 23.645L5.00401 25ZM11.391 10.308C11.525 10.298 11.66 10.298 11.794 10.304C11.848 10.308 11.902 10.314 11.956 10.32C12.115 10.338 12.29 10.435 12.349 10.569C12.647 11.245 12.937 11.926 13.217 12.609C13.279 12.761 13.242 12.956 13.124 13.146C13.0429 13.2745 12.9551 13.3986 12.861 13.518C12.748 13.663 12.505 13.929 12.505 13.929C12.505 13.929 12.406 14.047 12.444 14.194C12.458 14.25 12.504 14.331 12.546 14.399L12.605 14.494C12.861 14.921 13.205 15.354 13.625 15.762C13.745 15.878 13.862 15.997 13.988 16.108C14.456 16.521 14.986 16.858 15.558 17.108L15.563 17.11C15.648 17.147 15.691 17.167 15.815 17.22C15.877 17.246 15.941 17.269 16.006 17.286C16.0732 17.3031 16.1439 17.2999 16.2093 17.2767C16.2746 17.2536 16.3316 17.2116 16.373 17.156C17.097 16.279 17.163 16.222 17.169 16.222V16.224C17.2193 16.1771 17.2791 16.1415 17.3443 16.1196C17.4095 16.0977 17.4786 16.09 17.547 16.097C17.607 16.101 17.668 16.112 17.724 16.137C18.255 16.38 19.124 16.759 19.124 16.759L19.706 17.02C19.804 17.067 19.893 17.178 19.896 17.285C19.9 17.352 19.906 17.46 19.883 17.658C19.851 17.917 19.773 18.228 19.695 18.391C19.6416 18.5022 19.5707 18.6042 19.485 18.693C19.3841 18.7989 19.2736 18.8953 19.155 18.981C19.114 19.0119 19.0723 19.0419 19.03 19.071C18.9056 19.1499 18.7778 19.2233 18.647 19.291C18.3895 19.4277 18.1052 19.5063 17.814 19.521C17.629 19.531 17.444 19.545 17.258 19.535C17.25 19.535 16.69 19.448 16.69 19.448C15.2683 19.074 13.9534 18.3735 12.85 17.402C12.624 17.203 12.415 16.989 12.201 16.776C11.311 15.891 10.639 14.936 10.231 14.034C10.0222 13.5913 9.90938 13.1094 9.90001 12.62C9.89589 12.0128 10.0944 11.4217 10.464 10.94C10.537 10.846 10.606 10.748 10.725 10.635C10.852 10.515 10.932 10.451 11.019 10.407C11.1347 10.349 11.2609 10.315 11.39 10.307L11.391 10.308Z" fill="white"/>
</g>
<defs>
<clipPath id="clip0_3222_60115">
<rect width="30" height="30" rx="15" fill="white"/>
</clipPath>
</defs>
</svg>
