<svg width="87" height="75" viewBox="0 0 87 75" fill="none" xmlns="http://www.w3.org/2000/svg">
<path d="M7.5 66.2371L6.95263 66.7498L7.5 66.2371ZM7.5 8.73711L8.04737 9.24983L7.5 8.73711ZM45.6 8.73711L45.0526 9.24983L45.6 8.73711ZM45.6 66.2371L46.1474 66.7498L45.6 66.2371ZM17.3 56.7371L16.7418 57.238L17.3 56.7371ZM35.8 56.7371L35.2418 56.2361L35.2347 56.2443L35.8 56.7371ZM35.8 18.2371L35.2347 18.73L35.2414 18.7377L35.2483 18.7452L35.8 18.2371ZM17.3 18.2371L17.8517 18.7453L17.8582 18.738L17.3 18.2371ZM26.6 73.3871C26.2495 73.3871 25.9021 73.3817 25.5579 73.3708L25.5107 74.8701C25.8709 74.8814 26.234 74.8871 26.6 74.8871V73.3871ZM23.4839 73.2361C22.7852 73.1665 22.1004 73.0729 21.4294 72.9554L21.1706 74.4329C21.8791 74.557 22.6007 74.6555 23.3352 74.7287L23.4839 73.2361ZM19.4072 72.5182C18.7339 72.3438 18.0755 72.1432 17.4318 71.9166L16.9336 73.3314C17.6181 73.5725 18.3173 73.7854 19.0311 73.9703L19.4072 72.5182ZM15.5185 71.1462C14.8918 70.8608 14.2801 70.5481 13.6833 70.2081L12.9407 71.5113C13.5769 71.8738 14.2289 72.2072 14.8967 72.5113L15.5185 71.1462ZM11.94 69.1077C11.3791 68.7173 10.8324 68.3 10.2999 67.8557L9.33885 69.0074C9.90448 69.4794 10.4859 69.9232 11.0832 70.3389L11.94 69.1077ZM8.77017 66.4662C8.52594 66.2254 8.28501 65.9781 8.04737 65.7244L6.95263 66.7498C7.20363 67.0178 7.45836 67.2792 7.71684 67.5342L8.77017 66.4662ZM8.04737 65.7244C7.84279 65.506 7.64264 65.2851 7.44689 65.0616L6.31858 66.05C6.52539 66.2861 6.73674 66.5194 6.95263 66.7498L8.04737 65.7244ZM6.31633 63.6788C5.95443 63.2037 5.61063 62.7181 5.28487 62.2218L4.03092 63.045C4.37601 63.5707 4.74008 64.0849 5.12309 64.5877L6.31633 63.6788ZM4.35887 60.6963C4.06885 60.178 3.79681 59.6489 3.54274 59.109L2.1855 59.7477C2.45449 60.3193 2.74261 60.8797 3.04988 61.4288L4.35887 60.6963ZM2.83868 57.4677C2.62413 56.916 2.42687 56.3536 2.24693 55.7806L0.815826 56.2299C1.00561 56.8344 1.21389 57.4282 1.44068 58.0113L2.83868 57.4677ZM1.76587 54.0568C1.62496 53.4826 1.50023 52.8982 1.39175 52.3036L-0.0838914 52.5728C0.0298824 53.1964 0.16086 53.8102 0.309088 54.4143L1.76587 54.0568ZM1.11994 50.5287C1.04669 49.9415 0.988317 49.345 0.944852 48.7391L-0.551303 48.8464C-0.506008 49.4778 -0.445098 50.1005 -0.368526 50.7144L1.11994 50.5287ZM0.860285 46.9395C0.85343 46.6409 0.85 46.3401 0.85 46.0371H-0.65C-0.65 46.3514 -0.646441 46.6637 -0.63932 46.9739L0.860285 46.9395ZM0.85 46.0371V44.9621H-0.65V46.0371H0.85ZM0.85 42.8121V40.6621H-0.65V42.8121H0.85ZM0.85 38.5121V36.3621H-0.65V38.5121H0.85ZM0.85 34.2121V32.0621H-0.65V34.2121H0.85ZM0.85 29.9121V28.8371H-0.65V29.9121H0.85ZM0.85 28.8371C0.85 28.4747 0.85499 28.1154 0.864959 27.7592L-0.634454 27.7172C-0.644821 28.0877 -0.65 28.461 -0.65 28.8371H0.85ZM0.988522 25.6121C1.05233 24.8882 1.13813 24.1779 1.24585 23.481L-0.236541 23.2519C-0.349402 23.982 -0.439088 24.7248 -0.505685 25.4804L0.988522 25.6121ZM1.64699 21.3766C1.80736 20.6734 1.99186 19.985 2.20041 19.3111L0.767463 18.8676C0.547466 19.5785 0.353183 20.3036 0.184542 21.043L1.64699 21.3766ZM2.91223 17.2979C3.17761 16.6339 3.46856 15.9851 3.78506 15.3514L2.44313 14.6811C2.10792 15.3523 1.8 16.039 1.51935 16.7412L2.91223 17.2979ZM4.81721 13.4858C5.18653 12.8801 5.58176 12.2892 6.00295 11.7133L4.79217 10.8278C4.34635 11.4375 3.92777 12.0632 3.5365 12.7049L4.81721 13.4858ZM7.33232 10.044C7.56436 9.77576 7.8027 9.51103 8.04737 9.24983L6.95263 8.22438C6.69454 8.49991 6.44294 8.77935 6.19785 9.0627L7.33232 10.044ZM8.04737 9.24983C8.28501 8.99614 8.52594 8.74886 8.77016 8.50798L7.71684 7.44003C7.45836 7.69497 7.20363 7.95643 6.95263 8.22438L8.04737 9.24983ZM10.2999 7.11852C10.8324 6.67417 11.3791 6.25689 11.94 5.86657L11.0832 4.63533C10.4859 5.05097 9.90448 5.49483 9.33885 5.96682L10.2999 7.11852ZM13.6833 4.76616C14.2801 4.42613 14.8918 4.1134 15.5185 3.82797L14.8967 2.4629C14.2289 2.76705 13.5769 3.10038 12.9407 3.46287L13.6833 4.76616ZM17.4318 3.05763C18.0755 2.83098 18.7339 2.63043 19.4072 2.45604L19.0311 1.00395C18.3173 1.18883 17.6181 1.40175 16.9336 1.64279L17.4318 3.05763ZM21.4294 2.01885C22.1004 1.90134 22.7852 1.80773 23.4839 1.73812L23.3352 0.245512C22.6007 0.318683 21.8791 0.417255 21.1706 0.541334L21.4294 2.01885ZM25.5579 1.6034C25.9021 1.59254 26.2495 1.5871 26.6 1.5871V0.0871031C26.234 0.0871031 25.8709 0.0927787 25.5107 0.104142L25.5579 1.6034ZM26.6 1.5871C26.9488 1.5871 27.2944 1.59258 27.637 1.60352L27.6849 0.104285C27.3261 0.0928264 26.9645 0.0871031 26.6 0.0871031V1.5871ZM29.7009 1.73921C30.3959 1.80926 31.0773 1.90346 31.745 2.0217L32.0066 0.544677C31.301 0.41974 30.5825 0.320474 29.8513 0.246774L29.7009 1.73921ZM33.7565 2.46117C34.4259 2.63629 35.0807 2.83765 35.721 3.06517L36.2233 1.65174C35.542 1.40967 34.8462 1.19578 34.1362 1.01001L33.7565 2.46117ZM37.6233 3.83743C38.2459 4.1232 38.8539 4.43623 39.4475 4.77654L40.1936 3.47526C39.5608 3.11247 38.9126 2.77876 38.249 2.47417L37.6233 3.83743ZM41.1804 5.87639C41.7378 6.26603 42.2813 6.68249 42.8112 7.12587L43.7738 5.97554C43.2112 5.50474 42.6333 5.06186 42.0399 4.64702L41.1804 5.87639ZM44.3331 8.51091C44.5761 8.75086 44.816 8.99717 45.0526 9.24983L46.1474 8.22438C45.8975 7.95764 45.644 7.69734 45.3869 7.44349L44.3331 8.51091ZM45.0526 9.24983C45.2973 9.51103 45.5356 9.77576 45.7677 10.044L46.9022 9.0627C46.6571 8.77935 46.4055 8.49991 46.1474 8.22438L45.0526 9.24983ZM47.097 11.7133C47.5182 12.2892 47.9135 12.8801 48.2828 13.4858L49.5635 12.7049C49.1722 12.0632 48.7537 11.4375 48.3078 10.8278L47.097 11.7133ZM49.3149 15.3514C49.6314 15.9851 49.9224 16.6339 50.1878 17.2979L51.5807 16.7412C51.3 16.039 50.9921 15.3523 50.6569 14.6811L49.3149 15.3514ZM50.8996 19.3111C51.1081 19.985 51.2926 20.6734 51.453 21.3766L52.9155 21.043C52.7468 20.3036 52.5525 19.5785 52.3325 18.8676L50.8996 19.3111ZM51.8542 23.481C51.9619 24.1779 52.0477 24.8882 52.1115 25.6121L53.6057 25.4804C53.5391 24.7248 53.4494 23.982 53.3365 23.2519L51.8542 23.481ZM52.235 27.7592C52.245 28.1154 52.25 28.4747 52.25 28.8371H53.75C53.75 28.461 53.7448 28.0877 53.7345 27.7172L52.235 27.7592ZM52.25 28.8371V29.9121H53.75V28.8371H52.25ZM52.25 32.0621V34.2121H53.75V32.0621H52.25ZM52.25 36.3621V38.5121H53.75V36.3621H52.25ZM52.25 40.6621V42.8121H53.75V40.6621H52.25ZM52.25 44.9621V46.0371H53.75V44.9621H52.25ZM52.25 46.0371C52.25 46.3401 52.2466 46.6409 52.2397 46.9395L53.7393 46.9739C53.7464 46.6637 53.75 46.3514 53.75 46.0371H52.25ZM52.1552 48.7391C52.1117 49.345 52.0533 49.9415 51.9801 50.5287L53.4685 50.7143C53.5451 50.1005 53.606 49.4778 53.6513 48.8464L52.1552 48.7391ZM51.7083 52.3036C51.5998 52.8982 51.475 53.4826 51.3341 54.0568L52.7909 54.4143C52.9391 53.8102 53.0701 53.1964 53.1839 52.5728L51.7083 52.3036ZM50.8531 55.7806C50.6731 56.3536 50.4759 56.916 50.2613 57.4677L51.6593 58.0113C51.8861 57.4282 52.0944 56.8344 52.2842 56.2299L50.8531 55.7806ZM49.5573 59.109C49.3032 59.6489 49.0312 60.178 48.7411 60.6963L50.0501 61.4288C50.3574 60.8797 50.6455 60.3193 50.9145 59.7477L49.5573 59.109ZM47.8151 62.2218C47.4894 62.7181 47.1456 63.2037 46.7837 63.6788L47.9769 64.5877C48.3599 64.0849 48.724 63.5707 49.0691 63.045L47.8151 62.2218ZM45.6531 65.0616C45.4574 65.2851 45.2572 65.506 45.0526 65.7244L46.1474 66.7498C46.3633 66.5194 46.5746 66.2861 46.7814 66.05L45.6531 65.0616ZM45.0526 65.7244C44.816 65.9771 44.5761 66.2234 44.3331 66.4633L45.3869 67.5307C45.644 67.2769 45.8975 67.0166 46.1474 66.7498L45.0526 65.7244ZM42.8112 67.8483C42.2813 68.2917 41.7378 68.7082 41.1804 69.0978L42.0399 70.3272C42.6333 69.9124 43.2112 69.4695 43.7738 68.9987L42.8112 67.8483ZM39.4475 70.1977C38.8539 70.538 38.2459 70.851 37.6233 71.1368L38.249 72.5C38.9126 72.1954 39.5608 71.8617 40.1936 71.499L39.4475 70.1977ZM35.721 71.909C35.0807 72.1366 34.4259 72.3379 33.7565 72.513L34.1362 73.9642C34.8462 73.7784 35.542 73.5645 36.2233 73.3225L35.721 71.909ZM31.745 72.9525C31.0773 73.0707 30.3959 73.1649 29.7009 73.235L29.8513 74.7274C30.5825 74.6537 31.301 74.5545 32.0066 74.4295L31.745 72.9525ZM27.637 73.3707C27.2944 73.3816 26.9488 73.3871 26.6 73.3871V74.8871C26.9645 74.8871 27.3261 74.8814 27.6849 74.8699L27.637 73.3707ZM17.8582 56.2362C17.6576 56.0127 17.4663 55.7816 17.2841 55.5429L16.0917 56.4529C16.298 56.7232 16.5147 56.985 16.7418 57.238L17.8582 56.2362ZM16.3067 54.0295C16.0249 53.5094 15.7764 52.9591 15.5616 52.3783L14.1547 52.8984C14.3932 53.5435 14.6708 54.1589 14.9878 54.744L16.3067 54.0295ZM15.0388 50.6288C14.9033 50.0505 14.7956 49.4465 14.7162 48.8165L13.228 49.0041C13.3136 49.683 13.4302 50.3387 13.5783 50.971L15.0388 50.6288ZM14.5675 46.9689C14.5558 46.6636 14.55 46.353 14.55 46.0371H13.05C13.05 46.3714 13.0562 46.701 13.0685 47.026L14.5675 46.9689ZM14.55 46.0371V44.9621H13.05V46.0371H14.55ZM14.55 42.8121V40.6621H13.05V42.8121H14.55ZM14.55 38.5121V36.3621H13.05V38.5121H14.55ZM14.55 34.2121V32.0621H13.05V34.2121H14.55ZM14.55 29.9121V28.8371H13.05V29.9121H14.55ZM14.55 28.8371C14.55 28.5235 14.5557 28.2153 14.5672 27.9124L13.0683 27.8557C13.0561 28.1781 13.05 28.5052 13.05 28.8371H14.55ZM14.7141 26.0794C14.7927 25.4535 14.8994 24.8545 15.0336 24.2819L13.5732 23.9395C13.4262 24.5665 13.3106 25.2176 13.2258 25.8924L14.7141 26.0794ZM15.5535 22.5481C15.7677 21.9721 16.0157 21.4279 16.297 20.9152L14.9819 20.1937C14.6641 20.7731 14.3861 21.3838 14.1475 22.0253L15.5535 22.5481ZM17.2757 19.4246C17.4584 19.1902 17.6504 18.9637 17.8517 18.7452L16.7483 17.729C16.5192 17.9778 16.3006 18.2357 16.0926 18.5026L17.2757 19.4246ZM17.8582 18.738C18.0418 18.5334 18.2301 18.3378 18.4231 18.151L17.3799 17.0732C17.1611 17.2849 16.9485 17.5059 16.7418 17.7362L17.8582 18.738ZM19.6676 17.114C20.1081 16.8007 20.5699 16.524 21.0533 16.2837L20.3854 14.9405C19.8317 15.2158 19.3026 15.533 18.7982 15.8917L19.6676 17.114ZM22.5542 15.6762C23.0602 15.5143 23.5879 15.3854 24.1378 15.29L23.8812 13.8121C23.2663 13.9188 22.6715 14.0638 22.0972 14.2475L22.5542 15.6762ZM25.7719 15.1086C26.0432 15.0943 26.3192 15.0871 26.6 15.0871V13.5871C26.2937 13.5871 25.9913 13.5949 25.6931 13.6106L25.7719 15.1086ZM26.6 15.0871C26.8787 15.0871 27.1525 15.0942 27.4214 15.1082L27.4997 13.6103C27.204 13.5948 26.9041 13.5871 26.6 13.5871V15.0871ZM29.0419 15.2874C29.5879 15.3819 30.1108 15.5097 30.6111 15.6702L31.0692 14.2419C30.4999 14.0592 29.9093 13.9153 29.2979 13.8094L29.0419 15.2874ZM32.096 16.2746C32.5742 16.5145 33.0296 16.7908 33.4626 17.1037L34.3412 15.888C33.8429 15.5279 33.3186 15.2097 32.7686 14.9339L32.096 16.2746ZM34.6835 18.1417C34.8721 18.3288 35.0559 18.5249 35.2347 18.73L36.3653 17.7443C36.1632 17.5124 35.9547 17.2898 35.7398 17.0767L34.6835 18.1417ZM35.2483 18.7452C35.4496 18.9637 35.6416 19.1902 35.8243 19.4246L37.0074 18.5026C36.7994 18.2357 36.5808 17.9778 36.3517 17.729L35.2483 18.7452ZM36.803 20.9152C37.0843 21.4279 37.3323 21.9721 37.5465 22.5481L38.9525 22.0253C38.7139 21.3838 38.436 20.7731 38.1181 20.1937L36.803 20.9152ZM38.0664 24.2819C38.2006 24.8545 38.3073 25.4535 38.3859 26.0794L39.8742 25.8924C39.7894 25.2176 39.6738 24.5665 39.5268 23.9395L38.0664 24.2819ZM38.5328 27.9124C38.5443 28.2153 38.55 28.5235 38.55 28.8371H40.05C40.05 28.5052 40.0439 28.1781 40.0317 27.8557L38.5328 27.9124ZM38.55 28.8371V29.9121H40.05V28.8371H38.55ZM38.55 32.0621V34.2121H40.05V32.0621H38.55ZM38.55 36.3621V38.5121H40.05V36.3621H38.55ZM38.55 40.6621V42.8121H40.05V40.6621H38.55ZM38.55 44.9621V46.0371H40.05V44.9621H38.55ZM38.55 46.0371C38.55 46.353 38.5442 46.6636 38.5325 46.9689L40.0315 47.026C40.0438 46.701 40.05 46.3714 40.05 46.0371H38.55ZM38.3838 48.8165C38.3044 49.4465 38.1967 50.0505 38.0612 50.6288L39.5217 50.971C39.6698 50.3387 39.7864 49.683 39.872 49.0041L38.3838 48.8165ZM37.5384 52.3783C37.3236 52.9591 37.0751 53.5094 36.7933 54.0295L38.1122 54.744C38.4292 54.1589 38.7068 53.5435 38.9453 52.8984L37.5384 52.3783ZM35.8159 55.5429C35.6338 55.7816 35.4424 56.0127 35.2418 56.2362L36.3582 57.238C36.5853 56.985 36.802 56.7232 37.0084 56.4529L35.8159 55.5429ZM35.2347 56.2443C35.0559 56.4493 34.8721 56.6454 34.6835 56.8325L35.7398 57.8975C35.9547 57.6844 36.1632 57.4618 36.3653 57.23L35.2347 56.2443ZM33.4626 57.8705C33.0296 58.1834 32.5742 58.4597 32.0961 58.6996L32.7686 60.0404C33.3186 59.7645 33.8429 59.4463 34.3412 59.0862L33.4626 57.8705ZM30.6111 59.304C30.1108 59.4645 29.5879 59.5923 29.0419 59.6868L29.2979 61.1648C29.9093 61.059 30.4999 60.915 31.0692 60.7324L30.6111 59.304ZM27.4214 59.866C27.1525 59.88 26.8787 59.8871 26.6 59.8871V61.3871C26.9041 61.3871 27.204 61.3794 27.4997 61.3639L27.4214 59.866ZM26.6 59.8871C26.3192 59.8871 26.0432 59.8799 25.7719 59.8657L25.6931 61.3636C25.9913 61.3793 26.2937 61.3871 26.6 61.3871V59.8871ZM24.1378 59.6843C23.5879 59.5888 23.0602 59.4599 22.5542 59.298L22.0972 60.7267C22.6715 60.9104 23.2663 61.0554 23.8812 61.1622L24.1378 59.6843ZM21.0533 58.6905C20.5699 58.4502 20.1081 58.1735 19.6676 57.8602L18.7982 59.0825C19.3026 59.4412 19.8317 59.7584 20.3854 60.0337L21.0533 58.6905ZM18.4231 56.8232C18.2301 56.6364 18.0418 56.4408 17.8582 56.2362L16.7418 57.238C16.9485 57.4683 17.1611 57.6893 17.3799 57.901L18.4231 56.8232ZM73.2859 73.0371H72.5359V73.7871H73.2859V73.0371ZM73.2859 15.5371H74.0359V14.7871H73.2859V15.5371ZM58.2859 15.5371L57.6833 15.0907L56.797 16.2871H58.2859V15.5371ZM68.2859 2.03711V1.28711H67.9081L67.6833 1.59068L68.2859 2.03711ZM86.9859 2.03711H87.7359V1.28711H86.9859V2.03711ZM86.9859 73.0371V73.7871H87.7359V73.0371H86.9859ZM74.0359 73.0371V72.0103H72.5359V73.0371H74.0359ZM74.0359 69.9567V67.9032H72.5359V69.9567H74.0359ZM74.0359 65.8496V63.796H72.5359V65.8496H74.0359ZM74.0359 61.7425V59.6889H72.5359V61.7425H74.0359ZM74.0359 57.6353V55.5817H72.5359V57.6353H74.0359ZM74.0359 53.5282V51.4746H72.5359V53.5282H74.0359ZM74.0359 49.421V47.3675H72.5359V49.421H74.0359ZM74.0359 45.3139V43.2603H72.5359V45.3139H74.0359ZM74.0359 41.2067V39.1532H72.5359V41.2067H74.0359ZM74.0359 37.0996V35.046H72.5359V37.0996H74.0359ZM74.0359 32.9925V30.9389H72.5359V32.9925H74.0359ZM74.0359 28.8853V26.8318H72.5359V28.8853H74.0359ZM74.0359 24.7782V22.7246H72.5359V24.7782H74.0359ZM74.0359 20.6711V18.6175H72.5359V20.6711H74.0359ZM74.0359 16.5639V15.5371H72.5359V16.5639H74.0359ZM73.2859 14.7871H72.3484V16.2871H73.2859V14.7871ZM70.4734 14.7871H68.5984V16.2871H70.4734V14.7871ZM66.7234 14.7871H64.8484V16.2871H66.7234V14.7871ZM62.9734 14.7871H61.0984V16.2871H62.9734V14.7871ZM59.2234 14.7871H58.2859V16.2871H59.2234V14.7871ZM58.8886 15.9835L59.5136 15.1398L58.3083 14.2469L57.6833 15.0907L58.8886 15.9835ZM60.7636 13.4523L62.0136 11.7648L60.8083 10.8719L59.5583 12.5594L60.7636 13.4523ZM63.2636 10.0773L64.5136 8.38978L63.3083 7.49693L62.0583 9.18443L63.2636 10.0773ZM65.7636 6.70228L67.0136 5.01478L65.8083 4.12194L64.5583 5.80944L65.7636 6.70228ZM68.2636 3.32728L68.8886 2.48353L67.6833 1.59068L67.0583 2.43444L68.2636 3.32728ZM68.2859 2.78711H69.2209V1.28711H68.2859V2.78711ZM71.0909 2.78711H72.9609V1.28711H71.0909V2.78711ZM74.8309 2.78711H76.7009V1.28711H74.8309V2.78711ZM78.5709 2.78711H80.4409V1.28711H78.5709V2.78711ZM82.3109 2.78711H84.1809V1.28711H82.3109V2.78711ZM86.0509 2.78711H86.9859V1.28711H86.0509V2.78711ZM86.2359 2.03711V3.02322H87.7359V2.03711H86.2359ZM86.2359 4.99544V6.96766H87.7359V4.99544H86.2359ZM86.2359 8.93988V10.9121H87.7359V8.93988H86.2359ZM86.2359 12.8843V14.8566H87.7359V12.8843H86.2359ZM86.2359 16.8288V18.801H87.7359V16.8288H86.2359ZM86.2359 20.7732V22.7454H87.7359V20.7732H86.2359ZM86.2359 24.7177V26.6899H87.7359V24.7177H86.2359ZM86.2359 28.6621V30.6343H87.7359V28.6621H86.2359ZM86.2359 32.6065V34.5788H87.7359V32.6065H86.2359ZM86.2359 36.551V38.5232H87.7359V36.551H86.2359ZM86.2359 40.4954V42.4677H87.7359V40.4954H86.2359ZM86.2359 44.4399V46.4121H87.7359V44.4399H86.2359ZM86.2359 48.3843V50.3565H87.7359V48.3843H86.2359ZM86.2359 52.3288V54.301H87.7359V52.3288H86.2359ZM86.2359 56.2732V58.2454H87.7359V56.2732H86.2359ZM86.2359 60.2176V62.1899H87.7359V60.2176H86.2359ZM86.2359 64.1621V66.1343H87.7359V64.1621H86.2359ZM86.2359 68.1065V70.0788H87.7359V68.1065H86.2359ZM86.2359 72.051V73.0371H87.7359V72.051H86.2359ZM86.9859 72.2871H85.8443V73.7871H86.9859V72.2871ZM83.5609 72.2871H81.2776V73.7871H83.5609V72.2871ZM78.9943 72.2871H76.7109V73.7871H78.9943V72.2871ZM74.4276 72.2871H73.2859V73.7871H74.4276V72.2871Z" fill="url(#paint0_linear_790_28154)"/>
<defs>
<linearGradient id="paint0_linear_790_28154" x1="-10.1181" y1="0.014317" x2="68.0736" y2="93.5678" gradientUnits="userSpaceOnUse">
<stop stop-color="#FF63F9"/>
<stop offset="0.568846" stop-color="#E41EAD"/>
<stop offset="1" stop-color="#FF008D"/>
</linearGradient>
</defs>
</svg>
