<svg width="111" height="75" viewBox="0 0 111 75" fill="none" xmlns="http://www.w3.org/2000/svg">
<path d="M7.5 66.2371L6.95263 66.7498L7.5 66.2371ZM7.5 8.73711L8.04737 9.24983L7.5 8.73711ZM45.6 8.73711L45.0526 9.24983L45.6 8.73711ZM45.6 66.2371L46.1474 66.7498L45.6 66.2371ZM17.3 56.7371L16.7418 57.238L17.3 56.7371ZM35.8 56.7371L35.2418 56.2361L35.2347 56.2443L35.8 56.7371ZM35.8 18.2371L35.2347 18.73C35.2392 18.7351 35.2437 18.7402 35.2483 18.7452L35.8 18.2371ZM17.3 18.2371L17.8517 18.7453L17.8582 18.738L17.3 18.2371ZM26.6 73.3871C26.2495 73.3871 25.9021 73.3817 25.5579 73.3708L25.5107 74.8701C25.8709 74.8814 26.234 74.8871 26.6 74.8871V73.3871ZM23.4839 73.2361C22.7852 73.1665 22.1004 73.0729 21.4294 72.9554L21.1706 74.4329C21.8791 74.557 22.6007 74.6555 23.3352 74.7287L23.4839 73.2361ZM19.4072 72.5182C18.7339 72.3438 18.0755 72.1432 17.4318 71.9166L16.9336 73.3314C17.6181 73.5725 18.3173 73.7854 19.0311 73.9703L19.4072 72.5182ZM15.5185 71.1462C14.8918 70.8608 14.2801 70.5481 13.6833 70.2081L12.9407 71.5113C13.5769 71.8738 14.2289 72.2072 14.8967 72.5113L15.5185 71.1462ZM11.94 69.1077C11.3791 68.7173 10.8324 68.3 10.2999 67.8557L9.33885 69.0074C9.90448 69.4794 10.4859 69.9232 11.0832 70.3389L11.94 69.1077ZM8.77017 66.4662C8.52594 66.2254 8.28501 65.9781 8.04737 65.7244L6.95263 66.7498C7.20363 67.0178 7.45836 67.2792 7.71684 67.5342L8.77017 66.4662ZM8.04737 65.7244C7.84279 65.506 7.64264 65.2851 7.44689 65.0616L6.31858 66.05C6.52539 66.2861 6.73674 66.5194 6.95263 66.7498L8.04737 65.7244ZM6.31633 63.6788C5.95443 63.2037 5.61063 62.7181 5.28487 62.2218L4.03092 63.045C4.37601 63.5707 4.74008 64.0849 5.12309 64.5877L6.31633 63.6788ZM4.35887 60.6963C4.06885 60.178 3.79681 59.6489 3.54274 59.109L2.1855 59.7477C2.45449 60.3193 2.74261 60.8797 3.04988 61.4288L4.35887 60.6963ZM2.83868 57.4677C2.62413 56.916 2.42687 56.3536 2.24693 55.7806L0.815826 56.2299C1.00561 56.8344 1.21389 57.4282 1.44068 58.0113L2.83868 57.4677ZM1.76587 54.0568C1.62496 53.4826 1.50023 52.8982 1.39175 52.3036L-0.0838914 52.5728C0.0298824 53.1964 0.16086 53.8102 0.309088 54.4143L1.76587 54.0568ZM1.11994 50.5287C1.04669 49.9415 0.988317 49.345 0.944852 48.7391L-0.551303 48.8464C-0.506008 49.4778 -0.445098 50.1005 -0.368526 50.7144L1.11994 50.5287ZM0.860285 46.9395C0.85343 46.6409 0.85 46.3401 0.85 46.0371H-0.65C-0.65 46.3514 -0.646441 46.6637 -0.63932 46.9739L0.860285 46.9395ZM0.85 46.0371V44.9621H-0.65V46.0371H0.85ZM0.85 42.8121V40.6621H-0.65V42.8121H0.85ZM0.85 38.5121V36.3621H-0.65V38.5121H0.85ZM0.85 34.2121V32.0621H-0.65V34.2121H0.85ZM0.85 29.9121V28.8371H-0.65V29.9121H0.85ZM0.85 28.8371C0.85 28.4747 0.85499 28.1154 0.864959 27.7592L-0.634454 27.7172C-0.644821 28.0877 -0.65 28.461 -0.65 28.8371H0.85ZM0.988522 25.6121C1.05233 24.8882 1.13813 24.1779 1.24585 23.481L-0.236541 23.2519C-0.349402 23.982 -0.439088 24.7248 -0.505685 25.4804L0.988522 25.6121ZM1.64699 21.3766C1.80736 20.6734 1.99186 19.985 2.20041 19.3111L0.767463 18.8676C0.547466 19.5785 0.353183 20.3036 0.184542 21.043L1.64699 21.3766ZM2.91223 17.2979C3.17761 16.6339 3.46856 15.9851 3.78506 15.3514L2.44313 14.6811C2.10792 15.3523 1.8 16.039 1.51935 16.7412L2.91223 17.2979ZM4.81721 13.4858C5.18653 12.8801 5.58176 12.2892 6.00295 11.7133L4.79217 10.8278C4.34635 11.4375 3.92777 12.0632 3.5365 12.7049L4.81721 13.4858ZM7.33232 10.044C7.56436 9.77576 7.8027 9.51103 8.04737 9.24983L6.95263 8.22438C6.69454 8.49991 6.44294 8.77935 6.19785 9.0627L7.33232 10.044ZM8.04737 9.24983C8.28501 8.99614 8.52594 8.74886 8.77016 8.50798L7.71684 7.44003C7.45836 7.69497 7.20363 7.95643 6.95263 8.22438L8.04737 9.24983ZM10.2999 7.11852C10.8324 6.67417 11.3791 6.25689 11.94 5.86657L11.0832 4.63533C10.4859 5.05097 9.90448 5.49483 9.33885 5.96682L10.2999 7.11852ZM13.6833 4.76616C14.2801 4.42613 14.8918 4.1134 15.5185 3.82797L14.8967 2.4629C14.2289 2.76705 13.5769 3.10038 12.9407 3.46287L13.6833 4.76616ZM17.4318 3.05763C18.0755 2.83098 18.7339 2.63043 19.4072 2.45604L19.0311 1.00395C18.3173 1.18883 17.6181 1.40175 16.9336 1.64279L17.4318 3.05763ZM21.4294 2.01885C22.1004 1.90134 22.7852 1.80773 23.4839 1.73812L23.3352 0.245512C22.6007 0.318683 21.8791 0.417255 21.1706 0.541334L21.4294 2.01885ZM25.5579 1.6034C25.9021 1.59254 26.2495 1.5871 26.6 1.5871V0.0871031C26.234 0.0871031 25.8709 0.0927787 25.5107 0.104142L25.5579 1.6034ZM26.6 1.5871C26.9488 1.5871 27.2944 1.59258 27.637 1.60352L27.6849 0.104285C27.3261 0.0928264 26.9645 0.0871031 26.6 0.0871031V1.5871ZM29.7009 1.73921C30.3959 1.80926 31.0773 1.90346 31.745 2.0217L32.0066 0.544677C31.301 0.41974 30.5825 0.320474 29.8513 0.246774L29.7009 1.73921ZM33.7565 2.46117C34.4259 2.63629 35.0807 2.83765 35.721 3.06517L36.2233 1.65174C35.542 1.40967 34.8462 1.19578 34.1362 1.01001L33.7565 2.46117ZM37.6233 3.83743C38.2459 4.1232 38.8539 4.43623 39.4475 4.77654L40.1936 3.47526C39.5608 3.11247 38.9126 2.77876 38.249 2.47417L37.6233 3.83743ZM41.1804 5.87639C41.7378 6.26603 42.2813 6.68249 42.8112 7.12587L43.7738 5.97554C43.2112 5.50474 42.6333 5.06186 42.0399 4.64702L41.1804 5.87639ZM44.3331 8.51091C44.5761 8.75086 44.816 8.99717 45.0526 9.24983L46.1474 8.22438C45.8975 7.95764 45.644 7.69734 45.3869 7.44349L44.3331 8.51091ZM45.0526 9.24983C45.2973 9.51103 45.5356 9.77576 45.7677 10.044L46.9022 9.0627C46.6571 8.77935 46.4055 8.49991 46.1474 8.22438L45.0526 9.24983ZM47.097 11.7133C47.5182 12.2892 47.9135 12.8801 48.2828 13.4858L49.5635 12.7049C49.1722 12.0632 48.7537 11.4375 48.3078 10.8278L47.097 11.7133ZM49.3149 15.3514C49.6314 15.9851 49.9224 16.6339 50.1878 17.2979L51.5807 16.7412C51.3 16.039 50.9921 15.3523 50.6569 14.6811L49.3149 15.3514ZM50.8996 19.3111C51.1081 19.985 51.2926 20.6734 51.453 21.3766L52.9155 21.043C52.7468 20.3036 52.5525 19.5785 52.3325 18.8676L50.8996 19.3111ZM51.8542 23.481C51.9619 24.1779 52.0477 24.8882 52.1115 25.6121L53.6057 25.4804C53.5391 24.7248 53.4494 23.982 53.3365 23.2519L51.8542 23.481ZM52.235 27.7592C52.245 28.1154 52.25 28.4747 52.25 28.8371H53.75C53.75 28.461 53.7448 28.0877 53.7345 27.7172L52.235 27.7592ZM52.25 28.8371V29.9121H53.75V28.8371H52.25ZM52.25 32.0621V34.2121H53.75V32.0621H52.25ZM52.25 36.3621V38.5121H53.75V36.3621H52.25ZM52.25 40.6621V42.8121H53.75V40.6621H52.25ZM52.25 44.9621V46.0371H53.75V44.9621H52.25ZM52.25 46.0371C52.25 46.3401 52.2466 46.6409 52.2397 46.9395L53.7393 46.9739C53.7464 46.6637 53.75 46.3514 53.75 46.0371H52.25ZM52.1552 48.7391C52.1117 49.345 52.0533 49.9415 51.9801 50.5287L53.4685 50.7143C53.5451 50.1005 53.606 49.4778 53.6513 48.8464L52.1552 48.7391ZM51.7083 52.3036C51.5998 52.8982 51.475 53.4826 51.3341 54.0568L52.7909 54.4143C52.9391 53.8102 53.0701 53.1964 53.1839 52.5728L51.7083 52.3036ZM50.8531 55.7806C50.6731 56.3536 50.4759 56.916 50.2613 57.4677L51.6593 58.0113C51.8861 57.4282 52.0944 56.8344 52.2842 56.2299L50.8531 55.7806ZM49.5573 59.109C49.3032 59.6489 49.0312 60.178 48.7411 60.6963L50.0501 61.4288C50.3574 60.8797 50.6455 60.3193 50.9145 59.7477L49.5573 59.109ZM47.8151 62.2218C47.4894 62.7181 47.1456 63.2037 46.7837 63.6788L47.9769 64.5877C48.3599 64.0849 48.724 63.5707 49.0691 63.045L47.8151 62.2218ZM45.6531 65.0616C45.4574 65.2851 45.2572 65.506 45.0526 65.7244L46.1474 66.7498C46.3633 66.5194 46.5746 66.2861 46.7814 66.05L45.6531 65.0616ZM45.0526 65.7244C44.816 65.9771 44.5761 66.2234 44.3331 66.4633L45.3869 67.5307C45.644 67.2769 45.8975 67.0166 46.1474 66.7498L45.0526 65.7244ZM42.8112 67.8483C42.2813 68.2917 41.7378 68.7082 41.1804 69.0978L42.0399 70.3272C42.6333 69.9124 43.2112 69.4695 43.7738 68.9987L42.8112 67.8483ZM39.4475 70.1977C38.8539 70.538 38.2459 70.851 37.6233 71.1368L38.249 72.5C38.9126 72.1954 39.5608 71.8617 40.1936 71.499L39.4475 70.1977ZM35.721 71.909C35.0807 72.1366 34.4259 72.3379 33.7565 72.513L34.1362 73.9642C34.8462 73.7784 35.542 73.5645 36.2233 73.3225L35.721 71.909ZM31.745 72.9525C31.0773 73.0707 30.3959 73.1649 29.7009 73.235L29.8513 74.7274C30.5825 74.6537 31.301 74.5545 32.0066 74.4295L31.745 72.9525ZM27.637 73.3707C27.2944 73.3816 26.9488 73.3871 26.6 73.3871V74.8871C26.9645 74.8871 27.3261 74.8814 27.6849 74.8699L27.637 73.3707ZM17.8582 56.2362C17.6576 56.0127 17.4663 55.7816 17.2841 55.5429L16.0917 56.4529C16.298 56.7232 16.5147 56.985 16.7418 57.238L17.8582 56.2362ZM16.3067 54.0295C16.0249 53.5094 15.7764 52.9591 15.5616 52.3783L14.1547 52.8984C14.3932 53.5435 14.6708 54.1589 14.9878 54.744L16.3067 54.0295ZM15.0388 50.6288C14.9033 50.0505 14.7956 49.4465 14.7162 48.8165L13.228 49.0041C13.3136 49.683 13.4302 50.3387 13.5783 50.971L15.0388 50.6288ZM14.5675 46.9689C14.5558 46.6636 14.55 46.353 14.55 46.0371H13.05C13.05 46.3714 13.0562 46.701 13.0685 47.026L14.5675 46.9689ZM14.55 46.0371V44.9621H13.05V46.0371H14.55ZM14.55 42.8121V40.6621H13.05V42.8121H14.55ZM14.55 38.5121V36.3621H13.05V38.5121H14.55ZM14.55 34.2121V32.0621H13.05V34.2121H14.55ZM14.55 29.9121V28.8371H13.05V29.9121H14.55ZM14.55 28.8371C14.55 28.5235 14.5557 28.2153 14.5672 27.9124L13.0683 27.8557C13.0561 28.1781 13.05 28.5052 13.05 28.8371H14.55ZM14.7141 26.0794C14.7927 25.4535 14.8994 24.8545 15.0336 24.2819L13.5732 23.9395C13.4262 24.5665 13.3106 25.2176 13.2258 25.8924L14.7141 26.0794ZM15.5535 22.5481C15.7677 21.9721 16.0157 21.4279 16.297 20.9152L14.9819 20.1937C14.6641 20.7731 14.3861 21.3838 14.1475 22.0253L15.5535 22.5481ZM17.2757 19.4246C17.4584 19.1902 17.6504 18.9637 17.8517 18.7452L16.7483 17.729C16.5192 17.9778 16.3006 18.2357 16.0926 18.5026L17.2757 19.4246ZM17.8582 18.738C18.0418 18.5334 18.2301 18.3378 18.4231 18.151L17.3799 17.0732C17.1611 17.2849 16.9485 17.5059 16.7418 17.7362L17.8582 18.738ZM19.6676 17.114C20.1081 16.8007 20.5699 16.524 21.0533 16.2837L20.3854 14.9405C19.8317 15.2158 19.3026 15.533 18.7982 15.8917L19.6676 17.114ZM22.5542 15.6762C23.0602 15.5143 23.5879 15.3854 24.1378 15.29L23.8812 13.8121C23.2663 13.9188 22.6715 14.0638 22.0972 14.2475L22.5542 15.6762ZM25.7719 15.1086C26.0432 15.0943 26.3192 15.0871 26.6 15.0871V13.5871C26.2937 13.5871 25.9913 13.5949 25.6931 13.6106L25.7719 15.1086ZM26.6 15.0871C26.8787 15.0871 27.1525 15.0942 27.4214 15.1082L27.4997 13.6103C27.204 13.5948 26.9041 13.5871 26.6 13.5871V15.0871ZM29.0419 15.2874C29.5879 15.3819 30.1108 15.5097 30.6111 15.6702L31.0692 14.2419C30.4999 14.0592 29.9093 13.9153 29.2979 13.8094L29.0419 15.2874ZM32.096 16.2746C32.5742 16.5145 33.0296 16.7908 33.4626 17.1037L34.3412 15.888C33.8429 15.5279 33.3186 15.2097 32.7686 14.9339L32.096 16.2746ZM34.6835 18.1417C34.8721 18.3288 35.0559 18.5249 35.2347 18.73L36.3653 17.7443C36.1632 17.5124 35.9547 17.2898 35.7398 17.0767L34.6835 18.1417ZM35.2483 18.7452C35.4496 18.9637 35.6416 19.1902 35.8243 19.4246L37.0074 18.5026C36.7994 18.2357 36.5808 17.9778 36.3517 17.729L35.2483 18.7452ZM36.803 20.9152C37.0843 21.4279 37.3323 21.9721 37.5465 22.5481L38.9525 22.0253C38.7139 21.3838 38.436 20.7731 38.1181 20.1937L36.803 20.9152ZM38.0664 24.2819C38.2006 24.8545 38.3073 25.4535 38.3859 26.0794L39.8742 25.8924C39.7894 25.2176 39.6738 24.5665 39.5268 23.9395L38.0664 24.2819ZM38.5328 27.9124C38.5443 28.2153 38.55 28.5235 38.55 28.8371H40.05C40.05 28.5052 40.0439 28.1781 40.0317 27.8557L38.5328 27.9124ZM38.55 28.8371V29.9121H40.05V28.8371H38.55ZM38.55 32.0621V34.2121H40.05V32.0621H38.55ZM38.55 36.3621V38.5121H40.05V36.3621H38.55ZM38.55 40.6621V42.8121H40.05V40.6621H38.55ZM38.55 44.9621V46.0371H40.05V44.9621H38.55ZM38.55 46.0371C38.55 46.353 38.5442 46.6636 38.5325 46.9689L40.0315 47.026C40.0438 46.701 40.05 46.3714 40.05 46.0371H38.55ZM38.3838 48.8165C38.3044 49.4465 38.1967 50.0505 38.0612 50.6288L39.5217 50.971C39.6698 50.3387 39.7864 49.683 39.872 49.0041L38.3838 48.8165ZM37.5384 52.3783C37.3236 52.9591 37.0751 53.5094 36.7933 54.0295L38.1122 54.744C38.4292 54.1589 38.7068 53.5435 38.9453 52.8984L37.5384 52.3783ZM35.8159 55.5429C35.6338 55.7816 35.4424 56.0127 35.2418 56.2362L36.3582 57.238C36.5853 56.985 36.802 56.7232 37.0084 56.4529L35.8159 55.5429ZM35.2347 56.2443C35.0559 56.4493 34.8721 56.6454 34.6835 56.8325L35.7398 57.8975C35.9547 57.6844 36.1632 57.4618 36.3653 57.23L35.2347 56.2443ZM33.4626 57.8705C33.0296 58.1834 32.5742 58.4597 32.0961 58.6996L32.7686 60.0404C33.3186 59.7645 33.8429 59.4463 34.3412 59.0862L33.4626 57.8705ZM30.6111 59.304C30.1108 59.4645 29.5879 59.5923 29.0419 59.6868L29.2979 61.1648C29.9093 61.059 30.4999 60.915 31.0692 60.7324L30.6111 59.304ZM27.4214 59.866C27.1525 59.88 26.8787 59.8871 26.6 59.8871V61.3871C26.9041 61.3871 27.204 61.3794 27.4997 61.3639L27.4214 59.866ZM26.6 59.8871C26.3192 59.8871 26.0432 59.8799 25.7719 59.8657L25.6931 61.3636C25.9913 61.3793 26.2937 61.3871 26.6 61.3871V59.8871ZM24.1378 59.6843C23.5879 59.5888 23.0602 59.4599 22.5542 59.298L22.0972 60.7267C22.6715 60.9104 23.2663 61.0554 23.8812 61.1622L24.1378 59.6843ZM21.0533 58.6905C20.5699 58.4502 20.1081 58.1735 19.6676 57.8602L18.7982 59.0825C19.3026 59.4412 19.8317 59.7584 20.3854 60.0337L21.0533 58.6905ZM18.4231 56.8232C18.2301 56.6364 18.0418 56.4408 17.8582 56.2362L16.7418 57.238C16.9485 57.4683 17.1611 57.6893 17.3799 57.901L18.4231 56.8232ZM7.5 66.2371L6.40526 67.2626L7.5 66.2371ZM7.5 8.73711L8.59474 9.76256V9.76256L7.5 8.73711ZM45.6 8.73711L44.5053 9.76256L45.6 8.73711ZM45.6 66.2371L46.6947 67.2626L45.6 66.2371ZM17.3 56.7371L16.1836 57.739V57.739L17.3 56.7371ZM35.8 56.7371L34.6836 55.7352C34.6788 55.7406 34.6741 55.746 34.6693 55.7514L35.8 56.7371ZM35.8 18.2371L34.6693 19.2228C34.6783 19.2331 34.6874 19.2433 34.6967 19.2533L35.8 18.2371ZM17.3 18.2371L18.4033 19.2533C18.4077 19.2486 18.412 19.2438 18.4164 19.239L17.3 18.2371ZM26.6 72.6371C26.2572 72.6371 25.9178 72.6318 25.5816 72.6212L25.487 75.6197C25.8552 75.6313 26.2262 75.6371 26.6 75.6371V72.6371ZM23.5582 72.4898C22.8774 72.422 22.211 72.3308 21.5588 72.2166L21.0412 75.1716C21.7685 75.299 22.5084 75.4001 23.2608 75.475L23.5582 72.4898ZM19.5952 71.7921C18.9422 71.623 18.3041 71.4286 17.681 71.2092L16.6845 74.0388C17.3894 74.2871 18.109 74.5062 18.8431 74.6963L19.5952 71.7921ZM15.8293 70.4637C15.2232 70.1876 14.6317 69.8852 14.0546 69.5564L12.5694 72.163C13.2253 72.5367 13.8975 72.8803 14.5858 73.1939L15.8293 70.4637ZM12.3684 68.492C11.8257 68.1144 11.2964 67.7104 10.7804 67.2798L8.85834 69.5832C9.44053 70.0691 10.0394 70.5262 10.6549 70.9545L12.3684 68.492ZM9.29683 65.9323C9.05973 65.6984 8.8257 65.4582 8.59474 65.2117L6.40526 67.2626C6.66294 67.5376 6.92457 67.8062 7.19018 68.0682L9.29683 65.9323ZM8.59474 65.2117C8.39582 64.9993 8.20126 64.7845 8.01104 64.5674L5.75443 66.5442C5.96676 66.7866 6.18371 67.026 6.40526 67.2626L8.59474 65.2117ZM6.91294 63.2243C6.56161 62.7631 6.22793 62.2917 5.91184 61.8102L3.40395 63.4566C3.75871 63.997 4.13291 64.5256 4.52647 65.0422L6.91294 63.2243ZM5.01337 60.3301C4.73197 59.8272 4.46797 59.3138 4.22135 58.7897L1.50689 60.0671C1.78333 60.6545 2.07949 61.2305 2.39539 61.795L5.01337 60.3301ZM3.53769 57.1958C3.32925 56.6599 3.1375 56.1133 2.96249 55.5559L0.100273 56.4546C0.294983 57.0747 0.508764 57.6843 0.741678 58.2832L3.53769 57.1958ZM2.49426 53.8781C2.357 53.3187 2.23541 52.7491 2.12957 52.169L-0.82171 52.7075C-0.705292 53.3455 -0.571188 53.9741 -0.419304 54.593L2.49426 53.8781ZM1.86417 50.4358C1.79259 49.862 1.73548 49.2786 1.69293 48.6854L-1.29938 48.9001C-1.25317 49.5443 -1.19099 50.18 -1.11276 50.8072L1.86417 50.4358ZM1.61009 46.9223C1.60337 46.6295 1.6 46.3344 1.6 46.0371H-1.4C-1.4 46.357 -1.39638 46.6751 -1.38912 46.9911L1.61009 46.9223ZM1.6 46.0371V44.9621H-1.4V46.0371H1.6ZM1.6 42.8121V40.6621H-1.4V42.8121H1.6ZM1.6 38.5121V36.3621H-1.4V38.5121H1.6ZM1.6 34.2121V32.0621H-1.4V34.2121H1.6ZM1.6 29.9121V28.8371H-1.4V29.9121H1.6ZM1.6 28.8371C1.6 28.4816 1.60489 28.1293 1.61467 27.7802L-1.38416 27.6963C-1.39473 28.0738 -1.4 28.4541 -1.4 28.8371H1.6ZM1.73562 25.6779C1.79803 24.9699 1.8819 24.2758 1.98705 23.5956L-0.977737 23.1373C-1.09317 23.884 -1.1848 24.6431 -1.25279 25.4145L1.73562 25.6779ZM2.37821 21.5434C2.53445 20.8583 2.71406 20.1882 2.91688 19.5328L0.0509901 18.6459C-0.174731 19.3752 -0.373907 20.1187 -0.54668 20.8763L2.37821 21.5434ZM3.60867 17.5762C3.86642 16.9313 4.14888 16.3014 4.45603 15.6865L1.77217 14.346C1.4276 15.0359 1.1112 15.7416 0.822913 16.4629L3.60867 17.5762ZM5.45757 13.8762C5.81591 13.2885 6.19947 12.7151 6.60835 12.156L4.18678 10.3851C3.72864 11.0116 3.29839 11.6547 2.89615 12.3144L5.45757 13.8762ZM7.89956 10.5347C8.12507 10.274 8.35678 10.0166 8.59474 9.76256L6.40526 7.71166C6.14046 7.99435 5.88224 8.28115 5.63061 8.57205L7.89956 10.5347ZM8.59474 9.76256C8.8257 9.51599 9.05973 9.2758 9.29683 9.04195L7.19017 6.90606C6.92457 7.16803 6.66294 7.43657 6.40526 7.71166L8.59474 9.76256ZM10.7804 7.69437C11.2964 7.26384 11.8257 6.85985 12.3684 6.48218L10.6549 4.01971C10.0394 4.44801 9.44053 4.90516 8.85834 5.39097L10.7804 7.69437ZM14.0546 5.4178C14.6317 5.089 15.2232 4.78658 15.8293 4.5105L14.5858 1.78036C13.8975 2.09387 13.2253 2.4375 12.5694 2.81123L14.0546 5.4178ZM17.681 3.76505C18.3041 3.54559 18.9422 3.35123 19.5952 3.18208L18.8431 0.277909C18.109 0.46803 17.3894 0.687135 16.6845 0.935366L17.681 3.76505ZM21.5588 2.7576C22.211 2.64338 22.8774 2.55225 23.5582 2.48443L23.2608 -0.500794C22.5084 -0.425839 21.7685 -0.324786 21.0412 -0.197422L21.5588 2.7576ZM25.5816 2.35302C25.9178 2.34242 26.2572 2.3371 26.6 2.3371V-0.662897C26.2262 -0.662897 25.8552 -0.657101 25.487 -0.645485L25.5816 2.35302ZM26.6 2.3371C26.9409 2.3371 27.2786 2.34246 27.613 2.35314L27.7088 -0.645333C27.3419 -0.65705 26.9723 -0.662897 26.6 -0.662897V2.3371ZM29.6257 2.48543C30.3026 2.55366 30.9654 2.64532 31.6143 2.76021L32.1373 -0.193835C31.4128 -0.322121 30.6758 -0.423921 29.9265 -0.499445L29.6257 2.48543ZM33.5667 3.18675C34.2157 3.35655 34.8501 3.55164 35.4699 3.77188L36.4744 0.945027C35.7726 0.695675 35.0564 0.475522 34.326 0.284435L33.5667 3.18675ZM37.3104 4.51906C37.9125 4.79543 38.5005 5.09812 39.0744 5.42718L40.5666 2.82462C39.9143 2.45058 39.246 2.10654 38.5619 1.79254L37.3104 4.51906ZM40.7507 6.49107C41.29 6.86811 41.8164 7.27137 42.3298 7.70104L44.2552 5.40037C43.6762 4.91586 43.081 4.45978 42.4696 4.03234L40.7507 6.49107ZM43.8061 9.04462C44.0421 9.27763 44.2752 9.51693 44.5053 9.76256L46.6947 7.71166C46.4383 7.43788 46.178 7.17057 45.9138 6.90978L43.8061 9.04462ZM44.5053 9.76256C44.7432 10.0166 44.9749 10.274 45.2004 10.5347L47.4694 8.57205C47.2178 8.28115 46.9595 7.99435 46.6947 7.71166L44.5053 9.76256ZM46.4917 12.156C46.9005 12.7151 47.2841 13.2885 47.6424 13.8762L50.2039 12.3145C49.8016 11.6547 49.3714 11.0116 48.9132 10.3851L46.4917 12.156ZM48.644 15.6865C48.9511 16.3014 49.2336 16.9313 49.4913 17.5762L52.2771 16.4629C51.9888 15.7416 51.6724 15.0359 51.3278 14.346L48.644 15.6865ZM50.1831 19.5328C50.3859 20.1882 50.5656 20.8583 50.7218 21.5434L53.6467 20.8763C53.4739 20.1187 53.2747 19.3752 53.049 18.6459L50.1831 19.5328ZM51.113 23.5956C51.2181 24.2758 51.302 24.9699 51.3644 25.6779L54.3528 25.4145C54.2848 24.6431 54.1932 23.884 54.0777 23.1373L51.113 23.5956ZM51.4853 27.7802C51.4951 28.1293 51.5 28.4816 51.5 28.8371H54.5C54.5 28.4541 54.4947 28.0738 54.4842 27.6963L51.4853 27.7802ZM51.5 28.8371V29.9121H54.5V28.8371H51.5ZM51.5 32.0621V34.2121H54.5V32.0621H51.5ZM51.5 36.3621V38.5121H54.5V36.3621H51.5ZM51.5 40.6621V42.8121H54.5V40.6621H51.5ZM51.5 44.9621V46.0371H54.5V44.9621H51.5ZM51.5 46.0371C51.5 46.3344 51.4966 46.6295 51.4899 46.9223L54.4891 46.9911C54.4964 46.6751 54.5 46.357 54.5 46.0371H51.5ZM51.4071 48.6854C51.3645 49.2786 51.3074 49.862 51.2358 50.4358L54.2128 50.8072C54.291 50.18 54.3532 49.5443 54.3994 48.9001L51.4071 48.6854ZM50.9704 52.169C50.8646 52.7491 50.743 53.3187 50.6057 53.8781L53.5193 54.593C53.6712 53.9741 53.8053 53.3455 53.9217 52.7075L50.9704 52.169ZM50.1375 55.5559C49.9625 56.1133 49.7708 56.6599 49.5623 57.1958L52.3583 58.2832C52.5912 57.6843 52.805 57.0747 52.9997 56.4546L50.1375 55.5559ZM48.8787 58.7897C48.632 59.3138 48.368 59.8272 48.0866 60.3301L50.7046 61.795C51.0205 61.2305 51.3167 60.6545 51.5931 60.0671L48.8787 58.7897ZM47.1882 61.8102C46.8721 62.2917 46.5384 62.7631 46.1871 63.2243L48.5735 65.0422C48.9671 64.5255 49.3413 63.997 49.6961 63.4566L47.1882 61.8102ZM45.089 64.5674C44.8987 64.7845 44.7042 64.9993 44.5053 65.2117L46.6947 67.2626C46.9163 67.026 47.1332 66.7866 47.3456 66.5442L45.089 64.5674ZM44.5053 65.2117C44.2752 65.4573 44.0421 65.6966 43.8061 65.9296L45.9138 68.0644C46.178 67.8036 46.4383 67.5363 46.6947 67.2626L44.5053 65.2117ZM42.3298 67.2732C41.8164 67.7029 41.29 68.1061 40.7507 68.4831L42.4696 70.9419C43.081 70.5144 43.6762 70.0584 44.2552 69.5738L42.3298 67.2732ZM39.0744 69.547C38.5005 69.8761 37.9125 70.1788 37.3104 70.4552L38.5619 73.1817C39.246 72.8677 39.9143 72.5236 40.5666 72.1496L39.0744 69.547ZM35.4699 71.2023C34.8501 71.4226 34.2157 71.6177 33.5667 71.7875L34.326 74.6898C35.0564 74.4987 35.7726 74.2785 36.4744 74.0292L35.4699 71.2023ZM31.6143 72.214C30.9654 72.3289 30.3026 72.4206 29.6257 72.4888L29.9265 75.4737C30.6758 75.3981 31.4128 75.2963 32.1373 75.168L31.6143 72.214ZM27.613 72.6211C27.2786 72.6318 26.9409 72.6371 26.6 72.6371V75.6371C26.9723 75.6371 27.3419 75.6313 27.7088 75.6195L27.613 72.6211ZM18.4164 55.7352C18.2291 55.5266 18.0504 55.3108 17.8803 55.0879L15.4954 56.9079C15.7138 57.194 15.9432 57.4711 16.1836 57.739L18.4164 55.7352ZM16.9661 53.6722C16.7019 53.1846 16.468 52.667 16.2651 52.1182L13.4513 53.1585C13.7016 53.8356 13.9937 54.4836 14.3284 55.1013L16.9661 53.6722ZM15.769 50.4577C15.6399 49.9064 15.5367 49.3283 15.4603 48.7227L12.4839 49.0979C12.5725 49.8012 12.6937 50.4828 12.8481 51.142L15.769 50.4577ZM15.3169 46.9404C15.3057 46.6448 15.3 46.3437 15.3 46.0371H12.3C12.3 46.3806 12.3063 46.7198 12.3191 47.0545L15.3169 46.9404ZM15.3 46.0371V44.9621H12.3V46.0371H15.3ZM15.3 42.8121V40.6621H12.3V42.8121H15.3ZM15.3 38.5121V36.3621H12.3V38.5121H15.3ZM15.3 34.2121V32.0621H12.3V34.2121H15.3ZM15.3 29.9121V28.8371H12.3V29.9121H15.3ZM15.3 28.8371C15.3 28.5327 15.3056 28.2339 15.3167 27.9408L12.3188 27.8274C12.3062 28.1595 12.3 28.4961 12.3 28.8371H15.3ZM15.4583 26.1729C15.5338 25.5715 15.636 24.9985 15.7638 24.4531L12.843 23.7683C12.6897 24.4225 12.5695 25.0996 12.4817 25.7989L15.4583 26.1729ZM16.2564 22.8095C16.4585 22.2662 16.6915 21.7554 16.9545 21.2759L14.3243 19.833C13.9882 20.4456 13.6953 21.0897 13.4446 21.7639L16.2564 22.8095ZM17.8673 19.8857C18.0373 19.6675 18.216 19.4567 18.4033 19.2533L16.1967 17.2209C15.9536 17.4848 15.7217 17.7584 15.501 18.0415L17.8673 19.8857ZM18.4164 19.239C18.5885 19.0472 18.7646 18.8642 18.9447 18.6899L16.8583 16.5343C16.6266 16.7584 16.4018 16.9922 16.1836 17.2352L18.4164 19.239ZM20.1023 17.7252C20.5109 17.4346 20.939 17.1781 21.3872 16.9553L20.0515 14.269C19.4627 14.5618 18.8998 14.8991 18.3635 15.2805L20.1023 17.7252ZM22.7828 16.3905C23.2546 16.2396 23.7487 16.1187 24.2661 16.0289L23.7529 13.0731C23.1055 13.1855 22.4771 13.3385 21.8687 13.5332L22.7828 16.3905ZM25.8114 15.8575C26.0691 15.844 26.3319 15.8371 26.6 15.8371V12.8371C26.2809 12.8371 25.9654 12.8453 25.6537 12.8617L25.8114 15.8575ZM26.6 15.8371C26.8661 15.8371 27.1268 15.8439 27.3822 15.8572L27.5389 12.8613C27.2297 12.8451 26.9167 12.8371 26.6 12.8371V15.8371ZM28.9139 16.0264C29.4273 16.1153 29.9163 16.235 30.3821 16.3843L31.2983 13.5277C30.6944 13.334 30.0699 13.1819 29.4259 13.0704L28.9139 16.0264ZM31.7598 16.945C32.202 17.1668 32.6229 17.4222 33.0232 17.7116L34.7806 15.2802C34.2496 14.8964 33.6908 14.5574 33.1048 14.2635L31.7598 16.945ZM34.1553 18.6742C34.3309 18.8483 34.5022 19.0311 34.6693 19.2228L36.9307 17.2514C36.7168 17.0061 36.496 16.7704 36.268 16.5442L34.1553 18.6742ZM34.6967 19.2533C34.884 19.4567 35.0627 19.6675 35.2327 19.8857L37.599 18.0415C37.3783 17.7584 37.1464 17.4848 36.9033 17.2209L34.6967 19.2533ZM36.1455 21.2759C36.4085 21.7554 36.6415 22.2662 36.8436 22.8095L39.6554 21.7639C39.4047 21.0897 39.1118 20.4456 38.7757 19.833L36.1455 21.2759ZM37.3362 24.4531C37.464 24.9985 37.5662 25.5715 37.6417 26.1729L40.6183 25.7989C40.5305 25.0996 40.4103 24.4225 40.257 23.7683L37.3362 24.4531ZM37.7833 27.9408C37.7944 28.2339 37.8 28.5327 37.8 28.8371H40.8C40.8 28.4961 40.7938 28.1595 40.7812 27.8274L37.7833 27.9408ZM37.8 28.8371V29.9121H40.8V28.8371H37.8ZM37.8 32.0621V34.2121H40.8V32.0621H37.8ZM37.8 36.3621V38.5121H40.8V36.3621H37.8ZM37.8 40.6621V42.8121H40.8V40.6621H37.8ZM37.8 44.9621V46.0371H40.8V44.9621H37.8ZM37.8 46.0371C37.8 46.3437 37.7943 46.6448 37.7831 46.9404L40.7809 47.0545C40.7937 46.7198 40.8 46.3806 40.8 46.0371H37.8ZM37.6397 48.7227C37.5633 49.3283 37.4601 49.9064 37.331 50.4577L40.2519 51.142C40.4063 50.4828 40.5275 49.8012 40.6161 49.0979L37.6397 48.7227ZM36.8349 52.1182C36.632 52.667 36.3981 53.1846 36.1339 53.6722L38.7716 55.1013C39.1063 54.4836 39.3984 53.8356 39.6487 53.1585L36.8349 52.1182ZM35.2197 55.0879C35.0496 55.3108 34.8709 55.5266 34.6836 55.7352L36.9164 57.739C37.1568 57.4711 37.3862 57.194 37.6046 56.9079L35.2197 55.0879ZM34.6693 55.7514C34.5022 55.9431 34.3309 56.1259 34.1553 56.3L36.268 58.43C36.496 58.2039 36.7168 57.9681 36.9307 57.7228L34.6693 55.7514ZM33.0232 57.2626C32.6229 57.552 32.202 57.8074 31.7598 58.0292L33.1048 60.7108C33.6908 60.4168 34.2496 60.0778 34.7806 59.694L33.0232 57.2626ZM30.3821 58.5899C29.9163 58.7392 29.4273 58.8589 28.9139 58.9478L29.4259 61.9038C30.0699 61.7923 30.6944 61.6402 31.2983 61.4465L30.3821 58.5899ZM27.3822 59.117C27.1268 59.1304 26.8661 59.1371 26.6 59.1371V62.1371C26.9167 62.1371 27.2297 62.1291 27.5389 62.1129L27.3822 59.117ZM26.6 59.1371C26.3319 59.1371 26.0691 59.1303 25.8114 59.1167L25.6537 62.1126C25.9654 62.129 26.2809 62.1371 26.6 62.1371V59.1371ZM24.2661 58.9453C23.7487 58.8555 23.2546 58.7346 22.7828 58.5837L21.8687 61.4411C22.4771 61.6357 23.1055 61.7887 23.7529 61.9011L24.2661 58.9453ZM21.3872 58.019C20.939 57.7961 20.5109 57.5396 20.1023 57.249L18.3635 59.6937C18.8998 60.0751 19.4627 60.4125 20.0515 60.7052L21.3872 58.019ZM18.9447 56.2843C18.7646 56.11 18.5885 55.927 18.4164 55.7352L16.1836 57.739C16.4018 57.9821 16.6266 58.2158 16.8583 58.4399L18.9447 56.2843ZM110.586 59.5371H111.336C111.336 59.1229 111 58.7871 110.586 58.7871V59.5371ZM110.586 73.0371V73.7871C111 73.7871 111.336 73.4513 111.336 73.0371H110.586ZM62.1859 73.0371H61.4359C61.4359 73.4513 61.7717 73.7871 62.1859 73.7871V73.0371ZM64.1859 58.0371L63.4966 57.7417C63.4942 57.7473 63.4918 57.7529 63.4896 57.7586L64.1859 58.0371ZM66.7859 53.7371L67.3794 54.1957L66.7859 53.7371ZM69.6859 50.1371L69.1165 49.649L69.6859 50.1371ZM73.2859 46.7371L72.8174 46.1515C72.8135 46.1546 72.8096 46.1577 72.8058 46.1609L73.2859 46.7371ZM77.0859 43.8371L77.5128 44.4538C77.5232 44.4466 77.5333 44.4392 77.5432 44.4316L77.0859 43.8371ZM81.1859 40.9371L81.6071 41.5577C81.612 41.5543 81.617 41.5509 81.6219 41.5474L81.1859 40.9371ZM85.0859 38.1371L84.6573 37.5217C84.6531 37.5246 84.6489 37.5275 84.6448 37.5306L85.0859 38.1371ZM93.7859 16.9371L94.3266 16.4173V16.4173L93.7859 16.9371ZM79.0859 17.2371L79.5977 17.7854L79.5983 17.7848L79.0859 17.2371ZM76.1859 24.3371V25.0871C76.3879 25.0871 76.5813 25.0057 76.7224 24.8612C76.8635 24.7168 76.9404 24.5216 76.9357 24.3197L76.1859 24.3371ZM62.3859 24.3371H61.6359C61.6359 24.7513 61.9717 25.0871 62.3859 25.0871V24.3371ZM69.3859 7.43711L69.8963 7.9867L69.8966 7.98643L69.3859 7.43711ZM103.286 6.63711L102.791 7.2005L102.795 7.20415L103.286 6.63711ZM106.286 36.7371L105.664 36.3185L105.662 36.3211L106.286 36.7371ZM94.9859 47.7371L95.4219 48.3474L95.4271 48.3437L94.9859 47.7371ZM91.3859 50.2371L91.797 50.8645C91.8019 50.8612 91.8068 50.8579 91.8117 50.8545L91.3859 50.2371ZM86.9859 53.2371L86.5424 52.6323H86.5424L86.9859 53.2371ZM83.5859 56.1371L83.0701 55.5926C83.0652 55.5973 83.0604 55.602 83.0556 55.6068L83.5859 56.1371ZM81.1859 59.5371L80.4837 59.2738C80.3973 59.5041 80.4294 59.7621 80.5695 59.9643C80.7096 60.1665 80.94 60.2871 81.1859 60.2871V59.5371ZM110.586 58.7871H109.536V60.2871H110.586V58.7871ZM107.436 58.7871H105.336V60.2871H107.436V58.7871ZM103.236 58.7871H101.136V60.2871H103.236V58.7871ZM99.0359 58.7871H96.9359V60.2871H99.0359V58.7871ZM94.8359 58.7871H92.7359V60.2871H94.8359V58.7871ZM90.6359 58.7871H88.5359V60.2871H90.6359V58.7871ZM86.4359 58.7871H84.3359V60.2871H86.4359V58.7871ZM82.2359 58.7871H81.1859V60.2871H82.2359V58.7871ZM81.8882 59.8005C81.9886 59.5326 82.1205 59.2539 82.2863 58.964L80.9842 58.2193C80.7831 58.571 80.6154 58.9225 80.4837 59.2738L81.8882 59.8005ZM83.432 57.3956C83.6411 57.1573 83.8691 56.9146 84.1163 56.6674L83.0556 55.6068C82.7875 55.8749 82.537 56.1413 82.3047 56.4061L83.432 57.3956ZM84.1017 56.6816C84.3778 56.4201 84.6471 56.1701 84.9095 55.9317L83.901 54.8214C83.6303 55.0673 83.3533 55.3244 83.0701 55.5926L84.1017 56.6816ZM86.5708 54.5035C86.8689 54.2635 87.1551 54.0431 87.4295 53.8419L86.5424 52.6323C86.248 52.8482 85.9439 53.0825 85.6302 53.3351L86.5708 54.5035ZM87.4295 53.8419C87.7385 53.6153 88.0948 53.3613 88.4988 53.0799L87.6415 51.8491C87.23 52.1357 86.8635 52.3968 86.5424 52.6323L87.4295 53.8419ZM90.689 51.5951C91.0393 51.3625 91.4086 51.1189 91.797 50.8645L90.9749 49.6098C90.5842 49.8658 90.2122 50.1111 89.8591 50.3456L90.689 51.5951ZM91.8117 50.8545C92.1328 50.6331 92.4338 50.4254 92.7145 50.2315L91.8619 48.9973C91.5816 49.191 91.281 49.3984 90.9601 49.6197L91.8117 50.8545ZM94.5181 48.9817C94.9316 48.6938 95.2336 48.4819 95.4219 48.3474L94.55 47.1268C94.3696 47.2557 94.074 47.4632 93.661 47.7507L94.5181 48.9817ZM95.4271 48.3437C95.6994 48.1456 95.9679 47.9477 96.2327 47.75L95.3352 46.5481C95.0755 46.742 94.8121 46.9362 94.5448 47.1306L95.4271 48.3437ZM97.82 46.5307C98.355 46.1077 98.8727 45.6853 99.3733 45.2634L98.4066 44.1164C97.9185 44.5278 97.4128 44.9404 96.8896 45.3542L97.82 46.5307ZM100.886 43.9427C101.394 43.4822 101.882 43.0221 102.35 42.5626L101.298 41.4931C100.846 41.9375 100.373 42.3835 99.8789 42.8309L100.886 43.9427ZM103.754 41.1159C104.224 40.6084 104.668 40.1014 105.086 39.5947L103.93 38.6391C103.53 39.1231 103.104 39.6093 102.653 40.0975L103.754 41.1159ZM106.33 37.9892C106.531 37.7105 106.724 37.4318 106.91 37.1531L105.662 36.3211C105.487 36.5838 105.304 36.8472 105.113 37.1114L106.33 37.9892ZM106.908 37.1557C107.086 36.8921 107.257 36.6236 107.422 36.3502L106.137 35.5752C105.985 35.8276 105.827 36.0754 105.664 36.3185L106.908 37.1557ZM108.328 34.6716C108.6 34.1056 108.848 33.5218 109.074 32.9204L107.669 32.3938C107.459 32.9546 107.228 33.4973 106.976 34.022L108.328 34.6716ZM109.666 31.1169C109.836 30.5195 109.985 29.9066 110.114 29.2785L108.645 28.9765C108.523 29.5696 108.382 30.1463 108.223 30.7069L109.666 31.1169ZM110.431 27.4188C110.515 26.8085 110.582 26.1851 110.631 25.5485L109.135 25.4331C109.088 26.0412 109.025 26.6351 108.945 27.215L110.431 27.4188ZM110.725 23.6743C110.732 23.3648 110.736 23.0524 110.736 22.7371H109.236C109.236 23.0405 109.232 23.3408 109.225 23.638L110.725 23.6743ZM110.736 22.7371C110.736 22.4263 110.731 22.1183 110.723 21.8131L109.223 21.8571C109.232 22.1474 109.236 22.4407 109.236 22.7371H110.736ZM110.61 19.967C110.552 19.3409 110.473 18.7276 110.373 18.1271L108.894 18.3724C108.987 18.9365 109.062 19.5145 109.117 20.1064L110.61 19.967ZM109.998 16.3045C109.846 15.6929 109.671 15.096 109.472 14.514L108.053 14.9991C108.238 15.5392 108.401 16.0946 108.542 16.6656L109.998 16.3045ZM108.787 12.7735C108.53 12.1998 108.246 11.6428 107.938 11.1025L106.635 11.8466C106.92 12.3442 107.181 12.8579 107.419 13.3877L108.787 12.7735ZM106.928 9.52188C106.566 9.01359 106.179 8.52273 105.766 8.04934L104.636 9.03484C105.016 9.47138 105.373 9.92355 105.705 10.3914L106.928 9.52188ZM104.47 6.69822C104.245 6.48463 104.014 6.27524 103.777 6.07006L102.795 7.20415C103.015 7.39462 103.229 7.58874 103.438 7.7865L104.47 6.69822ZM103.781 6.07373C103.497 5.82422 103.209 5.5824 102.917 5.34828L101.979 6.51861C102.253 6.73844 102.524 6.96572 102.791 7.20048L103.781 6.07373ZM101.091 4.01948C100.459 3.60376 99.8094 3.22082 99.1437 2.87075L98.4456 4.1984C99.0679 4.52563 99.675 4.88377 100.267 5.27289L101.091 4.01948ZM97.0931 1.91787C96.3984 1.63551 95.6878 1.38589 94.9613 1.16896L94.5321 2.60624C95.2132 2.80962 95.8786 3.04339 96.5283 3.30748L97.0931 1.91787ZM92.7721 0.623676C92.0448 0.47707 91.3033 0.360614 90.5478 0.274177L90.3773 1.76446C91.0917 1.84619 91.7912 1.95612 92.4757 2.0941L92.7721 0.623676ZM88.3074 0.107181C87.9367 0.0937901 87.5629 0.0871031 87.1859 0.0871031V1.5871C87.5451 1.5871 87.9009 1.59348 88.2533 1.6062L88.3074 0.107181ZM87.1859 0.0871031C86.8518 0.0871031 86.52 0.0918288 86.1907 0.10129L86.2338 1.60067C86.5485 1.59163 86.8659 1.5871 87.1859 1.5871V0.0871031ZM84.2025 0.218644C83.5316 0.279232 82.8715 0.36079 82.2221 0.4634L82.4562 1.94502C83.0718 1.84775 83.6989 1.77023 84.3374 1.71256L84.2025 0.218644ZM80.2597 0.845281C79.6037 0.997817 78.9597 1.17344 78.3278 1.37222L78.7779 2.8031C79.3727 2.61597 79.9799 2.45035 80.5994 2.3063L80.2597 0.845281ZM76.4401 2.04947C75.8178 2.30142 75.2085 2.57764 74.6122 2.87815L75.2873 4.21766C75.8466 3.93575 76.4185 3.67648 77.003 3.43986L76.4401 2.04947ZM72.8585 3.85509C72.2895 4.20362 71.7339 4.57619 71.1917 4.97273L72.0772 6.18349C72.5866 5.81092 73.1082 5.46116 73.642 5.13415L72.8585 3.85509ZM69.6221 6.21967C69.3699 6.4367 69.121 6.65941 68.8753 6.88779L69.8966 7.98643C70.1284 7.77095 70.363 7.561 70.6006 7.35656L69.6221 6.21967ZM68.8756 6.88751C68.6365 7.10953 68.4032 7.33499 68.1757 7.56389L69.2397 8.62124C69.4528 8.40675 69.6717 8.19524 69.8963 7.9867L68.8756 6.88751ZM66.8615 9.00156C66.4407 9.50321 66.045 10.0194 65.6745 10.5501L66.9044 11.4087C67.2492 10.9148 67.618 10.4338 68.0107 9.96561L66.8615 9.00156ZM64.6303 12.2005C64.3079 12.7658 64.0114 13.3454 63.741 13.9394L65.1062 14.5609C65.3577 14.0083 65.6334 13.4693 65.9332 12.9438L64.6303 12.2005ZM63.0128 15.7504C62.799 16.3586 62.6103 16.9801 62.4465 17.6148L63.8989 17.9897C64.0522 17.3955 64.2286 16.8149 64.4279 16.2477L63.0128 15.7504ZM62.0371 19.516C61.9274 20.1452 61.8403 20.7861 61.7757 21.4386L63.2684 21.5865C63.3295 20.9696 63.4117 20.3653 63.5148 19.7736L62.0371 19.516ZM61.651 23.3701C61.6409 23.6899 61.6359 24.0122 61.6359 24.3371H63.1359C63.1359 24.0276 63.1407 23.7209 63.1502 23.4171L61.651 23.3701ZM62.3859 25.0871H63.5359V23.5871H62.3859V25.0871ZM65.8359 25.0871H68.1359V23.5871H65.8359V25.0871ZM70.4359 25.0871H72.7359V23.5871H70.4359V25.0871ZM75.0359 25.0871H76.1859V23.5871H75.0359V25.0871ZM76.9357 24.3197C76.9284 24.0038 76.9344 23.6958 76.9537 23.3955L75.4568 23.2996C75.4346 23.6452 75.4278 23.9969 75.4361 24.3545L76.9357 24.3197ZM77.2492 21.5963C77.4113 21.0068 77.6355 20.4495 77.9217 19.923L76.6038 19.2066C76.2619 19.8357 75.9949 20.5001 75.8029 21.1987L77.2492 21.5963ZM78.96 18.4416C79.1574 18.2168 79.3698 17.998 79.5977 17.7854L78.5742 16.6888C78.3112 16.9343 78.064 17.1886 77.8328 17.452L78.96 18.4416ZM79.5983 17.7848C79.8431 17.5558 80.0955 17.3418 80.3552 17.1427L79.4427 15.9522C79.1432 16.1817 78.8535 16.4275 78.5736 16.6894L79.5983 17.7848ZM82.0372 16.1089C82.6237 15.8276 83.2442 15.6039 83.8999 15.4384L83.5327 13.984C82.7832 14.1732 82.0681 14.4305 81.3886 14.7563L82.0372 16.1089ZM85.8756 15.1238C86.2046 15.0994 86.5414 15.0871 86.8859 15.0871V13.5871C86.5057 13.5871 86.1318 13.6007 85.7645 13.628L85.8756 15.1238ZM86.8859 15.0871C87.1934 15.0871 87.4923 15.0971 87.7828 15.117L87.8853 13.6205C87.5591 13.5982 87.226 13.5871 86.8859 13.5871V15.0871ZM89.5318 15.3785C90.1202 15.5202 90.6651 15.7127 91.1684 15.9545L91.8179 14.6024C91.2132 14.3119 90.5676 14.0851 89.883 13.9202L89.5318 15.3785ZM92.6145 16.8737C92.8344 17.0539 93.0447 17.2483 93.2453 17.4569L94.3266 16.4173C94.0854 16.1665 93.8317 15.9319 93.5654 15.7136L92.6145 16.8737ZM93.2453 17.4569C93.4399 17.6593 93.6216 17.868 93.7906 18.0831L94.97 17.1563C94.7696 16.9012 94.555 16.6549 94.3266 16.4173L93.2453 17.4569ZM94.6683 19.4796C94.907 19.9674 95.097 20.4849 95.2376 21.0333L96.6906 20.6607C96.5255 20.0167 96.3007 19.4029 96.0157 18.8203L94.6683 19.4796ZM95.5047 22.6885C95.5255 22.9645 95.5359 23.2473 95.5359 23.5371H97.0359C97.0359 23.2112 97.0242 22.8909 97.0005 22.576L95.5047 22.6885ZM95.5359 23.5371C95.5359 23.8237 95.5195 24.1124 95.4865 24.4033L96.977 24.5723C97.0162 24.2262 97.0359 23.8811 97.0359 23.5371H95.5359ZM95.1091 26.1135C94.934 26.6517 94.7039 27.1995 94.4169 27.7568L95.7506 28.4434C96.0711 27.8207 96.3334 27.1987 96.5355 26.5776L95.1091 26.1135ZM93.4846 29.3118C93.1562 29.7929 92.7873 30.2799 92.3774 30.7728L93.5307 31.732C93.9683 31.2058 94.3661 30.681 94.7235 30.1575L93.4846 29.3118ZM91.1406 32.1487C90.7261 32.5782 90.2818 33.0113 89.8074 33.4481L90.8235 34.5516C91.3179 34.0963 91.7835 33.6426 92.2199 33.1904L91.1406 32.1487ZM88.3995 34.6816C87.9351 35.0698 87.4477 35.4606 86.9374 35.854L87.8531 37.042C88.3782 36.6373 88.881 36.2341 89.3616 35.8324L88.3995 34.6816ZM85.4272 36.9771C85.1753 37.1581 84.9187 37.3396 84.6573 37.5217L85.5146 38.7526C85.7818 38.5664 86.0445 38.3806 86.3026 38.1951L85.4272 36.9771ZM84.6448 37.5306C84.3907 37.7153 84.0676 37.9489 83.6752 38.2313L84.5515 39.4487C84.945 39.1655 85.2703 38.9304 85.5271 38.7437L84.6448 37.5306ZM81.7262 39.6291C81.4201 39.848 81.0948 40.0806 80.75 40.3268L81.6219 41.5474C81.9669 41.301 82.2925 41.0682 82.5989 40.849L81.7262 39.6291ZM80.7648 40.3165C80.3988 40.5648 80.0518 40.8018 79.7237 41.0275L80.5738 42.2634C80.899 42.0397 81.2434 41.8045 81.6071 41.5577L80.7648 40.3165ZM77.6543 42.4811C77.2611 42.7654 76.9189 43.0194 76.6287 43.2426L77.5432 44.4316C77.8184 44.2199 78.1481 43.975 78.5331 43.6967L77.6543 42.4811ZM76.659 43.2205C76.3692 43.4211 76.0391 43.6594 75.6693 43.9345L76.5647 45.1379C76.9249 44.8699 77.2408 44.6421 77.5128 44.4538L76.659 43.2205ZM73.758 45.4044C73.4598 45.6394 73.1462 45.8884 72.8174 46.1515L73.7545 47.3228C74.0807 47.0618 74.3913 46.8151 74.6863 46.5827L73.758 45.4044ZM72.8058 46.1609C72.4701 46.4407 72.1513 46.7122 71.8493 46.9754L72.8351 48.106C73.1279 47.8508 73.4382 47.5865 73.7661 47.3133L72.8058 46.1609ZM69.9949 48.7013C69.667 49.0328 69.3738 49.3488 69.1165 49.649L70.2554 50.6252C70.4853 50.3569 70.7536 50.0673 71.0614 49.7561L69.9949 48.7013ZM69.1165 49.649C68.8795 49.9255 68.6287 50.2244 68.3642 50.5453L69.5219 51.4992C69.781 51.1847 70.0255 50.8934 70.2554 50.6252L69.1165 49.649ZM66.9063 52.3619C66.676 52.6552 66.4381 52.9607 66.1925 53.2785L67.3794 54.1957C67.6228 53.8807 67.8583 53.5783 68.086 53.2884L66.9063 52.3619ZM66.1925 53.2785C65.9223 53.6281 65.6664 53.9766 65.4247 54.324L66.656 55.1806C66.8827 54.8548 67.1238 54.5265 67.3794 54.1957L66.1925 53.2785ZM64.0636 56.5523C63.855 56.9499 63.666 57.3464 63.4966 57.7417L64.8753 58.3326C65.0286 57.9749 65.2007 57.6137 65.392 57.2488L64.0636 56.5523ZM63.4896 57.7586C63.3378 58.1379 63.1918 58.5342 63.0515 58.9472L64.4717 59.4298C64.6042 59.04 64.7411 58.6687 64.8823 58.3157L63.4896 57.7586ZM62.3429 61.3582C62.2428 61.7519 62.1465 62.1573 62.0538 62.5744L63.5181 62.8998C63.6077 62.4966 63.7005 62.1059 63.7967 61.7277L62.3429 61.3582ZM62.0538 62.5744C61.949 63.046 61.8576 63.5218 61.7794 64.002L63.26 64.2428C63.3335 63.7908 63.4196 63.3431 63.5181 62.8998L62.0538 62.5744ZM61.473 66.8882C61.4483 67.3674 61.4359 67.8503 61.4359 68.3371H62.9359C62.9359 67.8757 62.9476 67.4185 62.971 66.9655L61.473 66.8882ZM61.4359 68.3371V69.5121H62.9359V68.3371H61.4359ZM61.4359 71.8621V73.0371H62.9359V71.8621H61.4359ZM62.1859 73.7871H63.1943V72.2871H62.1859V73.7871ZM65.2109 73.7871H67.2276V72.2871H65.2109V73.7871ZM69.2443 73.7871H71.2609V72.2871H69.2443V73.7871ZM73.2776 73.7871H75.2943V72.2871H73.2776V73.7871ZM77.3109 73.7871H79.3276V72.2871H77.3109V73.7871ZM81.3443 73.7871H83.3609V72.2871H81.3443V73.7871ZM85.3776 73.7871H87.3943V72.2871H85.3776V73.7871ZM89.4109 73.7871H91.4276V72.2871H89.4109V73.7871ZM93.4443 73.7871H95.4609V72.2871H93.4443V73.7871ZM97.4776 73.7871H99.4943V72.2871H97.4776V73.7871ZM101.511 73.7871H103.528V72.2871H101.511V73.7871ZM105.544 73.7871H107.561V72.2871H105.544V73.7871ZM109.578 73.7871H110.586V72.2871H109.578V73.7871ZM111.336 73.0371V71.9121H109.836V73.0371H111.336ZM111.336 69.6621V67.4121H109.836V69.6621H111.336ZM111.336 65.1621V62.9121H109.836V65.1621H111.336ZM111.336 60.6621V59.5371H109.836V60.6621H111.336ZM110.586 59.5371H112.086C112.086 58.7087 111.414 58.0371 110.586 58.0371V59.5371ZM110.586 73.0371V74.5371C111.414 74.5371 112.086 73.8655 112.086 73.0371H110.586ZM62.1859 73.0371H60.6859C60.6859 73.8655 61.3575 74.5371 62.1859 74.5371V73.0371ZM64.1859 58.0371L62.8072 57.4462C62.8024 57.4574 62.7978 57.4687 62.7932 57.48L64.1859 58.0371ZM66.7859 53.7371L67.9729 54.6543L66.7859 53.7371ZM69.6859 50.1371L68.5471 49.1609L69.6859 50.1371ZM73.2859 46.7371L72.3489 45.5658C72.3411 45.5721 72.3333 45.5784 72.3257 45.5848L73.2859 46.7371ZM77.0859 43.8371L77.9398 45.0704C77.9604 45.0561 77.9806 45.0413 78.0005 45.026L77.0859 43.8371ZM81.1859 40.9371L82.0282 42.1783C82.0381 42.1716 82.048 42.1647 82.0578 42.1577L81.1859 40.9371ZM85.0859 38.1371L84.2287 36.9062C84.2203 36.912 84.212 36.918 84.2037 36.924L85.0859 38.1371ZM93.7859 16.9371L94.8672 15.8974V15.8974L93.7859 16.9371ZM79.0859 17.2371L80.1094 18.3337L80.1107 18.3325L79.0859 17.2371ZM76.1859 24.3371V25.8371C76.5898 25.8371 76.9766 25.6742 77.2589 25.3854C77.5411 25.0965 77.6949 24.706 77.6855 24.3022L76.1859 24.3371ZM62.3859 24.3371H60.8859C60.8859 25.1655 61.5575 25.8371 62.3859 25.8371V24.3371ZM69.3859 7.43711L70.4066 8.5363L70.4072 8.53575L69.3859 7.43711ZM103.286 6.63711L102.296 7.76388L102.304 7.7712L103.286 6.63711ZM106.286 36.7371L105.041 35.8998L105.038 35.9051L106.286 36.7371ZM94.9859 47.7371L95.8578 48.9578L95.8682 48.9502L94.9859 47.7371ZM91.3859 50.2371L92.208 51.4918C92.2179 51.4853 92.2278 51.4787 92.2375 51.4719L91.3859 50.2371ZM86.9859 53.2371L86.0989 52.0275L86.9859 53.2371ZM83.5859 56.1371L82.5543 55.0482C82.5445 55.0575 82.5348 55.0669 82.5253 55.0764L83.5859 56.1371ZM81.1859 59.5371L79.7814 59.0104C79.6087 59.4711 79.6728 59.9871 79.953 60.3915C80.2333 60.7959 80.694 61.0371 81.1859 61.0371V59.5371ZM110.586 58.0371H109.536V61.0371H110.586V58.0371ZM107.436 58.0371H105.336V61.0371H107.436V58.0371ZM103.236 58.0371H101.136V61.0371H103.236V58.0371ZM99.0359 58.0371H96.9359V61.0371H99.0359V58.0371ZM94.8359 58.0371H92.7359V61.0371H94.8359V58.0371ZM90.6359 58.0371H88.5359V61.0371H90.6359V58.0371ZM86.4359 58.0371H84.3359V61.0371H86.4359V58.0371ZM82.2359 58.0371H81.1859V61.0371H82.2359V58.0371ZM82.5904 60.0638C82.6752 59.8377 82.7892 59.5953 82.9373 59.3363L80.3331 57.847C80.1143 58.2295 79.9288 58.6174 79.7814 59.0104L82.5904 60.0638ZM83.9956 57.8904C84.1932 57.6653 84.4099 57.4344 84.6466 57.1978L82.5253 55.0764C82.2467 55.3551 81.985 55.6333 81.741 55.9113L83.9956 57.8904ZM84.6176 57.226C84.8901 56.9679 85.1554 56.7215 85.4138 56.4869L83.3968 54.2662C83.1219 54.5159 82.841 54.7766 82.5543 55.0482L84.6176 57.226ZM87.0411 55.0877C87.3314 54.854 87.6087 54.6405 87.873 54.4467L86.0989 52.0275C85.7945 52.2507 85.4814 52.492 85.1599 52.7508L87.0411 55.0877ZM87.873 54.4467C88.176 54.2245 88.5272 53.9742 88.9275 53.6954L87.2128 51.2337C86.7976 51.5229 86.426 51.7876 86.0989 52.0275L87.873 54.4467ZM91.104 52.2198C91.4528 51.9882 91.8208 51.7455 92.208 51.4918L90.5639 48.9824C90.172 49.2392 89.7987 49.4854 89.4442 49.7208L91.104 52.2198ZM92.2375 51.4719C92.5588 51.2504 92.8598 51.0426 93.1407 50.8485L91.4357 48.3802C91.1555 48.5738 90.855 48.7811 90.5343 49.0023L92.2375 51.4719ZM94.9467 49.5972C95.3604 49.3091 95.6656 49.095 95.8578 48.9577L94.1141 46.5165C93.9376 46.6426 93.6452 46.8479 93.2324 47.1353L94.9467 49.5972ZM95.8682 48.9502C96.143 48.7504 96.4141 48.5506 96.6815 48.3509L94.8864 45.9472C94.6294 46.1392 94.3684 46.3314 94.1037 46.524L95.8682 48.9502ZM98.2852 47.119C98.826 46.6914 99.3499 46.264 99.8567 45.8368L97.9232 43.543C97.4413 43.9491 96.9417 44.3568 96.4244 44.7659L98.2852 47.119ZM101.389 44.4986C101.905 44.0315 102.4 43.5644 102.875 43.0974L100.772 40.9583C100.328 41.3952 99.8622 41.8342 99.3754 42.2751L101.389 44.4986ZM104.305 41.6251C104.783 41.1079 105.236 40.5905 105.665 40.0726L103.352 38.1613C102.961 38.634 102.545 39.1097 102.102 39.5883L104.305 41.6251ZM106.938 38.4281C107.144 38.1421 107.343 37.8557 107.534 37.5692L105.038 35.9051C104.868 36.1598 104.69 36.4156 104.505 36.6724L106.938 38.4281ZM107.531 37.5744C107.715 37.3005 107.893 37.0216 108.064 36.7377L105.495 35.1877C105.349 35.4296 105.198 35.667 105.041 35.8998L107.531 37.5744ZM109.004 34.9963C109.286 34.4098 109.543 33.8055 109.776 33.1837L106.967 32.1305C106.765 32.6709 106.542 33.1931 106.3 33.6973L109.004 34.9963ZM110.387 31.3219C110.562 30.706 110.716 30.0752 110.849 29.4296L107.91 28.8254C107.792 29.401 107.656 29.9598 107.502 30.5019L110.387 31.3219ZM111.174 27.5208C111.26 26.8952 111.328 26.257 111.378 25.6063L108.387 25.3753C108.341 25.9693 108.28 26.5485 108.202 27.1131L111.174 27.5208ZM111.474 23.6925C111.482 23.3768 111.486 23.0583 111.486 22.7371H108.486C108.486 23.0345 108.482 23.3288 108.475 23.6198L111.474 23.6925ZM111.486 22.7371C111.486 22.4191 111.481 22.1038 111.472 21.7911L108.473 21.8791C108.482 22.1619 108.486 22.4479 108.486 22.7371H111.486ZM111.357 19.8973C111.297 19.2541 111.216 18.6231 111.113 18.0044L108.154 18.495C108.244 19.041 108.317 19.6013 108.37 20.1762L111.357 19.8973ZM110.726 16.124C110.569 15.492 110.388 14.8744 110.182 14.2715L107.343 15.2416C107.521 15.7608 107.678 16.2955 107.814 16.8461L110.726 16.124ZM109.471 12.4664C109.204 11.8708 108.91 11.2921 108.589 10.7304L105.984 12.2186C106.256 12.6949 106.506 13.1869 106.734 13.6948L109.471 12.4664ZM107.539 9.08712C107.163 8.55861 106.76 8.04841 106.332 7.55659L104.07 9.52759C104.435 9.9457 104.776 10.3785 105.094 10.8262L107.539 9.08712ZM104.986 6.15408C104.753 5.93258 104.513 5.71556 104.268 5.50301L102.304 7.7712C102.516 7.95431 102.722 8.14079 102.922 8.33064L104.986 6.15408ZM104.276 5.51036C103.984 5.25347 103.687 5.00437 103.386 4.76311L101.51 7.10378C101.775 7.31646 102.037 7.53648 102.296 7.76385L104.276 5.51036ZM101.503 3.39278C100.85 2.96376 100.18 2.56842 99.4927 2.20693L98.0965 4.86222C98.6971 5.17804 99.2832 5.52377 99.8549 5.8996L101.503 3.39278ZM97.3755 1.22307C96.6583 0.931579 95.9251 0.674026 95.1759 0.450316L94.3175 3.32488C94.9759 3.52149 95.6186 3.74732 96.2459 4.00228L97.3755 1.22307ZM92.9203 -0.111536C92.1716 -0.262455 91.4091 -0.382175 90.633 -0.470963L90.292 2.5096C90.9859 2.58898 91.6644 2.69564 92.3275 2.82931L92.9203 -0.111536ZM88.3345 -0.642331C87.9546 -0.656053 87.5717 -0.662897 87.1859 -0.662897V2.3371C87.5363 2.3371 87.883 2.34332 88.2262 2.35571L88.3345 -0.642331ZM87.1859 -0.662897C86.8447 -0.662897 86.5058 -0.658071 86.1692 -0.648401L86.2553 2.35036C86.5628 2.34153 86.873 2.3371 87.1859 2.3371V-0.662897ZM84.1351 -0.528316C83.448 -0.466269 82.7713 -0.382688 82.105 -0.277408L82.5732 2.68583C83.172 2.59122 83.7825 2.51574 84.4049 2.45952L84.1351 -0.528316ZM80.0898 0.11477C79.4156 0.271549 78.7532 0.452178 78.1027 0.656783L79.0029 3.51853C79.5793 3.33724 80.168 3.17662 80.7693 3.03681L80.0898 0.11477ZM76.1587 1.35428C75.5174 1.61389 74.8894 1.89859 74.2746 2.2084L75.6248 4.88741C76.1657 4.6148 76.7189 4.36401 77.2845 4.13505L76.1587 1.35428ZM72.4667 3.21555C71.8802 3.57485 71.3076 3.95882 70.749 4.36735L72.5199 6.78888C73.013 6.42828 73.5176 6.08993 74.0338 5.77369L72.4667 3.21555ZM69.1328 5.65122C68.8733 5.87454 68.6173 6.10364 68.3647 6.33847L70.4072 8.53575C70.6321 8.32673 70.8596 8.12315 71.0898 7.92501L69.1328 5.65122ZM68.3653 6.33792C68.1189 6.56668 67.8784 6.79911 67.6438 7.03521L69.7717 9.14992C69.9777 8.94263 70.1893 8.73809 70.4066 8.5363L68.3653 6.33792ZM66.2869 8.51953C65.8521 9.03792 65.4428 9.57166 65.0595 10.1207L67.5194 11.838C67.8514 11.3625 68.2066 10.8991 68.5853 10.4476L66.2869 8.51953ZM63.9789 11.8289C63.6451 12.414 63.3382 13.014 63.0584 13.6287L65.7888 14.8717C66.0309 14.3398 66.2962 13.8211 66.5846 13.3155L63.9789 11.8289ZM62.3052 15.5017C62.0842 16.1305 61.8893 16.7724 61.7203 17.4274L64.6251 18.1771C64.7732 17.6033 64.9434 17.0431 65.1355 16.4963L62.3052 15.5017ZM61.2982 19.3872C61.1853 20.0351 61.0957 20.6943 61.0294 21.3647L64.0147 21.6604C64.0741 21.0613 64.1538 20.4754 64.2537 19.9024L61.2982 19.3872ZM60.9013 23.3467C60.8911 23.6743 60.8859 24.0045 60.8859 24.3371H63.8859C63.8859 24.0353 63.8906 23.7365 63.8999 23.4406L60.9013 23.3467ZM62.3859 25.8371H63.5359V22.8371H62.3859V25.8371ZM65.8359 25.8371H68.1359V22.8371H65.8359V25.8371ZM70.4359 25.8371H72.7359V22.8371H70.4359V25.8371ZM75.0359 25.8371H76.1859V22.8371H75.0359V25.8371ZM77.6855 24.3022C77.6787 24.0073 77.6844 23.7211 77.7022 23.4434L74.7083 23.2516C74.6847 23.6198 74.6775 23.9934 74.6863 24.372L77.6855 24.3022ZM77.9724 21.7952C78.1195 21.2602 78.3223 20.7564 78.5806 20.2812L75.9449 18.8484C75.5751 19.5288 75.2868 20.2468 75.0797 20.9999L77.9724 21.7952ZM79.5237 18.9364C79.7041 18.7309 79.8991 18.5299 80.1094 18.3337L78.0625 16.1405C77.7819 16.4024 77.5173 16.6746 77.2691 16.9572L79.5237 18.9364ZM80.1107 18.3325C80.338 18.1199 80.5716 17.9218 80.8114 17.738L78.9864 15.3569C78.6671 15.6017 78.3587 15.8634 78.0612 16.1417L80.1107 18.3325ZM82.3616 16.7851C82.9015 16.5262 83.4748 16.3192 84.0835 16.1655L83.3491 13.2568C82.5527 13.4579 81.7903 13.7319 81.0643 14.0801L82.3616 16.7851ZM85.9312 15.8718C86.241 15.8488 86.5592 15.8371 86.8859 15.8371V12.8371C86.4878 12.8371 86.0955 12.8513 85.7089 12.88L85.9312 15.8718ZM86.8859 15.8371C87.1771 15.8371 87.4589 15.8466 87.7316 15.8653L87.9365 12.8723C87.5925 12.8487 87.2423 12.8371 86.8859 12.8371V15.8371ZM89.3562 16.1077C89.8964 16.2378 90.391 16.4131 90.8436 16.6306L92.1426 13.9264C91.4872 13.6115 90.7913 13.3675 90.0586 13.1911L89.3562 16.1077ZM92.1391 17.4537C92.3358 17.615 92.5243 17.7892 92.7047 17.9768L94.8672 15.8974C94.6058 15.6256 94.3303 15.3708 94.0408 15.1335L92.1391 17.4537ZM92.7047 17.9768C92.8824 18.1616 93.0476 18.3515 93.2009 18.5465L95.5597 16.6929C95.3436 16.4178 95.1126 16.1527 94.8672 15.8974L92.7047 17.9768ZM93.9946 19.8092C94.2102 20.2497 94.3828 20.7191 94.5111 21.2196L97.4171 20.4744C97.2397 19.7826 96.9976 19.1206 96.6894 18.4907L93.9946 19.8092ZM94.7569 22.7447C94.7761 23.0013 94.7859 23.2653 94.7859 23.5371H97.7859C97.7859 23.1932 97.7735 22.8541 97.7484 22.5198L94.7569 22.7447ZM94.7859 23.5371C94.7859 23.795 94.7712 24.0555 94.7413 24.3188L97.7222 24.6568C97.7646 24.2831 97.7859 23.9098 97.7859 23.5371H94.7859ZM94.3959 25.8814C94.2343 26.3782 94.0202 26.8889 93.7501 27.4136L96.4174 28.7867C96.7548 28.1314 97.0331 27.4723 97.2487 26.8096L94.3959 25.8814ZM92.8652 28.8889C92.5512 29.3488 92.1969 29.817 91.8008 30.2933L94.1073 32.2115C94.5587 31.6688 94.971 31.1251 95.3429 30.5803L92.8652 28.8889ZM90.601 31.6279C90.1974 32.046 89.7637 32.4688 89.2994 32.8964L91.3315 35.1033C91.836 34.6387 92.3122 34.1748 92.7595 33.7113L90.601 31.6279ZM87.9185 34.1062C87.4621 34.4877 86.9825 34.8723 86.4796 35.2599L88.3109 37.6361C88.8434 37.2257 89.354 36.8163 89.8426 36.4079L87.9185 34.1062ZM84.9894 36.3681C84.7407 36.5469 84.4871 36.7263 84.2287 36.9062L85.9432 39.368C86.2134 39.1798 86.4791 38.9919 86.7403 38.8042L84.9894 36.3681ZM84.2037 36.924C83.951 37.1078 83.629 37.3405 83.2371 37.6226L84.9896 40.0575C85.3837 39.7738 85.71 39.538 85.9682 39.3502L84.2037 36.924ZM81.2898 39.0191C80.9839 39.2379 80.6587 39.4703 80.3141 39.7165L82.0578 42.1577C82.4029 41.9112 82.7287 41.6783 83.0352 41.459L81.2898 39.0191ZM80.3437 39.6959C79.9765 39.945 79.6282 40.1829 79.2987 40.4095L80.9988 42.8813C81.3225 42.6586 81.6657 42.4243 82.0282 42.1783L80.3437 39.6959ZM77.2149 41.8733C76.8175 42.1606 76.4691 42.4192 76.1714 42.6482L78.0005 45.026C78.2682 44.8201 78.5916 44.5799 78.9725 44.3045L77.2149 41.8733ZM76.2321 42.6038C75.9335 42.8106 75.5962 43.0541 75.2216 43.3327L77.0124 45.7397C77.3679 45.4752 77.6765 45.2526 77.9398 45.0704L76.2321 42.6038ZM73.2939 44.8153C72.994 45.0515 72.679 45.3017 72.3489 45.5658L74.223 47.9084C74.5479 47.6485 74.857 47.403 75.1504 47.1718L73.2939 44.8153ZM72.3257 45.5848C71.9861 45.8677 71.663 46.1429 71.3565 46.4101L73.328 48.6713C73.6162 48.4201 73.9222 48.1594 74.2462 47.8894L72.3257 45.5848ZM69.4617 48.1739C69.1237 48.5156 68.8181 48.8448 68.5471 49.1609L70.8248 51.1133C71.0411 50.861 71.2969 50.5845 71.5946 50.2835L69.4617 48.1739ZM68.5471 49.1609C68.3064 49.4416 68.0525 49.7442 67.7854 50.0684L70.1007 51.9761C70.3572 51.6648 70.5985 51.3773 70.8248 51.1133L68.5471 49.1609ZM66.3164 51.8987C66.0849 52.1936 65.8457 52.5007 65.599 52.8199L67.9729 54.6543C68.2151 54.3407 68.4495 54.0398 68.6759 53.7516L66.3164 51.8987ZM65.599 52.8199C65.3216 53.179 65.0582 53.5375 64.809 53.8956L67.2717 55.6089C67.4909 55.2938 67.7246 54.9756 67.9729 54.6543L65.599 52.8199ZM63.3993 56.204C63.1822 56.6181 62.9847 57.0322 62.8072 57.4462L65.5647 58.628C65.7099 58.2892 65.8736 57.9455 66.0563 57.597L63.3993 56.204ZM62.7932 57.48C62.6362 57.8725 62.4857 58.2812 62.3414 58.7058L65.1818 59.6712C65.3103 59.293 65.4427 58.9341 65.5787 58.5942L62.7932 57.48ZM61.616 61.1735C61.514 61.5749 61.4159 61.9876 61.3217 62.4117L64.2502 63.0625C64.3383 62.6663 64.4294 62.2829 64.5236 61.9124L61.616 61.1735ZM61.3217 62.4117C61.2137 62.8974 61.1196 63.3874 61.0392 63.8815L64.0003 64.3632C64.0715 63.9253 64.1548 63.4917 64.2502 63.0625L61.3217 62.4117ZM60.724 66.8496C60.6986 67.3418 60.6859 67.8376 60.6859 68.3371H63.6859C63.6859 67.8884 63.6973 67.4441 63.72 67.0042L60.724 66.8496ZM60.6859 68.3371V69.5121H63.6859V68.3371H60.6859ZM60.6859 71.8621V73.0371H63.6859V71.8621H60.6859ZM62.1859 74.5371H63.1943V71.5371H62.1859V74.5371ZM65.2109 74.5371H67.2276V71.5371H65.2109V74.5371ZM69.2443 74.5371H71.2609V71.5371H69.2443V74.5371ZM73.2776 74.5371H75.2943V71.5371H73.2776V74.5371ZM77.3109 74.5371H79.3276V71.5371H77.3109V74.5371ZM81.3443 74.5371H83.3609V71.5371H81.3443V74.5371ZM85.3776 74.5371H87.3943V71.5371H85.3776V74.5371ZM89.4109 74.5371H91.4276V71.5371H89.4109V74.5371ZM93.4443 74.5371H95.4609V71.5371H93.4443V74.5371ZM97.4776 74.5371H99.4943V71.5371H97.4776V74.5371ZM101.511 74.5371H103.528V71.5371H101.511V74.5371ZM105.544 74.5371H107.561V71.5371H105.544V74.5371ZM109.578 74.5371H110.586V71.5371H109.578V74.5371ZM112.086 73.0371V71.9121H109.086V73.0371H112.086ZM112.086 69.6621V67.4121H109.086V69.6621H112.086ZM112.086 65.1621V62.9121H109.086V65.1621H112.086ZM112.086 60.6621V59.5371H109.086V60.6621H112.086Z" fill="url(#paint0_linear_790_28159)"/>
<defs>
<linearGradient id="paint0_linear_790_28159" x1="8.34285" y1="21.3481" x2="71.4433" y2="81.9142" gradientUnits="userSpaceOnUse">
<stop stop-color="#F05225"/>
<stop offset="1" stop-color="#EEA820"/>
</linearGradient>
</defs>
</svg>
