<svg width="113" height="75" viewBox="0 0 113 75" fill="none" xmlns="http://www.w3.org/2000/svg">
<path d="M7.5 66.2371L6.95263 66.7498L7.5 66.2371ZM7.5 8.73711L8.04737 9.24983L7.5 8.73711ZM45.6 8.73711L45.0526 9.24983L45.6 8.73711ZM45.6 66.2371L46.1474 66.7498L45.6 66.2371ZM17.3 56.7371L16.7418 57.238L17.3 56.7371ZM35.8 56.7371L35.2418 56.2361L35.2347 56.2443L35.8 56.7371ZM35.8 18.2371L35.2347 18.73C35.2392 18.7351 35.2437 18.7402 35.2483 18.7452L35.8 18.2371ZM17.3 18.2371L17.8517 18.7453L17.8582 18.738L17.3 18.2371ZM26.6 73.3871C26.2495 73.3871 25.9021 73.3817 25.5579 73.3708L25.5107 74.8701C25.8709 74.8814 26.234 74.8871 26.6 74.8871V73.3871ZM23.4839 73.2361C22.7852 73.1665 22.1004 73.0729 21.4294 72.9554L21.1706 74.4329C21.8791 74.557 22.6007 74.6555 23.3352 74.7287L23.4839 73.2361ZM19.4072 72.5182C18.7339 72.3438 18.0755 72.1432 17.4318 71.9166L16.9336 73.3314C17.6181 73.5725 18.3173 73.7854 19.0311 73.9703L19.4072 72.5182ZM15.5185 71.1462C14.8918 70.8608 14.2801 70.5481 13.6833 70.2081L12.9407 71.5113C13.5769 71.8738 14.2289 72.2072 14.8967 72.5113L15.5185 71.1462ZM11.94 69.1077C11.3791 68.7173 10.8324 68.3 10.2999 67.8557L9.33885 69.0074C9.90448 69.4794 10.4859 69.9232 11.0832 70.3389L11.94 69.1077ZM8.77017 66.4662C8.52594 66.2254 8.28501 65.9781 8.04737 65.7244L6.95263 66.7498C7.20363 67.0178 7.45836 67.2792 7.71684 67.5342L8.77017 66.4662ZM8.04737 65.7244C7.84279 65.506 7.64264 65.2851 7.44689 65.0616L6.31858 66.05C6.52539 66.2861 6.73674 66.5194 6.95263 66.7498L8.04737 65.7244ZM6.31633 63.6788C5.95443 63.2037 5.61063 62.7181 5.28487 62.2218L4.03092 63.045C4.37601 63.5707 4.74008 64.0849 5.12309 64.5877L6.31633 63.6788ZM4.35887 60.6963C4.06885 60.178 3.79681 59.6489 3.54274 59.109L2.1855 59.7477C2.45449 60.3193 2.74261 60.8797 3.04988 61.4288L4.35887 60.6963ZM2.83868 57.4677C2.62413 56.916 2.42687 56.3536 2.24693 55.7806L0.815826 56.2299C1.00561 56.8344 1.21389 57.4282 1.44068 58.0113L2.83868 57.4677ZM1.76587 54.0568C1.62496 53.4826 1.50023 52.8982 1.39175 52.3036L-0.0838914 52.5728C0.0298824 53.1964 0.16086 53.8102 0.309088 54.4143L1.76587 54.0568ZM1.11994 50.5287C1.04669 49.9415 0.988317 49.345 0.944852 48.7391L-0.551303 48.8464C-0.506008 49.4778 -0.445098 50.1005 -0.368526 50.7144L1.11994 50.5287ZM0.860285 46.9395C0.85343 46.6409 0.85 46.3401 0.85 46.0371H-0.65C-0.65 46.3514 -0.646441 46.6637 -0.63932 46.9739L0.860285 46.9395ZM0.85 46.0371V44.9621H-0.65V46.0371H0.85ZM0.85 42.8121V40.6621H-0.65V42.8121H0.85ZM0.85 38.5121V36.3621H-0.65V38.5121H0.85ZM0.85 34.2121V32.0621H-0.65V34.2121H0.85ZM0.85 29.9121V28.8371H-0.65V29.9121H0.85ZM0.85 28.8371C0.85 28.4747 0.85499 28.1154 0.864959 27.7592L-0.634454 27.7172C-0.644821 28.0877 -0.65 28.461 -0.65 28.8371H0.85ZM0.988522 25.6121C1.05233 24.8882 1.13813 24.1779 1.24585 23.481L-0.236541 23.2519C-0.349402 23.982 -0.439088 24.7248 -0.505685 25.4804L0.988522 25.6121ZM1.64699 21.3766C1.80736 20.6734 1.99186 19.985 2.20041 19.3111L0.767463 18.8676C0.547466 19.5785 0.353183 20.3036 0.184542 21.043L1.64699 21.3766ZM2.91223 17.2979C3.17761 16.6339 3.46856 15.9851 3.78506 15.3514L2.44313 14.6811C2.10792 15.3523 1.8 16.039 1.51935 16.7412L2.91223 17.2979ZM4.81721 13.4858C5.18653 12.8801 5.58176 12.2892 6.00295 11.7133L4.79217 10.8278C4.34635 11.4375 3.92777 12.0632 3.5365 12.7049L4.81721 13.4858ZM7.33232 10.044C7.56436 9.77576 7.8027 9.51103 8.04737 9.24983L6.95263 8.22438C6.69454 8.49991 6.44294 8.77935 6.19785 9.0627L7.33232 10.044ZM8.04737 9.24983C8.28501 8.99614 8.52594 8.74886 8.77016 8.50798L7.71684 7.44003C7.45836 7.69497 7.20363 7.95643 6.95263 8.22438L8.04737 9.24983ZM10.2999 7.11852C10.8324 6.67417 11.3791 6.25689 11.94 5.86657L11.0832 4.63533C10.4859 5.05097 9.90448 5.49483 9.33885 5.96682L10.2999 7.11852ZM13.6833 4.76616C14.2801 4.42613 14.8918 4.1134 15.5185 3.82797L14.8967 2.4629C14.2289 2.76705 13.5769 3.10038 12.9407 3.46287L13.6833 4.76616ZM17.4318 3.05763C18.0755 2.83098 18.7339 2.63043 19.4072 2.45604L19.0311 1.00395C18.3173 1.18883 17.6181 1.40175 16.9336 1.64279L17.4318 3.05763ZM21.4294 2.01885C22.1004 1.90134 22.7852 1.80773 23.4839 1.73812L23.3352 0.245512C22.6007 0.318683 21.8791 0.417255 21.1706 0.541334L21.4294 2.01885ZM25.5579 1.6034C25.9021 1.59254 26.2495 1.5871 26.6 1.5871V0.0871031C26.234 0.0871031 25.8709 0.0927787 25.5107 0.104142L25.5579 1.6034ZM26.6 1.5871C26.9488 1.5871 27.2944 1.59258 27.637 1.60352L27.6849 0.104285C27.3261 0.0928264 26.9645 0.0871031 26.6 0.0871031V1.5871ZM29.7009 1.73921C30.3959 1.80926 31.0773 1.90346 31.745 2.0217L32.0066 0.544677C31.301 0.41974 30.5825 0.320474 29.8513 0.246774L29.7009 1.73921ZM33.7565 2.46117C34.4259 2.63629 35.0807 2.83765 35.721 3.06517L36.2233 1.65174C35.542 1.40967 34.8462 1.19578 34.1362 1.01001L33.7565 2.46117ZM37.6233 3.83743C38.2459 4.1232 38.8539 4.43623 39.4475 4.77654L40.1936 3.47526C39.5608 3.11247 38.9126 2.77876 38.249 2.47417L37.6233 3.83743ZM41.1804 5.87639C41.7378 6.26603 42.2813 6.68249 42.8112 7.12587L43.7738 5.97554C43.2112 5.50474 42.6333 5.06186 42.0399 4.64702L41.1804 5.87639ZM44.3331 8.51091C44.5761 8.75086 44.816 8.99717 45.0526 9.24983L46.1474 8.22438C45.8975 7.95764 45.644 7.69734 45.3869 7.44349L44.3331 8.51091ZM45.0526 9.24983C45.2973 9.51103 45.5356 9.77576 45.7677 10.044L46.9022 9.0627C46.6571 8.77935 46.4055 8.49991 46.1474 8.22438L45.0526 9.24983ZM47.097 11.7133C47.5182 12.2892 47.9135 12.8801 48.2828 13.4858L49.5635 12.7049C49.1722 12.0632 48.7537 11.4375 48.3078 10.8278L47.097 11.7133ZM49.3149 15.3514C49.6314 15.9851 49.9224 16.6339 50.1878 17.2979L51.5807 16.7412C51.3 16.039 50.9921 15.3523 50.6569 14.6811L49.3149 15.3514ZM50.8996 19.3111C51.1081 19.985 51.2926 20.6734 51.453 21.3766L52.9155 21.043C52.7468 20.3036 52.5525 19.5785 52.3325 18.8676L50.8996 19.3111ZM51.8542 23.481C51.9619 24.1779 52.0477 24.8882 52.1115 25.6121L53.6057 25.4804C53.5391 24.7248 53.4494 23.982 53.3365 23.2519L51.8542 23.481ZM52.235 27.7592C52.245 28.1154 52.25 28.4747 52.25 28.8371H53.75C53.75 28.461 53.7448 28.0877 53.7345 27.7172L52.235 27.7592ZM52.25 28.8371V29.9121H53.75V28.8371H52.25ZM52.25 32.0621V34.2121H53.75V32.0621H52.25ZM52.25 36.3621V38.5121H53.75V36.3621H52.25ZM52.25 40.6621V42.8121H53.75V40.6621H52.25ZM52.25 44.9621V46.0371H53.75V44.9621H52.25ZM52.25 46.0371C52.25 46.3401 52.2466 46.6409 52.2397 46.9395L53.7393 46.9739C53.7464 46.6637 53.75 46.3514 53.75 46.0371H52.25ZM52.1552 48.7391C52.1117 49.345 52.0533 49.9415 51.9801 50.5287L53.4685 50.7143C53.5451 50.1005 53.606 49.4778 53.6513 48.8464L52.1552 48.7391ZM51.7083 52.3036C51.5998 52.8982 51.475 53.4826 51.3341 54.0568L52.7909 54.4143C52.9391 53.8102 53.0701 53.1964 53.1839 52.5728L51.7083 52.3036ZM50.8531 55.7806C50.6731 56.3536 50.4759 56.916 50.2613 57.4677L51.6593 58.0113C51.8861 57.4282 52.0944 56.8344 52.2842 56.2299L50.8531 55.7806ZM49.5573 59.109C49.3032 59.6489 49.0312 60.178 48.7411 60.6963L50.0501 61.4288C50.3574 60.8797 50.6455 60.3193 50.9145 59.7477L49.5573 59.109ZM47.8151 62.2218C47.4894 62.7181 47.1456 63.2037 46.7837 63.6788L47.9769 64.5877C48.3599 64.0849 48.724 63.5707 49.0691 63.045L47.8151 62.2218ZM45.6531 65.0616C45.4574 65.2851 45.2572 65.506 45.0526 65.7244L46.1474 66.7498C46.3633 66.5194 46.5746 66.2861 46.7814 66.05L45.6531 65.0616ZM45.0526 65.7244C44.816 65.9771 44.5761 66.2234 44.3331 66.4633L45.3869 67.5307C45.644 67.2769 45.8975 67.0166 46.1474 66.7498L45.0526 65.7244ZM42.8112 67.8483C42.2813 68.2917 41.7378 68.7082 41.1804 69.0978L42.0399 70.3272C42.6333 69.9124 43.2112 69.4695 43.7738 68.9987L42.8112 67.8483ZM39.4475 70.1977C38.8539 70.538 38.2459 70.851 37.6233 71.1368L38.249 72.5C38.9126 72.1954 39.5608 71.8617 40.1936 71.499L39.4475 70.1977ZM35.721 71.909C35.0807 72.1366 34.4259 72.3379 33.7565 72.513L34.1362 73.9642C34.8462 73.7784 35.542 73.5645 36.2233 73.3225L35.721 71.909ZM31.745 72.9525C31.0773 73.0707 30.3959 73.1649 29.7009 73.235L29.8513 74.7274C30.5825 74.6537 31.301 74.5545 32.0066 74.4295L31.745 72.9525ZM27.637 73.3707C27.2944 73.3816 26.9488 73.3871 26.6 73.3871V74.8871C26.9645 74.8871 27.3261 74.8814 27.6849 74.8699L27.637 73.3707ZM17.8582 56.2362C17.6576 56.0127 17.4663 55.7816 17.2841 55.5429L16.0917 56.4529C16.298 56.7232 16.5147 56.985 16.7418 57.238L17.8582 56.2362ZM16.3067 54.0295C16.0249 53.5094 15.7764 52.9591 15.5616 52.3783L14.1547 52.8984C14.3932 53.5435 14.6708 54.1589 14.9878 54.744L16.3067 54.0295ZM15.0388 50.6288C14.9033 50.0505 14.7956 49.4465 14.7162 48.8165L13.228 49.0041C13.3136 49.683 13.4302 50.3387 13.5783 50.971L15.0388 50.6288ZM14.5675 46.9689C14.5558 46.6636 14.55 46.353 14.55 46.0371H13.05C13.05 46.3714 13.0562 46.701 13.0685 47.026L14.5675 46.9689ZM14.55 46.0371V44.9621H13.05V46.0371H14.55ZM14.55 42.8121V40.6621H13.05V42.8121H14.55ZM14.55 38.5121V36.3621H13.05V38.5121H14.55ZM14.55 34.2121V32.0621H13.05V34.2121H14.55ZM14.55 29.9121V28.8371H13.05V29.9121H14.55ZM14.55 28.8371C14.55 28.5235 14.5557 28.2153 14.5672 27.9124L13.0683 27.8557C13.0561 28.1781 13.05 28.5052 13.05 28.8371H14.55ZM14.7141 26.0794C14.7927 25.4535 14.8994 24.8545 15.0336 24.2819L13.5732 23.9395C13.4262 24.5665 13.3106 25.2176 13.2258 25.8924L14.7141 26.0794ZM15.5535 22.5481C15.7677 21.9721 16.0157 21.4279 16.297 20.9152L14.9819 20.1937C14.6641 20.7731 14.3861 21.3838 14.1475 22.0253L15.5535 22.5481ZM17.2757 19.4246C17.4584 19.1902 17.6504 18.9637 17.8517 18.7452L16.7483 17.729C16.5192 17.9778 16.3006 18.2357 16.0926 18.5026L17.2757 19.4246ZM17.8582 18.738C18.0418 18.5334 18.2301 18.3378 18.4231 18.151L17.3799 17.0732C17.1611 17.2849 16.9485 17.5059 16.7418 17.7362L17.8582 18.738ZM19.6676 17.114C20.1081 16.8007 20.5699 16.524 21.0533 16.2837L20.3854 14.9405C19.8317 15.2158 19.3026 15.533 18.7982 15.8917L19.6676 17.114ZM22.5542 15.6762C23.0602 15.5143 23.5879 15.3854 24.1378 15.29L23.8812 13.8121C23.2663 13.9188 22.6715 14.0638 22.0972 14.2475L22.5542 15.6762ZM25.7719 15.1086C26.0432 15.0943 26.3192 15.0871 26.6 15.0871V13.5871C26.2937 13.5871 25.9913 13.5949 25.6931 13.6106L25.7719 15.1086ZM26.6 15.0871C26.8787 15.0871 27.1525 15.0942 27.4214 15.1082L27.4997 13.6103C27.204 13.5948 26.9041 13.5871 26.6 13.5871V15.0871ZM29.0419 15.2874C29.5879 15.3819 30.1108 15.5097 30.6111 15.6702L31.0692 14.2419C30.4999 14.0592 29.9093 13.9153 29.2979 13.8094L29.0419 15.2874ZM32.096 16.2746C32.5742 16.5145 33.0296 16.7908 33.4626 17.1037L34.3412 15.888C33.8429 15.5279 33.3186 15.2097 32.7686 14.9339L32.096 16.2746ZM34.6835 18.1417C34.8721 18.3288 35.0559 18.5249 35.2347 18.73L36.3653 17.7443C36.1632 17.5124 35.9547 17.2898 35.7398 17.0767L34.6835 18.1417ZM35.2483 18.7452C35.4496 18.9637 35.6416 19.1902 35.8243 19.4246L37.0074 18.5026C36.7994 18.2357 36.5808 17.9778 36.3517 17.729L35.2483 18.7452ZM36.803 20.9152C37.0843 21.4279 37.3323 21.9721 37.5465 22.5481L38.9525 22.0253C38.7139 21.3838 38.436 20.7731 38.1181 20.1937L36.803 20.9152ZM38.0664 24.2819C38.2006 24.8545 38.3073 25.4535 38.3859 26.0794L39.8742 25.8924C39.7894 25.2176 39.6738 24.5665 39.5268 23.9395L38.0664 24.2819ZM38.5328 27.9124C38.5443 28.2153 38.55 28.5235 38.55 28.8371H40.05C40.05 28.5052 40.0439 28.1781 40.0317 27.8557L38.5328 27.9124ZM38.55 28.8371V29.9121H40.05V28.8371H38.55ZM38.55 32.0621V34.2121H40.05V32.0621H38.55ZM38.55 36.3621V38.5121H40.05V36.3621H38.55ZM38.55 40.6621V42.8121H40.05V40.6621H38.55ZM38.55 44.9621V46.0371H40.05V44.9621H38.55ZM38.55 46.0371C38.55 46.353 38.5442 46.6636 38.5325 46.9689L40.0315 47.026C40.0438 46.701 40.05 46.3714 40.05 46.0371H38.55ZM38.3838 48.8165C38.3044 49.4465 38.1967 50.0505 38.0612 50.6288L39.5217 50.971C39.6698 50.3387 39.7864 49.683 39.872 49.0041L38.3838 48.8165ZM37.5384 52.3783C37.3236 52.9591 37.0751 53.5094 36.7933 54.0295L38.1122 54.744C38.4292 54.1589 38.7068 53.5435 38.9453 52.8984L37.5384 52.3783ZM35.8159 55.5429C35.6338 55.7816 35.4424 56.0127 35.2418 56.2362L36.3582 57.238C36.5853 56.985 36.802 56.7232 37.0084 56.4529L35.8159 55.5429ZM35.2347 56.2443C35.0559 56.4493 34.8721 56.6454 34.6835 56.8325L35.7398 57.8975C35.9547 57.6844 36.1632 57.4618 36.3653 57.23L35.2347 56.2443ZM33.4626 57.8705C33.0296 58.1834 32.5742 58.4597 32.0961 58.6996L32.7686 60.0404C33.3186 59.7645 33.8429 59.4463 34.3412 59.0862L33.4626 57.8705ZM30.6111 59.304C30.1108 59.4645 29.5879 59.5923 29.0419 59.6868L29.2979 61.1648C29.9093 61.059 30.4999 60.915 31.0692 60.7324L30.6111 59.304ZM27.4214 59.866C27.1525 59.88 26.8787 59.8871 26.6 59.8871V61.3871C26.9041 61.3871 27.204 61.3794 27.4997 61.3639L27.4214 59.866ZM26.6 59.8871C26.3192 59.8871 26.0432 59.8799 25.7719 59.8657L25.6931 61.3636C25.9913 61.3793 26.2937 61.3871 26.6 61.3871V59.8871ZM24.1378 59.6843C23.5879 59.5888 23.0602 59.4599 22.5542 59.298L22.0972 60.7267C22.6715 60.9104 23.2663 61.0554 23.8812 61.1622L24.1378 59.6843ZM21.0533 58.6905C20.5699 58.4502 20.1081 58.1735 19.6676 57.8602L18.7982 59.0825C19.3026 59.4412 19.8317 59.7584 20.3854 60.0337L21.0533 58.6905ZM18.4231 56.8232C18.2301 56.6364 18.0418 56.4408 17.8582 56.2362L16.7418 57.238C16.9485 57.4683 17.1611 57.6893 17.3799 57.901L18.4231 56.8232ZM7.5 66.2371L6.40526 67.2626L7.5 66.2371ZM7.5 8.73711L8.59474 9.76256V9.76256L7.5 8.73711ZM45.6 8.73711L44.5053 9.76256L45.6 8.73711ZM45.6 66.2371L46.6947 67.2626L45.6 66.2371ZM17.3 56.7371L16.1836 57.739V57.739L17.3 56.7371ZM35.8 56.7371L34.6836 55.7352C34.6788 55.7406 34.6741 55.746 34.6693 55.7514L35.8 56.7371ZM35.8 18.2371L34.6693 19.2228C34.6783 19.2331 34.6874 19.2433 34.6967 19.2533L35.8 18.2371ZM17.3 18.2371L18.4033 19.2533C18.4077 19.2486 18.412 19.2438 18.4164 19.239L17.3 18.2371ZM26.6 72.6371C26.2572 72.6371 25.9178 72.6318 25.5816 72.6212L25.487 75.6197C25.8552 75.6313 26.2262 75.6371 26.6 75.6371V72.6371ZM23.5582 72.4898C22.8774 72.422 22.211 72.3308 21.5588 72.2166L21.0412 75.1716C21.7685 75.299 22.5084 75.4001 23.2608 75.475L23.5582 72.4898ZM19.5952 71.7921C18.9422 71.623 18.3041 71.4286 17.681 71.2092L16.6845 74.0388C17.3894 74.2871 18.109 74.5062 18.8431 74.6963L19.5952 71.7921ZM15.8293 70.4637C15.2232 70.1876 14.6317 69.8852 14.0546 69.5564L12.5694 72.163C13.2253 72.5367 13.8975 72.8803 14.5858 73.1939L15.8293 70.4637ZM12.3684 68.492C11.8257 68.1144 11.2964 67.7104 10.7804 67.2798L8.85834 69.5832C9.44053 70.0691 10.0394 70.5262 10.6549 70.9545L12.3684 68.492ZM9.29683 65.9323C9.05973 65.6984 8.8257 65.4582 8.59474 65.2117L6.40526 67.2626C6.66294 67.5376 6.92457 67.8062 7.19018 68.0682L9.29683 65.9323ZM8.59474 65.2117C8.39582 64.9993 8.20126 64.7845 8.01104 64.5674L5.75443 66.5442C5.96676 66.7866 6.18371 67.026 6.40526 67.2626L8.59474 65.2117ZM6.91294 63.2243C6.56161 62.7631 6.22793 62.2917 5.91184 61.8102L3.40395 63.4566C3.75871 63.997 4.13291 64.5256 4.52647 65.0422L6.91294 63.2243ZM5.01337 60.3301C4.73197 59.8272 4.46797 59.3138 4.22135 58.7897L1.50689 60.0671C1.78333 60.6545 2.07949 61.2305 2.39539 61.795L5.01337 60.3301ZM3.53769 57.1958C3.32925 56.6599 3.1375 56.1133 2.96249 55.5559L0.100273 56.4546C0.294983 57.0747 0.508764 57.6843 0.741678 58.2832L3.53769 57.1958ZM2.49426 53.8781C2.357 53.3187 2.23541 52.7491 2.12957 52.169L-0.82171 52.7075C-0.705292 53.3455 -0.571188 53.9741 -0.419304 54.593L2.49426 53.8781ZM1.86417 50.4358C1.79259 49.862 1.73548 49.2786 1.69293 48.6854L-1.29938 48.9001C-1.25317 49.5443 -1.19099 50.18 -1.11276 50.8072L1.86417 50.4358ZM1.61009 46.9223C1.60337 46.6295 1.6 46.3344 1.6 46.0371H-1.4C-1.4 46.357 -1.39638 46.6751 -1.38912 46.9911L1.61009 46.9223ZM1.6 46.0371V44.9621H-1.4V46.0371H1.6ZM1.6 42.8121V40.6621H-1.4V42.8121H1.6ZM1.6 38.5121V36.3621H-1.4V38.5121H1.6ZM1.6 34.2121V32.0621H-1.4V34.2121H1.6ZM1.6 29.9121V28.8371H-1.4V29.9121H1.6ZM1.6 28.8371C1.6 28.4816 1.60489 28.1293 1.61467 27.7802L-1.38416 27.6963C-1.39473 28.0738 -1.4 28.4541 -1.4 28.8371H1.6ZM1.73562 25.6779C1.79803 24.9699 1.8819 24.2758 1.98705 23.5956L-0.977737 23.1373C-1.09317 23.884 -1.1848 24.6431 -1.25279 25.4145L1.73562 25.6779ZM2.37821 21.5434C2.53445 20.8583 2.71406 20.1882 2.91688 19.5328L0.0509901 18.6459C-0.174731 19.3752 -0.373907 20.1187 -0.54668 20.8763L2.37821 21.5434ZM3.60867 17.5762C3.86642 16.9313 4.14888 16.3014 4.45603 15.6865L1.77217 14.346C1.4276 15.0359 1.1112 15.7416 0.822913 16.4629L3.60867 17.5762ZM5.45757 13.8762C5.81591 13.2885 6.19947 12.7151 6.60835 12.156L4.18678 10.3851C3.72864 11.0116 3.29839 11.6547 2.89615 12.3144L5.45757 13.8762ZM7.89956 10.5347C8.12507 10.274 8.35678 10.0166 8.59474 9.76256L6.40526 7.71166C6.14046 7.99435 5.88224 8.28115 5.63061 8.57205L7.89956 10.5347ZM8.59474 9.76256C8.8257 9.51599 9.05973 9.2758 9.29683 9.04195L7.19017 6.90606C6.92457 7.16803 6.66294 7.43657 6.40526 7.71166L8.59474 9.76256ZM10.7804 7.69437C11.2964 7.26384 11.8257 6.85985 12.3684 6.48218L10.6549 4.01971C10.0394 4.44801 9.44053 4.90516 8.85834 5.39097L10.7804 7.69437ZM14.0546 5.4178C14.6317 5.089 15.2232 4.78658 15.8293 4.5105L14.5858 1.78036C13.8975 2.09387 13.2253 2.4375 12.5694 2.81123L14.0546 5.4178ZM17.681 3.76505C18.3041 3.54559 18.9422 3.35123 19.5952 3.18208L18.8431 0.277909C18.109 0.46803 17.3894 0.687135 16.6845 0.935366L17.681 3.76505ZM21.5588 2.7576C22.211 2.64338 22.8774 2.55225 23.5582 2.48443L23.2608 -0.500794C22.5084 -0.425839 21.7685 -0.324786 21.0412 -0.197422L21.5588 2.7576ZM25.5816 2.35302C25.9178 2.34242 26.2572 2.3371 26.6 2.3371V-0.662897C26.2262 -0.662897 25.8552 -0.657101 25.487 -0.645485L25.5816 2.35302ZM26.6 2.3371C26.9409 2.3371 27.2786 2.34246 27.613 2.35314L27.7088 -0.645333C27.3419 -0.65705 26.9723 -0.662897 26.6 -0.662897V2.3371ZM29.6257 2.48543C30.3026 2.55366 30.9654 2.64532 31.6143 2.76021L32.1373 -0.193835C31.4128 -0.322121 30.6758 -0.423921 29.9265 -0.499445L29.6257 2.48543ZM33.5667 3.18675C34.2157 3.35655 34.8501 3.55164 35.4699 3.77188L36.4744 0.945027C35.7726 0.695675 35.0564 0.475522 34.326 0.284435L33.5667 3.18675ZM37.3104 4.51906C37.9125 4.79543 38.5005 5.09812 39.0744 5.42718L40.5666 2.82462C39.9143 2.45058 39.246 2.10654 38.5619 1.79254L37.3104 4.51906ZM40.7507 6.49107C41.29 6.86811 41.8164 7.27137 42.3298 7.70104L44.2552 5.40037C43.6762 4.91586 43.081 4.45978 42.4696 4.03234L40.7507 6.49107ZM43.8061 9.04462C44.0421 9.27763 44.2752 9.51693 44.5053 9.76256L46.6947 7.71166C46.4383 7.43788 46.178 7.17057 45.9138 6.90978L43.8061 9.04462ZM44.5053 9.76256C44.7432 10.0166 44.9749 10.274 45.2004 10.5347L47.4694 8.57205C47.2178 8.28115 46.9595 7.99435 46.6947 7.71166L44.5053 9.76256ZM46.4917 12.156C46.9005 12.7151 47.2841 13.2885 47.6424 13.8762L50.2039 12.3145C49.8016 11.6547 49.3714 11.0116 48.9132 10.3851L46.4917 12.156ZM48.644 15.6865C48.9511 16.3014 49.2336 16.9313 49.4913 17.5762L52.2771 16.4629C51.9888 15.7416 51.6724 15.0359 51.3278 14.346L48.644 15.6865ZM50.1831 19.5328C50.3859 20.1882 50.5656 20.8583 50.7218 21.5434L53.6467 20.8763C53.4739 20.1187 53.2747 19.3752 53.049 18.6459L50.1831 19.5328ZM51.113 23.5956C51.2181 24.2758 51.302 24.9699 51.3644 25.6779L54.3528 25.4145C54.2848 24.6431 54.1932 23.884 54.0777 23.1373L51.113 23.5956ZM51.4853 27.7802C51.4951 28.1293 51.5 28.4816 51.5 28.8371H54.5C54.5 28.4541 54.4947 28.0738 54.4842 27.6963L51.4853 27.7802ZM51.5 28.8371V29.9121H54.5V28.8371H51.5ZM51.5 32.0621V34.2121H54.5V32.0621H51.5ZM51.5 36.3621V38.5121H54.5V36.3621H51.5ZM51.5 40.6621V42.8121H54.5V40.6621H51.5ZM51.5 44.9621V46.0371H54.5V44.9621H51.5ZM51.5 46.0371C51.5 46.3344 51.4966 46.6295 51.4899 46.9223L54.4891 46.9911C54.4964 46.6751 54.5 46.357 54.5 46.0371H51.5ZM51.4071 48.6854C51.3645 49.2786 51.3074 49.862 51.2358 50.4358L54.2128 50.8072C54.291 50.18 54.3532 49.5443 54.3994 48.9001L51.4071 48.6854ZM50.9704 52.169C50.8646 52.7491 50.743 53.3187 50.6057 53.8781L53.5193 54.593C53.6712 53.9741 53.8053 53.3455 53.9217 52.7075L50.9704 52.169ZM50.1375 55.5559C49.9625 56.1133 49.7708 56.6599 49.5623 57.1958L52.3583 58.2832C52.5912 57.6843 52.805 57.0747 52.9997 56.4546L50.1375 55.5559ZM48.8787 58.7897C48.632 59.3138 48.368 59.8272 48.0866 60.3301L50.7046 61.795C51.0205 61.2305 51.3167 60.6545 51.5931 60.0671L48.8787 58.7897ZM47.1882 61.8102C46.8721 62.2917 46.5384 62.7631 46.1871 63.2243L48.5735 65.0422C48.9671 64.5255 49.3413 63.997 49.6961 63.4566L47.1882 61.8102ZM45.089 64.5674C44.8987 64.7845 44.7042 64.9993 44.5053 65.2117L46.6947 67.2626C46.9163 67.026 47.1332 66.7866 47.3456 66.5442L45.089 64.5674ZM44.5053 65.2117C44.2752 65.4573 44.0421 65.6966 43.8061 65.9296L45.9138 68.0644C46.178 67.8036 46.4383 67.5363 46.6947 67.2626L44.5053 65.2117ZM42.3298 67.2732C41.8164 67.7029 41.29 68.1061 40.7507 68.4831L42.4696 70.9419C43.081 70.5144 43.6762 70.0584 44.2552 69.5738L42.3298 67.2732ZM39.0744 69.547C38.5005 69.8761 37.9125 70.1788 37.3104 70.4552L38.5619 73.1817C39.246 72.8677 39.9143 72.5236 40.5666 72.1496L39.0744 69.547ZM35.4699 71.2023C34.8501 71.4226 34.2157 71.6177 33.5667 71.7875L34.326 74.6898C35.0564 74.4987 35.7726 74.2785 36.4744 74.0292L35.4699 71.2023ZM31.6143 72.214C30.9654 72.3289 30.3026 72.4206 29.6257 72.4888L29.9265 75.4737C30.6758 75.3981 31.4128 75.2963 32.1373 75.168L31.6143 72.214ZM27.613 72.6211C27.2786 72.6318 26.9409 72.6371 26.6 72.6371V75.6371C26.9723 75.6371 27.3419 75.6313 27.7088 75.6195L27.613 72.6211ZM18.4164 55.7352C18.2291 55.5266 18.0504 55.3108 17.8803 55.0879L15.4954 56.9079C15.7138 57.194 15.9432 57.4711 16.1836 57.739L18.4164 55.7352ZM16.9661 53.6722C16.7019 53.1846 16.468 52.667 16.2651 52.1182L13.4513 53.1585C13.7016 53.8356 13.9937 54.4836 14.3284 55.1013L16.9661 53.6722ZM15.769 50.4577C15.6399 49.9064 15.5367 49.3283 15.4603 48.7227L12.4839 49.0979C12.5725 49.8012 12.6937 50.4828 12.8481 51.142L15.769 50.4577ZM15.3169 46.9404C15.3057 46.6448 15.3 46.3437 15.3 46.0371H12.3C12.3 46.3806 12.3063 46.7198 12.3191 47.0545L15.3169 46.9404ZM15.3 46.0371V44.9621H12.3V46.0371H15.3ZM15.3 42.8121V40.6621H12.3V42.8121H15.3ZM15.3 38.5121V36.3621H12.3V38.5121H15.3ZM15.3 34.2121V32.0621H12.3V34.2121H15.3ZM15.3 29.9121V28.8371H12.3V29.9121H15.3ZM15.3 28.8371C15.3 28.5327 15.3056 28.2339 15.3167 27.9408L12.3188 27.8274C12.3062 28.1595 12.3 28.4961 12.3 28.8371H15.3ZM15.4583 26.1729C15.5338 25.5715 15.636 24.9985 15.7638 24.4531L12.843 23.7683C12.6897 24.4225 12.5695 25.0996 12.4817 25.7989L15.4583 26.1729ZM16.2564 22.8095C16.4585 22.2662 16.6915 21.7554 16.9545 21.2759L14.3243 19.833C13.9882 20.4456 13.6953 21.0897 13.4446 21.7639L16.2564 22.8095ZM17.8673 19.8857C18.0373 19.6675 18.216 19.4567 18.4033 19.2533L16.1967 17.2209C15.9536 17.4848 15.7217 17.7584 15.501 18.0415L17.8673 19.8857ZM18.4164 19.239C18.5885 19.0472 18.7646 18.8642 18.9447 18.6899L16.8583 16.5343C16.6266 16.7584 16.4018 16.9922 16.1836 17.2352L18.4164 19.239ZM20.1023 17.7252C20.5109 17.4346 20.939 17.1781 21.3872 16.9553L20.0515 14.269C19.4627 14.5618 18.8998 14.8991 18.3635 15.2805L20.1023 17.7252ZM22.7828 16.3905C23.2546 16.2396 23.7487 16.1187 24.2661 16.0289L23.7529 13.0731C23.1055 13.1855 22.4771 13.3385 21.8687 13.5332L22.7828 16.3905ZM25.8114 15.8575C26.0691 15.844 26.3319 15.8371 26.6 15.8371V12.8371C26.2809 12.8371 25.9654 12.8453 25.6537 12.8617L25.8114 15.8575ZM26.6 15.8371C26.8661 15.8371 27.1268 15.8439 27.3822 15.8572L27.5389 12.8613C27.2297 12.8451 26.9167 12.8371 26.6 12.8371V15.8371ZM28.9139 16.0264C29.4273 16.1153 29.9163 16.235 30.3821 16.3843L31.2983 13.5277C30.6944 13.334 30.0699 13.1819 29.4259 13.0704L28.9139 16.0264ZM31.7598 16.945C32.202 17.1668 32.6229 17.4222 33.0232 17.7116L34.7806 15.2802C34.2496 14.8964 33.6908 14.5574 33.1048 14.2635L31.7598 16.945ZM34.1553 18.6742C34.3309 18.8483 34.5022 19.0311 34.6693 19.2228L36.9307 17.2514C36.7168 17.0061 36.496 16.7704 36.268 16.5442L34.1553 18.6742ZM34.6967 19.2533C34.884 19.4567 35.0627 19.6675 35.2327 19.8857L37.599 18.0415C37.3783 17.7584 37.1464 17.4848 36.9033 17.2209L34.6967 19.2533ZM36.1455 21.2759C36.4085 21.7554 36.6415 22.2662 36.8436 22.8095L39.6554 21.7639C39.4047 21.0897 39.1118 20.4456 38.7757 19.833L36.1455 21.2759ZM37.3362 24.4531C37.464 24.9985 37.5662 25.5715 37.6417 26.1729L40.6183 25.7989C40.5305 25.0996 40.4103 24.4225 40.257 23.7683L37.3362 24.4531ZM37.7833 27.9408C37.7944 28.2339 37.8 28.5327 37.8 28.8371H40.8C40.8 28.4961 40.7938 28.1595 40.7812 27.8274L37.7833 27.9408ZM37.8 28.8371V29.9121H40.8V28.8371H37.8ZM37.8 32.0621V34.2121H40.8V32.0621H37.8ZM37.8 36.3621V38.5121H40.8V36.3621H37.8ZM37.8 40.6621V42.8121H40.8V40.6621H37.8ZM37.8 44.9621V46.0371H40.8V44.9621H37.8ZM37.8 46.0371C37.8 46.3437 37.7943 46.6448 37.7831 46.9404L40.7809 47.0545C40.7937 46.7198 40.8 46.3806 40.8 46.0371H37.8ZM37.6397 48.7227C37.5633 49.3283 37.4601 49.9064 37.331 50.4577L40.2519 51.142C40.4063 50.4828 40.5275 49.8012 40.6161 49.0979L37.6397 48.7227ZM36.8349 52.1182C36.632 52.667 36.3981 53.1846 36.1339 53.6722L38.7716 55.1013C39.1063 54.4836 39.3984 53.8356 39.6487 53.1585L36.8349 52.1182ZM35.2197 55.0879C35.0496 55.3108 34.8709 55.5266 34.6836 55.7352L36.9164 57.739C37.1568 57.4711 37.3862 57.194 37.6046 56.9079L35.2197 55.0879ZM34.6693 55.7514C34.5022 55.9431 34.3309 56.1259 34.1553 56.3L36.268 58.43C36.496 58.2039 36.7168 57.9681 36.9307 57.7228L34.6693 55.7514ZM33.0232 57.2626C32.6229 57.552 32.202 57.8074 31.7598 58.0292L33.1048 60.7108C33.6908 60.4168 34.2496 60.0778 34.7806 59.694L33.0232 57.2626ZM30.3821 58.5899C29.9163 58.7392 29.4273 58.8589 28.9139 58.9478L29.4259 61.9038C30.0699 61.7923 30.6944 61.6402 31.2983 61.4465L30.3821 58.5899ZM27.3822 59.117C27.1268 59.1304 26.8661 59.1371 26.6 59.1371V62.1371C26.9167 62.1371 27.2297 62.1291 27.5389 62.1129L27.3822 59.117ZM26.6 59.1371C26.3319 59.1371 26.0691 59.1303 25.8114 59.1167L25.6537 62.1126C25.9654 62.129 26.2809 62.1371 26.6 62.1371V59.1371ZM24.2661 58.9453C23.7487 58.8555 23.2546 58.7346 22.7828 58.5837L21.8687 61.4411C22.4771 61.6357 23.1055 61.7887 23.7529 61.9011L24.2661 58.9453ZM21.3872 58.019C20.939 57.7961 20.5109 57.5396 20.1023 57.249L18.3635 59.6937C18.8998 60.0751 19.4627 60.4125 20.0515 60.7052L21.3872 58.019ZM18.9447 56.2843C18.7646 56.11 18.5885 55.927 18.4164 55.7352L16.1836 57.739C16.4018 57.9821 16.6266 58.2158 16.8583 58.4399L18.9447 56.2843ZM69.5859 67.7371L69.0984 68.3071L69.1065 68.3139L69.5859 67.7371ZM61.5859 50.0371V49.2871C61.3824 49.2871 61.1876 49.3698 61.0462 49.5163C60.9049 49.6628 60.8291 49.8605 60.8364 50.0639L61.5859 50.0371ZM75.1859 50.0371L75.9324 49.9639C75.8947 49.5799 75.5718 49.2871 75.1859 49.2871V50.0371ZM79.0859 57.9371L78.6092 58.5161C78.6153 58.5211 78.6215 58.5261 78.6278 58.5309L79.0859 57.9371ZM95.6859 58.2371L95.2174 57.6514L95.2078 57.6593L95.6859 58.2371ZM98.7859 51.7371L99.5357 51.7554C99.5359 51.7493 99.5359 51.7432 99.5359 51.7371H98.7859ZM95.6859 44.7371L96.1568 44.1533L95.6859 44.7371ZM81.1859 42.2371H80.4359C80.4359 42.6513 80.7717 42.9871 81.1859 42.9871V42.2371ZM81.1859 31.0371V30.2871C80.7717 30.2871 80.4359 30.6229 80.4359 31.0371H81.1859ZM94.0859 28.7371L93.589 28.1754L94.0859 28.7371ZM96.7859 22.5371L96.0362 22.5163L96.0362 22.5179L96.7859 22.5371ZM94.1859 16.6371L93.6889 17.199L93.6996 17.208L94.1859 16.6371ZM79.6859 17.1371L80.1887 17.6937L79.6859 17.1371ZM76.6859 24.3371V25.0871C76.8878 25.0871 77.0811 25.0057 77.2223 24.8614C77.3634 24.717 77.4403 24.5219 77.4357 24.3201L76.6859 24.3371ZM62.8859 24.3371H62.1359C62.1359 24.7513 62.4717 25.0871 62.8859 25.0871V24.3371ZM70.2859 7.33711L70.7766 7.9044L70.7809 7.9006L70.2859 7.33711ZM104.386 6.8371L103.864 7.37607L103.869 7.38041L104.386 6.8371ZM108.286 30.4371L108.936 30.811L108.94 30.804L108.286 30.4371ZM102.686 36.7371L102.257 36.1218C102.037 36.2753 101.916 36.5347 101.939 36.802C101.962 37.0694 102.126 37.304 102.37 37.4171L102.686 36.7371ZM109.786 42.9371L110.41 42.5211L109.786 42.9371ZM105.786 68.2371L106.277 68.8036L106.282 68.7995L105.786 68.2371ZM87.9859 73.3871C87.659 73.3871 87.3343 73.3825 87.0118 73.3734L86.9693 74.8728C87.3061 74.8823 87.645 74.8871 87.9859 74.8871V73.3871ZM85.0708 73.2607C84.4187 73.203 83.7763 73.1255 83.1437 73.0283L82.9159 74.5109C83.5809 74.613 84.2551 74.6944 84.9385 74.7549L85.0708 73.2607ZM81.2392 72.6696C80.6047 72.5274 79.9804 72.3641 79.3664 72.1798L78.9351 73.6164C79.5837 73.8111 80.2424 73.9834 80.9111 74.1333L81.2392 72.6696ZM77.5356 71.5562C76.9324 71.3256 76.3395 71.0732 75.757 70.799L75.1182 72.1562C75.7347 72.4464 76.3619 72.7134 76.9999 72.9573L77.5356 71.5562ZM74.0398 69.911C73.4808 69.595 72.9317 69.2572 72.3925 68.8978L71.5604 70.1458C72.1299 70.5255 72.7103 70.8825 73.3016 71.2168L74.0398 69.911ZM70.8213 67.7671C70.567 67.5701 70.315 67.3678 70.0653 67.1603L69.1065 68.3139C69.3693 68.5323 69.6347 68.7453 69.9027 68.9529L70.8213 67.7671ZM70.0734 67.1671C69.826 66.9556 69.5847 66.7402 69.3494 66.5212L68.3274 67.6192C68.5782 67.8527 68.8353 68.082 69.0985 68.3071L70.0734 67.1671ZM67.9912 65.1417C67.557 64.6597 67.148 64.1618 66.7641 63.6478L65.5623 64.5454C65.974 65.0965 66.4121 65.6299 66.8767 66.1457L67.9912 65.1417ZM65.6814 62.0477C65.3466 61.4994 65.0368 60.9346 64.7519 60.3532L63.4049 61.0133C63.71 61.6359 64.0421 62.2414 64.4012 62.8294L65.6814 62.0477ZM63.9797 58.5791C63.7509 57.9825 63.5456 57.3699 63.3638 56.7411L61.9228 57.1578C62.1161 57.8263 62.3349 58.4791 62.5791 59.1161L63.9797 58.5791ZM62.8987 54.8544C62.77 54.2286 62.6623 53.5882 62.576 52.9329L61.0888 53.1289C61.1798 53.8187 61.2933 54.4946 61.4295 55.1567L62.8987 54.8544ZM62.3851 50.9888C62.3638 50.666 62.3472 50.3398 62.3355 50.0103L60.8364 50.0639C60.8487 50.4082 60.866 50.7494 60.8883 51.0876L62.3851 50.9888ZM61.5859 50.7871H62.7193V49.2871H61.5859V50.7871ZM64.9859 50.7871H67.2526V49.2871H64.9859V50.7871ZM69.5193 50.7871H71.7859V49.2871H69.5193V50.7871ZM74.0526 50.7871H75.1859V49.2871H74.0526V50.7871ZM74.4395 50.1103C74.4788 50.511 74.5311 50.9027 74.5965 51.2853L76.075 51.0326C76.0159 50.6868 75.9683 50.3306 75.9324 49.9639L74.4395 50.1103ZM75.1924 53.5988C75.4683 54.3759 75.8127 55.1037 76.2266 55.7806L77.5063 54.998C77.1492 54.4141 76.8487 53.7809 76.6059 53.097L75.1924 53.5988ZM77.716 57.6959C77.9968 57.9836 78.2946 58.257 78.6092 58.5161L79.5627 57.3582C79.2893 57.133 79.0317 56.8964 78.7895 56.6483L77.716 57.6959ZM78.6278 58.5309C78.9604 58.7875 79.3051 59.0269 79.6618 59.249L80.4548 57.9757C80.1405 57.78 79.837 57.5692 79.544 57.3433L78.6278 58.5309ZM81.911 60.3614C82.6705 60.6511 83.4697 60.8786 84.3075 61.045L84.5996 59.5737C83.8395 59.4228 83.1218 59.2178 82.4455 58.9599L81.911 60.3614ZM86.7582 61.3521C87.1601 61.3755 87.5693 61.3871 87.9859 61.3871V59.8871C87.5973 59.8871 87.2171 59.8762 86.8454 59.8546L86.7582 61.3521ZM87.9859 61.3871C88.3502 61.3871 88.7075 61.3771 89.0578 61.3571L88.972 59.8595C88.6515 59.8779 88.3228 59.8871 87.9859 59.8871V61.3871ZM91.2013 61.0904C91.9401 60.9438 92.641 60.7422 93.3028 60.4842L92.7581 59.0867C92.184 59.3104 91.5682 59.4883 90.9093 59.6191L91.2013 61.0904ZM95.2698 59.475C95.5805 59.2712 95.8787 59.0511 96.1641 58.8149L95.2078 57.6593C94.9652 57.8601 94.7117 58.0472 94.4471 58.2207L95.2698 59.475ZM96.1545 58.8228C96.421 58.6095 96.6728 58.3861 96.9094 58.1523L95.8553 57.0852C95.6571 57.2809 95.4446 57.4697 95.2174 57.6515L96.1545 58.8228ZM98.1827 56.5659C98.5414 55.9905 98.8288 55.3747 99.0449 54.7202L97.6206 54.2498C97.441 54.7935 97.204 55.3005 96.9098 55.7724L98.1827 56.5659ZM99.4689 52.7501C99.5053 52.4253 99.5275 52.0937 99.5357 51.7554L98.0362 51.7188C98.0289 52.0155 98.0095 52.3036 97.9782 52.5832L99.4689 52.7501ZM99.5359 51.7371C99.5359 51.3787 99.522 51.0278 99.4939 50.6845L97.9989 50.807C98.0235 51.1076 98.0359 51.4176 98.0359 51.7371H99.5359ZM99.1162 48.5874C98.9109 47.8799 98.6298 47.2161 98.2716 46.5984L96.9739 47.3508C97.2685 47.8589 97.5028 48.4097 97.6756 49.0053L99.1162 48.5874ZM96.956 44.8764C96.7067 44.6228 96.4401 44.3818 96.1568 44.1533L95.2151 45.3209C95.4551 45.5144 95.6788 45.7169 95.8865 45.9281L96.956 44.8764ZM96.1568 44.1533C95.8422 43.8996 95.5117 43.6642 95.1654 43.447L94.3683 44.7177C94.6652 44.9039 94.9474 45.105 95.2151 45.3209L96.1568 44.1533ZM92.9935 42.3952C92.2723 42.1335 91.5046 41.9296 90.6919 41.7819L90.4237 43.2578C91.161 43.3917 91.8466 43.5748 92.4819 43.8052L92.9935 42.3952ZM88.3541 41.5167C87.9729 41.497 87.5835 41.4871 87.1859 41.4871V42.9871C87.5588 42.9871 87.9222 42.9963 88.2764 43.0147L88.3541 41.5167ZM87.1859 41.4871H86.4359V42.9871H87.1859V41.4871ZM84.9359 41.4871H83.4359V42.9871H84.9359V41.4871ZM81.9359 41.4871H81.1859V42.9871H81.9359V41.4871ZM81.9359 42.2371V41.3038H80.4359V42.2371H81.9359ZM81.9359 39.4371V37.5704H80.4359V39.4371H81.9359ZM81.9359 35.7038V33.8371H80.4359V35.7038H81.9359ZM81.9359 31.9704V31.0371H80.4359V31.9704H81.9359ZM81.1859 31.7871H82.5359V30.2871H81.1859V31.7871ZM85.2359 31.7871H86.5859V30.2871H85.2359V31.7871ZM86.5859 31.7871C86.9409 31.7871 87.288 31.7784 87.6273 31.7608L87.5497 30.2628C87.2375 30.279 86.9163 30.2871 86.5859 30.2871V31.7871ZM89.715 31.5225C90.4463 31.3878 91.1335 31.201 91.7749 30.9599L91.247 29.5558C90.6971 29.7626 90.0965 29.927 89.4435 30.0472L89.715 31.5225ZM93.7117 29.9717C94.0187 29.7652 94.3092 29.541 94.5829 29.2989L93.589 28.1754C93.3657 28.3729 93.1277 28.5568 92.8746 28.727L93.7117 29.9717ZM94.5829 29.2989C94.8228 29.0866 95.0489 28.8642 95.2609 28.6317L94.1524 27.6212C93.9775 27.813 93.7898 27.9978 93.589 28.1754L94.5829 29.2989ZM96.3787 27.083C96.6858 26.5337 96.9313 25.9482 97.1159 25.3279L95.6782 24.9C95.5239 25.4185 95.3207 25.9017 95.0695 26.3509L96.3787 27.083ZM97.4765 23.4839C97.508 23.1809 97.5276 22.8717 97.5357 22.5563L96.0362 22.5179C96.0291 22.7961 96.0118 23.0665 95.9845 23.3292L97.4765 23.4839ZM97.5357 22.5579C97.5442 22.2506 97.5386 21.9484 97.5186 21.6513L96.022 21.752C96.0387 21.9997 96.0435 22.2544 96.0362 22.5163L97.5357 22.5579ZM97.1977 19.8447C97.0195 19.248 96.7716 18.6823 96.4544 18.1491L95.1652 18.9159C95.419 19.3426 95.6173 19.7949 95.7605 20.2741L97.1977 19.8447ZM95.3354 16.6892C95.128 16.4737 94.9069 16.266 94.6723 16.0662L93.6996 17.208C93.898 17.377 94.0828 17.5508 94.2544 17.7292L95.3354 16.6892ZM94.6829 16.0754C94.4395 15.86 94.1872 15.6583 93.926 15.4704L93.0498 16.6879C93.2697 16.8461 93.4828 17.0164 93.689 17.1989L94.6829 16.0754ZM92.2451 14.5056C91.6655 14.2475 91.0556 14.0445 90.4165 13.8958L90.0765 15.3567C90.6269 15.4849 91.1461 15.6582 91.635 15.8759L92.2451 14.5056ZM88.5306 13.6187C88.2211 13.5976 87.9062 13.5871 87.5859 13.5871V15.0871C87.8735 15.0871 88.1543 15.0965 88.4284 15.1152L88.5306 13.6187ZM87.5859 13.5871C87.2045 13.5871 86.8298 13.5998 86.4618 13.6253L86.5655 15.1217C86.8976 15.0987 87.2378 15.0871 87.5859 15.0871V13.5871ZM84.2212 13.9597C83.4632 14.1392 82.7409 14.3838 82.0556 14.6947L82.6751 16.0607C83.2686 15.7916 83.8988 15.5775 84.5667 15.4194L84.2212 13.9597ZM80.073 15.8547C79.7658 16.0802 79.4692 16.3222 79.1832 16.5805L80.1887 17.6937C80.4376 17.4688 80.695 17.2589 80.9607 17.0638L80.073 15.8547ZM79.1832 16.5805C78.9112 16.8262 78.6555 17.0814 78.4162 17.3462L79.5293 18.3518C79.7333 18.1259 79.953 17.9065 80.1887 17.6937L79.1832 16.5805ZM77.1436 19.1189C76.7898 19.7562 76.5137 20.4313 76.3151 21.1428L77.7599 21.546C77.9275 20.9457 78.1593 20.3798 78.4551 19.847L77.1436 19.1189ZM75.9579 23.2806C75.935 23.632 75.9279 23.9899 75.9361 24.3541L77.4357 24.3201C77.4284 23.9979 77.4348 23.6839 77.4548 23.3781L75.9579 23.2806ZM76.6859 23.5871H75.5359V25.0871H76.6859V23.5871ZM73.2359 23.5871H70.9359V25.0871H73.2359V23.5871ZM68.6359 23.5871H66.3359V25.0871H68.6359V23.5871ZM64.0359 23.5871H62.8859V25.0871H64.0359V23.5871ZM63.6359 24.3371C63.6359 24.0225 63.641 23.7109 63.651 23.4023L62.1518 23.3537C62.1412 23.6787 62.1359 24.0065 62.1359 24.3371H63.6359ZM63.7755 21.543C63.84 20.9161 63.9268 20.3029 64.0358 19.7032L62.5599 19.435C62.4439 20.0739 62.3517 20.7254 62.2834 21.3894L63.7755 21.543ZM64.4422 17.8954C64.6047 17.2938 64.7916 16.7067 65.0028 16.1342L63.5955 15.615C63.3685 16.2304 63.168 16.8603 62.9941 17.5045L64.4422 17.8954ZM65.7218 14.4344C65.9883 13.879 66.2804 13.3382 66.5981 12.812L65.314 12.0367C64.9715 12.604 64.6567 13.187 64.3695 13.7855L65.7218 14.4344ZM67.6258 11.2801C67.9897 10.7894 68.379 10.3125 68.7935 9.84929L67.6758 8.84892C67.2311 9.3458 66.8128 9.85832 66.421 10.3865L67.6258 11.2801ZM70.0871 8.52566C70.3109 8.31541 70.5408 8.10831 70.7766 7.90438L69.7953 6.76984C69.5442 6.987 69.2992 7.20782 69.0602 7.4323L70.0871 8.52566ZM70.7809 7.9006C71.0132 7.69658 71.2472 7.49759 71.4831 7.3036L70.5302 6.14514C70.2817 6.34953 70.0353 6.55903 69.791 6.77362L70.7809 7.9006ZM72.9422 6.18353C73.4449 5.82436 73.9553 5.48646 74.4735 5.16976L73.6912 3.88989C73.142 4.2256 72.6016 4.58334 72.0702 4.96303L72.9422 6.18353ZM76.0731 4.27185C76.6188 3.99198 77.1727 3.73407 77.7349 3.49808L77.1543 2.11499C76.5567 2.36586 75.9681 2.63994 75.3885 2.93718L76.0731 4.27185ZM79.4507 2.85444C80.0291 2.66253 80.616 2.4924 81.2116 2.34405L80.849 0.888531C80.2167 1.04603 79.5931 1.22677 78.9783 1.43076L79.4507 2.85444ZM83.0072 1.96725C83.6056 1.86453 84.2125 1.78259 84.8278 1.72146L84.6795 0.22881C84.0295 0.293382 83.3874 0.38005 82.7535 0.488873L83.0072 1.96725ZM86.664 1.60174C86.9693 1.59198 87.2766 1.5871 87.5859 1.5871V0.0871031C87.2608 0.0871031 86.9376 0.0922326 86.6161 0.1025L86.664 1.60174ZM87.5859 1.5871C87.888 1.5871 88.1871 1.59083 88.4833 1.59828L88.521 0.0987529C88.212 0.0909835 87.9003 0.0871031 87.5859 0.0871031V1.5871ZM90.2703 1.69104C90.8748 1.73925 91.4662 1.80419 92.0445 1.88576L92.254 0.400466C91.6447 0.314515 91.0231 0.246318 90.3895 0.195786L90.2703 1.69104ZM93.798 2.19235C94.3869 2.31617 94.9611 2.45887 95.5205 2.62034L95.9365 1.17917C95.3406 1.00716 94.7305 0.855615 94.1066 0.724438L93.798 2.19235ZM97.2002 3.17806C97.7572 3.38857 98.2983 3.61982 98.8235 3.87176L99.4723 2.51933C98.9076 2.24842 98.3269 2.0003 97.7304 1.7749L97.2002 3.17806ZM100.377 4.7046C100.882 5.00622 101.372 5.32973 101.845 5.67515L102.73 4.46352C102.219 4.09062 101.69 3.74153 101.145 3.41627L100.377 4.7046ZM103.217 6.77788C103.437 6.97176 103.653 7.17115 103.864 7.37605L104.908 6.29815C104.679 6.07744 104.447 5.86253 104.21 5.65344L103.217 6.77788ZM103.869 7.38041C104.11 7.60947 104.343 7.84159 104.569 8.07677L105.651 7.03787C105.409 6.78614 105.16 6.53812 104.903 6.29379L103.869 7.38041ZM105.863 9.5601C106.273 10.0802 106.652 10.6139 106.998 11.1613L108.266 10.3596C107.891 9.76715 107.482 9.19086 107.04 8.63068L105.863 9.5601ZM107.954 12.8714C108.24 13.4578 108.494 14.0591 108.715 14.6753L110.127 14.1686C109.888 13.5006 109.612 12.8485 109.301 12.2125L107.954 12.8714ZM109.277 16.5535C109.429 17.1823 109.55 17.8259 109.64 18.4846L111.126 18.2813C111.03 17.5737 110.899 16.8802 110.735 16.201L109.277 16.5535ZM109.815 20.4485C109.829 20.7746 109.836 21.1041 109.836 21.4371H111.336C111.336 21.083 111.328 20.7319 111.313 20.384L109.815 20.4485ZM109.836 21.4371C109.836 21.818 109.825 22.1948 109.804 22.5674L111.301 22.6541C111.324 22.2521 111.336 21.8464 111.336 21.4371H109.836ZM109.536 24.8053C109.399 25.5486 109.215 26.2751 108.985 26.9847L110.412 27.4477C110.663 26.6747 110.862 25.8843 111.011 25.0769L109.536 24.8053ZM108.151 29.0713C107.989 29.4081 107.816 29.741 107.632 30.0702L108.94 30.804C109.14 30.447 109.328 30.0854 109.504 29.7191L108.151 29.0713ZM107.636 30.0633C107.462 30.3646 107.285 30.6582 107.103 30.944L108.369 31.7486C108.563 31.4436 108.752 31.1311 108.936 30.811L107.636 30.0633ZM105.922 32.6191C105.493 33.1663 105.045 33.6778 104.578 34.1539L105.648 35.2045C106.156 34.6872 106.641 34.1337 107.103 33.5443L105.922 32.6191ZM103.07 35.5155C102.804 35.7271 102.533 35.9292 102.257 36.1218L103.115 37.3524C103.418 37.1414 103.714 36.9202 104.005 36.6888L103.07 35.5155ZM102.37 37.4171C102.716 37.5784 103.055 37.7507 103.386 37.9341L104.113 36.6222C103.751 36.4214 103.381 36.2331 103.002 36.0571L102.37 37.4171ZM105.292 39.1786C105.892 39.6353 106.462 40.1374 107.002 40.685L108.07 39.6316C107.481 39.0345 106.858 38.4855 106.201 37.9851L105.292 39.1786ZM108.497 42.4167C108.725 42.7183 108.947 43.0305 109.162 43.3531L110.41 42.5211C110.179 42.1741 109.94 41.8375 109.693 41.5115L108.497 42.4167ZM109.162 43.3531C109.316 43.5837 109.463 43.8178 109.603 44.0554L110.895 43.2924C110.74 43.0313 110.579 42.7742 110.41 42.5211L109.162 43.3531ZM110.367 45.5265C110.593 46.0275 110.794 46.5431 110.968 47.0733L112.393 46.6051C112.202 46.0248 111.983 45.4593 111.734 44.9089L110.367 45.5265ZM111.405 48.6784C111.523 49.2131 111.616 49.7617 111.686 50.3244L113.175 50.1406C113.1 49.533 112.998 48.9383 112.871 48.3567L111.405 48.6784ZM111.82 51.9958C111.831 52.273 111.836 52.5535 111.836 52.8371H113.336C113.336 52.5345 113.33 52.2348 113.319 51.9378L111.82 51.9958ZM111.836 52.8371C111.836 53.1927 111.828 53.5442 111.813 53.8916L113.312 53.9563C113.328 53.5869 113.336 53.2138 113.336 52.8371H111.836ZM111.626 55.9856C111.529 56.6894 111.398 57.3752 111.233 58.043L112.69 58.4016C112.867 57.6818 113.008 56.9448 113.112 56.1909L111.626 55.9856ZM110.622 60.0401C110.381 60.6955 110.103 61.3326 109.789 61.9514L111.126 62.6301C111.467 61.9592 111.768 61.2688 112.03 60.5591L110.622 60.0401ZM108.739 63.7531C108.357 64.3279 107.941 64.8857 107.488 65.4265L108.638 66.3892C109.126 65.8065 109.576 65.2041 109.989 64.5821L108.739 63.7531ZM106.061 66.9609C105.812 67.2026 105.555 67.4406 105.29 67.6747L106.282 68.7995C106.565 68.5498 106.84 68.2956 107.106 68.0369L106.061 66.9609ZM105.294 67.6706C105.061 67.8734 104.823 68.0708 104.582 68.2627L105.515 69.4368C105.774 69.2315 106.028 69.0204 106.277 68.8036L105.294 67.6706ZM103.084 69.3516C102.571 69.6919 102.042 70.0107 101.498 70.3079L102.216 71.6244C102.798 71.3068 103.364 70.9659 103.913 70.6019L103.084 69.3516ZM99.8341 71.1279C99.2736 71.376 98.698 71.6038 98.1072 71.8112L98.6041 73.2265C99.2315 73.0063 99.8439 72.7639 100.441 72.4995L99.8341 71.1279ZM96.3293 72.3616C95.7377 72.5213 95.1321 72.6624 94.5124 72.785L94.8035 74.2565C95.4557 74.1275 96.0947 73.9786 96.7202 73.8097L96.3293 72.3616ZM92.6674 73.0893C92.0585 73.1705 91.4372 73.2352 90.8033 73.2832L90.9166 74.7789C91.578 74.7288 92.2277 74.6612 92.8657 74.5761L92.6674 73.0893ZM88.9274 73.3759C88.6164 73.3834 88.3026 73.3871 87.9859 73.3871V74.8871C88.3144 74.8871 88.6402 74.8832 88.9634 74.8755L88.9274 73.3759ZM69.5859 67.7371L68.611 68.8771C68.6163 68.8816 68.6217 68.8862 68.6271 68.8907L69.5859 67.7371ZM61.5859 50.0371V48.5371C61.1788 48.5371 60.7892 48.7026 60.5065 48.9955C60.2238 49.2885 60.0724 49.6838 60.0869 50.0906L61.5859 50.0371ZM75.1859 50.0371L76.6788 49.8908C76.6035 49.1227 75.9577 48.5371 75.1859 48.5371V50.0371ZM79.0859 57.9371L78.1324 59.095C78.1447 59.1051 78.1571 59.1151 78.1697 59.1248L79.0859 57.9371ZM95.6859 58.2371L94.7489 57.0658C94.7424 57.071 94.736 57.0762 94.7296 57.0815L95.6859 58.2371ZM98.7859 51.7371L100.285 51.7737C100.286 51.7615 100.286 51.7493 100.286 51.7371H98.7859ZM95.6859 44.7371L96.6276 43.5695L95.6859 44.7371ZM81.1859 42.2371H79.6859C79.6859 43.0655 80.3575 43.7371 81.1859 43.7371V42.2371ZM81.1859 31.0371V29.5371C80.3575 29.5371 79.6859 30.2087 79.6859 31.0371H81.1859ZM94.0859 28.7371L93.0921 27.6136L94.0859 28.7371ZM96.7859 22.5371L95.2865 22.4955L95.2864 22.4987L96.7859 22.5371ZM94.1859 16.6371L93.1921 17.7606C93.1991 17.7668 93.2061 17.7729 93.2132 17.779L94.1859 16.6371ZM79.6859 17.1371L80.6914 18.2503L79.6859 17.1371ZM76.6859 24.3371V25.8371C77.0897 25.8371 77.4764 25.6744 77.7586 25.3856C78.0408 25.0969 78.1947 24.7067 78.1856 24.303L76.6859 24.3371ZM62.8859 24.3371H61.3859C61.3859 25.1655 62.0575 25.8371 62.8859 25.8371V24.3371ZM70.2859 7.33711L71.2672 8.47169L71.2758 8.46408L70.2859 7.33711ZM104.386 6.8371L103.343 7.91504L103.352 7.92373L104.386 6.8371ZM108.286 30.4371L109.586 31.1848C109.589 31.1802 109.592 31.1756 109.594 31.171L108.286 30.4371ZM102.686 36.7371L101.828 35.5065C101.388 35.8134 101.145 36.3322 101.192 36.8669C101.238 37.4017 101.567 37.8708 102.053 38.0972L102.686 36.7371ZM109.786 42.9371L111.034 42.1051L109.786 42.9371ZM105.786 68.2371L106.769 69.3701L106.778 69.3619L105.786 68.2371ZM87.9859 72.6371C87.666 72.6371 87.3484 72.6326 87.0331 72.6237L86.948 75.6225C87.292 75.6322 87.638 75.6371 87.9859 75.6371V72.6371ZM85.137 72.5136C84.5005 72.4573 83.874 72.3817 83.2576 72.287L82.802 75.2522C83.4831 75.3568 84.1733 75.44 84.8724 75.502L85.137 72.5136ZM81.4032 71.9377C80.7858 71.7994 80.1788 71.6406 79.5821 71.4614L78.7195 74.3347C79.3853 74.5346 80.0612 74.7114 80.7471 74.8651L81.4032 71.9377ZM77.8034 70.8557C77.2176 70.6317 76.642 70.3866 76.0763 70.1204L74.7989 72.8349C75.4323 73.133 76.0767 73.4073 76.7321 73.6579L77.8034 70.8557ZM74.409 69.2581C73.866 68.9512 73.3326 68.6231 72.8085 68.2737L71.1444 70.7699C71.7291 71.1596 72.3251 71.5263 72.9325 71.8697L74.409 69.2581ZM71.2806 67.1742C71.0331 66.9825 70.7878 66.7856 70.5447 66.5835L68.6271 68.8907C68.8965 69.1145 69.1685 69.3329 69.4434 69.5459L71.2806 67.1742ZM70.5609 66.5972C70.3214 66.3923 70.0879 66.184 69.8604 65.9722L67.8164 68.1681C68.075 68.4089 68.3399 68.6452 68.611 68.8771L70.5609 66.5972ZM68.5484 64.6398C68.1295 64.1746 67.735 63.6944 67.365 63.199L64.9615 64.9942C65.3869 65.5639 65.8397 66.115 66.3194 66.6476L68.5484 64.6398ZM66.3215 61.6568C65.9989 61.1285 65.7001 60.584 65.4254 60.0232L62.7314 61.3433C63.0466 61.9866 63.3899 62.6123 63.7611 63.2203L66.3215 61.6568ZM64.68 58.3106C64.459 57.7342 64.2603 57.1417 64.0843 56.5328L61.2023 57.3661C61.4014 58.0546 61.6268 58.7274 61.8788 59.3846L64.68 58.3106ZM63.6333 54.7032C63.5083 54.0956 63.4036 53.4729 63.3195 52.8349L60.3453 53.2269C60.4385 53.934 60.5549 54.6276 60.6949 55.3078L63.6333 54.7032ZM63.1334 50.9395C63.1126 50.6243 63.0965 50.3056 63.085 49.9836L60.0869 50.0906C60.0995 50.4423 60.1171 50.7911 60.1399 51.1369L63.1334 50.9395ZM61.5859 51.5371H62.7193V48.5371H61.5859V51.5371ZM64.9859 51.5371H67.2526V48.5371H64.9859V51.5371ZM69.5193 51.5371H71.7859V48.5371H69.5193V51.5371ZM74.0526 51.5371H75.1859V48.5371H74.0526V51.5371ZM73.6931 50.1835C73.7341 50.6012 73.7886 51.0107 73.8572 51.4116L76.8143 50.9062C76.7583 50.5788 76.7131 50.2404 76.6788 49.8908L73.6931 50.1835ZM74.4856 53.8497C74.778 54.6734 75.1444 55.4485 75.5868 56.1719L78.1462 54.6067C77.8174 54.0692 77.539 53.4834 77.3127 52.846L74.4856 53.8497ZM77.1793 58.2198C77.4793 58.5272 77.7972 58.819 78.1324 59.095L80.0395 56.7792C79.7867 56.571 79.5491 56.3528 79.3262 56.1244L77.1793 58.2198ZM78.1697 59.1248C78.5221 59.3966 78.8874 59.6503 79.2654 59.8857L80.8512 57.3391C80.5582 57.1566 80.2752 56.9601 80.0021 56.7494L78.1697 59.1248ZM81.6437 61.0622C82.4449 61.3677 83.2848 61.6065 84.1614 61.7806L84.7457 58.838C84.0244 58.6948 83.3474 58.5012 82.7128 58.2591L81.6437 61.0622ZM86.7146 62.1008C87.1316 62.1251 87.5554 62.1371 87.9859 62.1371V59.1371C87.6113 59.1371 87.2456 59.1266 86.889 59.1059L86.7146 62.1008ZM87.9859 62.1371C88.3639 62.1371 88.7355 62.1268 89.1006 62.1058L88.9291 59.1108C88.6235 59.1283 88.3092 59.1371 87.9859 59.1371V62.1371ZM91.3473 61.826C92.126 61.6715 92.8695 61.4581 93.5751 61.1831L92.4857 58.3879C91.9555 58.5945 91.3822 58.7606 90.7633 58.8834L91.3473 61.826ZM95.6811 60.1021C96.0149 59.8832 96.3354 59.6467 96.6423 59.3927L94.7296 57.0815C94.5084 57.2645 94.2772 57.4352 94.0358 57.5936L95.6811 60.1021ZM96.623 59.4084C96.9093 59.1794 97.1806 58.9386 97.4364 58.6859L95.3282 56.5516C95.1492 56.7284 94.9563 56.8999 94.7489 57.0658L96.623 59.4084ZM98.8191 56.9627C99.2102 56.3355 99.5226 55.6653 99.7571 54.9555L96.9084 54.0146C96.7472 54.5028 96.5353 54.9555 96.2733 55.3756L98.8191 56.9627ZM100.214 52.8335C100.253 52.4862 100.277 52.1328 100.285 51.7737L97.2864 51.7005C97.2797 51.9764 97.2617 52.2427 97.2329 52.4998L100.214 52.8335ZM100.286 51.7371C100.286 51.3592 100.271 50.9878 100.241 50.6232L97.2514 50.8682C97.2743 51.1475 97.2859 51.437 97.2859 51.7371H100.286ZM99.8365 48.3784C99.615 47.615 99.3104 46.8948 98.9204 46.2222L96.3251 47.727C96.5879 48.1802 96.7987 48.6746 96.9553 49.2143L99.8365 48.3784ZM97.4908 44.3505C97.2206 44.0758 96.9327 43.8155 96.6276 43.5695L94.7443 45.9047C94.9626 46.0807 95.1648 46.2639 95.3518 46.454L97.4908 44.3505ZM96.6276 43.5695C96.2896 43.297 95.9349 43.0443 95.5639 42.8116L93.9697 45.353C94.2419 45.5237 94.4999 45.7077 94.7443 45.9047L96.6276 43.5695ZM93.2493 41.6902C92.4851 41.4129 91.6764 41.1985 90.826 41.044L90.2896 43.9957C90.9893 44.1228 91.6338 44.2954 92.2261 44.5103L93.2493 41.6902ZM88.393 40.7677C87.9983 40.7473 87.5959 40.7371 87.1859 40.7371V43.7371C87.5464 43.7371 87.8969 43.746 88.2375 43.7637L88.393 40.7677ZM87.1859 40.7371H86.4359V43.7371H87.1859V40.7371ZM84.9359 40.7371H83.4359V43.7371H84.9359V40.7371ZM81.9359 40.7371H81.1859V43.7371H81.9359V40.7371ZM82.6859 42.2371V41.3038H79.6859V42.2371H82.6859ZM82.6859 39.4371V37.5704H79.6859V39.4371H82.6859ZM82.6859 35.7038V33.8371H79.6859V35.7038H82.6859ZM82.6859 31.9704V31.0371H79.6859V31.9704H82.6859ZM81.1859 32.5371H82.5359V29.5371H81.1859V32.5371ZM85.2359 32.5371H86.5859V29.5371H85.2359V32.5371ZM86.5859 32.5371C86.9531 32.5371 87.3132 32.5281 87.6661 32.5098L87.511 29.5138C87.2123 29.5293 86.904 29.5371 86.5859 29.5371V32.5371ZM89.8508 32.2601C90.6212 32.1182 91.3518 31.9202 92.0388 31.6619L90.9831 28.8538C90.4788 29.0434 89.9216 29.1966 89.3077 29.3096L89.8508 32.2601ZM94.1302 30.594C94.4642 30.3695 94.7809 30.125 95.0798 29.8606L93.0921 27.6136C92.8939 27.7889 92.6822 27.9526 92.4561 28.1046L94.1302 30.594ZM95.0798 29.8606C95.3394 29.631 95.5847 29.3898 95.8151 29.137L93.5981 27.1159C93.4417 27.2874 93.2732 27.4534 93.0921 27.6136L95.0798 29.8606ZM97.0333 27.449C97.3684 26.8498 97.635 26.213 97.8347 25.5418L94.9594 24.686C94.8202 25.1537 94.6381 25.5856 94.4149 25.9849L97.0333 27.449ZM98.2225 23.5612C98.256 23.2381 98.2769 22.9095 98.2854 22.5756L95.2864 22.4987C95.2798 22.7583 95.2637 23.0093 95.2385 23.2519L98.2225 23.5612ZM98.2854 22.5788C98.2945 22.2487 98.2886 21.9227 98.2669 21.6009L95.2737 21.8024C95.2887 22.0254 95.2932 22.2564 95.2865 22.4955L98.2854 22.5788ZM97.9163 19.63C97.7205 18.9746 97.4479 18.3522 97.099 17.7657L94.5206 19.2993C94.7427 19.6727 94.9163 20.0683 95.0419 20.4887L97.9163 19.63ZM95.8759 16.1692C95.6506 15.9351 95.4114 15.7105 95.1586 15.4952L93.2132 17.779C93.3935 17.9325 93.5602 18.0893 93.714 18.2491L95.8759 16.1692ZM95.1798 15.5136C94.9178 15.2819 94.6459 15.0644 94.3641 14.8616L92.6118 17.2967C92.811 17.44 93.0044 17.5946 93.1921 17.7606L95.1798 15.5136ZM92.5502 13.8204C91.9252 13.5422 91.2699 13.3244 90.5866 13.1653L89.9064 16.0872C90.4126 16.205 90.8864 16.3636 91.3299 16.5611L92.5502 13.8204ZM88.5816 12.8705C88.2546 12.8481 87.9226 12.8371 87.5859 12.8371V15.8371C87.8571 15.8371 88.1209 15.846 88.3774 15.8635L88.5816 12.8705ZM87.5859 12.8371C87.1879 12.8371 86.7959 12.8503 86.4099 12.8771L86.6173 15.8699C86.9316 15.8481 87.2544 15.8371 87.5859 15.8371V12.8371ZM84.0485 13.2299C83.2454 13.42 82.4771 13.68 81.7458 14.0116L82.9849 16.7438C83.5325 16.4954 84.1165 16.2967 84.7395 16.1492L84.0485 13.2299ZM79.6291 15.2501C79.3013 15.4908 78.985 15.7489 78.6805 16.024L80.6914 18.2503C80.9218 18.0421 81.1595 17.8482 81.4046 17.6683L79.6291 15.2501ZM78.6805 16.024C78.3903 16.2861 78.1165 16.5592 77.8597 16.8435L80.0858 18.8545C80.2723 18.6481 80.4739 18.4466 80.6914 18.2503L78.6805 16.024ZM76.4879 18.7549C76.1051 19.4445 75.8068 20.1741 75.5928 20.9412L78.4823 21.7477C78.6344 21.2028 78.844 20.6916 79.1108 20.211L76.4879 18.7549ZM75.2095 23.2318C75.1851 23.6061 75.1776 23.9859 75.1863 24.3712L78.1856 24.303C78.1787 24.0018 78.1847 23.7099 78.2032 23.4268L75.2095 23.2318ZM76.6859 22.8371H75.5359V25.8371H76.6859V22.8371ZM73.2359 22.8371H70.9359V25.8371H73.2359V22.8371ZM68.6359 22.8371H66.3359V25.8371H68.6359V22.8371ZM64.0359 22.8371H62.8859V25.8371H64.0359V22.8371ZM64.3859 24.3371C64.3859 24.0304 64.3908 23.7269 64.4006 23.4267L61.4022 23.3293C61.3913 23.6626 61.3859 23.9986 61.3859 24.3371H64.3859ZM64.5216 21.6197C64.5842 21.0115 64.6683 20.4174 64.7737 19.8372L61.822 19.3009C61.7024 19.9594 61.6076 20.63 61.5373 21.3127L64.5216 21.6197ZM65.1663 18.0909C65.323 17.5105 65.5031 16.9449 65.7064 16.3938L62.8919 15.3554C62.6569 15.9923 62.4497 16.6435 62.27 17.309L65.1663 18.0909ZM66.398 14.7589C66.6542 14.225 66.9349 13.7053 67.2402 13.1997L64.672 11.6491C64.3171 12.2369 63.9908 12.841 63.6933 13.461L66.398 14.7589ZM68.2281 11.7269C68.5782 11.255 68.9529 10.7958 69.3524 10.3495L67.117 8.34874C66.6572 8.86246 66.2243 9.39277 65.8187 9.93965L68.2281 11.7269ZM70.6005 9.07235C70.8168 8.86921 71.039 8.66897 71.2672 8.47165L69.3047 6.20256C69.046 6.42634 68.7933 6.65402 68.5467 6.88561L70.6005 9.07235ZM71.2758 8.46408C71.5021 8.26536 71.73 8.07161 71.9595 7.88283L70.0537 5.5659C69.7989 5.77551 69.5463 5.99026 69.296 6.21013L71.2758 8.46408ZM73.3782 6.79379C73.8665 6.44487 74.362 6.11689 74.8646 5.80969L73.3001 3.24996C72.7353 3.59517 72.18 3.96282 71.6342 4.35278L73.3782 6.79379ZM76.4154 4.93918C76.9441 4.668 77.4807 4.41817 78.0252 4.18963L76.8641 1.42344C76.2486 1.68175 75.6427 1.96391 75.0463 2.26985L76.4154 4.93918ZM79.6869 3.56628C80.2471 3.38042 80.8157 3.21558 81.3929 3.07181L80.6677 0.160771C80.0171 0.322851 79.3752 0.50889 78.7422 0.718918L79.6869 3.56628ZM83.1341 2.70644C83.7147 2.60678 84.304 2.52719 84.9019 2.46779L84.6054 -0.517517C83.938 -0.451221 83.2783 -0.362192 82.6266 -0.250316L83.1341 2.70644ZM86.688 2.35135C86.9852 2.34186 87.2845 2.3371 87.5859 2.3371V-0.662897C87.2529 -0.662897 86.9217 -0.657643 86.5922 -0.647117L86.688 2.35135ZM87.5859 2.3371C87.8818 2.3371 88.1746 2.34076 88.4645 2.34804L88.5399 -0.65101C88.2245 -0.65894 87.9065 -0.662897 87.5859 -0.662897V2.3371ZM90.2107 2.43866C90.8006 2.48571 91.3769 2.54902 91.9397 2.62841L92.3588 -0.342182C91.7339 -0.430321 91.0973 -0.500147 90.4492 -0.55184L90.2107 2.43866ZM93.6437 2.92631C94.2151 3.04645 94.7714 3.18472 95.3126 3.34093L96.1445 0.458587C95.5303 0.281304 94.9023 0.125338 94.2609 -0.0095191L93.6437 2.92631ZM96.9351 3.87965C97.4724 4.0827 97.9937 4.30553 98.4991 4.54797L99.7967 1.84311C99.2122 1.56272 98.6117 1.30616 97.9955 1.07331L96.9351 3.87965ZM99.9926 5.34877C100.479 5.63856 100.949 5.94928 101.403 6.28096L103.172 3.85771C102.642 3.47107 102.094 3.10919 101.529 2.7721L99.9926 5.34877ZM102.721 7.3401C102.932 7.52638 103.139 7.71801 103.343 7.91501L105.429 5.7592C105.193 5.53058 104.952 5.30791 104.707 5.09122L102.721 7.3401ZM103.352 7.92373C103.585 8.14514 103.81 8.36931 104.028 8.59622L106.192 6.51841C105.942 6.25842 105.685 6.00245 105.42 5.75048L103.352 7.92373ZM105.274 10.0248C105.669 10.5248 106.032 11.0373 106.364 11.5622L108.899 9.95868C108.511 9.34378 108.087 8.7462 107.629 8.16596L105.274 10.0248ZM107.28 13.2009C107.554 13.7624 107.798 14.3383 108.01 14.9287L110.833 13.9152C110.584 13.2214 110.298 12.5439 109.975 11.883L107.28 13.2009ZM108.548 16.7297C108.694 17.3333 108.81 17.952 108.897 18.5863L111.869 18.1797C111.769 17.4476 111.634 16.7292 111.464 16.0248L108.548 16.7297ZM109.066 20.4807C109.079 20.7959 109.086 21.1146 109.086 21.4371H112.086C112.086 21.0724 112.078 20.7106 112.063 20.3517L109.066 20.4807ZM109.086 21.4371C109.086 21.8038 109.076 22.1661 109.055 22.524L112.05 22.6975C112.074 22.2808 112.086 21.8606 112.086 21.4371H109.086ZM108.798 24.6695C108.667 25.3808 108.492 26.0753 108.272 26.7533L111.125 27.6792C111.386 26.8745 111.594 26.0521 111.749 25.2127L108.798 24.6695ZM107.474 28.7474C107.32 29.0695 107.155 29.3881 106.978 29.7032L109.594 31.171C109.802 30.8 109.998 30.424 110.18 30.043L107.474 28.7474ZM106.986 29.6894C106.818 29.9814 106.646 30.2654 106.47 30.5416L109.002 32.1509C109.202 31.8364 109.397 31.5143 109.586 31.1848L106.986 29.6894ZM105.331 32.1565C104.919 32.6826 104.489 33.1731 104.042 33.6286L106.184 35.7298C106.712 35.1919 107.215 34.6174 107.693 34.0069L105.331 32.1565ZM102.603 34.9289C102.35 35.1306 102.091 35.3231 101.828 35.5065L103.544 37.9677C103.86 37.7475 104.169 37.5167 104.472 37.2755L102.603 34.9289ZM102.053 38.0972C102.384 38.251 102.707 38.4153 103.022 38.5901L104.477 35.9662C104.099 35.7568 103.713 35.5604 103.319 35.377L102.053 38.0972ZM104.838 39.7753C105.409 40.2102 105.953 40.6888 106.468 41.2117L108.604 39.105C107.991 38.4831 107.341 37.9106 106.655 37.3884L104.838 39.7753ZM107.899 42.8693C108.118 43.1587 108.331 43.4587 108.538 43.7692L111.034 42.1051C110.795 41.7459 110.547 41.3971 110.291 41.0589L107.899 42.8693ZM108.538 43.7692C108.684 43.9885 108.824 44.2111 108.957 44.437L111.54 42.9109C111.379 42.6381 111.21 42.3695 111.034 42.1051L108.538 43.7692ZM109.684 45.8353C109.899 46.3116 110.089 46.8022 110.255 47.3073L113.105 46.371C112.907 45.7656 112.677 45.1752 112.417 44.6001L109.684 45.8353ZM110.673 48.8393C110.785 49.3504 110.875 49.876 110.942 50.4163L113.919 50.0486C113.841 49.4187 113.736 48.801 113.603 48.1958L110.673 48.8393ZM111.07 52.0247C111.081 52.2922 111.086 52.563 111.086 52.8371H114.086C114.086 52.5251 114.08 52.2156 114.068 51.9088L111.07 52.0247ZM111.086 52.8371C111.086 53.1821 111.079 53.5228 111.064 53.8592L114.061 53.9887C114.078 53.6082 114.086 53.2244 114.086 52.8371H111.086ZM110.883 55.8829C110.789 56.5617 110.663 57.2218 110.505 57.8636L113.418 58.5809C113.602 57.8351 113.747 57.0725 113.855 56.2936L110.883 55.8829ZM109.919 59.7805C109.687 60.4089 109.421 61.0193 109.12 61.612L111.795 62.9695C112.149 62.2725 112.462 61.5554 112.733 60.8186L109.919 59.7805ZM108.113 63.3387C107.748 63.8898 107.348 64.4253 106.913 64.9452L109.214 66.8705C109.719 66.2669 110.186 65.6423 110.614 64.9965L108.113 63.3387ZM105.538 66.4229C105.298 66.6562 105.05 66.886 104.794 67.1124L106.778 69.3619C107.07 69.1044 107.354 68.842 107.629 68.5748L105.538 66.4229ZM104.803 67.1041C104.577 67.2999 104.348 67.4904 104.115 67.6757L105.982 70.0238C106.249 69.8118 106.511 69.5939 106.769 69.3701L104.803 67.1041ZM102.67 68.7265C102.174 69.0549 101.664 69.3626 101.138 69.6497L102.576 72.2827C103.176 71.9548 103.76 71.6029 104.327 71.227L102.67 68.7265ZM99.5306 70.4421C98.9885 70.682 98.4313 70.9026 97.8587 71.1036L98.8526 73.9342C99.4983 73.7075 100.129 73.4579 100.745 73.1853L99.5306 70.4421ZM96.1339 71.6375C95.5592 71.7926 94.9703 71.9299 94.3669 72.0492L94.949 74.9922C95.6176 74.86 96.2732 74.7073 96.9157 74.5338L96.1339 71.6375ZM92.5682 72.3459C91.9739 72.4251 91.3668 72.4883 90.7466 72.5354L90.9733 75.5268C91.6484 75.4756 92.3123 75.4066 92.9649 75.3195L92.5682 72.3459ZM88.9095 72.6261C88.6045 72.6334 88.2967 72.6371 87.9859 72.6371V75.6371C88.3203 75.6371 88.6521 75.6332 88.9814 75.6253L88.9095 72.6261Z" fill="url(#paint0_linear_790_28164)"/>
<defs>
<linearGradient id="paint0_linear_790_28164" x1="-5.1156" y1="37.536" x2="116.682" y2="37.536" gradientUnits="userSpaceOnUse">
<stop stop-color="#0DA1DA"/>
<stop offset="1" stop-color="#5DB98E"/>
</linearGradient>
</defs>
</svg>
