<svg width="119" height="75" viewBox="0 0 119 75" fill="none" xmlns="http://www.w3.org/2000/svg">
<path d="M7.5 66.2371L6.95263 66.7498L7.5 66.2371ZM7.5 8.73711L8.04737 9.24983L7.5 8.73711ZM45.6 8.73711L45.0526 9.24983L45.6 8.73711ZM45.6 66.2371L46.1474 66.7498L45.6 66.2371ZM17.3 56.7371L16.7418 57.238L17.3 56.7371ZM35.8 56.7371L35.2418 56.2361L35.2347 56.2443L35.8 56.7371ZM35.8 18.2371L35.2347 18.73C35.2392 18.7351 35.2437 18.7402 35.2483 18.7452L35.8 18.2371ZM17.3 18.2371L17.8517 18.7453L17.8582 18.738L17.3 18.2371ZM26.6 73.3871C26.2495 73.3871 25.9021 73.3817 25.5579 73.3708L25.5107 74.8701C25.8709 74.8814 26.234 74.8871 26.6 74.8871V73.3871ZM23.4839 73.2361C22.7852 73.1665 22.1004 73.0729 21.4294 72.9554L21.1706 74.4329C21.8791 74.557 22.6007 74.6555 23.3352 74.7287L23.4839 73.2361ZM19.4072 72.5182C18.7339 72.3438 18.0755 72.1432 17.4318 71.9166L16.9336 73.3314C17.6181 73.5725 18.3173 73.7854 19.0311 73.9703L19.4072 72.5182ZM15.5185 71.1462C14.8918 70.8608 14.2801 70.5481 13.6833 70.2081L12.9407 71.5113C13.5769 71.8738 14.2289 72.2072 14.8967 72.5113L15.5185 71.1462ZM11.94 69.1077C11.3791 68.7173 10.8324 68.3 10.2999 67.8557L9.33885 69.0074C9.90448 69.4794 10.4859 69.9232 11.0832 70.3389L11.94 69.1077ZM8.77017 66.4662C8.52594 66.2254 8.28501 65.9781 8.04737 65.7244L6.95263 66.7498C7.20363 67.0178 7.45836 67.2792 7.71684 67.5342L8.77017 66.4662ZM8.04737 65.7244C7.84279 65.506 7.64264 65.2851 7.44689 65.0616L6.31858 66.05C6.52539 66.2861 6.73674 66.5194 6.95263 66.7498L8.04737 65.7244ZM6.31633 63.6788C5.95443 63.2037 5.61063 62.7181 5.28487 62.2218L4.03092 63.045C4.37601 63.5707 4.74008 64.0849 5.12309 64.5877L6.31633 63.6788ZM4.35887 60.6963C4.06885 60.178 3.79681 59.6489 3.54274 59.109L2.1855 59.7477C2.45449 60.3193 2.74261 60.8797 3.04988 61.4288L4.35887 60.6963ZM2.83868 57.4677C2.62413 56.916 2.42687 56.3536 2.24693 55.7806L0.815826 56.2299C1.00561 56.8344 1.21389 57.4282 1.44068 58.0113L2.83868 57.4677ZM1.76587 54.0568C1.62496 53.4826 1.50023 52.8982 1.39175 52.3036L-0.0838914 52.5728C0.0298824 53.1964 0.16086 53.8102 0.309088 54.4143L1.76587 54.0568ZM1.11994 50.5287C1.04669 49.9415 0.988317 49.345 0.944852 48.7391L-0.551303 48.8464C-0.506008 49.4778 -0.445098 50.1005 -0.368526 50.7144L1.11994 50.5287ZM0.860285 46.9395C0.85343 46.6409 0.85 46.3401 0.85 46.0371H-0.65C-0.65 46.3514 -0.646441 46.6637 -0.63932 46.9739L0.860285 46.9395ZM0.85 46.0371V44.9621H-0.65V46.0371H0.85ZM0.85 42.8121V40.6621H-0.65V42.8121H0.85ZM0.85 38.5121V36.3621H-0.65V38.5121H0.85ZM0.85 34.2121V32.0621H-0.65V34.2121H0.85ZM0.85 29.9121V28.8371H-0.65V29.9121H0.85ZM0.85 28.8371C0.85 28.4747 0.85499 28.1154 0.864959 27.7592L-0.634454 27.7172C-0.644821 28.0877 -0.65 28.461 -0.65 28.8371H0.85ZM0.988522 25.6121C1.05233 24.8882 1.13813 24.1779 1.24585 23.481L-0.236541 23.2519C-0.349402 23.982 -0.439088 24.7248 -0.505685 25.4804L0.988522 25.6121ZM1.64699 21.3766C1.80736 20.6734 1.99186 19.985 2.20041 19.3111L0.767463 18.8676C0.547466 19.5785 0.353183 20.3036 0.184542 21.043L1.64699 21.3766ZM2.91223 17.2979C3.17761 16.6339 3.46856 15.9851 3.78506 15.3514L2.44313 14.6811C2.10792 15.3523 1.8 16.039 1.51935 16.7412L2.91223 17.2979ZM4.81721 13.4858C5.18653 12.8801 5.58176 12.2892 6.00295 11.7133L4.79217 10.8278C4.34635 11.4375 3.92777 12.0632 3.5365 12.7049L4.81721 13.4858ZM7.33232 10.044C7.56436 9.77576 7.8027 9.51103 8.04737 9.24983L6.95263 8.22438C6.69454 8.49991 6.44294 8.77935 6.19785 9.0627L7.33232 10.044ZM8.04737 9.24983C8.28501 8.99614 8.52594 8.74886 8.77016 8.50798L7.71684 7.44003C7.45836 7.69497 7.20363 7.95643 6.95263 8.22438L8.04737 9.24983ZM10.2999 7.11852C10.8324 6.67417 11.3791 6.25689 11.94 5.86657L11.0832 4.63533C10.4859 5.05097 9.90448 5.49483 9.33885 5.96682L10.2999 7.11852ZM13.6833 4.76616C14.2801 4.42613 14.8918 4.1134 15.5185 3.82797L14.8967 2.4629C14.2289 2.76705 13.5769 3.10038 12.9407 3.46287L13.6833 4.76616ZM17.4318 3.05763C18.0755 2.83098 18.7339 2.63043 19.4072 2.45604L19.0311 1.00395C18.3173 1.18883 17.6181 1.40175 16.9336 1.64279L17.4318 3.05763ZM21.4294 2.01885C22.1004 1.90134 22.7852 1.80773 23.4839 1.73812L23.3352 0.245512C22.6007 0.318683 21.8791 0.417255 21.1706 0.541334L21.4294 2.01885ZM25.5579 1.6034C25.9021 1.59254 26.2495 1.5871 26.6 1.5871V0.0871031C26.234 0.0871031 25.8709 0.0927787 25.5107 0.104142L25.5579 1.6034ZM26.6 1.5871C26.9488 1.5871 27.2944 1.59258 27.637 1.60352L27.6849 0.104285C27.3261 0.0928264 26.9645 0.0871031 26.6 0.0871031V1.5871ZM29.7009 1.73921C30.3959 1.80926 31.0773 1.90346 31.745 2.0217L32.0066 0.544677C31.301 0.41974 30.5825 0.320474 29.8513 0.246774L29.7009 1.73921ZM33.7565 2.46117C34.4259 2.63629 35.0807 2.83765 35.721 3.06517L36.2233 1.65174C35.542 1.40967 34.8462 1.19578 34.1362 1.01001L33.7565 2.46117ZM37.6233 3.83743C38.2459 4.1232 38.8539 4.43623 39.4475 4.77654L40.1936 3.47526C39.5608 3.11247 38.9126 2.77876 38.249 2.47417L37.6233 3.83743ZM41.1804 5.87639C41.7378 6.26603 42.2813 6.68249 42.8112 7.12587L43.7738 5.97554C43.2112 5.50474 42.6333 5.06186 42.0399 4.64702L41.1804 5.87639ZM44.3331 8.51091C44.5761 8.75086 44.816 8.99717 45.0526 9.24983L46.1474 8.22438C45.8975 7.95764 45.644 7.69734 45.3869 7.44349L44.3331 8.51091ZM45.0526 9.24983C45.2973 9.51103 45.5356 9.77576 45.7677 10.044L46.9022 9.0627C46.6571 8.77935 46.4055 8.49991 46.1474 8.22438L45.0526 9.24983ZM47.097 11.7133C47.5182 12.2892 47.9135 12.8801 48.2828 13.4858L49.5635 12.7049C49.1722 12.0632 48.7537 11.4375 48.3078 10.8278L47.097 11.7133ZM49.3149 15.3514C49.6314 15.9851 49.9224 16.6339 50.1878 17.2979L51.5807 16.7412C51.3 16.039 50.9921 15.3523 50.6569 14.6811L49.3149 15.3514ZM50.8996 19.3111C51.1081 19.985 51.2926 20.6734 51.453 21.3766L52.9155 21.043C52.7468 20.3036 52.5525 19.5785 52.3325 18.8676L50.8996 19.3111ZM51.8542 23.481C51.9619 24.1779 52.0477 24.8882 52.1115 25.6121L53.6057 25.4804C53.5391 24.7248 53.4494 23.982 53.3365 23.2519L51.8542 23.481ZM52.235 27.7592C52.245 28.1154 52.25 28.4747 52.25 28.8371H53.75C53.75 28.461 53.7448 28.0877 53.7345 27.7172L52.235 27.7592ZM52.25 28.8371V29.9121H53.75V28.8371H52.25ZM52.25 32.0621V34.2121H53.75V32.0621H52.25ZM52.25 36.3621V38.5121H53.75V36.3621H52.25ZM52.25 40.6621V42.8121H53.75V40.6621H52.25ZM52.25 44.9621V46.0371H53.75V44.9621H52.25ZM52.25 46.0371C52.25 46.3401 52.2466 46.6409 52.2397 46.9395L53.7393 46.9739C53.7464 46.6637 53.75 46.3514 53.75 46.0371H52.25ZM52.1552 48.7391C52.1117 49.345 52.0533 49.9415 51.9801 50.5287L53.4685 50.7143C53.5451 50.1005 53.606 49.4778 53.6513 48.8464L52.1552 48.7391ZM51.7083 52.3036C51.5998 52.8982 51.475 53.4826 51.3341 54.0568L52.7909 54.4143C52.9391 53.8102 53.0701 53.1964 53.1839 52.5728L51.7083 52.3036ZM50.8531 55.7806C50.6731 56.3536 50.4759 56.916 50.2613 57.4677L51.6593 58.0113C51.8861 57.4282 52.0944 56.8344 52.2842 56.2299L50.8531 55.7806ZM49.5573 59.109C49.3032 59.6489 49.0312 60.178 48.7411 60.6963L50.0501 61.4288C50.3574 60.8797 50.6455 60.3193 50.9145 59.7477L49.5573 59.109ZM47.8151 62.2218C47.4894 62.7181 47.1456 63.2037 46.7837 63.6788L47.9769 64.5877C48.3599 64.0849 48.724 63.5707 49.0691 63.045L47.8151 62.2218ZM45.6531 65.0616C45.4574 65.2851 45.2572 65.506 45.0526 65.7244L46.1474 66.7498C46.3633 66.5194 46.5746 66.2861 46.7814 66.05L45.6531 65.0616ZM45.0526 65.7244C44.816 65.9771 44.5761 66.2234 44.3331 66.4633L45.3869 67.5307C45.644 67.2769 45.8975 67.0166 46.1474 66.7498L45.0526 65.7244ZM42.8112 67.8483C42.2813 68.2917 41.7378 68.7082 41.1804 69.0978L42.0399 70.3272C42.6333 69.9124 43.2112 69.4695 43.7738 68.9987L42.8112 67.8483ZM39.4475 70.1977C38.8539 70.538 38.2459 70.851 37.6233 71.1368L38.249 72.5C38.9126 72.1954 39.5608 71.8617 40.1936 71.499L39.4475 70.1977ZM35.721 71.909C35.0807 72.1366 34.4259 72.3379 33.7565 72.513L34.1362 73.9642C34.8462 73.7784 35.542 73.5645 36.2233 73.3225L35.721 71.909ZM31.745 72.9525C31.0773 73.0707 30.3959 73.1649 29.7009 73.235L29.8513 74.7274C30.5825 74.6537 31.301 74.5545 32.0066 74.4295L31.745 72.9525ZM27.637 73.3707C27.2944 73.3816 26.9488 73.3871 26.6 73.3871V74.8871C26.9645 74.8871 27.3261 74.8814 27.6849 74.8699L27.637 73.3707ZM17.8582 56.2362C17.6576 56.0127 17.4663 55.7816 17.2841 55.5429L16.0917 56.4529C16.298 56.7232 16.5147 56.985 16.7418 57.238L17.8582 56.2362ZM16.3067 54.0295C16.0249 53.5094 15.7764 52.9591 15.5616 52.3783L14.1547 52.8984C14.3932 53.5435 14.6708 54.1589 14.9878 54.744L16.3067 54.0295ZM15.0388 50.6288C14.9033 50.0505 14.7956 49.4465 14.7162 48.8165L13.228 49.0041C13.3136 49.683 13.4302 50.3387 13.5783 50.971L15.0388 50.6288ZM14.5675 46.9689C14.5558 46.6636 14.55 46.353 14.55 46.0371H13.05C13.05 46.3714 13.0562 46.701 13.0685 47.026L14.5675 46.9689ZM14.55 46.0371V44.9621H13.05V46.0371H14.55ZM14.55 42.8121V40.6621H13.05V42.8121H14.55ZM14.55 38.5121V36.3621H13.05V38.5121H14.55ZM14.55 34.2121V32.0621H13.05V34.2121H14.55ZM14.55 29.9121V28.8371H13.05V29.9121H14.55ZM14.55 28.8371C14.55 28.5235 14.5557 28.2153 14.5672 27.9124L13.0683 27.8557C13.0561 28.1781 13.05 28.5052 13.05 28.8371H14.55ZM14.7141 26.0794C14.7927 25.4535 14.8994 24.8545 15.0336 24.2819L13.5732 23.9395C13.4262 24.5665 13.3106 25.2176 13.2258 25.8924L14.7141 26.0794ZM15.5535 22.5481C15.7677 21.9721 16.0157 21.4279 16.297 20.9152L14.9819 20.1937C14.6641 20.7731 14.3861 21.3838 14.1475 22.0253L15.5535 22.5481ZM17.2757 19.4246C17.4584 19.1902 17.6504 18.9637 17.8517 18.7452L16.7483 17.729C16.5192 17.9778 16.3006 18.2357 16.0926 18.5026L17.2757 19.4246ZM17.8582 18.738C18.0418 18.5334 18.2301 18.3378 18.4231 18.151L17.3799 17.0732C17.1611 17.2849 16.9485 17.5059 16.7418 17.7362L17.8582 18.738ZM19.6676 17.114C20.1081 16.8007 20.5699 16.524 21.0533 16.2837L20.3854 14.9405C19.8317 15.2158 19.3026 15.533 18.7982 15.8917L19.6676 17.114ZM22.5542 15.6762C23.0602 15.5143 23.5879 15.3854 24.1378 15.29L23.8812 13.8121C23.2663 13.9188 22.6715 14.0638 22.0972 14.2475L22.5542 15.6762ZM25.7719 15.1086C26.0432 15.0943 26.3192 15.0871 26.6 15.0871V13.5871C26.2937 13.5871 25.9913 13.5949 25.6931 13.6106L25.7719 15.1086ZM26.6 15.0871C26.8787 15.0871 27.1525 15.0942 27.4214 15.1082L27.4997 13.6103C27.204 13.5948 26.9041 13.5871 26.6 13.5871V15.0871ZM29.0419 15.2874C29.5879 15.3819 30.1108 15.5097 30.6111 15.6702L31.0692 14.2419C30.4999 14.0592 29.9093 13.9153 29.2979 13.8094L29.0419 15.2874ZM32.096 16.2746C32.5742 16.5145 33.0296 16.7908 33.4626 17.1037L34.3412 15.888C33.8429 15.5279 33.3186 15.2097 32.7686 14.9339L32.096 16.2746ZM34.6835 18.1417C34.8721 18.3288 35.0559 18.5249 35.2347 18.73L36.3653 17.7443C36.1632 17.5124 35.9547 17.2898 35.7398 17.0767L34.6835 18.1417ZM35.2483 18.7452C35.4496 18.9637 35.6416 19.1902 35.8243 19.4246L37.0074 18.5026C36.7994 18.2357 36.5808 17.9778 36.3517 17.729L35.2483 18.7452ZM36.803 20.9152C37.0843 21.4279 37.3323 21.9721 37.5465 22.5481L38.9525 22.0253C38.7139 21.3838 38.436 20.7731 38.1181 20.1937L36.803 20.9152ZM38.0664 24.2819C38.2006 24.8545 38.3073 25.4535 38.3859 26.0794L39.8742 25.8924C39.7894 25.2176 39.6738 24.5665 39.5268 23.9395L38.0664 24.2819ZM38.5328 27.9124C38.5443 28.2153 38.55 28.5235 38.55 28.8371H40.05C40.05 28.5052 40.0439 28.1781 40.0317 27.8557L38.5328 27.9124ZM38.55 28.8371V29.9121H40.05V28.8371H38.55ZM38.55 32.0621V34.2121H40.05V32.0621H38.55ZM38.55 36.3621V38.5121H40.05V36.3621H38.55ZM38.55 40.6621V42.8121H40.05V40.6621H38.55ZM38.55 44.9621V46.0371H40.05V44.9621H38.55ZM38.55 46.0371C38.55 46.353 38.5442 46.6636 38.5325 46.9689L40.0315 47.026C40.0438 46.701 40.05 46.3714 40.05 46.0371H38.55ZM38.3838 48.8165C38.3044 49.4465 38.1967 50.0505 38.0612 50.6288L39.5217 50.971C39.6698 50.3387 39.7864 49.683 39.872 49.0041L38.3838 48.8165ZM37.5384 52.3783C37.3236 52.9591 37.0751 53.5094 36.7933 54.0295L38.1122 54.744C38.4292 54.1589 38.7068 53.5435 38.9453 52.8984L37.5384 52.3783ZM35.8159 55.5429C35.6338 55.7816 35.4424 56.0127 35.2418 56.2362L36.3582 57.238C36.5853 56.985 36.802 56.7232 37.0084 56.4529L35.8159 55.5429ZM35.2347 56.2443C35.0559 56.4493 34.8721 56.6454 34.6835 56.8325L35.7398 57.8975C35.9547 57.6844 36.1632 57.4618 36.3653 57.23L35.2347 56.2443ZM33.4626 57.8705C33.0296 58.1834 32.5742 58.4597 32.0961 58.6996L32.7686 60.0404C33.3186 59.7645 33.8429 59.4463 34.3412 59.0862L33.4626 57.8705ZM30.6111 59.304C30.1108 59.4645 29.5879 59.5923 29.0419 59.6868L29.2979 61.1648C29.9093 61.059 30.4999 60.915 31.0692 60.7324L30.6111 59.304ZM27.4214 59.866C27.1525 59.88 26.8787 59.8871 26.6 59.8871V61.3871C26.9041 61.3871 27.204 61.3794 27.4997 61.3639L27.4214 59.866ZM26.6 59.8871C26.3192 59.8871 26.0432 59.8799 25.7719 59.8657L25.6931 61.3636C25.9913 61.3793 26.2937 61.3871 26.6 61.3871V59.8871ZM24.1378 59.6843C23.5879 59.5888 23.0602 59.4599 22.5542 59.298L22.0972 60.7267C22.6715 60.9104 23.2663 61.0554 23.8812 61.1622L24.1378 59.6843ZM21.0533 58.6905C20.5699 58.4502 20.1081 58.1735 19.6676 57.8602L18.7982 59.0825C19.3026 59.4412 19.8317 59.7584 20.3854 60.0337L21.0533 58.6905ZM18.4231 56.8232C18.2301 56.6364 18.0418 56.4408 17.8582 56.2362L16.7418 57.238C16.9485 57.4683 17.1611 57.6893 17.3799 57.901L18.4231 56.8232ZM7.5 66.2371L6.40526 67.2626L7.5 66.2371ZM7.5 8.73711L8.59474 9.76256V9.76256L7.5 8.73711ZM45.6 8.73711L44.5053 9.76256L45.6 8.73711ZM45.6 66.2371L46.6947 67.2626L45.6 66.2371ZM17.3 56.7371L16.1836 57.739V57.739L17.3 56.7371ZM35.8 56.7371L34.6836 55.7352C34.6788 55.7406 34.6741 55.746 34.6693 55.7514L35.8 56.7371ZM35.8 18.2371L34.6693 19.2228C34.6783 19.2331 34.6874 19.2433 34.6967 19.2533L35.8 18.2371ZM17.3 18.2371L18.4033 19.2533C18.4077 19.2486 18.412 19.2438 18.4164 19.239L17.3 18.2371ZM26.6 72.6371C26.2572 72.6371 25.9178 72.6318 25.5816 72.6212L25.487 75.6197C25.8552 75.6313 26.2262 75.6371 26.6 75.6371V72.6371ZM23.5582 72.4898C22.8774 72.422 22.211 72.3308 21.5588 72.2166L21.0412 75.1716C21.7685 75.299 22.5084 75.4001 23.2608 75.475L23.5582 72.4898ZM19.5952 71.7921C18.9422 71.623 18.3041 71.4286 17.681 71.2092L16.6845 74.0388C17.3894 74.2871 18.109 74.5062 18.8431 74.6963L19.5952 71.7921ZM15.8293 70.4637C15.2232 70.1876 14.6317 69.8852 14.0546 69.5564L12.5694 72.163C13.2253 72.5367 13.8975 72.8803 14.5858 73.1939L15.8293 70.4637ZM12.3684 68.492C11.8257 68.1144 11.2964 67.7104 10.7804 67.2798L8.85834 69.5832C9.44053 70.0691 10.0394 70.5262 10.6549 70.9545L12.3684 68.492ZM9.29683 65.9323C9.05973 65.6984 8.8257 65.4582 8.59474 65.2117L6.40526 67.2626C6.66294 67.5376 6.92457 67.8062 7.19018 68.0682L9.29683 65.9323ZM8.59474 65.2117C8.39582 64.9993 8.20126 64.7845 8.01104 64.5674L5.75443 66.5442C5.96676 66.7866 6.18371 67.026 6.40526 67.2626L8.59474 65.2117ZM6.91294 63.2243C6.56161 62.7631 6.22793 62.2917 5.91184 61.8102L3.40395 63.4566C3.75871 63.997 4.13291 64.5256 4.52647 65.0422L6.91294 63.2243ZM5.01337 60.3301C4.73197 59.8272 4.46797 59.3138 4.22135 58.7897L1.50689 60.0671C1.78333 60.6545 2.07949 61.2305 2.39539 61.795L5.01337 60.3301ZM3.53769 57.1958C3.32925 56.6599 3.1375 56.1133 2.96249 55.5559L0.100273 56.4546C0.294983 57.0747 0.508764 57.6843 0.741678 58.2832L3.53769 57.1958ZM2.49426 53.8781C2.357 53.3187 2.23541 52.7491 2.12957 52.169L-0.82171 52.7075C-0.705292 53.3455 -0.571188 53.9741 -0.419304 54.593L2.49426 53.8781ZM1.86417 50.4358C1.79259 49.862 1.73548 49.2786 1.69293 48.6854L-1.29938 48.9001C-1.25317 49.5443 -1.19099 50.18 -1.11276 50.8072L1.86417 50.4358ZM1.61009 46.9223C1.60337 46.6295 1.6 46.3344 1.6 46.0371H-1.4C-1.4 46.357 -1.39638 46.6751 -1.38912 46.9911L1.61009 46.9223ZM1.6 46.0371V44.9621H-1.4V46.0371H1.6ZM1.6 42.8121V40.6621H-1.4V42.8121H1.6ZM1.6 38.5121V36.3621H-1.4V38.5121H1.6ZM1.6 34.2121V32.0621H-1.4V34.2121H1.6ZM1.6 29.9121V28.8371H-1.4V29.9121H1.6ZM1.6 28.8371C1.6 28.4816 1.60489 28.1293 1.61467 27.7802L-1.38416 27.6963C-1.39473 28.0738 -1.4 28.4541 -1.4 28.8371H1.6ZM1.73562 25.6779C1.79803 24.9699 1.8819 24.2758 1.98705 23.5956L-0.977737 23.1373C-1.09317 23.884 -1.1848 24.6431 -1.25279 25.4145L1.73562 25.6779ZM2.37821 21.5434C2.53445 20.8583 2.71406 20.1882 2.91688 19.5328L0.0509901 18.6459C-0.174731 19.3752 -0.373907 20.1187 -0.54668 20.8763L2.37821 21.5434ZM3.60867 17.5762C3.86642 16.9313 4.14888 16.3014 4.45603 15.6865L1.77217 14.346C1.4276 15.0359 1.1112 15.7416 0.822913 16.4629L3.60867 17.5762ZM5.45757 13.8762C5.81591 13.2885 6.19947 12.7151 6.60835 12.156L4.18678 10.3851C3.72864 11.0116 3.29839 11.6547 2.89615 12.3144L5.45757 13.8762ZM7.89956 10.5347C8.12507 10.274 8.35678 10.0166 8.59474 9.76256L6.40526 7.71166C6.14046 7.99435 5.88224 8.28115 5.63061 8.57205L7.89956 10.5347ZM8.59474 9.76256C8.8257 9.51599 9.05973 9.2758 9.29683 9.04195L7.19017 6.90606C6.92457 7.16803 6.66294 7.43657 6.40526 7.71166L8.59474 9.76256ZM10.7804 7.69437C11.2964 7.26384 11.8257 6.85985 12.3684 6.48218L10.6549 4.01971C10.0394 4.44801 9.44053 4.90516 8.85834 5.39097L10.7804 7.69437ZM14.0546 5.4178C14.6317 5.089 15.2232 4.78658 15.8293 4.5105L14.5858 1.78036C13.8975 2.09387 13.2253 2.4375 12.5694 2.81123L14.0546 5.4178ZM17.681 3.76505C18.3041 3.54559 18.9422 3.35123 19.5952 3.18208L18.8431 0.277909C18.109 0.46803 17.3894 0.687135 16.6845 0.935366L17.681 3.76505ZM21.5588 2.7576C22.211 2.64338 22.8774 2.55225 23.5582 2.48443L23.2608 -0.500794C22.5084 -0.425839 21.7685 -0.324786 21.0412 -0.197422L21.5588 2.7576ZM25.5816 2.35302C25.9178 2.34242 26.2572 2.3371 26.6 2.3371V-0.662897C26.2262 -0.662897 25.8552 -0.657101 25.487 -0.645485L25.5816 2.35302ZM26.6 2.3371C26.9409 2.3371 27.2786 2.34246 27.613 2.35314L27.7088 -0.645333C27.3419 -0.65705 26.9723 -0.662897 26.6 -0.662897V2.3371ZM29.6257 2.48543C30.3026 2.55366 30.9654 2.64532 31.6143 2.76021L32.1373 -0.193835C31.4128 -0.322121 30.6758 -0.423921 29.9265 -0.499445L29.6257 2.48543ZM33.5667 3.18675C34.2157 3.35655 34.8501 3.55164 35.4699 3.77188L36.4744 0.945027C35.7726 0.695675 35.0564 0.475522 34.326 0.284435L33.5667 3.18675ZM37.3104 4.51906C37.9125 4.79543 38.5005 5.09812 39.0744 5.42718L40.5666 2.82462C39.9143 2.45058 39.246 2.10654 38.5619 1.79254L37.3104 4.51906ZM40.7507 6.49107C41.29 6.86811 41.8164 7.27137 42.3298 7.70104L44.2552 5.40037C43.6762 4.91586 43.081 4.45978 42.4696 4.03234L40.7507 6.49107ZM43.8061 9.04462C44.0421 9.27763 44.2752 9.51693 44.5053 9.76256L46.6947 7.71166C46.4383 7.43788 46.178 7.17057 45.9138 6.90978L43.8061 9.04462ZM44.5053 9.76256C44.7432 10.0166 44.9749 10.274 45.2004 10.5347L47.4694 8.57205C47.2178 8.28115 46.9595 7.99435 46.6947 7.71166L44.5053 9.76256ZM46.4917 12.156C46.9005 12.7151 47.2841 13.2885 47.6424 13.8762L50.2039 12.3145C49.8016 11.6547 49.3714 11.0116 48.9132 10.3851L46.4917 12.156ZM48.644 15.6865C48.9511 16.3014 49.2336 16.9313 49.4913 17.5762L52.2771 16.4629C51.9888 15.7416 51.6724 15.0359 51.3278 14.346L48.644 15.6865ZM50.1831 19.5328C50.3859 20.1882 50.5656 20.8583 50.7218 21.5434L53.6467 20.8763C53.4739 20.1187 53.2747 19.3752 53.049 18.6459L50.1831 19.5328ZM51.113 23.5956C51.2181 24.2758 51.302 24.9699 51.3644 25.6779L54.3528 25.4145C54.2848 24.6431 54.1932 23.884 54.0777 23.1373L51.113 23.5956ZM51.4853 27.7802C51.4951 28.1293 51.5 28.4816 51.5 28.8371H54.5C54.5 28.4541 54.4947 28.0738 54.4842 27.6963L51.4853 27.7802ZM51.5 28.8371V29.9121H54.5V28.8371H51.5ZM51.5 32.0621V34.2121H54.5V32.0621H51.5ZM51.5 36.3621V38.5121H54.5V36.3621H51.5ZM51.5 40.6621V42.8121H54.5V40.6621H51.5ZM51.5 44.9621V46.0371H54.5V44.9621H51.5ZM51.5 46.0371C51.5 46.3344 51.4966 46.6295 51.4899 46.9223L54.4891 46.9911C54.4964 46.6751 54.5 46.357 54.5 46.0371H51.5ZM51.4071 48.6854C51.3645 49.2786 51.3074 49.862 51.2358 50.4358L54.2128 50.8072C54.291 50.18 54.3532 49.5443 54.3994 48.9001L51.4071 48.6854ZM50.9704 52.169C50.8646 52.7491 50.743 53.3187 50.6057 53.8781L53.5193 54.593C53.6712 53.9741 53.8053 53.3455 53.9217 52.7075L50.9704 52.169ZM50.1375 55.5559C49.9625 56.1133 49.7708 56.6599 49.5623 57.1958L52.3583 58.2832C52.5912 57.6843 52.805 57.0747 52.9997 56.4546L50.1375 55.5559ZM48.8787 58.7897C48.632 59.3138 48.368 59.8272 48.0866 60.3301L50.7046 61.795C51.0205 61.2305 51.3167 60.6545 51.5931 60.0671L48.8787 58.7897ZM47.1882 61.8102C46.8721 62.2917 46.5384 62.7631 46.1871 63.2243L48.5735 65.0422C48.9671 64.5255 49.3413 63.997 49.6961 63.4566L47.1882 61.8102ZM45.089 64.5674C44.8987 64.7845 44.7042 64.9993 44.5053 65.2117L46.6947 67.2626C46.9163 67.026 47.1332 66.7866 47.3456 66.5442L45.089 64.5674ZM44.5053 65.2117C44.2752 65.4573 44.0421 65.6966 43.8061 65.9296L45.9138 68.0644C46.178 67.8036 46.4383 67.5363 46.6947 67.2626L44.5053 65.2117ZM42.3298 67.2732C41.8164 67.7029 41.29 68.1061 40.7507 68.4831L42.4696 70.9419C43.081 70.5144 43.6762 70.0584 44.2552 69.5738L42.3298 67.2732ZM39.0744 69.547C38.5005 69.8761 37.9125 70.1788 37.3104 70.4552L38.5619 73.1817C39.246 72.8677 39.9143 72.5236 40.5666 72.1496L39.0744 69.547ZM35.4699 71.2023C34.8501 71.4226 34.2157 71.6177 33.5667 71.7875L34.326 74.6898C35.0564 74.4987 35.7726 74.2785 36.4744 74.0292L35.4699 71.2023ZM31.6143 72.214C30.9654 72.3289 30.3026 72.4206 29.6257 72.4888L29.9265 75.4737C30.6758 75.3981 31.4128 75.2963 32.1373 75.168L31.6143 72.214ZM27.613 72.6211C27.2786 72.6318 26.9409 72.6371 26.6 72.6371V75.6371C26.9723 75.6371 27.3419 75.6313 27.7088 75.6195L27.613 72.6211ZM18.4164 55.7352C18.2291 55.5266 18.0504 55.3108 17.8803 55.0879L15.4954 56.9079C15.7138 57.194 15.9432 57.4711 16.1836 57.739L18.4164 55.7352ZM16.9661 53.6722C16.7019 53.1846 16.468 52.667 16.2651 52.1182L13.4513 53.1585C13.7016 53.8356 13.9937 54.4836 14.3284 55.1013L16.9661 53.6722ZM15.769 50.4577C15.6399 49.9064 15.5367 49.3283 15.4603 48.7227L12.4839 49.0979C12.5725 49.8012 12.6937 50.4828 12.8481 51.142L15.769 50.4577ZM15.3169 46.9404C15.3057 46.6448 15.3 46.3437 15.3 46.0371H12.3C12.3 46.3806 12.3063 46.7198 12.3191 47.0545L15.3169 46.9404ZM15.3 46.0371V44.9621H12.3V46.0371H15.3ZM15.3 42.8121V40.6621H12.3V42.8121H15.3ZM15.3 38.5121V36.3621H12.3V38.5121H15.3ZM15.3 34.2121V32.0621H12.3V34.2121H15.3ZM15.3 29.9121V28.8371H12.3V29.9121H15.3ZM15.3 28.8371C15.3 28.5327 15.3056 28.2339 15.3167 27.9408L12.3188 27.8274C12.3062 28.1595 12.3 28.4961 12.3 28.8371H15.3ZM15.4583 26.1729C15.5338 25.5715 15.636 24.9985 15.7638 24.4531L12.843 23.7683C12.6897 24.4225 12.5695 25.0996 12.4817 25.7989L15.4583 26.1729ZM16.2564 22.8095C16.4585 22.2662 16.6915 21.7554 16.9545 21.2759L14.3243 19.833C13.9882 20.4456 13.6953 21.0897 13.4446 21.7639L16.2564 22.8095ZM17.8673 19.8857C18.0373 19.6675 18.216 19.4567 18.4033 19.2533L16.1967 17.2209C15.9536 17.4848 15.7217 17.7584 15.501 18.0415L17.8673 19.8857ZM18.4164 19.239C18.5885 19.0472 18.7646 18.8642 18.9447 18.6899L16.8583 16.5343C16.6266 16.7584 16.4018 16.9922 16.1836 17.2352L18.4164 19.239ZM20.1023 17.7252C20.5109 17.4346 20.939 17.1781 21.3872 16.9553L20.0515 14.269C19.4627 14.5618 18.8998 14.8991 18.3635 15.2805L20.1023 17.7252ZM22.7828 16.3905C23.2546 16.2396 23.7487 16.1187 24.2661 16.0289L23.7529 13.0731C23.1055 13.1855 22.4771 13.3385 21.8687 13.5332L22.7828 16.3905ZM25.8114 15.8575C26.0691 15.844 26.3319 15.8371 26.6 15.8371V12.8371C26.2809 12.8371 25.9654 12.8453 25.6537 12.8617L25.8114 15.8575ZM26.6 15.8371C26.8661 15.8371 27.1268 15.8439 27.3822 15.8572L27.5389 12.8613C27.2297 12.8451 26.9167 12.8371 26.6 12.8371V15.8371ZM28.9139 16.0264C29.4273 16.1153 29.9163 16.235 30.3821 16.3843L31.2983 13.5277C30.6944 13.334 30.0699 13.1819 29.4259 13.0704L28.9139 16.0264ZM31.7598 16.945C32.202 17.1668 32.6229 17.4222 33.0232 17.7116L34.7806 15.2802C34.2496 14.8964 33.6908 14.5574 33.1048 14.2635L31.7598 16.945ZM34.1553 18.6742C34.3309 18.8483 34.5022 19.0311 34.6693 19.2228L36.9307 17.2514C36.7168 17.0061 36.496 16.7704 36.268 16.5442L34.1553 18.6742ZM34.6967 19.2533C34.884 19.4567 35.0627 19.6675 35.2327 19.8857L37.599 18.0415C37.3783 17.7584 37.1464 17.4848 36.9033 17.2209L34.6967 19.2533ZM36.1455 21.2759C36.4085 21.7554 36.6415 22.2662 36.8436 22.8095L39.6554 21.7639C39.4047 21.0897 39.1118 20.4456 38.7757 19.833L36.1455 21.2759ZM37.3362 24.4531C37.464 24.9985 37.5662 25.5715 37.6417 26.1729L40.6183 25.7989C40.5305 25.0996 40.4103 24.4225 40.257 23.7683L37.3362 24.4531ZM37.7833 27.9408C37.7944 28.2339 37.8 28.5327 37.8 28.8371H40.8C40.8 28.4961 40.7938 28.1595 40.7812 27.8274L37.7833 27.9408ZM37.8 28.8371V29.9121H40.8V28.8371H37.8ZM37.8 32.0621V34.2121H40.8V32.0621H37.8ZM37.8 36.3621V38.5121H40.8V36.3621H37.8ZM37.8 40.6621V42.8121H40.8V40.6621H37.8ZM37.8 44.9621V46.0371H40.8V44.9621H37.8ZM37.8 46.0371C37.8 46.3437 37.7943 46.6448 37.7831 46.9404L40.7809 47.0545C40.7937 46.7198 40.8 46.3806 40.8 46.0371H37.8ZM37.6397 48.7227C37.5633 49.3283 37.4601 49.9064 37.331 50.4577L40.2519 51.142C40.4063 50.4828 40.5275 49.8012 40.6161 49.0979L37.6397 48.7227ZM36.8349 52.1182C36.632 52.667 36.3981 53.1846 36.1339 53.6722L38.7716 55.1013C39.1063 54.4836 39.3984 53.8356 39.6487 53.1585L36.8349 52.1182ZM35.2197 55.0879C35.0496 55.3108 34.8709 55.5266 34.6836 55.7352L36.9164 57.739C37.1568 57.4711 37.3862 57.194 37.6046 56.9079L35.2197 55.0879ZM34.6693 55.7514C34.5022 55.9431 34.3309 56.1259 34.1553 56.3L36.268 58.43C36.496 58.2039 36.7168 57.9681 36.9307 57.7228L34.6693 55.7514ZM33.0232 57.2626C32.6229 57.552 32.202 57.8074 31.7598 58.0292L33.1048 60.7108C33.6908 60.4168 34.2496 60.0778 34.7806 59.694L33.0232 57.2626ZM30.3821 58.5899C29.9163 58.7392 29.4273 58.8589 28.9139 58.9478L29.4259 61.9038C30.0699 61.7923 30.6944 61.6402 31.2983 61.4465L30.3821 58.5899ZM27.3822 59.117C27.1268 59.1304 26.8661 59.1371 26.6 59.1371V62.1371C26.9167 62.1371 27.2297 62.1291 27.5389 62.1129L27.3822 59.117ZM26.6 59.1371C26.3319 59.1371 26.0691 59.1303 25.8114 59.1167L25.6537 62.1126C25.9654 62.129 26.2809 62.1371 26.6 62.1371V59.1371ZM24.2661 58.9453C23.7487 58.8555 23.2546 58.7346 22.7828 58.5837L21.8687 61.4411C22.4771 61.6357 23.1055 61.7887 23.7529 61.9011L24.2661 58.9453ZM21.3872 58.019C20.939 57.7961 20.5109 57.5396 20.1023 57.249L18.3635 59.6937C18.8998 60.0751 19.4627 60.4125 20.0515 60.7052L21.3872 58.019ZM18.9447 56.2843C18.7646 56.11 18.5885 55.927 18.4164 55.7352L16.1836 57.739C16.4018 57.9821 16.6266 58.2158 16.8583 58.4399L18.9447 56.2843ZM95.1859 73.0371H94.4359C94.4359 73.4513 94.7717 73.7871 95.1859 73.7871V73.0371ZM95.1859 56.8371H95.9359C95.9359 56.4229 95.6002 56.0871 95.1859 56.0871V56.8371ZM59.8859 56.8371H59.1359C59.1359 57.2513 59.4717 57.5871 59.8859 57.5871V56.8371ZM59.8859 45.7371L59.3123 45.254C59.1984 45.3892 59.1359 45.5603 59.1359 45.7371H59.8859ZM96.6859 2.03711V1.28711C96.4647 1.28711 96.2548 1.38478 96.1123 1.554L96.6859 2.03711ZM108.886 2.03711H109.636C109.636 1.62289 109.3 1.28711 108.886 1.28711V2.03711ZM108.886 44.2371H108.136C108.136 44.6513 108.472 44.9871 108.886 44.9871V44.2371ZM118.186 44.2371H118.936C118.936 43.8229 118.6 43.4871 118.186 43.4871V44.2371ZM118.186 56.8371V57.5871C118.6 57.5871 118.936 57.2513 118.936 56.8371H118.186ZM108.886 56.8371V56.0871C108.472 56.0871 108.136 56.4229 108.136 56.8371H108.886ZM108.886 73.0371V73.7871C109.3 73.7871 109.636 73.4513 109.636 73.0371H108.886ZM76.6859 44.2371L76.113 43.7531C75.9246 43.9761 75.8828 44.2882 76.0057 44.5529C76.1286 44.8177 76.394 44.9871 76.6859 44.9871V44.2371ZM95.1859 44.2371V44.9871C95.6002 44.9871 95.9359 44.6513 95.9359 44.2371H95.1859ZM95.1859 22.3371H95.9359C95.9359 22.0223 95.7393 21.7409 95.4436 21.6328C95.1479 21.5246 94.8162 21.6126 94.613 21.8531L95.1859 22.3371ZM95.9359 73.0371V72.0246H94.4359V73.0371H95.9359ZM95.9359 69.9996V67.9746H94.4359V69.9996H95.9359ZM95.9359 65.9496V63.9246H94.4359V65.9496H95.9359ZM95.9359 61.8996V59.8746H94.4359V61.8996H95.9359ZM95.9359 57.8496V56.8371H94.4359V57.8496H95.9359ZM95.1859 56.0871H94.2054V57.5871H95.1859V56.0871ZM92.2443 56.0871H90.2832V57.5871H92.2443V56.0871ZM88.3221 56.0871H86.3609V57.5871H88.3221V56.0871ZM84.3998 56.0871H82.4387V57.5871H84.3998V56.0871ZM80.4776 56.0871H78.5165V57.5871H80.4776V56.0871ZM76.5554 56.0871H74.5943V57.5871H76.5554V56.0871ZM72.6332 56.0871H70.6721V57.5871H72.6332V56.0871ZM68.7109 56.0871H66.7498V57.5871H68.7109V56.0871ZM64.7887 56.0871H62.8276V57.5871H64.7887V56.0871ZM60.8665 56.0871H59.8859V57.5871H60.8665V56.0871ZM60.6359 56.8371V55.9121H59.1359V56.8371H60.6359ZM60.6359 54.0621V52.2121H59.1359V54.0621H60.6359ZM60.6359 50.3621V48.5121H59.1359V50.3621H60.6359ZM60.6359 46.6621V45.7371H59.1359V46.6621H60.6359ZM60.4596 46.2202L61.1168 45.4399L59.9694 44.4737L59.3123 45.254L60.4596 46.2202ZM62.4311 43.8791L63.7453 42.3184L62.598 41.3522L61.2837 42.9129L62.4311 43.8791ZM65.0596 40.7577L66.3739 39.197L65.2265 38.2308L63.9123 39.7915L65.0596 40.7577ZM67.6882 37.6363L69.0025 36.0756L67.8551 35.1094L66.5408 36.6701L67.6882 37.6363ZM70.3168 34.5149L71.6311 32.9541L70.4837 31.9879L69.1694 33.5486L70.3168 34.5149ZM72.9453 31.3934L74.2596 29.8327L73.1123 28.8665L71.798 30.4272L72.9453 31.3934ZM75.5739 28.272L76.8882 26.7113L75.7408 25.7451L74.4265 27.3058L75.5739 28.272ZM78.2025 25.1506L79.5168 23.5899L78.3694 22.6236L77.0551 24.1844L78.2025 25.1506ZM80.831 22.0291L82.1453 20.4684L80.998 19.5022L79.6837 21.0629L80.831 22.0291ZM83.4596 18.9077L84.7739 17.347L83.6265 16.3808L82.3123 17.9415L83.4596 18.9077ZM86.0882 15.7863L87.4025 14.2256L86.2551 13.2594L84.9408 14.8201L86.0882 15.7863ZM88.7168 12.6649L90.0311 11.1041L88.8837 10.1379L87.5694 11.6986L88.7168 12.6649ZM91.3453 9.54342L92.6596 7.98271L91.5123 7.0165L90.198 8.57722L91.3453 9.54342ZM93.9739 6.42199L95.2882 4.86128L94.1408 3.89508L92.8265 5.45579L93.9739 6.42199ZM96.6025 3.30057L97.2596 2.52021L96.1123 1.554L95.4551 2.33436L96.6025 3.30057ZM96.6859 2.78711H97.7026V1.28711H96.6859V2.78711ZM99.7359 2.78711H101.769V1.28711H99.7359V2.78711ZM103.803 2.78711H105.836V1.28711H103.803V2.78711ZM107.869 2.78711H108.886V1.28711H107.869V2.78711ZM108.136 2.03711V2.9962H109.636V2.03711H108.136ZM108.136 4.91438V6.83256H109.636V4.91438H108.136ZM108.136 8.75074V10.6689H109.636V8.75074H108.136ZM108.136 12.5871V14.5053H109.636V12.5871H108.136ZM108.136 16.4235V18.3417H109.636V16.4235H108.136ZM108.136 20.2598V22.178H109.636V20.2598H108.136ZM108.136 24.0962V26.0144H109.636V24.0962H108.136ZM108.136 27.9326V29.8507H109.636V27.9326H108.136ZM108.136 31.7689V33.6871H109.636V31.7689H108.136ZM108.136 35.6053V37.5235H109.636V35.6053H108.136ZM108.136 39.4417V41.3598H109.636V39.4417H108.136ZM108.136 43.278V44.2371H109.636V43.278H108.136ZM108.886 44.9871H110.048V43.4871H108.886V44.9871ZM112.373 44.9871H114.698V43.4871H112.373V44.9871ZM117.023 44.9871H118.186V43.4871H117.023V44.9871ZM117.436 44.2371V45.2871H118.936V44.2371H117.436ZM117.436 47.3871V49.4871H118.936V47.3871H117.436ZM117.436 51.5871V53.6871H118.936V51.5871H117.436ZM117.436 55.7871V56.8371H118.936V55.7871H117.436ZM118.186 56.0871H117.023V57.5871H118.186V56.0871ZM114.698 56.0871H112.373V57.5871H114.698V56.0871ZM110.048 56.0871H108.886V57.5871H110.048V56.0871ZM108.136 56.8371V57.8496H109.636V56.8371H108.136ZM108.136 59.8746V61.8996H109.636V59.8746H108.136ZM108.136 63.9246V65.9496H109.636V63.9246H108.136ZM108.136 67.9746V69.9996H109.636V67.9746H108.136ZM108.136 72.0246V73.0371H109.636V72.0246H108.136ZM108.886 72.2871H107.744V73.7871H108.886V72.2871ZM105.461 72.2871H103.178V73.7871H105.461V72.2871ZM100.894 72.2871H98.6109V73.7871H100.894V72.2871ZM96.3276 72.2871H95.1859V73.7871H96.3276V72.2871ZM77.2589 44.7211L77.9196 43.939L76.7737 42.971L76.113 43.7531L77.2589 44.7211ZM79.241 42.3747L80.5624 40.8104L79.4166 39.8424L78.0951 41.4067L79.241 42.3747ZM81.8839 39.2461L83.2053 37.6818L82.0594 36.7138L80.738 38.2781L81.8839 39.2461ZM84.5267 36.1175L85.8482 34.5532L84.7023 33.5853L83.3809 35.1495L84.5267 36.1175ZM87.1696 32.989L88.491 31.4247L87.3451 30.4567L86.0237 32.021L87.1696 32.989ZM89.8124 29.8604L91.1339 28.2961L89.988 27.3281L88.6666 28.8924L89.8124 29.8604ZM92.4553 26.7318L93.7767 25.1675L92.6309 24.1995L91.3094 25.7638L92.4553 26.7318ZM95.0982 23.6032L95.7589 22.8211L94.613 21.8531L93.9523 22.6353L95.0982 23.6032ZM94.4359 22.3371V23.4321H95.9359V22.3371H94.4359ZM94.4359 25.6221V27.8121H95.9359V25.6221H94.4359ZM94.4359 30.0021V32.1921H95.9359V30.0021H94.4359ZM94.4359 34.3821V36.5721H95.9359V34.3821H94.4359ZM94.4359 38.7621V40.9521H95.9359V38.7621H94.4359ZM94.4359 43.1421V44.2371H95.9359V43.1421H94.4359ZM95.1859 43.4871H94.2609V44.9871H95.1859V43.4871ZM92.4109 43.4871H90.5609V44.9871H92.4109V43.4871ZM88.7109 43.4871H86.8609V44.9871H88.7109V43.4871ZM85.0109 43.4871H83.1609V44.9871H85.0109V43.4871ZM81.3109 43.4871H79.4609V44.9871H81.3109V43.4871ZM77.6109 43.4871H76.6859V44.9871H77.6109V43.4871ZM95.1859 73.0371H93.6859C93.6859 73.8655 94.3575 74.5371 95.1859 74.5371V73.0371ZM95.1859 56.8371H96.6859C96.6859 56.0087 96.0144 55.3371 95.1859 55.3371V56.8371ZM59.8859 56.8371H58.3859C58.3859 57.6655 59.0575 58.3371 59.8859 58.3371V56.8371ZM59.8859 45.7371L58.7386 44.7709C58.5108 45.0413 58.3859 45.3835 58.3859 45.7371H59.8859ZM96.6859 2.03711V0.537106C96.2435 0.537106 95.8236 0.732455 95.5386 1.0709L96.6859 2.03711ZM108.886 2.03711H110.386C110.386 1.20868 109.714 0.537106 108.886 0.537106V2.03711ZM108.886 44.2371H107.386C107.386 45.0655 108.058 45.7371 108.886 45.7371V44.2371ZM118.186 44.2371H119.686C119.686 43.4087 119.014 42.7371 118.186 42.7371V44.2371ZM118.186 56.8371V58.3371C119.014 58.3371 119.686 57.6655 119.686 56.8371H118.186ZM108.886 56.8371V55.3371C108.058 55.3371 107.386 56.0087 107.386 56.8371H108.886ZM108.886 73.0371V74.5371C109.714 74.5371 110.386 73.8655 110.386 73.0371H108.886ZM76.6859 44.2371L75.5401 43.2691C75.1633 43.7151 75.0796 44.3392 75.3254 44.8688C75.5713 45.3983 76.1021 45.7371 76.6859 45.7371V44.2371ZM95.1859 44.2371V45.7371C96.0144 45.7371 96.6859 45.0655 96.6859 44.2371H95.1859ZM95.1859 22.3371H96.6859C96.6859 21.7074 96.2927 21.1448 95.7013 20.9284C95.1099 20.7121 94.4464 20.8881 94.0401 21.3691L95.1859 22.3371ZM96.6859 73.0371V72.0246H93.6859V73.0371H96.6859ZM96.6859 69.9996V67.9746H93.6859V69.9996H96.6859ZM96.6859 65.9496V63.9246H93.6859V65.9496H96.6859ZM96.6859 61.8996V59.8746H93.6859V61.8996H96.6859ZM96.6859 57.8496V56.8371H93.6859V57.8496H96.6859ZM95.1859 55.3371H94.2054V58.3371H95.1859V55.3371ZM92.2443 55.3371H90.2832V58.3371H92.2443V55.3371ZM88.3221 55.3371H86.3609V58.3371H88.3221V55.3371ZM84.3998 55.3371H82.4387V58.3371H84.3998V55.3371ZM80.4776 55.3371H78.5165V58.3371H80.4776V55.3371ZM76.5554 55.3371H74.5943V58.3371H76.5554V55.3371ZM72.6332 55.3371H70.6721V58.3371H72.6332V55.3371ZM68.7109 55.3371H66.7498V58.3371H68.7109V55.3371ZM64.7887 55.3371H62.8276V58.3371H64.7887V55.3371ZM60.8665 55.3371H59.8859V58.3371H60.8665V55.3371ZM61.3859 56.8371V55.9121H58.3859V56.8371H61.3859ZM61.3859 54.0621V52.2121H58.3859V54.0621H61.3859ZM61.3859 50.3621V48.5121H58.3859V50.3621H61.3859ZM61.3859 46.6621V45.7371H58.3859V46.6621H61.3859ZM61.0333 46.7033L61.6904 45.923L59.3957 43.9905L58.7386 44.7709L61.0333 46.7033ZM63.0047 44.3622L64.319 42.8015L62.0243 40.8691L60.71 42.4298L63.0047 44.3622ZM65.6333 41.2408L66.9476 39.6801L64.6529 37.7477L63.3386 39.3084L65.6333 41.2408ZM68.2619 38.1194L69.5762 36.5587L67.2814 34.6263L65.9671 36.187L68.2619 38.1194ZM70.8904 34.998L72.2047 33.4372L69.91 31.5048L68.5957 33.0655L70.8904 34.998ZM73.519 31.8765L74.8333 30.3158L72.5386 28.3834L71.2243 29.9441L73.519 31.8765ZM76.1476 28.7551L77.4619 27.1944L75.1671 25.262L73.8529 26.8227L76.1476 28.7551ZM78.7762 25.6337L80.0904 24.073L77.7957 22.1405L76.4814 23.7013L78.7762 25.6337ZM81.4047 22.5122L82.719 20.9515L80.4243 19.0191L79.11 20.5798L81.4047 22.5122ZM84.0333 19.3908L85.3476 17.8301L83.0529 15.8977L81.7386 17.4584L84.0333 19.3908ZM86.6619 16.2694L87.9762 14.7087L85.6814 12.7763L84.3671 14.337L86.6619 16.2694ZM89.2905 13.148L90.6047 11.5872L88.31 9.65483L86.9957 11.2155L89.2905 13.148ZM91.919 10.0265L93.2333 8.46581L90.9386 6.5334L89.6243 8.09412L91.919 10.0265ZM94.5476 6.9051L95.8619 5.34438L93.5671 3.41198L92.2529 4.97269L94.5476 6.9051ZM97.1762 3.78367L97.8333 3.00331L95.5386 1.0709L94.8814 1.85126L97.1762 3.78367ZM96.6859 3.53711H97.7026V0.537106H96.6859V3.53711ZM99.7359 3.53711H101.769V0.537106H99.7359V3.53711ZM103.803 3.53711H105.836V0.537106H103.803V3.53711ZM107.869 3.53711H108.886V0.537106H107.869V3.53711ZM107.386 2.03711V2.9962H110.386V2.03711H107.386ZM107.386 4.91438V6.83256H110.386V4.91438H107.386ZM107.386 8.75074V10.6689H110.386V8.75074H107.386ZM107.386 12.5871V14.5053H110.386V12.5871H107.386ZM107.386 16.4235V18.3417H110.386V16.4235H107.386ZM107.386 20.2598V22.178H110.386V20.2598H107.386ZM107.386 24.0962V26.0144H110.386V24.0962H107.386ZM107.386 27.9326V29.8507H110.386V27.9326H107.386ZM107.386 31.7689V33.6871H110.386V31.7689H107.386ZM107.386 35.6053V37.5235H110.386V35.6053H107.386ZM107.386 39.4417V41.3598H110.386V39.4417H107.386ZM107.386 43.278V44.2371H110.386V43.278H107.386ZM108.886 45.7371H110.048V42.7371H108.886V45.7371ZM112.373 45.7371H114.698V42.7371H112.373V45.7371ZM117.023 45.7371H118.186V42.7371H117.023V45.7371ZM116.686 44.2371V45.2871H119.686V44.2371H116.686ZM116.686 47.3871V49.4871H119.686V47.3871H116.686ZM116.686 51.5871V53.6871H119.686V51.5871H116.686ZM116.686 55.7871V56.8371H119.686V55.7871H116.686ZM118.186 55.3371H117.023V58.3371H118.186V55.3371ZM114.698 55.3371H112.373V58.3371H114.698V55.3371ZM110.048 55.3371H108.886V58.3371H110.048V55.3371ZM107.386 56.8371V57.8496H110.386V56.8371H107.386ZM107.386 59.8746V61.8996H110.386V59.8746H107.386ZM107.386 63.9246V65.9496H110.386V63.9246H107.386ZM107.386 67.9746V69.9996H110.386V67.9746H107.386ZM107.386 72.0246V73.0371H110.386V72.0246H107.386ZM108.886 71.5371H107.744V74.5371H108.886V71.5371ZM105.461 71.5371H103.178V74.5371H105.461V71.5371ZM100.894 71.5371H98.6109V74.5371H100.894V71.5371ZM96.3276 71.5371H95.1859V74.5371H96.3276V71.5371ZM77.8318 45.2051L78.4925 44.4229L76.2008 42.487L75.5401 43.2691L77.8318 45.2051ZM79.814 42.8587L81.1354 41.2944L78.8436 39.3584L77.5222 40.9227L79.814 42.8587ZM82.4568 39.7301L83.7782 38.1658L81.4865 36.2298L80.1651 37.7941L82.4568 39.7301ZM85.0997 36.6015L86.4211 35.0372L84.1293 33.1013L82.8079 34.6656L85.0997 36.6015ZM87.7425 33.4729L89.064 31.9087L86.7722 29.9727L85.4508 31.537L87.7425 33.4729ZM90.3854 30.3444L91.7068 28.7801L89.4151 26.8441L88.0936 28.4084L90.3854 30.3444ZM93.0282 27.2158L94.3497 25.6515L92.0579 23.7156L90.7365 25.2798L93.0282 27.2158ZM95.6711 24.0872L96.3318 23.3051L94.0401 21.3691L93.3794 22.1513L95.6711 24.0872ZM93.6859 22.3371V23.4321H96.6859V22.3371H93.6859ZM93.6859 25.6221V27.8121H96.6859V25.6221H93.6859ZM93.6859 30.0021V32.1921H96.6859V30.0021H93.6859ZM93.6859 34.3821V36.5721H96.6859V34.3821H93.6859ZM93.6859 38.7621V40.9521H96.6859V38.7621H93.6859ZM93.6859 43.1421V44.2371H96.6859V43.1421H93.6859ZM95.1859 42.7371H94.2609V45.7371H95.1859V42.7371ZM92.4109 42.7371H90.5609V45.7371H92.4109V42.7371ZM88.7109 42.7371H86.8609V45.7371H88.7109V42.7371ZM85.0109 42.7371H83.1609V45.7371H85.0109V42.7371ZM81.3109 42.7371H79.4609V45.7371H81.3109V42.7371ZM77.6109 42.7371H76.6859V45.7371H77.6109V42.7371Z" fill="url(#paint0_linear_790_28169)"/>
<defs>
<linearGradient id="paint0_linear_790_28169" x1="63.2894" y1="35.544" x2="9.94067" y2="-4.85061" gradientUnits="userSpaceOnUse">
<stop stop-color="#3D7800"/>
<stop offset="1" stop-color="#7FBB42"/>
</linearGradient>
</defs>
</svg>
