<svg width="57" height="58" viewBox="0 0 57 58" fill="none" xmlns="http://www.w3.org/2000/svg">
<circle cx="28.5" cy="29.2402" r="28.5" fill="url(#paint0_linear_688_24313)"/>
<circle cx="28.5" cy="29.2402" r="28.5" fill="url(#paint1_linear_688_24313)"/>
<circle cx="28.5" cy="29.2402" r="28.5" fill="url(#paint2_linear_688_24313)"/>
<circle cx="28.5" cy="29.2402" r="28.5" fill="url(#paint3_linear_688_24313)"/>
<circle cx="28.5" cy="29.2402" r="28.5" fill="url(#paint4_linear_688_24313)"/>
<g clip-path="url(#clip0_688_24313)">
<path d="M29 17.2402C22.0963 17.2402 16.5 22.8365 16.5 29.7402C16.5 35.979 21.0713 41.1502 27.0475 42.089V33.3527H23.8725V29.7402H27.0475V26.9865C27.0475 23.854 28.9125 22.124 31.7688 22.124C33.1363 22.124 34.5663 22.3677 34.5663 22.3677V25.4427H32.9913C31.4375 25.4427 30.9538 26.4065 30.9538 27.3952V29.7402H34.42L33.8663 33.3527H30.9538V42.089C36.9288 41.1515 41.5 35.9777 41.5 29.7402C41.5 22.8365 35.9038 17.2402 29 17.2402Z" fill="white"/>
</g>
<defs>
<linearGradient id="paint0_linear_688_24313" x1="5.5" y1="5.74023" x2="42.5" y2="52.2402" gradientUnits="userSpaceOnUse">
<stop stop-color="#0258FF"/>
<stop offset="1" stop-color="#28A2F2"/>
</linearGradient>
<linearGradient id="paint1_linear_688_24313" x1="5.5" y1="5.74023" x2="42.5" y2="52.2402" gradientUnits="userSpaceOnUse">
<stop stop-color="#0258FF"/>
<stop offset="1" stop-color="#28A2F2"/>
</linearGradient>
<linearGradient id="paint2_linear_688_24313" x1="5.5" y1="5.74023" x2="42.5" y2="52.2402" gradientUnits="userSpaceOnUse">
<stop stop-color="#0258FF"/>
<stop offset="1" stop-color="#28A2F2"/>
</linearGradient>
<linearGradient id="paint3_linear_688_24313" x1="5.5" y1="5.74023" x2="42.5" y2="52.2402" gradientUnits="userSpaceOnUse">
<stop stop-color="#0258FF"/>
<stop offset="1" stop-color="#28A2F2"/>
</linearGradient>
<linearGradient id="paint4_linear_688_24313" x1="5.5" y1="5.74023" x2="42.5" y2="52.2402" gradientUnits="userSpaceOnUse">
<stop stop-color="#0258FF"/>
<stop offset="1" stop-color="#28A2F2"/>
</linearGradient>
<clipPath id="clip0_688_24313">
<rect width="30" height="30" fill="white" transform="translate(14 14.7402)"/>
</clipPath>
</defs>
</svg>
