<svg width="317" height="72" viewBox="0 0 317 72" fill="none" xmlns="http://www.w3.org/2000/svg">
<path d="M98.1672 35.0411V34.67L100.058 33.7397V20.971L98.1672 20.0406V19.6696H104.621V20.0406L102.502 20.971V33.7625H108.026L109.682 29.7555H110.053V35.0411H98.1672ZM85.1102 28.3799H89.6796L87.3949 22.7633L85.1102 28.3799ZM79.7983 35.0411V34.67L81.2662 33.8995L87.2578 19.5497H88.5372L94.4603 33.831L96.0196 34.67V35.0411H89.868V34.67L91.9186 33.8538L90.1936 29.6585H84.5733L82.8712 33.8766L84.8303 34.67V35.0411H79.7926M61.4294 35.0411V34.67L63.32 33.7397V20.971L61.4294 20.0406V19.6696H67.6095V20.0406L65.7703 20.971V26.4677H73.3441V20.971L71.4821 20.0406V19.6696H77.6621V20.0406L75.7715 20.971V33.7397L77.6621 34.67V35.0411H71.4821V34.67L73.3441 33.7397V27.752H65.7703V33.7397L67.6095 34.67V35.0411H61.4294ZM53.5758 35.2751C52.5991 35.2751 51.7595 35.1838 51.0684 34.9954C50.3773 34.807 49.6633 34.5388 48.9379 34.1792L48.7037 30.3377H49.075L50.3087 32.8778C50.8514 33.3287 51.3883 33.654 51.9194 33.8538C52.4506 34.0536 52.9761 34.1563 53.5073 34.1563C54.4098 34.1563 55.118 33.9223 55.6378 33.46C56.1575 32.9919 56.4203 32.3583 56.4203 31.5478C56.4203 30.9085 56.2775 30.4005 55.9862 30.0238C55.7006 29.6413 55.2722 29.2989 54.7068 28.9964C54.1413 28.6938 53.4445 28.3399 52.622 27.9347C51.5196 27.4038 50.6743 26.8502 50.0803 26.268C49.492 25.6857 49.195 24.8638 49.195 23.8078C49.195 23.2485 49.332 22.7119 49.6005 22.1868C49.8746 21.6674 50.2402 21.1993 50.7086 20.7883C51.1769 20.3774 51.6967 20.0463 52.2679 19.8009C52.8447 19.5497 53.4388 19.4298 54.0613 19.4298C54.7924 19.4298 55.4778 19.5155 56.1118 19.6867C56.7516 19.8579 57.3798 20.1034 58.0024 20.4344L58.2366 24.1617H57.8653L56.6545 21.6674C56.1575 21.2792 55.7063 20.9995 55.3008 20.8283C54.8952 20.657 54.4383 20.5714 53.9243 20.5714C53.256 20.5714 52.702 20.794 52.2564 21.245C51.8109 21.6959 51.5939 22.261 51.5939 22.9459C51.5939 23.7051 51.8281 24.3044 52.3021 24.7382C52.7762 25.172 53.5416 25.6401 54.5982 26.1367C55.5292 26.5876 56.306 27.0157 56.9172 27.4324C57.5283 27.8433 57.9853 28.3057 58.2823 28.8194C58.5793 29.3331 58.7278 29.9838 58.7278 30.7772C58.7278 31.5078 58.5736 32.1528 58.2594 32.7122C57.951 33.2716 57.534 33.7397 57.0257 34.1221C56.5117 34.5045 55.9576 34.7899 55.3579 34.984C54.7582 35.1781 54.1641 35.2751 53.5758 35.2751ZM37.8401 35.2751C36.6406 35.2751 35.5725 35.0582 34.6244 34.6244C33.6762 34.1906 32.9337 33.5056 32.3968 32.5752C31.8599 31.6448 31.5915 30.4233 31.5915 28.9164V20.971L29.7009 20.0406V19.6696H35.9267V20.0406L34.0361 20.971V28.6596C34.0361 29.9496 34.236 30.9713 34.6415 31.7248C35.047 32.4782 35.5897 33.0205 36.2751 33.3458C36.9605 33.6712 37.7258 33.8367 38.5826 33.8367C39.268 33.8367 39.902 33.694 40.4846 33.4029C41.0672 33.1118 41.5356 32.6494 41.884 32.0044C42.2324 31.3594 42.4094 30.5147 42.4094 29.4758V20.9253L40.1248 20.0406V19.6696H45.9279V20.0406L44.0373 20.9482V28.9164C44.0373 30.4233 43.7688 31.6448 43.2319 32.5752C42.695 33.5056 41.9639 34.1906 41.0272 34.6244C40.0962 35.0582 39.0281 35.2751 37.8344 35.2751M17.632 27.1926L24.0634 20.834L22.407 20.0406V19.6696H27.4448V20.0406L25.9768 20.6228L20.0081 26.4677L27.1877 34.0365L28.6556 34.6643V35.0354H24.8574L17.632 27.1869M13.2911 35.0411V34.67L15.1817 33.7397V20.971L13.2911 20.0406V19.6696H19.5169V20.0406L17.6263 20.971V33.7397L19.5169 34.67V35.0411H13.2911Z" fill="#574848"/>
<path d="M298.694 35.2751C297.717 35.2751 296.878 35.1838 296.187 34.9954C295.495 34.807 294.781 34.5388 294.056 34.1792L293.822 30.3377H294.193L295.427 32.8777C295.969 33.3287 296.506 33.654 297.038 33.8538C297.563 34.0536 298.094 34.1563 298.625 34.1563C299.528 34.1563 300.236 33.9223 300.756 33.46C301.276 32.9919 301.538 32.3583 301.538 31.5478C301.538 30.9085 301.396 30.4005 301.104 30.0238C300.813 29.647 300.39 29.2989 299.825 28.9963C299.259 28.6938 298.563 28.3399 297.74 27.9347C296.638 27.4038 295.792 26.8502 295.198 26.2679C294.61 25.6857 294.313 24.8638 294.313 23.8078C294.313 23.2484 294.45 22.7119 294.719 22.1868C294.993 21.6673 295.358 21.1993 295.827 20.7883C296.295 20.3773 296.815 20.0463 297.386 19.8008C297.963 19.5497 298.557 19.4298 299.179 19.4298C299.911 19.4298 300.596 19.5155 301.23 19.6867C301.87 19.8579 302.498 20.1034 303.121 20.4344L303.355 24.1617H302.983L301.773 21.6673C301.276 21.2792 300.824 20.9995 300.419 20.8283C300.013 20.657 299.556 20.5714 299.042 20.5714C298.374 20.5714 297.82 20.794 297.375 21.245C296.929 21.6959 296.712 22.261 296.712 22.9459C296.712 23.7051 296.946 24.3044 297.42 24.7382C297.894 25.172 298.66 25.6401 299.716 26.1367C300.647 26.5876 301.424 27.0157 302.035 27.4324C302.646 27.8433 303.103 28.3057 303.4 28.8194C303.697 29.3331 303.846 29.9838 303.846 30.7772C303.846 31.5078 303.692 32.1528 303.378 32.7122C303.063 33.2716 302.652 33.7396 302.144 34.1221C301.63 34.5045 301.076 34.7899 300.476 34.984C299.876 35.178 299.282 35.2751 298.694 35.2751ZM289.275 23.6309L288.459 17.8088H290.6L289.784 23.6309H289.27M277.903 20.9481H276.527V26.7246H278.04C279.006 26.7246 279.8 26.4506 280.428 25.8969C281.056 25.3433 281.37 24.6412 281.37 23.7907C281.37 22.9402 281.062 22.2096 280.451 21.7073C279.84 21.205 278.989 20.9481 277.898 20.9481M272.192 35.0411V34.67L274.082 33.7396V20.971L272.192 20.0406V19.6696H278.674C280.308 19.6696 281.593 20.0063 282.53 20.6856C283.472 21.3591 283.941 22.2895 283.941 23.4711C283.941 24.3387 283.644 25.1092 283.055 25.7771C282.467 26.4449 281.69 26.9586 280.725 27.3125L285.129 33.8139L286.688 34.6757V35.0468H282.935L278.457 27.9632H276.521V33.7168L278.269 34.67V35.0411H272.186M256.781 35.0411V34.67L258.672 33.7396V20.971L256.781 20.0406V19.6696H268.485V23.6765H268.113L266.6 20.9481H261.122V26.4677H264.989L266.177 24.5099H266.548V29.6585H266.177L264.989 27.7463H261.122V33.7568H267.228L268.765 30.6802H269.136V35.0354H256.781M237.716 35.0411V34.67L239.606 33.7396V20.971L237.716 20.0406V19.6696H243.896V20.0406L242.057 20.971V26.4677H249.63V20.971L247.768 20.0406V19.6696H253.948V20.0406L252.058 20.971V33.7396L253.948 34.67V35.0411H247.768V34.67L249.63 33.7396V27.752H242.057V33.7396L243.896 34.67V35.0411H237.716ZM224.779 35.0411V34.67L227.132 33.7396V20.9481H223.448L221.791 24.4642H221.42V19.6639H235.265V24.4642H234.894L233.261 20.9481H229.554V33.7396L231.93 34.67V35.0411H224.773M211.465 34.1107C212.413 34.1107 213.247 33.8595 213.961 33.3629C214.675 32.8663 215.234 32.1643 215.64 31.2681C216.045 30.3663 216.245 29.3046 216.245 28.0774C216.245 26.5705 215.994 25.2519 215.497 24.1275C215 23.003 214.326 22.1297 213.47 21.5075C212.613 20.8854 211.665 20.5771 210.625 20.5771C209.677 20.5771 208.837 20.8226 208.106 21.3135C207.375 21.8043 206.804 22.495 206.393 23.3969C205.981 24.2987 205.776 25.3604 205.776 26.5876C205.776 28.0945 206.027 29.413 206.535 30.5489C207.044 31.6848 207.724 32.5581 208.586 33.1803C209.448 33.8024 210.408 34.1107 211.465 34.1107ZM211.002 35.2751C209.883 35.2751 208.843 35.0753 207.889 34.6815C206.935 34.2876 206.101 33.7339 205.393 33.0262C204.685 32.3184 204.137 31.485 203.748 30.5204C203.36 29.5557 203.166 28.4998 203.166 27.3525C203.166 26.2052 203.36 25.1492 203.748 24.1845C204.137 23.2199 204.685 22.3865 205.393 21.6788C206.101 20.971 206.93 20.423 207.889 20.0235C208.843 19.6296 209.883 19.4298 211.002 19.4298C212.122 19.4298 213.161 19.6296 214.115 20.0235C215.069 20.4173 215.903 20.971 216.611 21.6788C217.319 22.3865 217.868 23.2199 218.267 24.1845C218.667 25.1492 218.861 26.2052 218.861 27.3525C218.861 28.4998 218.661 29.5557 218.267 30.5204C217.873 31.485 217.319 32.3184 216.611 33.0262C215.903 33.7339 215.074 34.2819 214.115 34.6815C213.161 35.0753 212.122 35.2751 211.002 35.2751ZM192.959 20.9481H191.582V26.7246H193.096C194.061 26.7246 194.855 26.4506 195.483 25.8969C196.112 25.3433 196.426 24.6412 196.426 23.7907C196.426 22.9402 196.117 22.2096 195.506 21.7073C194.895 21.205 194.044 20.9481 192.953 20.9481M187.247 35.0411V34.67L189.138 33.7396V20.971L187.247 20.0406V19.6696H193.73C195.363 19.6696 196.649 20.0063 197.585 20.6856C198.528 21.3591 198.996 22.2895 198.996 23.4711C198.996 24.3387 198.699 25.1092 198.111 25.7771C197.522 26.4449 196.746 26.9586 195.78 27.3125L200.184 33.8139L201.743 34.6757V35.0468H197.991L193.513 27.9632H191.577V33.7168L193.324 34.67V35.0411H187.241M178.063 27.7292H175.944V33.7625H178.228C179.428 33.7625 180.37 33.4771 181.061 32.912C181.752 32.3469 182.101 31.6163 182.101 30.7316C182.101 29.6927 181.752 28.9279 181.05 28.4484C180.353 27.9689 179.353 27.7235 178.068 27.7235M177.2 20.9481H175.944V26.4906H177.32C178.422 26.4906 179.279 26.2508 179.885 25.7656C180.49 25.2862 180.793 24.6241 180.793 23.785C180.793 21.89 179.593 20.9424 177.2 20.9424M171.603 35.0411V34.67L173.493 33.7396V20.971L171.603 20.0406V19.6696H177.874C178.914 19.6696 179.85 19.7951 180.684 20.052C181.518 20.3089 182.169 20.6913 182.643 21.1936C183.117 21.6959 183.352 22.3409 183.352 23.1172C183.352 23.8934 183.077 24.6355 182.535 25.2976C181.992 25.9597 181.204 26.4278 180.182 26.7075C181.598 26.8958 182.701 27.3239 183.506 28.0032C184.306 28.6767 184.705 29.5386 184.705 30.5774C184.705 31.4336 184.431 32.1985 183.889 32.872C183.346 33.5456 182.598 34.0821 181.65 34.4703C180.701 34.8584 179.622 35.0525 178.411 35.0525H171.603" fill="#574848"/>
<path d="M183.877 55.8979H184.848V57.0623H183.877V55.8979ZM183.374 59.277H185.345L185.899 58.7119V54.2312L185.356 53.6661H183.386L182.832 54.2312V58.7119L183.374 59.277ZM182.997 60.1104L181.987 59.043V53.9058L182.997 52.8384H185.733L186.744 53.9058V59.043L185.733 60.1104H182.997ZM179.405 56.2632V54.2369L178.851 53.6718H177.269L176.772 54.1855V55.7267L177.297 56.2575H179.405M175.881 57.8272H176.686V58.6777L177.269 59.277H178.851L179.405 58.7119V57.0338H176.863L175.881 56.0064V53.9001L176.892 52.8327H179.239L180.25 53.9001V59.0373L179.239 60.1047H176.892L175.881 59.0373V57.8158M173.105 56.2632V54.2369L172.551 53.6718H170.969L170.472 54.1855V55.7267L170.997 56.2575H173.105M169.586 57.8272H170.392V58.6777L170.974 59.277H172.556L173.111 58.7119V57.0338H170.569L169.586 56.0064V53.9001L170.597 52.8327H172.945L173.956 53.9001V59.0373L172.945 60.1047H170.597L169.586 59.0373V57.8158M166.211 52.8384V59.3341H167.667V60.1104H163.863V59.3341H165.32V53.7803L163.738 54.5679L163.361 53.8088L165.32 52.8384H166.211ZM153.548 52.8384H158.169V54.7392H157.392V53.6147H155.119V56.0863H157.392V56.8625H155.119V59.3341H157.392V58.2096H158.169V60.1104H153.548V59.3341H154.228V53.6147H153.548V52.8384ZM151.423 57.8272H152.2V59.0487L151.189 60.1161H148.744L147.733 59.0487V53.9115L148.744 52.8442H151.189L152.2 53.9115V55.133H151.423V54.3111L150.812 53.6832H149.133L148.63 54.1969V58.7747L149.127 59.2884H150.806L151.429 58.6605V57.8386M141.439 59.3398H142.119V60.1161H139.868V59.3398H140.548V53.6204H139.868V52.8442H141.885L144.718 59.0201V53.6204H144.038V52.8442H146.288V53.6204H145.609V60.1161H144.272L141.439 53.9515V59.3455M135.973 59.3398H136.75V53.6204H135.973V52.8442H138.418V53.6204H137.641V59.3398H138.418V60.1161H135.973V59.3398ZM134.528 55.1273H133.723V54.2768L133.14 53.6775H131.655L131.152 54.1912V55.5269L131.626 56.0121H133.643L134.625 57.0395V59.0487L133.614 60.1161H131.169L130.158 59.0487V57.8272H130.964V58.6777L131.558 59.277H133.237L133.734 58.7633V57.3192L133.266 56.8454H131.249L130.261 55.8066V53.9058L131.272 52.8384H133.523L134.534 53.9058V55.1273" fill="#B9625D"/>
<mask id="mask0_6_7" style="mask-type:luminance" maskUnits="userSpaceOnUse" x="0" y="0" width="317" height="72">
<path d="M317 0H0V72H317V0Z" fill="white"/>
</mask>
<g mask="url(#mask0_6_7)">
<mask id="mask1_6_7" style="mask-type:luminance" maskUnits="userSpaceOnUse" x="0" y="0" width="317" height="72">
<path d="M317 0H0V72H317V0Z" fill="white"/>
</mask>
<g mask="url(#mask1_6_7)">
<path d="M135.099 11.8896H155.587L134.248 31.5821H113.76L135.099 11.8896Z" fill="#574848"/>
</g>
<mask id="mask2_6_7" style="mask-type:luminance" maskUnits="userSpaceOnUse" x="0" y="0" width="317" height="72">
<path d="M317 0H0V72H317V0Z" fill="white"/>
</mask>
<g mask="url(#mask2_6_7)">
<path d="M147.596 21.4961H168.084L146.745 41.1942H126.257L147.596 21.4961Z" fill="#B9625D"/>
</g>
</g>
</svg>
