<svg width="22" height="21" viewBox="0 0 22 21" fill="none" xmlns="http://www.w3.org/2000/svg">
<path fill-rule="evenodd" clip-rule="evenodd" d="M11.3308 15.3125C13.9887 15.3125 16.1433 13.1579 16.1433 10.5C16.1433 7.84213 13.9887 5.6875 11.3308 5.6875C8.67294 5.6875 6.51831 7.84213 6.51831 10.5C6.51831 13.1579 8.67294 15.3125 11.3308 15.3125ZM11.3308 16.625C14.7136 16.625 17.4558 13.8827 17.4558 10.5C17.4558 7.11726 14.7136 4.375 11.3308 4.375C7.94807 4.375 5.20581 7.11726 5.20581 10.5C5.20581 13.8827 7.94807 16.625 11.3308 16.625Z" fill="white"/>
<path fill-rule="evenodd" clip-rule="evenodd" d="M21.8308 10.5C21.8308 10.8624 21.537 11.1562 21.1746 11.1562L18.9871 11.1562C18.6246 11.1562 18.3308 10.8624 18.3308 10.5C18.3308 10.1376 18.6246 9.84375 18.9871 9.84375L21.1746 9.84375C21.537 9.84375 21.8308 10.1376 21.8308 10.5ZM4.33081 10.5C4.33081 10.8624 4.037 11.1562 3.67456 11.1562H1.48706C1.12462 11.1562 0.830811 10.8624 0.830811 10.5C0.830811 10.1376 1.12462 9.84375 1.48706 9.84375H3.67456C4.037 9.84375 4.33081 10.1376 4.33081 10.5Z" fill="white"/>
<path fill-rule="evenodd" clip-rule="evenodd" d="M18.7553 3.07548C19.0116 3.33176 19.0116 3.74728 18.7553 4.00356L17.2085 5.55035C16.9523 5.80664 16.5367 5.80664 16.2805 5.55035C16.0242 5.29407 16.0242 4.87856 16.2805 4.62228L17.8273 3.07548C18.0835 2.8192 18.499 2.8192 18.7553 3.07548ZM6.38096 15.4498C6.63724 15.7061 6.63724 16.1216 6.38096 16.3779L4.83417 17.9247C4.57788 18.181 4.16237 18.181 3.90609 17.9247C3.64981 17.6684 3.64981 17.2529 3.90609 16.9966L5.45288 15.4498C5.70916 15.1936 6.12468 15.1936 6.38096 15.4498Z" fill="white"/>
<path fill-rule="evenodd" clip-rule="evenodd" d="M11.3308 0C11.6932 1.56462e-07 11.9871 0.293813 11.9871 0.65625L11.9871 2.84375C11.9871 3.20619 11.6932 3.5 11.3308 3.5C10.9684 3.5 10.6746 3.20619 10.6746 2.84375L10.6746 0.65625C10.6746 0.293813 10.9684 -1.56462e-07 11.3308 0ZM11.3308 17.5C11.6932 17.5 11.9871 17.7938 11.9871 18.1562V20.3437C11.9871 20.7062 11.6932 21 11.3308 21C10.9684 21 10.6746 20.7062 10.6746 20.3437V18.1562C10.6746 17.7938 10.9684 17.5 11.3308 17.5Z" fill="white"/>
<path fill-rule="evenodd" clip-rule="evenodd" d="M3.90629 3.07548C4.16257 2.8192 4.57809 2.8192 4.83437 3.07548L6.38117 4.62228C6.63745 4.87856 6.63745 5.29407 6.38117 5.55035C6.12488 5.80664 5.70937 5.80664 5.45309 5.55035L3.90629 4.00356C3.65001 3.74728 3.65001 3.33176 3.90629 3.07548ZM16.2807 15.4498C16.5369 15.1936 16.9525 15.1936 17.2087 15.4498L18.7555 16.9966C19.0118 17.2529 19.0118 17.6684 18.7555 17.9247C18.4993 18.181 18.0837 18.181 17.8275 17.9247L16.2807 16.3779C16.0244 16.1216 16.0244 15.7061 16.2807 15.4498Z" fill="white"/>
</svg>
