<svg width="536" height="575" viewBox="0 0 536 575" fill="none" xmlns="http://www.w3.org/2000/svg">
<path fill-rule="evenodd" clip-rule="evenodd" d="M83.9489 27.5547L83.9489 20.4876L59.6734 34.5188L0.44569 0.313401L4.8614 0.313401L59.6734 31.9484L84.0368 17.8664L84.0368 0.291421L84.4542 0.291421L84.4542 17.6248L114.464 0.291419L118.879 0.291418L84.4542 20.1731L84.4542 27.4887C86.9367 27.6206 88.9139 29.6417 88.9139 32.1462C88.9139 32.915 88.6942 33.64 88.3646 34.2771L127.03 56.5974C128.304 54.5543 130.523 53.1922 133.093 53.1922C135.663 53.1922 137.904 54.5762 139.156 56.5974L151.744 49.3257L176.569 35.002C176.108 34.1453 175.822 33.1787 175.822 32.1461C175.822 30.8499 176.218 29.6637 176.899 28.6751L127.733 0.291418L132.148 0.291417L178.524 27.0713C179.447 26.4562 180.546 26.1047 181.71 26.0608L181.71 0.291413L182.127 0.291413L182.127 26.0608C185.137 26.1706 187.576 28.4554 187.949 31.3772L241.772 0.31338L246.188 0.31338L214.465 18.6353L188.059 33.8816L188.059 35.4854L212.664 49.6992L226.241 57.542C227.185 56.0481 228.855 55.0376 230.744 55.0376C232.633 55.0376 234.303 56.0481 235.248 57.542L238.104 55.8943L275.451 34.343C275.099 33.6839 274.901 32.9589 274.901 32.1901C274.901 29.6637 276.9 27.6206 279.383 27.5107L279.383 14.3953L255.02 0.335413L259.435 0.335412L276.483 10.1773L279.383 11.847L279.383 0.335411L279.8 0.335411L279.8 12.0887L314.247 31.9704L369.059 0.335403L373.475 0.335402L341.708 18.6793L315.346 33.9036L315.346 52.599L323.298 57.1904C324.375 55.4769 326.264 54.3346 328.417 54.3346C330.57 54.3346 332.459 55.4769 333.536 57.1904L370.443 35.8808C369.85 34.7824 369.477 33.5302 369.477 32.1901C369.477 27.9721 372.838 24.5449 377.034 24.4351L377.034 0.335402L377.451 0.335402L377.451 24.4351C381.647 24.5449 385.009 27.9721 385.009 32.1901C385.009 33.5302 384.635 34.7824 384.042 35.8808L423.564 58.6843C424.113 57.8715 425.036 57.3442 426.09 57.3442C427.145 57.3442 428.067 57.8715 428.617 58.6843L440.436 51.8521L440.436 33.8816L418.994 21.4912L382.307 0.313368L386.722 0.313368L410.295 13.912L441.534 31.9484L474.707 12.7916L474.707 0.31336L475.125 0.31336L475.125 12.55L496.324 0.313358L500.74 0.313358L475.103 15.0983L475.103 31.2673C475.52 31.3772 475.828 31.7287 475.828 32.168C475.828 32.6953 475.388 33.1127 474.883 33.1127C474.619 33.1127 474.378 32.9809 474.202 32.8052L442.589 51.0612L442.589 106.115L473.85 124.173L505.134 142.232L536 124.415L536 126.963L506.232 144.143L506.232 216.376L536 233.556L536 236.104L505.134 218.287L473.85 236.346L442.589 254.404L442.589 326.637L466.908 340.675L505.134 362.754L521.632 353.219L536 344.937L536 347.486L506.232 364.665L506.232 436.898L536 454.078L536 456.626L505.068 438.744L451.552 469.654L472.532 481.759C473.038 481.034 473.85 480.506 474.817 480.506C476.377 480.506 477.651 481.781 477.651 483.34C477.651 484.834 476.487 486.021 475.037 486.13L475.037 537.647C476.113 537.757 476.97 538.636 476.97 539.756C476.97 540.942 476.003 541.909 474.817 541.909C474.092 541.909 473.499 541.536 473.103 540.986L431.736 564.866C432.242 565.789 432.549 566.822 432.549 567.942C432.549 571.567 429.605 574.511 425.98 574.511C422.356 574.511 419.412 571.567 419.412 567.942C419.412 566.822 419.719 565.789 420.225 564.866L380.088 541.689C379.473 542.634 378.396 543.271 377.166 543.271C375.233 543.271 373.651 541.624 373.651 539.756C373.651 537.889 375.101 536.373 376.946 536.263L376.946 488.855C373.98 488.745 371.63 486.394 371.63 483.362C371.63 480.331 374.09 477.848 377.144 477.848C379.099 477.848 380.813 478.881 381.801 480.441L415.853 460.779L377.781 438.788L314.138 475.542L249.374 438.151L249.374 364.643L185.73 327.89L185.73 253.108L228.372 228.503L185.906 203.986C185.049 205.348 183.533 206.249 181.82 206.249C180.106 206.249 178.59 205.348 177.734 203.986L137.135 227.426C137.487 228.085 137.685 228.788 137.685 229.579C137.685 232.172 135.576 234.281 132.983 234.281C130.391 234.281 128.282 232.172 128.282 229.579C128.282 228.788 128.502 228.063 128.831 227.426L88.782 204.315C87.8154 205.853 86.1019 206.886 84.1467 206.886C81.115 206.886 78.6545 204.359 78.6545 201.393C78.6545 198.428 81.0051 196.033 83.9489 195.923L83.9489 150.997C80.7195 150.865 78.1492 148.317 78.1492 145C78.1492 141.682 80.8513 138.98 84.1686 138.98C86.2996 138.98 88.1889 140.123 89.2434 141.814L130.896 117.758C130.764 117.473 130.676 117.143 130.676 116.792C130.676 115.583 131.599 114.617 132.785 114.507L132.785 67.5158C128.941 67.406 125.865 64.2644 125.865 60.3979C125.865 59.1897 126.195 58.0473 126.744 57.0367L88.0791 34.7165C87.2442 36.0126 85.7943 36.8694 84.1467 36.8694C81.5763 36.8694 79.4892 34.7384 79.4892 32.212C79.4892 29.6856 81.4664 27.6645 83.9489 27.5547ZM279.537 36.9134C277.871 36.9134 276.424 36.0387 275.588 34.7476L273.429 35.9906L235.423 57.9375C235.819 58.6844 236.061 59.5192 236.061 60.4199C236.061 63.2978 233.798 65.6265 230.942 65.7363L230.942 112.969C232.963 113.079 234.589 114.749 234.589 116.814C234.589 117.429 234.413 118.022 234.149 118.549L238.873 121.273L262.884 135.136L263.785 134.608L313.105 106.137L313.105 51.8302L307.569 48.6446L283.491 34.7384C282.656 36.0346 281.206 36.9134 279.537 36.9134ZM187.993 36.0126L225.977 57.9375C225.581 58.6844 225.34 59.5192 225.34 60.4199C225.34 63.2978 227.625 65.6265 230.459 65.7363L230.459 112.969C228.415 113.079 226.812 114.749 226.812 116.814C226.812 117.451 226.987 118.022 227.251 118.549L218.354 123.69L187.993 106.159L187.993 36.0126ZM377.21 39.9889C380 39.9889 382.438 38.4951 383.8 36.2763L423.322 59.0798C423.124 59.4752 423.015 59.9366 423.015 60.3979C423.015 62.0017 424.267 63.3198 425.849 63.4296L425.849 113.65C424.399 113.738 423.212 114.815 422.949 116.199L409.13 124.173L379.231 141.441C378.638 141.111 377.957 140.891 377.21 140.891C376.748 140.891 376.331 140.979 375.914 141.111L346.563 124.173L331.888 115.693C331.449 114.243 330.153 113.189 328.571 113.101L328.571 66.4174C331.822 66.3075 334.415 63.6493 334.415 60.376C334.415 59.3435 334.129 58.3988 333.69 57.542L370.597 36.2323C371.959 38.4511 374.398 39.945 377.188 39.945L377.21 39.9889ZM474.685 147.504L474.685 200.251C474.136 200.361 473.697 200.822 473.697 201.415C473.697 201.547 473.741 201.679 473.784 201.811L430.242 226.943C429.364 225.559 427.826 224.636 426.068 224.636C424.311 224.636 422.773 225.559 421.894 226.943L404.056 216.64L379.758 202.602C379.934 202.228 380.044 201.833 380.044 201.393C380.044 200.515 379.604 199.768 378.967 199.24L378.967 148.69C380.351 148.031 381.318 146.625 381.318 145C381.318 144.319 381.142 143.703 380.857 143.154L405.44 128.962L423.454 118.571C424.025 119.428 424.992 119.977 426.09 119.977C427.189 119.977 428.155 119.428 428.727 118.571L472.664 143.945C472.51 144.275 472.4 144.626 472.4 145.022C472.4 146.34 473.433 147.394 474.729 147.504L474.685 147.504ZM425.849 280.876C423.103 280.986 420.906 283.227 420.906 285.995C420.906 286.852 421.147 287.665 421.521 288.368L382.482 310.908C381.384 309.15 379.451 307.964 377.21 307.964C374.969 307.964 373.036 309.15 371.937 310.908L331.229 287.401C331.449 286.984 331.559 286.5 331.559 285.995C331.559 284.303 330.241 282.919 328.571 282.81L328.571 246.737L377.825 218.287L425.827 245.99L425.827 280.854L425.849 280.876ZM252.823 217.079L277.691 202.712C278.109 203.305 278.768 203.7 279.537 203.7C280.306 203.7 280.965 203.305 281.382 202.712L323.716 227.163C323.32 227.888 323.079 228.723 323.079 229.601C323.079 232.457 325.342 234.764 328.154 234.874L328.154 244.452L325.32 246.1L314.203 252.515L303.087 246.1L252.845 217.079L252.823 217.079ZM279.756 199.153L279.756 150.558C282.722 150.448 285.117 148.009 285.117 145C285.117 144.055 284.853 143.198 284.458 142.407L325.298 118.835C325.957 119.845 327.099 120.504 328.395 120.504C329.691 120.504 330.834 119.845 331.493 118.835L356.296 133.158L373.607 143.154C373.321 143.703 373.146 144.341 373.146 145C373.146 147.109 374.727 148.8 376.77 149.042L376.77 198.691C375.452 198.933 374.442 200.009 374.442 201.393C374.442 201.833 374.552 202.228 374.727 202.602L338.391 223.582L332.855 226.767C331.91 225.295 330.285 224.307 328.395 224.307C326.506 224.307 324.88 225.295 323.936 226.767L281.646 202.338C281.778 202.052 281.865 201.723 281.865 201.393C281.865 200.207 280.943 199.24 279.778 199.131L279.756 199.153ZM328.593 234.874C331.405 234.764 333.668 232.457 333.668 229.601C333.668 228.723 333.426 227.888 333.031 227.163L374.925 202.975C375.342 203.59 375.98 203.986 376.726 204.139L376.727 216.42L328.571 244.232L328.571 234.896L328.593 234.874ZM373.958 142.561C373.958 142.561 373.849 142.715 373.783 142.781L348.057 127.93L331.669 118.461C331.669 118.461 331.756 118.308 331.8 118.22L370.378 140.496L373.958 142.561ZM251.658 144.165L264.664 136.651L274.638 142.407C274.22 143.176 273.979 144.055 273.979 145C273.979 148.009 276.351 150.426 279.339 150.558L279.339 199.153C278.175 199.262 277.252 200.207 277.252 201.415C277.252 201.767 277.34 202.074 277.472 202.36L252.405 216.837L251.658 216.398L251.658 144.165ZM413.612 236.39L378.945 216.376L378.945 203.524C379.165 203.349 379.319 203.151 379.473 202.931L421.653 227.295C421.301 227.976 421.081 228.744 421.081 229.579C421.081 232.259 423.19 234.412 425.827 234.522L425.827 243.442L413.59 236.39L413.612 236.39ZM322.332 60.4199C322.332 63.6858 324.913 66.3395 328.154 66.4605L328.154 113.123C327.934 113.123 327.736 113.167 327.538 113.211L315.302 106.137L315.302 53.1043L323.057 57.586C322.595 58.4427 322.332 59.3873 322.332 60.4199ZM314.181 108.048L325.429 114.551C324.946 115.166 324.639 115.957 324.639 116.792C324.639 117.385 324.792 117.956 325.056 118.439L293.509 136.651L284.216 142.012C283.227 140.452 281.492 139.398 279.515 139.398C277.538 139.398 275.802 140.452 274.813 142.012L265.059 136.388L277.12 129.424L314.181 108.026L314.181 108.048ZM227.449 118.901C228.13 119.955 229.338 120.658 230.678 120.658C232.018 120.658 233.227 119.955 233.908 118.901L262.423 135.355L250.516 142.232L218.771 123.91L227.427 118.901L227.449 118.901ZM377.847 362.732L328.615 334.304L315.302 326.615L315.302 254.382L328.154 246.957L328.154 282.788C326.484 282.897 325.166 284.282 325.166 285.973C325.166 287.665 326.594 289.181 328.373 289.181C329.472 289.181 330.46 288.609 331.031 287.753L371.74 311.259C371.278 312.138 370.993 313.105 370.993 314.181C370.993 317.63 373.783 320.398 377.21 320.398C380.637 320.398 383.427 317.608 383.427 314.181C383.427 313.127 383.141 312.138 382.68 311.259L421.719 288.719C422.641 290.147 424.223 291.114 426.046 291.114C428.88 291.114 431.187 288.807 431.187 285.973C431.187 283.139 428.99 280.964 426.244 280.854L426.244 246.254L436.547 252.207L440.37 254.404L440.37 326.637L421.74 337.402L377.825 362.754L377.847 362.732ZM441.49 252.493L426.266 243.705L426.266 234.544C428.902 234.434 431.033 232.26 431.033 229.601C431.033 228.766 430.814 227.998 430.44 227.317L474.004 202.162C474.224 202.426 474.531 202.602 474.905 202.602C475.564 202.602 476.113 202.074 476.113 201.393C476.113 200.8 475.674 200.339 475.125 200.229L475.125 147.482C476.421 147.372 477.453 146.318 477.453 145C477.453 143.594 476.311 142.473 474.927 142.473C474.07 142.473 473.345 142.935 472.884 143.572L428.924 118.198C429.122 117.78 429.254 117.297 429.254 116.814C429.254 116.33 429.122 115.803 428.88 115.364L441.512 108.07L504.057 144.187L504.057 216.42L474.971 233.204L441.512 252.515L441.49 252.493ZM176.679 35.4414C177.756 37.177 179.667 38.3193 181.842 38.3193C183.357 38.3193 184.698 37.7481 185.774 36.8474L185.774 107.411L216.135 124.942L189.772 140.166L187.18 141.66C186.06 139.881 184.083 138.673 181.82 138.673C179.557 138.673 177.58 139.881 176.459 141.66L139.31 120.219L135.092 117.78C135.224 117.473 135.312 117.165 135.312 116.814C135.312 115.605 134.367 114.639 133.203 114.529L133.203 67.5378C137.047 67.428 140.123 64.2864 140.123 60.4199C140.123 59.1897 139.793 58.0692 139.244 57.0587L159.565 45.3274L176.657 35.4634L176.679 35.4414ZM136.96 227.075C136.125 225.779 134.675 224.9 133.005 224.9C131.336 224.9 129.886 225.779 129.051 227.075L89.0017 203.964C89.3972 203.195 89.6608 202.338 89.6608 201.415C89.6608 198.45 87.3101 196.055 84.3663 195.945L84.3663 151.019C87.5957 150.909 90.1661 148.273 90.1661 145.022C90.1661 144.011 89.8805 143.066 89.4411 142.21L131.138 118.132C131.555 118.725 132.214 119.142 133.005 119.142C133.796 119.142 134.455 118.725 134.872 118.132L160.993 133.224L176.284 142.056C175.8 142.935 175.515 143.945 175.515 145.022C175.515 148.449 178.239 151.217 181.622 151.327L181.622 196.582C179.03 196.692 176.965 198.801 176.965 201.415C176.965 202.228 177.184 202.975 177.536 203.656L136.938 227.097L136.96 227.075ZM182.061 196.56L182.061 151.305C185.445 151.195 188.169 148.427 188.169 145C188.169 143.923 187.883 142.913 187.4 142.034L210.05 128.962L216.574 125.206L249.44 144.165L249.44 216.398L230.854 227.119C230.854 227.119 230.841 227.114 230.822 227.107C230.809 227.103 230.794 227.098 230.778 227.093C230.745 227.083 230.707 227.075 230.678 227.075C229.821 227.075 229.118 227.536 228.657 228.173L186.126 203.634C186.477 202.953 186.697 202.206 186.697 201.393C186.697 198.779 184.632 196.67 182.039 196.56L182.061 196.56ZM187.993 254.426L228.635 230.963C229.096 231.644 229.821 232.128 230.7 232.128C232.084 232.128 233.205 231.007 233.205 229.623C233.205 229.25 233.117 228.898 232.963 228.569L250.626 218.375L313.105 254.448L313.105 326.681L296.123 336.501L250.56 362.798L188.015 326.681L188.015 254.448L187.993 254.426ZM251.636 436.898L251.636 364.665L314.181 328.549L376.727 364.665L376.727 436.898L314.181 473.015L251.636 436.898ZM472.357 482.154C472.181 482.528 472.049 482.923 472.049 483.362C472.049 484.856 473.213 486.043 474.663 486.152L474.663 537.669C473.587 537.779 472.73 538.658 472.73 539.778C472.73 540.086 472.796 540.393 472.928 540.657L431.604 564.515C430.44 562.648 428.397 561.395 426.046 561.395C423.696 561.395 421.653 562.648 420.488 564.515L380.351 541.338C380.593 540.855 380.725 540.349 380.725 539.778C380.725 537.911 379.253 536.395 377.43 536.285L377.43 488.877C380.373 488.767 382.746 486.35 382.746 483.384C382.746 482.462 382.504 481.583 382.087 480.814L416.358 461.02L441.512 475.541L451.223 469.939L472.378 482.154L472.357 482.154ZM426.068 459.658C427.641 459.65 429.016 458.818 429.825 457.593L449.004 468.665L441.512 472.993L418.577 459.746L422.312 457.593C423.099 458.839 424.495 459.65 426.068 459.658ZM426.068 459.658L426.09 459.658L426.046 459.658L426.068 459.658ZM430.023 457.22C430.352 456.604 430.55 455.901 430.55 455.176C430.55 452.694 428.529 450.695 426.068 450.695C423.608 450.695 421.587 452.716 421.587 455.176C421.587 455.923 421.784 456.604 422.114 457.22L418.16 459.504L378.989 436.876L378.989 364.643L425.585 337.732L441.534 328.527L450.959 333.953L504.101 364.621L504.101 436.855L449.465 468.402L430.067 457.198L430.023 457.22ZM442.589 33.9036L473.169 16.2407L474.663 15.3839L474.663 31.3113C474.246 31.3992 473.938 31.7726 473.938 32.212C473.938 32.2999 473.96 32.3878 473.982 32.4756L442.567 50.5999L442.567 33.9036L442.589 33.9036ZM440.37 52.3574L440.37 106.115L427.057 113.804C426.793 113.716 426.53 113.65 426.222 113.628L426.222 63.4076C427.804 63.2978 429.056 62.0017 429.056 60.376C429.056 59.8926 428.946 59.4533 428.749 59.0359L440.37 52.3354L440.37 52.3574ZM305.789 29.6856L313.083 33.8816L313.083 51.3029L293.091 39.7473L283.689 34.321C284.018 33.6839 284.238 32.9589 284.238 32.1681C284.238 29.6417 282.239 27.6206 279.756 27.4887L279.756 14.6151L305.811 29.6637L305.789 29.6856ZM536 13.0772L513.965 0.357363L509.55 0.357363L536 15.6256L536 13.0772ZM474.883 314.642C474.619 314.642 474.422 314.423 474.422 314.181C474.422 313.917 474.619 313.72 474.883 313.72C475.147 313.72 475.344 313.917 475.344 314.181C475.344 314.445 475.147 314.642 474.883 314.642ZM474.883 366.467C472.614 366.467 470.775 368.306 470.775 370.575C470.775 372.844 472.614 374.683 474.883 374.683C477.152 374.683 478.991 372.844 478.991 370.575C478.991 368.306 477.152 366.467 474.883 366.467ZM422.509 398.783C422.509 396.827 424.091 395.246 426.046 395.246C428.002 395.246 429.583 396.827 429.583 398.783C429.583 400.738 428.002 402.32 426.046 402.32C424.091 402.32 422.509 400.738 422.509 398.783Z" fill="url(#paint0_linear_2219_85326)" fill-opacity="0.2"/>
<defs>
<linearGradient id="paint0_linear_2219_85326" x1="536" y1="287.401" x2="0.445654" y2="287.401" gradientUnits="userSpaceOnUse">
<stop stop-color="#D400A5"/>
<stop offset="0.541667" stop-color="#1F7ECB"/>
<stop offset="1" stop-color="#2ED6E3"/>
</linearGradient>
</defs>
</svg>
