<svg width="536" height="575" viewBox="0 0 536 575" fill="none" xmlns="http://www.w3.org/2000/svg">
<path fill-rule="evenodd" clip-rule="evenodd" d="M452.051 547.064V554.131L476.327 540.099L535.554 574.305H531.139L476.327 542.67L451.963 556.752V574.327H451.546V556.993L421.536 574.327H417.121L451.546 554.445V547.129C449.063 546.998 447.086 544.977 447.086 542.472C447.086 541.703 447.306 540.978 447.635 540.341L408.97 518.021C407.696 520.064 405.477 521.426 402.907 521.426C400.337 521.426 398.096 520.042 396.844 518.021L384.255 525.293L359.431 539.616C359.892 540.473 360.178 541.44 360.178 542.472C360.178 543.768 359.782 544.955 359.101 545.943L408.267 574.327H403.852L357.476 547.547C356.553 548.162 355.454 548.513 354.29 548.557V574.327H353.873V548.557C350.863 548.448 348.424 546.163 348.051 543.241L294.228 574.305H289.812L321.535 555.983L347.941 540.737V539.133L323.336 524.919L309.759 517.076C308.815 518.57 307.145 519.581 305.256 519.581C303.367 519.581 301.697 518.57 300.752 517.076L297.896 518.724L260.549 540.275C260.901 540.934 261.099 541.659 261.099 542.428C261.099 544.955 259.099 546.998 256.617 547.107V560.223L280.98 574.283H276.565L259.517 564.441L256.617 562.771V574.283H256.2V562.529L221.753 542.648L166.941 574.283H162.525L194.292 555.939L220.654 540.715V522.019L212.701 517.428C211.625 519.141 209.736 520.284 207.583 520.284C205.43 520.284 203.541 519.141 202.464 517.428L165.557 538.737C166.15 539.836 166.523 541.088 166.523 542.428C166.523 546.646 163.162 550.073 158.966 550.183V574.283H158.548V550.183C154.352 550.073 150.991 546.646 150.991 542.428C150.991 541.088 151.365 539.836 151.958 538.737L112.436 515.934C111.887 516.747 110.964 517.274 109.91 517.274C108.855 517.274 107.932 516.747 107.383 515.934L95.5641 522.766V540.737L117.006 553.127L153.693 574.305H149.278L125.705 560.706L94.4656 542.67L61.2928 561.827V574.305H60.8754V562.068L39.6756 574.305H35.2598L60.8974 559.52L60.8974 543.351C60.48 543.241 60.1724 542.889 60.1724 542.45C60.1724 541.923 60.6118 541.505 61.1171 541.505C61.3807 541.505 61.6224 541.637 61.7981 541.813L93.4111 523.557L93.4111 468.503L62.1496 450.445L30.8661 432.387L0 450.203L0 447.655L29.7677 430.475L29.7677 358.242L0 341.063L0 338.514L30.8661 356.331L62.1496 338.272L93.4111 320.214L93.4111 247.981L69.0917 233.943L30.8661 211.864L14.3676 221.399L0 229.681L0 227.133L29.7677 209.953L29.7677 137.72L0 120.54L0 117.992L30.932 135.874L84.4479 104.964L63.4677 92.8595C62.9624 93.5845 62.1496 94.1117 61.183 94.1117C59.6232 94.1117 58.349 92.8375 58.349 91.2778C58.349 89.7839 59.5134 88.5976 60.9633 88.4877L60.9633 36.971C59.8868 36.8612 59.03 35.9824 59.03 34.862C59.03 33.6757 59.9967 32.7091 61.183 32.7091C61.9079 32.7091 62.5011 33.0825 62.8965 33.6317L104.264 9.75171C103.758 8.82902 103.451 7.79649 103.451 6.67608C103.451 3.05124 106.395 0.107422 110.02 0.107422C113.644 0.107422 116.588 3.05124 116.588 6.67608C116.588 7.79649 116.281 8.82902 115.775 9.75171L155.912 32.9287C156.527 31.9841 157.604 31.347 158.834 31.347C160.767 31.347 162.349 32.9946 162.349 34.862C162.349 36.7293 160.899 38.2452 159.054 38.355V85.7636C162.02 85.8735 164.37 88.2241 164.37 91.2558C164.37 94.2875 161.91 96.7699 158.856 96.7699C156.901 96.7699 155.187 95.7374 154.199 94.1776L120.147 113.84L158.219 135.83L221.862 99.0767L286.626 136.467V209.975L350.27 246.729V321.51L307.628 346.115L350.094 370.632C350.951 369.27 352.467 368.37 354.18 368.37C355.894 368.37 357.41 369.27 358.266 370.632L398.865 347.192C398.513 346.533 398.315 345.83 398.315 345.039C398.315 342.447 400.424 340.338 403.017 340.338C405.609 340.338 407.718 342.447 407.718 345.039C407.718 345.83 407.498 346.555 407.169 347.192L447.218 370.303C448.185 368.765 449.898 367.733 451.853 367.733C454.885 367.733 457.345 370.259 457.345 373.225C457.345 376.191 454.995 378.585 452.051 378.695V423.621C455.28 423.753 457.851 426.301 457.851 429.619C457.851 432.936 455.149 435.638 451.831 435.638C449.7 435.638 447.811 434.496 446.757 432.804L405.104 456.86C405.236 457.145 405.323 457.475 405.323 457.826C405.323 459.035 404.401 460.001 403.214 460.111V507.102C407.059 507.212 410.135 510.354 410.135 514.22C410.135 515.429 409.805 516.571 409.256 517.581L447.921 539.902C448.756 538.606 450.206 537.749 451.853 537.749C454.424 537.749 456.511 539.88 456.511 542.406C456.511 544.933 454.534 546.954 452.051 547.064ZM256.463 537.705C258.129 537.705 259.576 538.579 260.412 539.871L262.571 538.628L300.577 516.681C300.181 515.934 299.939 515.099 299.939 514.198C299.939 511.32 302.202 508.992 305.058 508.882V461.649C303.037 461.539 301.411 459.87 301.411 457.805C301.411 457.189 301.587 456.596 301.851 456.069L297.127 453.345L273.116 439.483L272.215 440.01L222.895 468.481V522.788L228.431 525.974L252.509 539.88C253.344 538.584 254.794 537.705 256.463 537.705ZM348.007 538.606L310.023 516.681C310.418 515.934 310.66 515.099 310.66 514.198C310.66 511.32 308.375 508.992 305.541 508.882V461.649C307.585 461.539 309.188 459.87 309.188 457.805C309.188 457.167 309.012 456.596 308.749 456.069L317.646 450.928L348.007 468.459V538.606ZM158.79 534.629C156 534.629 153.562 536.123 152.2 538.342L112.678 515.538C112.875 515.143 112.985 514.682 112.985 514.22C112.985 512.617 111.733 511.298 110.151 511.189V460.968C111.601 460.88 112.788 459.804 113.051 458.42L126.87 450.445L156.769 433.178C157.362 433.507 158.043 433.727 158.79 433.727C159.251 433.727 159.669 433.639 160.086 433.507L189.437 450.445L204.112 458.925C204.551 460.375 205.847 461.429 207.429 461.517V508.201C204.178 508.311 201.585 510.969 201.585 514.242C201.585 515.275 201.871 516.219 202.31 517.076L165.403 538.386C164.041 536.167 161.602 534.673 158.812 534.673L158.79 534.629ZM61.3148 427.114L61.3148 374.367C61.864 374.257 62.3034 373.796 62.3034 373.203C62.3034 373.071 62.2594 372.939 62.2155 372.807L105.758 347.675C106.636 349.059 108.174 349.982 109.932 349.982C111.689 349.982 113.227 349.059 114.106 347.675L131.944 357.978L156.242 372.017C156.066 372.39 155.956 372.785 155.956 373.225C155.956 374.104 156.396 374.85 157.033 375.378V425.928C155.649 426.587 154.682 427.993 154.682 429.619C154.682 430.3 154.858 430.915 155.143 431.464L130.56 445.656L112.546 456.047C111.975 455.19 111.008 454.641 109.91 454.641C108.811 454.641 107.845 455.19 107.273 456.047L63.3359 430.673C63.4897 430.344 63.5995 429.992 63.5995 429.597C63.5995 428.278 62.567 427.224 61.2709 427.114H61.3148ZM110.151 293.742C112.897 293.632 115.094 291.391 115.094 288.623C115.094 287.766 114.853 286.953 114.479 286.25L153.518 263.711C154.616 265.468 156.549 266.654 158.79 266.654C161.031 266.654 162.964 265.468 164.063 263.711L204.771 287.217C204.551 287.634 204.441 288.118 204.441 288.623C204.441 290.315 205.759 291.699 207.429 291.809V327.881L158.175 356.331L110.173 328.628V293.764L110.151 293.742ZM283.177 357.539L258.309 371.907C257.891 371.314 257.232 370.918 256.463 370.918C255.694 370.918 255.035 371.314 254.618 371.907L212.284 347.455C212.679 346.73 212.921 345.896 212.921 345.017C212.921 342.161 210.658 339.854 207.846 339.744V330.166L210.68 328.518L221.797 322.103L232.913 328.518L283.155 357.539H283.177ZM256.244 375.466V424.06C253.278 424.17 250.883 426.609 250.883 429.619C250.883 430.563 251.147 431.42 251.542 432.211L210.702 455.783C210.043 454.773 208.901 454.114 207.605 454.114C206.309 454.114 205.166 454.773 204.507 455.783L179.704 441.46L162.393 431.464C162.679 430.915 162.854 430.278 162.854 429.619C162.854 427.51 161.273 425.818 159.23 425.576V375.927C160.548 375.685 161.558 374.609 161.558 373.225C161.558 372.785 161.448 372.39 161.273 372.017L197.609 351.036L203.145 347.851C204.09 349.323 205.715 350.311 207.605 350.311C209.494 350.311 211.12 349.323 212.064 347.851L254.354 372.28C254.222 372.566 254.135 372.895 254.135 373.225C254.135 374.411 255.057 375.378 256.222 375.488L256.244 375.466ZM207.407 339.744C204.595 339.854 202.332 342.161 202.332 345.017C202.332 345.896 202.574 346.73 202.969 347.455L161.075 371.643C160.657 371.028 160.02 370.632 159.273 370.479V358.198L207.429 330.386V339.722L207.407 339.744ZM162.042 432.057C162.042 432.057 162.151 431.903 162.217 431.837L187.943 446.688L204.331 456.157C204.331 456.157 204.243 456.311 204.2 456.398L165.622 434.122L162.042 432.057ZM284.342 430.453L271.336 437.967L261.362 432.211C261.78 431.442 262.021 430.563 262.021 429.619C262.021 426.609 259.649 424.192 256.661 424.06V375.466C257.825 375.356 258.748 374.411 258.748 373.203C258.748 372.851 258.66 372.544 258.528 372.258L283.595 357.781L284.342 358.22V430.453ZM122.388 338.229L157.055 358.242V371.094C156.835 371.27 156.681 371.467 156.527 371.687L114.347 347.324C114.699 346.643 114.919 345.874 114.919 345.039C114.919 342.359 112.81 340.206 110.173 340.096V331.177L122.41 338.229H122.388ZM213.668 514.198C213.668 510.932 211.087 508.279 207.846 508.158V461.495C208.066 461.495 208.264 461.451 208.462 461.407L220.698 468.481V521.514L212.943 517.032C213.404 516.175 213.668 515.231 213.668 514.198ZM221.819 466.57L210.57 460.067C211.054 459.452 211.361 458.661 211.361 457.826C211.361 457.233 211.208 456.662 210.944 456.179L242.491 437.967L251.784 432.606C252.772 434.166 254.508 435.221 256.485 435.221C258.462 435.221 260.198 434.166 261.186 432.606L270.941 438.23L258.88 445.194L221.819 466.592V466.57ZM308.551 455.717C307.87 454.663 306.662 453.96 305.322 453.96C303.982 453.96 302.773 454.663 302.092 455.717L273.577 439.263L285.484 432.387L317.229 450.709L308.573 455.717H308.551ZM158.153 211.886L207.385 240.314L220.698 248.003V320.236L207.846 327.662V291.831C209.516 291.721 210.834 290.337 210.834 288.645C210.834 286.953 209.406 285.438 207.627 285.438C206.528 285.438 205.54 286.009 204.968 286.866L164.26 263.359C164.722 262.48 165.007 261.514 165.007 260.437C165.007 256.988 162.217 254.22 158.79 254.22C155.363 254.22 152.573 257.01 152.573 260.437C152.573 261.492 152.859 262.48 153.32 263.359L114.281 285.899C113.359 284.471 111.777 283.504 109.954 283.504C107.12 283.504 104.813 285.811 104.813 288.645C104.813 291.479 107.01 293.654 109.756 293.764V328.365L99.4525 322.411L95.63 320.214L95.63 247.981L114.259 237.216L158.175 211.864L158.153 211.886ZM94.5096 322.125L109.734 330.913V340.074C107.098 340.184 104.967 342.359 104.967 345.017C104.967 345.852 105.186 346.621 105.56 347.302L61.9958 372.456C61.7761 372.192 61.4686 372.017 61.0951 372.017C60.436 372.017 59.8868 372.544 59.8868 373.225C59.8868 373.818 60.3262 374.279 60.8754 374.389L60.8754 427.136C59.5793 427.246 58.5467 428.3 58.5467 429.619C58.5467 431.025 59.6891 432.145 61.0731 432.145C61.9299 432.145 62.6549 431.684 63.1162 431.047L107.076 456.42C106.878 456.838 106.746 457.321 106.746 457.805C106.746 458.288 106.878 458.815 107.12 459.254L94.4876 466.548L31.9426 430.431L31.9426 358.198L61.0292 341.414L94.4876 322.103L94.5096 322.125ZM359.321 539.177C358.244 537.441 356.333 536.299 354.158 536.299C352.642 536.299 351.302 536.87 350.226 537.771V467.207L319.865 449.676L346.228 434.452L348.82 432.958C349.94 434.737 351.917 435.946 354.18 435.946C356.443 435.946 358.42 434.737 359.541 432.958L396.69 454.399L400.908 456.838C400.776 457.145 400.688 457.453 400.688 457.805C400.688 459.013 401.633 459.979 402.797 460.089V507.08C398.953 507.19 395.877 510.332 395.877 514.198C395.877 515.429 396.206 516.549 396.756 517.56L376.435 529.291L359.343 539.155L359.321 539.177ZM399.04 347.543C399.875 348.839 401.325 349.718 402.995 349.718C404.664 349.718 406.114 348.839 406.949 347.543L446.998 370.654C446.603 371.423 446.339 372.28 446.339 373.203C446.339 376.169 448.69 378.563 451.634 378.673V423.599C448.404 423.709 445.834 426.345 445.834 429.597C445.834 430.607 446.119 431.552 446.559 432.409L404.862 456.486C404.445 455.893 403.786 455.476 402.995 455.476C402.204 455.476 401.545 455.893 401.127 456.486L375.007 441.394L359.716 432.562C360.2 431.684 360.485 430.673 360.485 429.597C360.485 426.169 357.761 423.401 354.378 423.292V378.036C356.97 377.926 359.035 375.817 359.035 373.203C359.035 372.39 358.816 371.643 358.464 370.962L399.062 347.521L399.04 347.543ZM353.939 378.058V423.314C350.555 423.423 347.831 426.191 347.831 429.619C347.831 430.695 348.117 431.706 348.6 432.584L325.95 445.656L319.426 449.412L286.56 430.453V358.22L305.146 347.499C305.146 347.499 305.159 347.504 305.178 347.511C305.191 347.516 305.206 347.521 305.222 347.525C305.255 347.535 305.293 347.543 305.322 347.543C306.178 347.543 306.882 347.082 307.343 346.445L349.874 370.984C349.523 371.665 349.303 372.412 349.303 373.225C349.303 375.839 351.368 377.948 353.961 378.058H353.939ZM348.007 320.192L307.365 343.655C306.904 342.974 306.179 342.49 305.3 342.49C303.916 342.49 302.795 343.611 302.795 344.995C302.795 345.368 302.883 345.72 303.037 346.049L285.374 356.243L222.895 320.17V247.937L239.877 238.117L285.44 211.82L347.985 247.937V320.17L348.007 320.192ZM284.364 137.72V209.953L221.819 246.07L159.273 209.953V137.72L221.819 101.603L284.364 137.72ZM63.6435 92.4641C63.8192 92.0906 63.951 91.6952 63.951 91.2558C63.951 89.7619 62.7867 88.5756 61.3368 88.4658L61.3368 36.949C62.4132 36.8392 63.27 35.9604 63.27 34.84C63.27 34.5325 63.2041 34.2249 63.0723 33.9613L104.396 10.1032C105.56 11.9705 107.603 13.2228 109.954 13.2228C112.304 13.2228 114.347 11.9705 115.512 10.1032L155.649 33.2802C155.407 33.7636 155.275 34.2688 155.275 34.84C155.275 36.7074 156.747 38.2232 158.57 38.3331V85.7416C155.627 85.8515 153.254 88.268 153.254 91.2338C153.254 92.1565 153.496 93.0353 153.913 93.8042L119.642 113.598L94.4876 99.0767L84.7774 104.679L63.6215 92.4641H63.6435ZM109.932 114.96C108.359 114.968 106.984 115.801 106.175 117.025L86.9963 105.953L94.4876 101.625L117.423 114.872L113.688 117.025C112.901 115.779 111.505 114.968 109.932 114.96ZM109.932 114.96L109.91 114.96H109.954L109.932 114.96ZM105.977 117.399C105.648 118.014 105.45 118.717 105.45 119.442C105.45 121.924 107.471 123.923 109.932 123.923C112.392 123.923 114.413 121.902 114.413 119.442C114.413 118.695 114.216 118.014 113.886 117.399L117.84 115.114L157.011 137.742V209.975L110.415 236.887L94.4656 246.092L85.041 240.665L31.8986 209.997L31.8986 137.764L86.5349 106.217L105.933 117.421L105.977 117.399ZM93.4111 540.715L62.8306 558.377L61.3368 559.234L61.3368 543.307C61.7542 543.219 62.0617 542.846 62.0617 542.406C62.0617 542.318 62.0398 542.23 62.0178 542.143L93.4331 524.018V540.715H93.4111ZM95.63 522.261V468.503L108.943 460.814C109.207 460.902 109.47 460.968 109.778 460.99V511.211C108.196 511.32 106.944 512.617 106.944 514.242C106.944 514.726 107.054 515.165 107.251 515.582L95.63 522.283V522.261ZM230.211 544.933L222.917 540.737V523.315L242.909 534.871L252.311 540.297C251.982 540.934 251.762 541.659 251.762 542.45C251.762 544.977 253.761 546.998 256.244 547.129V560.003L230.189 544.955L230.211 544.933ZM0 561.541L22.0347 574.261H26.4504L0 558.993L0 561.541ZM61.1171 259.976C61.3807 259.976 61.5784 260.196 61.5784 260.437C61.5784 260.701 61.3807 260.899 61.1171 260.899C60.8534 260.899 60.6557 260.701 60.6557 260.437C60.6557 260.174 60.8534 259.976 61.1171 259.976ZM61.1171 208.152C63.3859 208.152 65.2252 206.312 65.2252 204.043C65.2252 201.774 63.3859 199.935 61.1171 199.935C58.8482 199.935 57.0089 201.774 57.0089 204.043C57.0089 206.312 58.8482 208.152 61.1171 208.152ZM113.491 175.835C113.491 177.791 111.909 179.372 109.954 179.372C107.998 179.372 106.417 177.791 106.417 175.835C106.417 173.88 107.998 172.299 109.954 172.299C111.909 172.299 113.491 173.88 113.491 175.835Z" fill="url(#paint0_linear_2219_85333)" fill-opacity="0.7"/>
<defs>
<linearGradient id="paint0_linear_2219_85333" x1="0" y1="287.217" x2="535.554" y2="287.217" gradientUnits="userSpaceOnUse">
<stop stop-color="#D400A5"/>
<stop offset="0.541667" stop-color="#1F7ECB"/>
<stop offset="1" stop-color="#2ED6E3"/>
</linearGradient>
</defs>
</svg>
