<svg width="480" height="395" viewBox="0 0 480 395" fill="none" xmlns="http://www.w3.org/2000/svg">
<path d="M347.93 386.075H337.254V386.382H347.93V386.075Z" fill="#EBEBEB"/>
<path d="M451.81 371.343H428.234V371.65H451.81V371.343Z" fill="#EBEBEB"/>
<path d="M77.2492 373.406H69.4727V373.713H77.2492V373.406Z" fill="#EBEBEB"/>
<path d="M453.003 9.7478H299.695V172.892H453.003V9.7478Z" fill="#EBEBEB"/>
<path d="M443.794 18.9551H308.914V163.684H443.794V18.9551Z" fill="#F5F5F5"/>
<path d="M361.844 163.684H402.385L440.445 18.9551H399.903L361.844 163.684Z" fill="#FAFAFA"/>
<path d="M381.075 18.9551L343.016 163.684H352.844L390.903 18.9551H381.075Z" fill="#FAFAFA"/>
<path d="M454.948 17.4206H297.758L294.441 9.68628H458.265L454.948 17.4206Z" fill="#F5F5F5"/>
<path d="M454.948 21.9015H297.758L294.441 14.1672H458.265L454.948 21.9015Z" fill="#F0F0F0"/>
<path d="M454.948 26.3825H297.758L294.441 18.6482H458.265L454.948 26.3825Z" fill="#E6E6E6"/>
<path d="M454.948 30.8634H297.758L294.441 23.1292H458.265L454.948 30.8634Z" fill="#E0E0E0"/>
<path d="M463.975 0H288.727V10.3124H463.975V0Z" fill="#E0E0E0"/>
<path d="M290.52 103.811C289.537 103.811 288.738 103.013 288.738 102.031V41.8878C288.738 40.9057 289.537 40.1077 290.52 40.1077C291.502 40.1077 292.301 40.9057 292.301 41.8878V102.031C292.301 103.013 291.502 103.811 290.52 103.811Z" fill="#E0E0E0"/>
<path d="M291.161 8.23755H289.871V43.9625H291.161V8.23755Z" fill="#E0E0E0"/>
<path d="M52.2231 6.58032H50.0117V178.907H52.2231V6.58032Z" fill="#E0E0E0"/>
<path d="M189.879 6.58032H187.668V178.907H189.879V6.58032Z" fill="#E0E0E0"/>
<path d="M198.542 17.4206H41.3522L38.0352 9.68628H201.859L198.542 17.4206Z" fill="#F5F5F5"/>
<path d="M198.542 28.0399H41.3522L38.0352 20.3057H201.859L198.542 28.0399Z" fill="#F5F5F5"/>
<path d="M198.542 38.6591H41.3522L38.0352 30.9248H201.859L198.542 38.6591Z" fill="#F5F5F5"/>
<path d="M198.542 49.2785H41.3522L38.0352 41.5442H201.859L198.542 49.2785Z" fill="#F5F5F5"/>
<path d="M198.542 59.8976H41.3522L38.0352 52.1633H201.859L198.542 59.8976Z" fill="#F5F5F5"/>
<path d="M198.542 70.5167H41.3522L38.0352 62.7825H201.859L198.542 70.5167Z" fill="#F5F5F5"/>
<path d="M198.542 81.1364H41.3522L38.0352 73.4021H201.859L198.542 81.1364Z" fill="#F5F5F5"/>
<path d="M198.542 91.7431H41.3522L38.0352 84.0088H201.859L198.542 91.7431Z" fill="#F5F5F5"/>
<path d="M198.542 102.362H41.3522L38.0352 94.6282H201.859L198.542 102.362Z" fill="#F5F5F5"/>
<path d="M198.542 112.982H41.3522L38.0352 105.248H201.859L198.542 112.982Z" fill="#F5F5F5"/>
<path d="M198.542 123.601H41.3522L38.0352 115.867H201.859L198.542 123.601Z" fill="#F5F5F5"/>
<path d="M198.542 134.22H41.3522L38.0352 126.486H201.859L198.542 134.22Z" fill="#F5F5F5"/>
<path d="M198.542 144.84H41.3522L38.0352 137.105H201.859L198.542 144.84Z" fill="#F5F5F5"/>
<path d="M198.542 155.459H41.3522L38.0352 147.724H201.859L198.542 155.459Z" fill="#F5F5F5"/>
<path d="M198.542 166.078H41.3522L38.0352 158.344H201.859L198.542 166.078Z" fill="#F5F5F5"/>
<path d="M198.542 176.697H41.3522L38.0352 168.963H201.859L198.542 176.697Z" fill="#F5F5F5"/>
<path d="M201.859 176.697H38.0352V181.117H201.859V176.697Z" fill="#E0E0E0"/>
<path d="M207.569 0H32.3203V10.3124H207.569V0Z" fill="#E0E0E0"/>
<path d="M34.129 103.811C33.1462 103.811 32.3477 103.013 32.3477 102.031V41.8878C32.3477 40.9057 33.1462 40.1077 34.129 40.1077C35.1118 40.1077 35.9104 40.9057 35.9104 41.8878V102.031C35.9104 103.013 35.1118 103.811 34.129 103.811Z" fill="#E0E0E0"/>
<path d="M34.7665 8.23767H33.4766V43.9626H34.7665V8.23767Z" fill="#E0E0E0"/>
<path d="M50.7511 289.286C50.6037 289.458 51.4268 290.612 48.0606 290.097C39.7681 288.857 25.3329 285.493 21.3157 276.973C15.5785 264.807 33.3675 269.251 32.7532 263.027C32.139 256.802 11.8929 257.895 9.74298 248.761C7.59307 239.64 21.328 243.986 21.5122 239.529C21.6965 235.085 5.87314 237.847 2.72812 228.001C-0.416898 218.156 11.5489 225.399 10.173 221.311C8.79703 217.223 -4.58159 198.697 2.69127 196.549C9.97641 194.4 22.2494 213.405 26.9792 216.093C31.709 218.782 35.9228 203.276 41.5617 209.82C47.2006 216.363 38.257 239.271 45.4562 243.716C50.8125 247.03 49.3014 237.909 56.3777 239.603C65.9848 241.911 62.7537 275.831 50.7388 289.262L50.7511 289.286Z" fill="#EBEBEB"/>
<path d="M25.162 239.59C28.4176 239.861 30.8255 240.524 32.3243 241.064C29.4004 236.791 27.2996 234.594 27.2259 234.52C26.9925 234.275 26.9925 233.894 27.2259 233.649C27.4716 233.415 27.8525 233.415 28.0982 233.649C28.1596 233.71 33 238.694 38.3072 248.454C40.9117 232.752 34.3391 219.039 34.2654 218.892C34.1548 218.659 34.2531 218.389 34.4742 218.278C34.6954 218.168 34.9779 218.266 35.0885 218.487C35.1622 218.634 42.1894 233.28 38.9952 249.756C39.8429 251.376 40.7028 253.095 41.5382 254.961C43.9707 260.326 46.526 267.201 48.5408 275.475C49.9413 272.946 53.1478 266.182 53.4303 256.741C53.4303 256.483 53.6515 256.287 53.9095 256.299C54.1674 256.311 54.364 256.52 54.3517 256.778C54.02 267.704 49.8308 275.18 48.8602 276.776C51.5261 288.267 53.1232 302.41 51.9807 319.082C51.9561 319.425 51.6613 319.671 51.3296 319.646C51.305 319.646 51.2804 319.646 51.2559 319.646C50.961 319.585 50.7399 319.315 50.7644 319.008C52.2878 296.947 48.9831 279.207 44.413 265.777C43.2582 264.438 39.8306 261.001 34.6094 260.191C34.3759 260.129 34.1917 259.921 34.2285 259.663C34.2654 259.417 34.4988 259.245 34.7568 259.282C38.8846 259.933 41.9068 262.069 43.7004 263.726C40.3343 254.396 36.403 247.3 33.2211 242.451C32.2015 241.984 29.4004 240.904 25.076 240.536C24.8303 240.499 24.6338 240.29 24.6583 240.032C24.6829 239.775 24.904 239.59 25.1497 239.615L25.162 239.59Z" fill="#F5F5F5"/>
<path d="M61.3671 293.988C68.2591 294.123 80.0283 287.727 84.6476 281.503C89.3405 275.193 76.1462 279.109 77.4976 274.149C78.8489 269.189 95.1146 272.86 98.1122 265.752C101.11 258.656 89.3774 260.289 89.8442 256.655C90.3111 253.021 102.461 253.758 106.368 246.22C110.275 238.67 99.5741 242.905 101.257 239.775C102.94 236.644 116.331 223.484 110.729 220.746C105.127 217.996 92.5593 231.709 88.3577 233.244C84.1439 234.778 83.1611 225.301 77.6941 229.831C72.2149 234.361 76.3182 254.151 69.8684 256.765C65.0649 258.705 67.1043 249.645 61.5882 251.929C51.9074 255.931 58.5783 293.927 61.3793 293.976L61.3671 293.988Z" fill="#E0E0E0"/>
<g opacity="0.3">
<path d="M61.3671 293.988C68.2591 294.123 80.0283 287.727 84.6476 281.503C89.3405 275.193 76.1462 279.109 77.4976 274.149C78.8489 269.189 95.1146 272.86 98.1122 265.752C101.11 258.656 89.3774 260.289 89.8442 256.655C90.3111 253.021 102.461 253.758 106.368 246.22C110.275 238.67 99.5741 242.905 101.257 239.775C102.94 236.644 116.331 223.484 110.729 220.746C105.127 217.996 92.5593 231.709 88.3577 233.244C84.1439 234.778 83.1611 225.301 77.6941 229.831C72.2149 234.361 76.3182 254.151 69.8684 256.765C65.0649 258.705 67.1043 249.645 61.5882 251.929C51.9074 255.931 58.5783 293.927 61.3793 293.976L61.3671 293.988Z" fill="#E0E0E0"/>
</g>
<path d="M63.6488 285.726C63.5505 285.689 63.4645 285.628 63.4031 285.53C63.2434 285.223 59.4718 277.918 60.3072 267.078C60.3318 266.82 60.5406 266.636 60.7986 266.661C61.0566 266.685 61.2409 266.906 61.2163 267.152C60.5038 276.31 63.2434 283.013 64.0051 284.695C67.0887 276.322 70.7865 268.883 74.4966 262.511C73.2804 247.73 80.8604 235.625 80.9341 235.502C81.0692 235.294 81.3518 235.22 81.5729 235.355C81.7818 235.49 81.8555 235.773 81.7204 235.994C81.6466 236.104 74.6809 247.239 75.332 261.087C84.1651 246.306 92.7771 237.725 92.9491 237.553C93.1948 237.319 93.5756 237.319 93.8213 237.553C94.0547 237.798 94.0547 238.179 93.8213 238.424C93.6739 238.572 87.5436 244.685 80.3813 255.415C84.5828 253.856 89.1406 253.046 93.4036 253.119C93.6616 253.119 93.8582 253.328 93.8582 253.586C93.8582 253.831 93.6493 254.04 93.3913 254.04C88.8335 253.954 83.9194 254.912 79.4967 256.741C77.0274 260.522 74.4721 264.844 72.0027 269.619C74.3738 268.023 78.9685 265.801 84.8531 267.36C85.0988 267.422 85.2462 267.679 85.1848 267.925C85.1234 268.171 84.8654 268.318 84.6197 268.256C77.1503 266.292 71.8922 270.749 71.0322 271.534C64.2753 285.125 58.4521 302.312 57.6782 322.004C57.6659 322.335 57.3956 322.593 57.0639 322.593H57.0393C56.6953 322.58 56.4374 322.298 56.4496 321.954C56.9779 308.622 59.7912 296.444 63.6488 285.714V285.726Z" fill="#F5F5F5"/>
<path d="M41.9868 361.239C35.4142 348.877 31.0898 331.027 31.0898 323.207C31.0898 316.589 34.198 310.66 39.1244 306.498H72.7982C77.7246 310.66 80.8327 316.589 80.8327 323.207C80.8327 331.027 76.5083 348.889 69.9357 361.239H41.9991H41.9868Z" fill="#F0F0F0"/>
<path d="M300.546 40.4023H271.086C269.157 40.4023 267.4 41.8387 266.995 43.7539L266.798 44.6746C265.791 49.352 261.503 52.8508 256.798 52.8508H228.788C224.07 52.8508 220.409 49.352 220.213 44.6746L220.176 43.7539C220.102 41.8387 218.591 40.4023 216.662 40.4023H187.202C177.374 40.4023 168.713 48.3576 167.853 58.1789L144.155 328.927C143.295 338.749 150.568 346.704 160.396 346.704H273.752C283.58 346.704 292.241 338.749 293.101 328.927L316.799 58.1789C317.659 48.3576 310.386 40.4023 300.558 40.4023H300.546Z" fill="url(#paint0_linear_2128_49574)"/>
<path opacity="0.7" d="M300.546 40.4023H271.086C269.157 40.4023 267.4 41.8387 266.995 43.7539L266.798 44.6746C265.791 49.352 261.503 52.8508 256.798 52.8508H228.788C224.07 52.8508 220.409 49.352 220.213 44.6746L220.176 43.7539C220.102 41.8387 218.591 40.4023 216.662 40.4023H187.202C177.374 40.4023 168.713 48.3576 167.853 58.1789L144.155 328.927C143.295 338.749 150.568 346.704 160.396 346.704H273.752C283.58 346.704 292.241 338.749 293.101 328.927L316.799 58.1789C317.659 48.3576 310.386 40.4023 300.558 40.4023H300.546Z" fill="white" fill-opacity="0.5"/>
<path d="M289.058 164.924H228.872C226.686 164.924 225.076 163.156 225.26 160.971L229.794 109.176C229.99 106.991 231.907 105.223 234.094 105.223H294.279C296.466 105.223 298.075 106.991 297.891 109.176L293.357 160.971C293.161 163.156 291.244 164.924 289.058 164.924Z" fill="white" fill-opacity="0.5"/>
<path d="M269.01 326.877H168.284C162.866 326.877 158.849 322.482 159.328 317.068C159.807 311.654 164.586 307.259 170.004 307.259H270.73C276.148 307.259 280.165 311.654 279.686 317.068C279.207 322.482 274.428 326.877 269.01 326.877Z" fill="white" fill-opacity="0.5"/>
<path d="M277.058 90.9943H184.637C181.59 90.9943 179.342 88.5267 179.612 85.4821L180.361 76.8762C180.632 73.8316 183.31 71.364 186.356 71.364H278.778C281.825 71.364 284.073 73.8316 283.803 76.8762L283.053 85.4821C282.783 88.5267 280.105 90.9943 277.058 90.9943Z" fill="white" fill-opacity="0.5"/>
<path d="M295.851 76.5939C295.777 77.441 295.028 78.1285 294.18 78.1285C293.332 78.1285 292.706 77.441 292.779 76.5939C292.853 75.7468 293.602 75.0593 294.45 75.0593C295.298 75.0593 295.924 75.7468 295.851 76.5939Z" fill="white" fill-opacity="0.5"/>
<path d="M295.448 81.1856C295.375 82.0327 294.625 82.7202 293.778 82.7202C292.93 82.7202 292.303 82.0327 292.377 81.1856C292.451 80.3385 293.2 79.651 294.048 79.651C294.895 79.651 295.522 80.3385 295.448 81.1856Z" fill="white" fill-opacity="0.5"/>
<path d="M295.058 85.7646C294.984 86.6116 294.235 87.2991 293.387 87.2991C292.539 87.2991 291.913 86.6116 291.986 85.7646C292.06 84.9175 292.809 84.23 293.657 84.23C294.505 84.23 295.131 84.9175 295.058 85.7646Z" fill="white" fill-opacity="0.5"/>
<path d="M281.577 250.382H169.13C166.943 250.382 165.334 248.614 165.518 246.429L170.69 187.304C170.887 185.119 172.803 183.351 174.99 183.351H287.437C289.624 183.351 291.233 185.119 291.049 187.304L285.877 246.429C285.68 248.614 283.764 250.382 281.577 250.382Z" fill="white" fill-opacity="0.5"/>
<path d="M200.062 262.732H165.049C164.52 262.732 164.115 262.302 164.164 261.762C164.213 261.234 164.68 260.792 165.208 260.792H200.221C200.75 260.792 201.155 261.222 201.106 261.762C201.057 262.29 200.59 262.732 200.062 262.732Z" fill="white" fill-opacity="0.5"/>
<path d="M243.821 262.732H206.24C205.712 262.732 205.306 262.302 205.356 261.762C205.405 261.234 205.872 260.792 206.4 260.792H243.98C244.509 260.792 244.914 261.222 244.865 261.762C244.816 262.29 244.349 262.732 243.821 262.732Z" fill="white" fill-opacity="0.5"/>
<path d="M187.989 271.252H164.303C163.774 271.252 163.369 270.822 163.418 270.282C163.467 269.754 163.934 269.312 164.475 269.312H188.161C188.689 269.312 189.094 269.742 189.045 270.282C188.996 270.81 188.529 271.252 187.989 271.252Z" fill="white" fill-opacity="0.5"/>
<path d="M232.967 271.252H194.17C193.642 271.252 193.236 270.822 193.285 270.282C193.334 269.754 193.801 269.312 194.33 269.312H233.126C233.655 269.312 234.06 269.742 234.011 270.282C233.962 270.81 233.495 271.252 232.967 271.252Z" fill="white" fill-opacity="0.5"/>
<path d="M226.702 279.784H163.568C163.04 279.784 162.635 279.354 162.684 278.814C162.733 278.286 163.2 277.844 163.74 277.844H226.874C227.402 277.844 227.808 278.274 227.759 278.814C227.709 279.342 227.243 279.784 226.714 279.784H226.702Z" fill="white" fill-opacity="0.5"/>
<path d="M237.045 279.784H232.881C232.352 279.784 231.947 279.354 231.996 278.814C232.045 278.286 232.512 277.844 233.04 277.844H237.205C237.733 277.844 238.139 278.274 238.09 278.814C238.041 279.342 237.574 279.784 237.045 279.784Z" fill="white" fill-opacity="0.5"/>
<path d="M192.287 288.304H162.814C162.286 288.304 161.881 287.874 161.93 287.334C161.979 286.806 162.446 286.365 162.974 286.365H192.446C192.975 286.365 193.38 286.794 193.331 287.334C193.282 287.862 192.815 288.304 192.287 288.304Z" fill="white" fill-opacity="0.5"/>
<path d="M235.178 288.304H198.482C197.954 288.304 197.549 287.874 197.598 287.334C197.647 286.806 198.114 286.365 198.654 286.365H235.35C235.879 286.365 236.284 286.794 236.235 287.334C236.186 287.862 235.719 288.304 235.191 288.304H235.178Z" fill="white" fill-opacity="0.5"/>
<path d="M198.371 296.836H162.08C161.552 296.836 161.146 296.407 161.195 295.866C161.245 295.338 161.711 294.896 162.24 294.896H198.53C199.059 294.896 199.464 295.326 199.415 295.866C199.366 296.394 198.899 296.836 198.358 296.836H198.371Z" fill="white" fill-opacity="0.5"/>
<path d="M233.776 296.836H204.537C204.009 296.836 203.603 296.407 203.652 295.866C203.702 295.338 204.168 294.896 204.697 294.896H233.936C234.464 294.896 234.869 295.326 234.82 295.866C234.771 296.394 234.304 296.836 233.776 296.836Z" fill="white" fill-opacity="0.5"/>
<path d="M287.631 160.026C287.139 160.529 286.353 160.578 285.886 160.136L235.603 112.184C235.136 111.73 235.148 110.956 235.64 110.453C236.131 109.949 236.917 109.9 237.384 110.342L287.668 158.295C288.135 158.749 288.122 159.522 287.631 160.026Z" fill="url(#paint1_linear_2128_49574)"/>
<path d="M231.162 160.001C230.756 159.498 230.879 158.712 231.42 158.27L257.071 137.314C257.624 136.86 258.386 136.921 258.791 137.425C259.197 137.928 259.074 138.714 258.533 139.156L232.882 160.112C232.329 160.566 231.567 160.517 231.162 160.001Z" fill="url(#paint2_linear_2128_49574)"/>
<path d="M264.303 132.919C263.897 132.416 264.02 131.63 264.56 131.188L290.261 110.195C290.814 109.741 291.576 109.79 291.981 110.305C292.387 110.809 292.264 111.594 291.723 112.036L266.022 133.029C265.47 133.484 264.708 133.435 264.303 132.919Z" fill="url(#paint3_linear_2128_49574)"/>
<g opacity="0.7">
<path d="M287.631 160.026C287.139 160.529 286.353 160.578 285.886 160.136L235.603 112.184C235.136 111.73 235.148 110.956 235.64 110.453C236.131 109.95 236.917 109.9 237.384 110.342L287.668 158.295C288.135 158.749 288.122 159.523 287.631 160.026Z" fill="white" fill-opacity="0.5"/>
</g>
<g opacity="0.7">
<path d="M231.158 160.001C230.753 159.498 230.875 158.712 231.416 158.27L257.068 137.314C257.62 136.86 258.382 136.921 258.787 137.425C259.193 137.928 259.07 138.714 258.529 139.156L232.878 160.112C232.325 160.566 231.563 160.517 231.158 160.001Z" fill="white" fill-opacity="0.5"/>
</g>
<g opacity="0.7">
<path d="M264.303 132.919C263.897 132.416 264.02 131.63 264.56 131.188L290.261 110.195C290.814 109.741 291.576 109.79 291.981 110.306C292.387 110.809 292.264 111.595 291.723 112.037L266.022 133.03C265.47 133.484 264.708 133.435 264.303 132.919Z" fill="white" fill-opacity="0.5"/>
</g>
<path d="M144.636 34.5095H128.727C125.496 34.5095 122.879 37.1244 122.879 40.3532V56.2514C122.879 59.4802 125.496 62.0951 128.727 62.0951H144.636C147.867 62.0951 150.484 59.4802 150.484 56.2514V40.3532C150.484 37.1244 147.867 34.5095 144.636 34.5095ZM136.675 40.1568C139.071 40.1568 140.373 42.0965 140.373 44.5027C140.373 46.9089 139.083 48.8486 136.675 48.8486C134.267 48.8486 132.977 46.9089 132.977 44.5027C132.977 42.0965 134.267 40.1568 136.675 40.1568ZM146.282 56.4478H127.068C126.908 56.4478 126.761 56.3865 126.663 56.276L127.891 52.9122C128.69 50.7515 130.741 49.3151 133.051 49.3151H140.299C142.609 49.3151 144.661 50.7515 145.459 52.9122L146.688 56.276C146.577 56.3865 146.442 56.4478 146.282 56.4478Z" fill="url(#paint4_linear_2128_49574)"/>
<path opacity="0.7" d="M144.636 34.5095H128.727C125.496 34.5095 122.879 37.1244 122.879 40.3532V56.2514C122.879 59.4802 125.496 62.0951 128.727 62.0951H144.636C147.867 62.0951 150.484 59.4802 150.484 56.2514V40.3532C150.484 37.1244 147.867 34.5095 144.636 34.5095ZM136.675 40.1568C139.071 40.1568 140.373 42.0965 140.373 44.5027C140.373 46.9089 139.083 48.8486 136.675 48.8486C134.267 48.8486 132.977 46.9089 132.977 44.5027C132.977 42.0965 134.267 40.1568 136.675 40.1568ZM146.282 56.4478H127.068C126.908 56.4478 126.761 56.3865 126.663 56.276L127.891 52.9122C128.69 50.7515 130.741 49.3151 133.051 49.3151H140.299C142.609 49.3151 144.661 50.7515 145.459 52.9122L146.688 56.276C146.577 56.3865 146.442 56.4478 146.282 56.4478Z" fill="white" fill-opacity="0.5"/>
<path d="M88.026 99.907H75.9373C71.5884 99.907 68.0625 103.43 68.0625 107.776V119.856C68.0625 124.202 71.5884 127.726 75.9373 127.726H88.026C92.375 127.726 95.9008 124.202 95.9008 119.856V107.776C95.9008 103.43 92.375 99.907 88.026 99.907ZM81.9817 120.409C81.9817 120.409 77.0184 115.007 77.0184 112.27C77.0184 109.532 79.2421 107.31 81.9817 107.31C84.7213 107.31 86.9449 109.532 86.9449 112.27C86.9449 115.007 81.9817 120.409 81.9817 120.409Z" fill="url(#paint5_linear_2128_49574)"/>
<path d="M81.9753 110.011C80.7222 110.011 79.7148 111.03 79.7148 112.282C79.7148 113.534 80.7345 114.553 81.9753 114.553C83.2161 114.553 84.2481 113.534 84.2481 112.282C84.2481 111.03 83.2284 110.011 81.9753 110.011Z" fill="url(#paint6_linear_2128_49574)"/>
<g opacity="0.7">
<path d="M88.026 99.9075H75.9373C71.5884 99.9075 68.0625 103.431 68.0625 107.777V119.857C68.0625 124.203 71.5884 127.726 75.9373 127.726H88.026C92.375 127.726 95.9008 124.203 95.9008 119.857V107.777C95.9008 103.431 92.375 99.9075 88.026 99.9075ZM81.9817 120.409C81.9817 120.409 77.0184 115.008 77.0184 112.27C77.0184 109.532 79.2421 107.31 81.9817 107.31C84.7213 107.31 86.9449 109.532 86.9449 112.27C86.9449 115.008 81.9817 120.409 81.9817 120.409Z" fill="white" fill-opacity="0.5"/>
<path d="M81.9792 110.011C80.7261 110.011 79.7188 111.03 79.7188 112.282C79.7188 113.535 80.7384 114.554 81.9792 114.554C83.22 114.554 84.252 113.535 84.252 112.282C84.252 111.03 83.2323 110.011 81.9792 110.011Z" fill="white" fill-opacity="0.5"/>
</g>
<path d="M353.434 65.68L361.53 60.4378L353.434 55.208V65.68Z" fill="url(#paint7_linear_2128_49574)"/>
<path d="M363.862 46.1721H348.432C344.796 46.1721 341.859 49.1185 341.859 52.7401V68.1595C341.859 71.7934 344.808 74.7275 348.432 74.7275H363.862C367.499 74.7275 370.435 71.7811 370.435 68.1595V52.7401C370.435 49.1062 367.486 46.1721 363.862 46.1721ZM356.147 70.7131C350.471 70.7131 345.877 66.1093 345.877 60.4498C345.877 54.778 350.484 50.1866 356.147 50.1866C361.811 50.1866 366.418 54.7903 366.418 60.4498C366.418 66.1216 361.823 70.7131 356.147 70.7131Z" fill="url(#paint8_linear_2128_49574)"/>
<g opacity="0.7">
<path d="M353.438 65.68L361.533 60.4378L353.438 55.208V65.68Z" fill="white" fill-opacity="0.5"/>
<path d="M363.87 46.1724H348.44C344.803 46.1724 341.867 49.1187 341.867 52.7404V68.1598C341.867 71.7937 344.816 74.7278 348.44 74.7278H363.87C367.506 74.7278 370.443 71.7814 370.443 68.1598V52.7404C370.443 49.1065 367.494 46.1724 363.87 46.1724ZM356.155 70.7133C350.479 70.7133 345.884 66.1096 345.884 60.4501C345.884 54.7783 350.491 50.1868 356.155 50.1868C361.818 50.1868 366.425 54.7905 366.425 60.4501C366.425 66.1219 361.831 70.7133 356.155 70.7133Z" fill="white" fill-opacity="0.5"/>
</g>
<path d="M379.014 105.309C379.014 104.99 379.002 104.67 378.965 104.364L380.82 103.332C380.685 102.436 380.452 101.577 380.132 100.766L378.019 100.803C377.749 100.226 377.429 99.6861 377.073 99.1705L378.167 97.3536C377.601 96.6661 376.975 96.0277 376.287 95.4752L374.469 96.5679C373.953 96.2118 373.412 95.8926 372.835 95.6226L372.872 93.511C372.049 93.1918 371.189 92.9585 370.304 92.8235L369.272 94.6773C368.965 94.6527 368.646 94.6282 368.326 94.6282C368.007 94.6282 367.687 94.6404 367.38 94.6773L366.348 92.8235C365.451 92.9585 364.591 93.1918 363.781 93.511L363.817 95.6226C363.24 95.8926 362.699 96.2118 362.184 96.5679L360.365 95.4752C359.677 96.04 359.038 96.6661 358.486 97.3536L359.579 99.1705C359.223 99.6861 358.903 100.226 358.633 100.803L356.52 100.766C356.201 101.589 355.967 102.448 355.832 103.332L357.687 104.364C357.663 104.67 357.638 104.99 357.638 105.309C357.638 105.628 357.65 105.947 357.687 106.254L355.832 107.285C355.967 108.182 356.201 109.041 356.52 109.851L358.633 109.814C358.903 110.391 359.223 110.931 359.579 111.447L358.486 113.264C359.051 113.952 359.677 114.59 360.365 115.142L362.184 114.05C362.699 114.406 363.24 114.725 363.817 114.995L363.781 117.107C364.604 117.426 365.464 117.659 366.348 117.794L367.38 115.94C367.687 115.965 368.007 115.989 368.326 115.989C368.646 115.989 368.965 115.977 369.272 115.94L370.304 117.794C371.201 117.659 372.061 117.426 372.872 117.107L372.835 114.995C373.412 114.725 373.953 114.406 374.469 114.05L376.287 115.142C376.975 114.578 377.614 113.952 378.167 113.264L377.073 111.447C377.429 110.931 377.749 110.391 378.019 109.814L380.132 109.851C380.452 109.029 380.685 108.169 380.82 107.285L378.965 106.254C378.99 105.947 379.014 105.628 379.014 105.309ZM368.314 112.577C364.297 112.577 361.041 109.323 361.041 105.309C361.041 101.294 364.297 98.041 368.314 98.041C372.331 98.041 375.587 101.294 375.587 105.309C375.587 109.323 372.331 112.577 368.314 112.577Z" fill="url(#paint9_linear_2128_49574)"/>
<path opacity="0.7" d="M379.014 105.309C379.014 104.99 379.002 104.67 378.965 104.364L380.82 103.332C380.685 102.436 380.452 101.577 380.132 100.766L378.019 100.803C377.749 100.226 377.429 99.6861 377.073 99.1705L378.167 97.3536C377.601 96.6661 376.975 96.0277 376.287 95.4752L374.469 96.5679C373.953 96.2118 373.412 95.8926 372.835 95.6226L372.872 93.511C372.049 93.1918 371.189 92.9585 370.304 92.8235L369.272 94.6773C368.965 94.6527 368.646 94.6282 368.326 94.6282C368.007 94.6282 367.687 94.6404 367.38 94.6773L366.348 92.8235C365.451 92.9585 364.591 93.1918 363.781 93.511L363.817 95.6226C363.24 95.8926 362.699 96.2118 362.184 96.5679L360.365 95.4752C359.677 96.04 359.038 96.6661 358.486 97.3536L359.579 99.1705C359.223 99.6861 358.903 100.226 358.633 100.803L356.52 100.766C356.201 101.589 355.967 102.448 355.832 103.332L357.687 104.364C357.663 104.67 357.638 104.99 357.638 105.309C357.638 105.628 357.65 105.947 357.687 106.254L355.832 107.285C355.967 108.182 356.201 109.041 356.52 109.851L358.633 109.814C358.903 110.391 359.223 110.931 359.579 111.447L358.486 113.264C359.051 113.952 359.677 114.59 360.365 115.142L362.184 114.05C362.699 114.406 363.24 114.725 363.817 114.995L363.781 117.107C364.604 117.426 365.464 117.659 366.348 117.794L367.38 115.94C367.687 115.965 368.007 115.989 368.326 115.989C368.646 115.989 368.965 115.977 369.272 115.94L370.304 117.794C371.201 117.659 372.061 117.426 372.872 117.107L372.835 114.995C373.412 114.725 373.953 114.406 374.469 114.05L376.287 115.142C376.975 114.578 377.614 113.952 378.167 113.264L377.073 111.447C377.429 110.931 377.749 110.391 378.019 109.814L380.132 109.851C380.452 109.029 380.685 108.169 380.82 107.285L378.965 106.254C378.99 105.947 379.014 105.628 379.014 105.309ZM368.314 112.577C364.297 112.577 361.041 109.323 361.041 105.309C361.041 101.294 364.297 98.041 368.314 98.041C372.331 98.041 375.587 101.294 375.587 105.309C375.587 109.323 372.331 112.577 368.314 112.577Z" fill="white" fill-opacity="0.5"/>
<path d="M351.009 141.807C351.009 141.329 350.985 140.862 350.948 140.396L353.724 138.861C353.516 137.523 353.159 136.246 352.692 135.018L349.523 135.067C349.117 134.208 348.651 133.386 348.11 132.624L349.744 129.911C348.909 128.88 347.963 127.935 346.931 127.1L344.216 128.733C343.442 128.193 342.631 127.714 341.771 127.321L341.82 124.154C340.591 123.687 339.302 123.331 337.975 123.122L336.439 125.897C335.972 125.86 335.505 125.835 335.026 125.835C334.547 125.835 334.08 125.86 333.613 125.897L332.078 123.122C330.739 123.331 329.461 123.687 328.233 124.154L328.282 127.321C327.422 127.726 326.599 128.193 325.837 128.733L323.122 127.1C322.09 127.935 321.144 128.88 320.309 129.911L321.942 132.624C321.402 133.398 320.923 134.208 320.53 135.067L317.36 135.018C316.893 136.246 316.537 137.535 316.328 138.861L319.105 140.396C319.068 140.862 319.043 141.329 319.043 141.807C319.043 142.286 319.068 142.753 319.105 143.219L316.328 144.754C316.537 146.092 316.893 147.369 317.36 148.596L320.53 148.547C320.935 149.407 321.402 150.229 321.942 150.99L320.309 153.703C321.144 154.735 322.09 155.68 323.122 156.515L325.837 154.882C326.611 155.422 327.422 155.901 328.282 156.294L328.233 159.461C329.461 159.928 330.751 160.284 332.078 160.492L333.613 157.718C334.08 157.755 334.547 157.779 335.026 157.779C335.505 157.779 335.972 157.755 336.439 157.718L337.975 160.492C339.314 160.284 340.591 159.928 341.82 159.461L341.771 156.294C342.631 155.889 343.454 155.422 344.216 154.882L346.931 156.515C347.963 155.68 348.909 154.735 349.744 153.703L348.11 150.99C348.651 150.217 349.13 149.407 349.523 148.547L352.692 148.596C353.159 147.369 353.516 146.092 353.724 144.754L350.948 143.219C350.985 142.753 351.009 142.286 351.009 141.807ZM334.989 148.117C331.5 148.117 328.675 145.294 328.675 141.807C328.675 138.321 331.5 135.497 334.989 135.497C338.478 135.497 341.304 138.321 341.304 141.807C341.304 145.294 338.478 148.117 334.989 148.117Z" fill="url(#paint10_linear_2128_49574)"/>
<path opacity="0.7" d="M351.009 141.807C351.009 141.329 350.985 140.862 350.948 140.396L353.724 138.861C353.516 137.523 353.159 136.246 352.692 135.018L349.523 135.067C349.117 134.208 348.651 133.386 348.11 132.624L349.744 129.911C348.909 128.88 347.963 127.935 346.931 127.1L344.216 128.733C343.442 128.193 342.631 127.714 341.771 127.321L341.82 124.154C340.591 123.687 339.302 123.331 337.975 123.122L336.439 125.897C335.972 125.86 335.505 125.835 335.026 125.835C334.547 125.835 334.08 125.86 333.613 125.897L332.078 123.122C330.739 123.331 329.461 123.687 328.233 124.154L328.282 127.321C327.422 127.726 326.599 128.193 325.837 128.733L323.122 127.1C322.09 127.935 321.144 128.88 320.309 129.911L321.942 132.624C321.402 133.398 320.923 134.208 320.53 135.067L317.36 135.018C316.893 136.246 316.537 137.535 316.328 138.861L319.105 140.396C319.068 140.862 319.043 141.329 319.043 141.807C319.043 142.286 319.068 142.753 319.105 143.219L316.328 144.754C316.537 146.092 316.893 147.369 317.36 148.596L320.53 148.547C320.935 149.407 321.402 150.229 321.942 150.99L320.309 153.703C321.144 154.735 322.09 155.68 323.122 156.515L325.837 154.882C326.611 155.422 327.422 155.901 328.282 156.294L328.233 159.461C329.461 159.928 330.751 160.284 332.078 160.492L333.613 157.718C334.08 157.755 334.547 157.779 335.026 157.779C335.505 157.779 335.972 157.755 336.439 157.718L337.975 160.492C339.314 160.284 340.591 159.928 341.82 159.461L341.771 156.294C342.631 155.889 343.454 155.422 344.216 154.882L346.931 156.515C347.963 155.68 348.909 154.735 349.744 153.703L348.11 150.99C348.651 150.217 349.13 149.407 349.523 148.547L352.692 148.596C353.159 147.369 353.516 146.092 353.724 144.754L350.948 143.219C350.985 142.753 351.009 142.286 351.009 141.807ZM334.989 148.117C331.5 148.117 328.675 145.294 328.675 141.807C328.675 138.321 331.5 135.497 334.989 135.497C338.478 135.497 341.304 138.321 341.304 141.807C341.304 145.294 338.478 148.117 334.989 148.117Z" fill="white" fill-opacity="0.5"/>
<path d="M305.852 70.6273V77.0602L299.722 80.289C298.666 80.8537 298.666 82.3637 299.722 82.9285L305.852 86.1572V92.5902C305.852 94.0265 307.019 95.1928 308.457 95.1928H330.435C331.873 95.1928 333.04 94.0265 333.04 92.5902V70.6273C333.04 69.1909 331.873 68.0247 330.435 68.0247H308.457C307.019 68.0247 305.852 69.1909 305.852 70.6273Z" fill="url(#paint11_linear_2128_49574)"/>
<g opacity="0.9">
<path d="M313.407 77.3179H325.889C326.736 77.3179 327.424 76.6304 327.424 75.7834C327.424 74.9363 326.736 74.2488 325.889 74.2488H313.407C312.559 74.2488 311.871 74.9363 311.871 75.7834C311.871 76.6304 312.559 77.3179 313.407 77.3179Z" fill="white" fill-opacity="0.5"/>
<path d="M325.9 80.0679H313.418C312.571 80.0679 311.883 80.7554 311.883 81.6024C311.883 82.4495 312.571 83.137 313.418 83.137H325.9C326.748 83.137 327.436 82.4495 327.436 81.6024C327.436 80.7554 326.748 80.0679 325.9 80.0679Z" fill="white" fill-opacity="0.5"/>
<path d="M325.9 85.887H313.418C312.571 85.887 311.883 86.5745 311.883 87.4215C311.883 88.2686 312.571 88.9561 313.418 88.9561H325.9C326.748 88.9561 327.436 88.2686 327.436 87.4215C327.436 86.5745 326.748 85.887 325.9 85.887Z" fill="white" fill-opacity="0.5"/>
</g>
<path d="M181.683 60.5237H186.929L189.631 65.6431C190.418 67.1285 192.543 67.1285 193.317 65.6431L196.02 60.5237H201.266C203.354 60.5237 205.049 58.8295 205.049 56.7425V37.1613C205.049 35.0743 203.354 33.3801 201.266 33.3801H181.671C179.582 33.3801 177.887 35.0743 177.887 37.1613V56.7425C177.887 58.8295 179.582 60.5237 181.671 60.5237H181.683Z" fill="url(#paint12_linear_2128_49574)"/>
<path opacity="0.9" d="M191.486 39.2239L185.441 42.7718V53.1087H189.938V46.1602H193.046V53.1087H197.542V42.7718L191.486 39.2239Z" fill="white" fill-opacity="0.5"/>
<path d="M240.532 341.364H235.802L232.78 335.643C232.129 334.415 230.36 334.415 229.709 335.643L226.686 341.364H221.957C219.573 341.364 217.645 343.291 217.645 345.673V364.21C217.645 366.592 219.573 368.519 221.957 368.519H240.507C242.891 368.519 244.819 366.592 244.819 364.21V345.673C244.819 343.291 242.891 341.364 240.507 341.364H240.532Z" fill="url(#paint13_linear_2128_49574)"/>
<path opacity="0.9" d="M233.884 348.435C231.268 345.82 227.005 345.82 224.4 348.435C221.783 351.05 221.783 355.298 224.4 357.913C226.722 360.233 230.334 360.491 232.938 358.698C232.987 358.993 233.123 359.288 233.356 359.521L237.521 363.683C238.11 364.272 239.056 364.272 239.646 363.683C240.236 363.093 240.236 362.148 239.646 361.559L235.481 357.397C235.248 357.164 234.965 357.029 234.658 356.98C236.452 354.365 236.194 350.768 233.872 348.447L233.884 348.435ZM232.471 356.501C230.641 358.33 227.656 358.33 225.825 356.501C223.995 354.672 223.995 351.688 225.825 349.847C227.656 348.018 230.641 348.018 232.484 349.847C234.327 351.676 234.314 354.659 232.484 356.501H232.471Z" fill="white" fill-opacity="0.5"/>
<path d="M438.927 217.91C438.927 217.91 428.915 242.709 419.111 245.397C409.308 248.086 394.528 245.901 394.528 245.901L389.958 247.153L385.474 246.49C385.474 246.49 385.376 246.49 385.315 246.478L380.253 246.367C379.393 246.343 378.914 245.508 379.393 244.845L381.211 242.341C381.359 242.144 381.568 241.997 381.813 241.911L386.629 240.364C386.813 240.303 387.022 240.29 387.219 240.315L394.578 241.481C394.578 241.481 415.032 238.13 417.121 236.239C419.197 234.348 425.364 214.522 425.364 214.522L438.94 217.922L438.927 217.91Z" fill="#EEC1BB"/>
<path opacity="0.1" d="M395.044 241.383C394.737 241.432 394.578 241.456 394.578 241.456L387.219 240.29C387.022 240.266 386.826 240.278 386.629 240.339L381.813 241.886C381.568 241.96 381.359 242.119 381.211 242.316L379.393 244.82C378.914 245.483 379.393 246.318 380.253 246.343L385.315 246.453C385.315 246.453 385.413 246.453 385.474 246.465L388.484 246.907C390.72 245.937 392.944 243.912 395.032 241.371L395.044 241.383Z" fill="black"/>
<path d="M444.968 193.345C437.696 190.963 427.462 196.426 423.543 219.31L438.642 223.717C438.642 223.717 455.362 196.757 444.968 193.357V193.345Z" fill="url(#paint14_linear_2128_49574)"/>
<path d="M402.664 163.438C402.664 164.187 403.069 164.801 403.561 164.789C404.052 164.789 404.482 164.138 404.445 163.414C404.421 162.69 404.04 162.051 403.549 162.063C403.057 162.076 402.664 162.69 402.664 163.438Z" fill="#263238"/>
<path d="M405.638 164.188L402.062 170.093C402.062 170.093 403.303 171.492 405.981 170.461L405.638 164.188Z" fill="#D4827D"/>
<path d="M406.307 158.724C406.221 158.823 406.086 158.872 405.951 158.859C404.968 158.688 403.973 159.007 403.261 159.694C403.113 159.854 402.868 159.878 402.708 159.731C402.548 159.584 402.536 159.338 402.671 159.179C403.556 158.27 404.821 157.865 406.062 158.074C406.283 158.098 406.43 158.307 406.393 158.516C406.393 158.589 406.344 158.663 406.295 158.724H406.307Z" fill="#263238"/>
<path d="M431.569 158.086C432.134 168.067 432.576 172.29 428.178 177.962C421.139 184.039 409.136 185.009 405.61 175.396C402.428 166.741 402.047 151.911 411.298 146.767C417.883 143.109 426.2 145.478 429.873 152.058C430.905 153.912 431.483 155.975 431.581 158.086H431.569Z" fill="#EEC1BB"/>
<path d="M417.648 179.926L420.179 194.707L432.514 191.859L428.201 176.771L417.648 179.926Z" fill="#EEC1BB"/>
<path d="M408.767 158.823C409.393 152.341 407.169 159.829 404.16 151.273C401.15 142.716 415.327 135.767 417.6 137.363C419.86 138.959 418.57 141.414 426.064 142.789C433.558 144.164 433.239 151.444 433.239 151.444C433.239 151.444 437.551 153.445 436.015 162.702C434.48 171.959 428.632 178.956 428.632 178.956C428.632 178.956 425.794 176.034 421.31 178.735C421.31 178.735 419.098 177.495 416.924 174.254C414.897 171.234 414.283 168.374 411.506 168.116C405.695 167.588 408.558 160.959 408.767 158.823Z" fill="#263238"/>
<path d="M432.414 152.574C432.414 152.574 438.532 148.817 435.829 144.876C433.127 140.936 434.429 149.21 432.414 152.574Z" fill="#263238"/>
<path d="M410.523 162.592C409.16 164.114 408.459 166.115 408.57 168.153C408.742 170.854 411.396 171.332 413.484 169.859C415.376 168.521 417.55 165.513 416.347 163.144C415.143 160.775 412.219 160.762 410.523 162.592Z" fill="#FFC3BD"/>
<path opacity="0.1" d="M417.883 181.326L418.89 187.194C418.829 181.829 421.667 179.177 421.667 179.177C418.78 179.607 417.883 181.326 417.883 181.326Z" fill="black"/>
<path d="M331.163 219.481H327.637V240.266H331.163V219.481Z" fill="url(#paint15_linear_2128_49574)"/>
<path opacity="0.7" d="M331.163 219.481H327.637V240.266H331.163V219.481Z" fill="white" fill-opacity="0.5"/>
<path d="M306.938 178.208H298.154C294.861 178.208 292.195 180.872 292.195 184.162V224.822C292.195 228.112 294.861 230.776 298.154 230.776H306.938V178.208Z" fill="url(#paint16_linear_2128_49574)"/>
<path d="M360.66 178.208H301.224C297.933 178.208 295.266 180.873 295.266 184.162V224.822C295.266 228.11 297.933 230.776 301.224 230.776H360.66C363.951 230.776 366.618 228.11 366.618 224.822V184.162C366.618 180.873 363.951 178.208 360.66 178.208Z" fill="url(#paint17_linear_2128_49574)"/>
<path opacity="0.5" d="M360.66 178.208H301.224C297.933 178.208 295.266 180.873 295.266 184.162V224.822C295.266 228.11 297.933 230.776 301.224 230.776H360.66C363.951 230.776 366.618 228.11 366.618 224.822V184.162C366.618 180.873 363.951 178.208 360.66 178.208Z" fill="white" fill-opacity="0.5"/>
<path d="M360.656 180.663H301.22C299.286 180.663 297.719 182.229 297.719 184.162V224.822C297.719 226.754 299.286 228.321 301.22 228.321H360.656C362.59 228.321 364.157 226.754 364.157 224.822V184.162C364.157 182.229 362.59 180.663 360.656 180.663Z" fill="#263238"/>
<path d="M316.563 248.982C316.563 241.898 322.313 236.165 329.389 236.165C336.465 236.165 342.215 241.911 342.215 248.982H316.551H316.563Z" fill="url(#paint18_linear_2128_49574)"/>
<path d="M346.847 244.599H321.195V248.773H372.511V247.055L346.847 244.599Z" fill="url(#paint19_linear_2128_49574)"/>
<path opacity="0.8" d="M346.847 244.599H321.195V248.773H372.511V247.055L346.847 244.599Z" fill="white" fill-opacity="0.5"/>
<path d="M346.847 248.773H321.195V244.599L346.847 247.055V248.773Z" fill="url(#paint20_linear_2128_49574)"/>
<path opacity="0.6" d="M346.847 248.773H321.195V244.599L346.847 247.055V248.773Z" fill="white" fill-opacity="0.5"/>
<path d="M403.434 392.054H350.484C346.037 392.054 342.438 388.457 342.438 384.013V262.388C342.438 257.944 346.037 254.347 350.484 254.347H403.434C404.625 254.347 405.584 255.305 405.584 256.496C405.584 257.686 404.625 258.644 403.434 258.644H350.484C348.42 258.644 346.737 260.314 346.737 262.388V384.013C346.737 386.075 348.408 387.757 350.484 387.757H403.434C404.625 387.757 405.584 388.715 405.584 389.906C405.584 391.096 404.625 392.054 403.434 392.054Z" fill="#263238"/>
<g opacity="0.5">
<path d="M403.434 392.054H350.484C346.037 392.054 342.438 388.457 342.438 384.013V262.388C342.438 257.944 346.037 254.347 350.484 254.347H403.434C404.625 254.347 405.584 255.304 405.584 256.495C405.584 257.686 404.625 258.644 403.434 258.644H350.484C348.42 258.644 346.737 260.313 346.737 262.388V384.013C346.737 386.075 348.408 387.757 350.484 387.757H403.434C404.625 387.757 405.584 388.714 405.584 389.905C405.584 391.096 404.625 392.054 403.434 392.054Z" fill="white" fill-opacity="0.5"/>
</g>
<path d="M350.29 248.773H275.117V255.071H350.29V248.773Z" fill="url(#paint21_linear_2128_49574)"/>
<path opacity="0.2" d="M350.29 248.773H275.117V255.071H350.29V248.773Z" fill="white" fill-opacity="0.5"/>
<path d="M410.968 248.773H346.852V255.071H410.968V248.773Z" fill="url(#paint22_linear_2128_49574)"/>
<path opacity="0.5" d="M410.968 248.773H346.852V255.071H410.968V248.773Z" fill="white" fill-opacity="0.5"/>
<path d="M388.484 347.428L392.035 383.288H383.533L375.02 348.361L388.484 347.428Z" fill="#EEC1BB"/>
<path d="M382.734 380.956L393.582 381.14C393.987 381.14 394.344 381.435 394.417 381.84L396.223 390.691C396.395 391.477 395.891 392.251 395.105 392.41C395.007 392.435 394.896 392.447 394.798 392.447C390.891 392.312 387.415 392.042 382.55 391.968C376.8 391.87 378.25 392.582 371.493 392.57C367.427 392.557 366.751 387.917 368.483 387.72C376.395 386.861 377.255 384.492 380.351 381.717C381.026 381.189 381.862 380.919 382.722 380.968L382.734 380.956Z" fill="#263238"/>
<path opacity="0.1" d="M391.113 373.933L388.484 347.428L375.02 348.361L381.248 373.933H391.113Z" fill="black"/>
<path d="M446.692 264.721L411.814 265.973C411.814 265.973 364.897 282.362 363.57 295.02C362.219 308.008 377.993 367.673 377.993 367.673H392.011C392.011 367.673 388.141 323.882 386.667 310.476C385.18 297.07 435.55 301.514 444.297 290.072C452.343 279.539 446.692 264.721 446.692 264.721Z" fill="#263238"/>
<path opacity="0.2" d="M446.692 264.721L411.814 265.973C411.814 265.973 364.897 282.362 363.57 295.02C362.219 308.008 377.993 367.673 377.993 367.673H392.011C392.011 367.673 388.141 323.882 386.667 310.476C385.18 297.07 435.55 301.514 444.297 290.072C452.343 279.539 446.692 264.721 446.692 264.721Z" fill="black"/>
<path d="M394.402 365.671L394.709 370.619H377.387L375.691 365.671H394.402Z" fill="url(#paint23_linear_2128_49574)"/>
<path d="M356.035 349.135L356.969 383.288H348.615L343.664 349.135H356.035Z" fill="#EEC1BB"/>
<path d="M347.464 380.956L358.312 381.14C358.718 381.14 359.074 381.435 359.148 381.84L360.954 390.691C361.126 391.477 360.622 392.251 359.836 392.41C359.737 392.435 359.627 392.447 359.529 392.447C355.622 392.312 352.145 392.042 347.28 391.968C341.531 391.87 342.98 392.582 336.223 392.57C332.157 392.557 331.481 387.917 333.214 387.72C341.125 386.861 341.985 384.492 345.081 381.717C345.757 381.189 346.592 380.919 347.452 380.968L347.464 380.956Z" fill="#263238"/>
<path opacity="0.1" d="M356.711 373.909L356.035 349.135H343.664L347.264 373.934C349.954 373.934 353.664 373.934 356.723 373.909H356.711Z" fill="black"/>
<path d="M431.534 267.606C431.534 267.606 434.433 294.086 407.455 295.326C380.477 296.566 359.444 299.66 358.83 309.236C358.216 318.824 358.83 367.672 358.83 367.672H344.174C344.174 367.672 338.473 336.797 336.25 317.633C334.087 299.034 330.144 285.542 349.247 279.244C369.555 272.541 405.649 266.354 405.649 266.354L431.644 264.708L431.558 267.594L431.534 267.606Z" fill="#263238"/>
<path d="M360.988 365.671L360.066 370.619H343.973L342.277 365.671H360.988Z" fill="url(#paint24_linear_2128_49574)"/>
<path d="M437.392 191.601C437.392 191.601 437.392 185.622 425.316 186.31C412.502 187.047 414.91 192.767 414.91 192.767L437.392 191.589V191.601Z" fill="url(#paint25_linear_2128_49574)"/>
<path opacity="0.3" d="M437.392 191.601C437.392 191.601 437.392 185.622 425.316 186.31C412.502 187.047 414.91 192.767 414.91 192.767L437.392 191.589V191.601Z" fill="black"/>
<path d="M448.592 218.364C447.781 230.162 448.063 265.654 448.063 265.654C448.063 265.654 422.301 267.348 402.018 266.685L399.672 198.415C399.672 195.984 401.183 193.774 403.529 192.853C409.254 190.631 422.694 188.115 443.714 190.865C450.963 191.81 449.55 204.418 448.592 218.364Z" fill="url(#paint26_linear_2128_49574)"/>
<path d="M403.814 217.91C403.814 217.91 393.801 242.709 383.998 245.397C374.194 248.086 359.415 245.901 359.415 245.901L354.845 247.153L350.361 246.49C350.361 246.49 350.263 246.49 350.201 246.478L345.14 246.367C344.28 246.343 343.801 245.508 344.28 244.845L346.098 242.341C346.245 242.144 346.454 241.997 346.7 241.911L351.516 240.364C351.7 240.303 351.909 240.29 352.105 240.315L359.464 241.481C359.464 241.481 379.919 238.13 382.008 236.239C384.084 234.348 390.251 214.522 390.251 214.522L403.826 217.922L403.814 217.91Z" fill="#EEC1BB"/>
<path opacity="0.1" d="M403.558 206.37C403.558 206.37 402.01 208.211 400.105 210.9L400.781 230.665C408.312 227.351 411.297 207.966 411.297 207.966L406.408 204.504L403.545 206.382L403.558 206.37Z" fill="black"/>
<path d="M409.859 193.345C402.586 190.963 392.353 196.426 388.434 219.31L403.532 223.717C403.532 223.717 420.252 196.757 409.859 193.357V193.345Z" fill="url(#paint27_linear_2128_49574)"/>
<path d="M419.477 308.192H408.113V341.474H419.477V308.192Z" fill="#263238"/>
<path opacity="0.6" d="M419.477 308.192H408.113V341.474H419.477V308.192Z" fill="white" fill-opacity="0.5"/>
<path d="M421.234 371.625V329.333H406.344V371.625L372.449 376.327V381.029L413.789 377.506L455.129 381.029V376.327L421.234 371.625Z" fill="#263238"/>
<path d="M371.961 392.557C374.437 392.557 376.445 390.551 376.445 388.076C376.445 385.601 374.437 383.595 371.961 383.595C369.484 383.595 367.477 385.601 367.477 388.076C367.477 390.551 369.484 392.557 371.961 392.557Z" fill="url(#paint28_linear_2128_49574)"/>
<path d="M455.133 392.557C457.609 392.557 459.617 390.551 459.617 388.076C459.617 385.601 457.609 383.595 455.133 383.595C452.656 383.595 450.648 385.601 450.648 388.076C450.648 390.551 452.656 392.557 455.133 392.557Z" fill="url(#paint29_linear_2128_49574)"/>
<path d="M413.793 392.557C416.269 392.557 418.277 390.551 418.277 388.076C418.277 385.601 416.269 383.595 413.793 383.595C411.316 383.595 409.309 385.601 409.309 388.076C409.309 390.551 411.316 392.557 413.793 392.557Z" fill="url(#paint30_linear_2128_49574)"/>
<path opacity="0.3" d="M419.477 308.192H408.113V316.417H419.477V308.192Z" fill="black"/>
<path d="M458.717 232.752H421.689C415.657 232.752 410.62 237.344 410.055 243.335L406.934 276.776C406.222 284.388 400.018 290.33 392.376 290.723L356.639 292.527C352.29 292.748 348.887 296.333 348.887 300.679V301.428C348.887 305.16 351.921 308.192 355.656 308.192H464.491L470.351 245.52C470.99 238.67 465.596 232.765 458.717 232.765V232.752Z" fill="url(#paint31_linear_2128_49574)"/>
<path opacity="0.3" d="M458.717 232.752H421.689C415.657 232.752 410.62 237.344 410.055 243.335L406.934 276.776C406.222 284.388 400.018 290.33 392.376 290.723L356.639 292.527C352.29 292.748 348.887 296.333 348.887 300.679V301.428C348.887 305.16 351.921 308.192 355.656 308.192H464.491L470.351 245.52C470.99 238.67 465.596 232.765 458.717 232.765V232.752Z" fill="white" fill-opacity="0.5"/>
<path d="M373.73 270.466H378.829V297.119C378.829 298.469 377.723 299.574 376.372 299.574H376.188C374.836 299.574 373.73 298.469 373.73 297.119V270.466Z" fill="#263238"/>
<path opacity="0.2" d="M373.73 270.466H378.829V297.119C378.829 298.469 377.723 299.574 376.372 299.574H376.188C374.836 299.574 373.73 298.469 373.73 297.119V270.466Z" fill="white" fill-opacity="0.5"/>
<path d="M398.313 262.769H386.949V272.173H398.313C400.905 272.173 403.018 270.073 403.018 267.471C403.018 264.868 400.918 262.769 398.313 262.769Z" fill="url(#paint32_linear_2128_49574)"/>
<path opacity="0.5" d="M398.313 262.769H386.949V272.173H398.313C400.905 272.173 403.018 270.073 403.018 267.471C403.018 264.868 400.918 262.769 398.313 262.769Z" fill="white" fill-opacity="0.5"/>
<path d="M393.779 262.769H354.061C351.557 262.769 349.527 264.797 349.527 267.299V267.643C349.527 270.144 351.557 272.173 354.061 272.173H393.779C396.282 272.173 398.312 270.144 398.312 267.643V267.299C398.312 264.797 396.282 262.769 393.779 262.769Z" fill="url(#paint33_linear_2128_49574)"/>
<path opacity="0.3" d="M393.779 262.769H354.061C351.557 262.769 349.527 264.797 349.527 267.299V267.643C349.527 270.144 351.557 272.173 354.061 272.173H393.779C396.282 272.173 398.312 270.144 398.312 267.643V267.299C398.312 264.797 396.282 262.769 393.779 262.769Z" fill="white" fill-opacity="0.5"/>
<path d="M467.049 308.192H412.613L418.682 243.347C419.247 237.344 424.284 232.765 430.316 232.765H467.344C474.224 232.765 479.617 238.682 478.978 245.52L473.683 302.164C473.364 305.577 470.489 308.192 467.061 308.192H467.049Z" fill="url(#paint34_linear_2128_49574)"/>
<path opacity="0.5" d="M467.049 308.192H412.613L418.682 243.347C419.247 237.344 424.284 232.765 430.316 232.765H467.344C474.224 232.765 479.617 238.682 478.978 245.52L473.683 302.164C473.364 305.577 470.489 308.192 467.061 308.192H467.049Z" fill="white" fill-opacity="0.5"/>
<path d="M339.883 392.054H286.934C282.486 392.054 278.887 388.457 278.887 384.013V262.388C278.887 257.944 282.486 254.347 286.934 254.347H339.883C341.075 254.347 342.033 255.305 342.033 256.496C342.033 257.686 341.075 258.644 339.883 258.644H286.934C284.87 258.644 283.187 260.314 283.187 262.388V384.013C283.187 386.075 284.857 387.757 286.934 387.757H339.883C341.075 387.757 342.033 388.715 342.033 389.906C342.033 391.096 341.075 392.054 339.883 392.054Z" fill="#263238"/>
<g opacity="0.5">
<path d="M339.883 392.054H286.934C282.486 392.054 278.887 388.457 278.887 384.013V262.388C278.887 257.944 282.486 254.347 286.934 254.347H339.883C341.075 254.347 342.033 255.304 342.033 256.495C342.033 257.686 341.075 258.644 339.883 258.644H286.934C284.87 258.644 283.187 260.313 283.187 262.388V384.013C283.187 386.075 284.857 387.757 286.934 387.757H339.883C341.075 387.757 342.033 388.714 342.033 389.905C342.033 391.096 341.075 392.054 339.883 392.054Z" fill="white" fill-opacity="0.5"/>
</g>
<path d="M304.896 190.349L301.174 187.881C300.781 187.611 300.781 187.034 301.174 186.764L304.896 184.297C305.179 184.112 305.547 184.186 305.732 184.468C305.916 184.751 305.842 185.119 305.56 185.303L302.513 187.329L305.56 189.355C305.842 189.539 305.916 189.919 305.732 190.189C305.547 190.472 305.166 190.545 304.896 190.361V190.349Z" fill="white" fill-opacity="0.5"/>
<path d="M313.05 190.189C312.866 189.907 312.94 189.539 313.222 189.355L316.269 187.329L313.222 185.303C312.94 185.119 312.866 184.739 313.05 184.468C313.235 184.186 313.615 184.112 313.886 184.297L317.608 186.764C318.014 187.034 318.014 187.611 317.608 187.881L313.886 190.349C313.603 190.533 313.235 190.459 313.05 190.177V190.189Z" fill="white" fill-opacity="0.5"/>
<path d="M308.003 191.798C307.683 191.699 307.511 191.356 307.61 191.036L310.153 183.008C310.251 182.688 310.595 182.517 310.914 182.615C311.234 182.713 311.406 183.057 311.307 183.376L308.764 191.405C308.666 191.724 308.322 191.896 308.003 191.798Z" fill="white" fill-opacity="0.5"/>
<path d="M328.861 197.985H301.502C301.146 197.985 300.863 197.703 300.863 197.347C300.863 196.991 301.146 196.708 301.502 196.708H328.861C329.218 196.708 329.5 196.991 329.5 197.347C329.5 197.703 329.218 197.985 328.861 197.985Z" fill="white" fill-opacity="0.5"/>
<path d="M360.287 197.985H332.928C332.572 197.985 332.289 197.703 332.289 197.347C332.289 196.991 332.572 196.708 332.928 196.708H360.287C360.643 196.708 360.926 196.991 360.926 197.347C360.926 197.703 360.643 197.985 360.287 197.985Z" fill="white" fill-opacity="0.5"/>
<path d="M317.145 203.608H301.518C301.161 203.608 300.879 203.325 300.879 202.969C300.879 202.613 301.161 202.331 301.518 202.331H317.145C317.501 202.331 317.783 202.613 317.783 202.969C317.783 203.325 317.501 203.608 317.145 203.608Z" fill="white" fill-opacity="0.5"/>
<path d="M346.823 203.608H321.221C320.865 203.608 320.582 203.325 320.582 202.969C320.582 202.613 320.865 202.331 321.221 202.331H346.823C347.18 202.331 347.462 202.613 347.462 202.969C347.462 203.325 347.18 203.608 346.823 203.608Z" fill="white" fill-opacity="0.5"/>
<path d="M343.174 209.23H301.502C301.146 209.23 300.863 208.948 300.863 208.592C300.863 208.236 301.146 207.954 301.502 207.954H343.174C343.53 207.954 343.812 208.236 343.812 208.592C343.812 208.948 343.53 209.23 343.174 209.23Z" fill="white" fill-opacity="0.5"/>
<path d="M355.95 209.23H347.252C346.896 209.23 346.613 208.948 346.613 208.592C346.613 208.236 346.896 207.954 347.252 207.954H355.95C356.306 207.954 356.589 208.236 356.589 208.592C356.589 208.948 356.306 209.23 355.95 209.23Z" fill="white" fill-opacity="0.5"/>
<path d="M320.962 214.866H301.502C301.146 214.866 300.863 214.583 300.863 214.227C300.863 213.871 301.146 213.589 301.502 213.589H320.962C321.318 213.589 321.601 213.871 321.601 214.227C321.601 214.583 321.318 214.866 320.962 214.866Z" fill="white" fill-opacity="0.5"/>
<path d="M349.26 214.866H325.033C324.677 214.866 324.395 214.583 324.395 214.227C324.395 213.871 324.677 213.589 325.033 213.589H349.26C349.616 213.589 349.899 213.871 349.899 214.227C349.899 214.583 349.616 214.866 349.26 214.866Z" fill="white" fill-opacity="0.5"/>
<path d="M328.861 220.488H301.502C301.146 220.488 300.863 220.206 300.863 219.85C300.863 219.494 301.146 219.211 301.502 219.211H328.861C329.218 219.211 329.5 219.494 329.5 219.85C329.5 220.206 329.218 220.488 328.861 220.488Z" fill="white" fill-opacity="0.5"/>
<path d="M352.24 220.488H332.94C332.583 220.488 332.301 220.206 332.301 219.85C332.301 219.494 332.583 219.211 332.94 219.211H352.24C352.596 219.211 352.879 219.494 352.879 219.85C352.879 220.206 352.596 220.488 352.24 220.488Z" fill="white" fill-opacity="0.5"/>
<path d="M114.818 110.6C115.322 116.382 114.069 126.854 109.695 130.206C116.821 132.772 124.352 137.191 129.18 143.023C133.959 136.074 128.516 132.109 128.516 132.109C122.361 129.923 123.037 125.271 124.61 120.986L114.806 110.6H114.818Z" fill="#B97964"/>
<path d="M138.072 105.616C137.999 106.34 138.343 106.966 138.822 107.015C139.301 107.065 139.743 106.5 139.805 105.776C139.878 105.051 139.534 104.413 139.055 104.376C138.576 104.327 138.158 104.892 138.072 105.616Z" fill="#263238"/>
<path d="M138.871 104.388L140.665 104.045C140.665 104.045 139.645 105.371 138.871 104.388Z" fill="#263238"/>
<path d="M138.315 106.389C138.818 108.108 139.543 109.753 140.489 111.275C139.69 111.742 138.72 111.84 137.848 111.521L138.327 106.377L138.315 106.389Z" fill="#A24E3F"/>
<path d="M140.14 101.785C140.25 101.773 140.361 101.724 140.434 101.638C140.582 101.454 140.57 101.184 140.385 101.024C139.366 100.091 137.953 99.7107 136.589 100.018C136.38 100.14 136.319 100.411 136.442 100.607C136.515 100.742 136.663 100.816 136.81 100.816C137.891 100.607 138.997 100.914 139.808 101.663C139.894 101.749 140.004 101.798 140.127 101.798L140.14 101.785Z" fill="#263238"/>
<path d="M114.2 101C113.917 109.986 113.61 113.804 117.615 118.801C123.647 126.326 134.569 124.681 137.48 115.94C140.109 108.071 140.134 94.6772 131.878 90.319C123.61 85.9731 114.495 91.9887 114.2 101Z" fill="#B97964"/>
<path d="M114.633 117.954C105.8 116.444 108.331 110.883 108.331 110.883C99.6327 109.127 106.353 104.879 106.353 104.879C99.1167 101.761 106.353 98.9742 106.353 98.9742C99.3747 93.1919 109.375 91.2276 109.375 91.2276C106.906 82.2043 115.481 85.9119 115.481 85.9119C120.161 78.1653 124.179 85.5681 124.179 85.5681C132.361 74.4578 134.363 83.8371 134.363 83.8371C142.717 81.6396 139.511 90.4297 139.511 90.4297C146.39 92.2712 140.997 95.7577 140.997 95.7577C143.651 99.1092 134.056 99.6862 134.056 99.6862C134.056 99.6862 138.626 107.003 134.019 109.078L122.397 117.978C122.397 117.978 117.065 115.756 114.645 117.978L114.633 117.954Z" fill="#263238"/>
<path d="M123.321 110.71C123.321 110.71 129.402 96.0154 124.66 83.4073L128.714 82.02C128.714 82.02 134.009 100.3 123.309 110.71H123.321Z" fill="url(#paint35_linear_2128_49574)"/>
<path d="M129.448 109.09C130.468 111.202 130.848 112.11 132.298 112.822C133.576 113.534 135.185 113.08 135.898 111.816C136.229 111.239 136.315 110.551 136.168 109.901C135.787 107.789 134.153 104.683 131.917 104.609C129.669 104.548 128.404 107.003 129.46 109.09H129.448Z" fill="#B97964"/>
<path d="M123.099 139.757C123.099 139.757 131.416 145.859 134.795 148.314L158.861 136.97C158.8 134.245 160.409 131.753 162.928 130.685L164.635 129.96L168.26 128.352C169.636 127.738 171.233 127.91 172.449 128.794C173.886 129.838 174.513 131.679 174.009 133.386C172.977 136.897 170.176 139.61 166.638 140.531L163.124 141.451C163.124 141.451 142.485 157.104 135.139 157.509C127.792 157.914 116.969 150.647 116.969 150.647L123.087 139.745L123.099 139.757Z" fill="#B97964"/>
<path d="M103.097 129.408C109.448 129.383 116.549 133.361 127.728 140.604C127.728 140.604 125.615 148.547 119.117 154.207C119.117 154.207 112.986 152.561 104.829 144.876C94.9515 135.583 99.2144 129.42 103.109 129.396L103.097 129.408Z" fill="#263238"/>
<path d="M223.737 147.798H163.552C161.365 147.798 159.756 146.031 159.94 143.845L164.473 92.0502C164.67 89.865 166.586 88.0972 168.773 88.0972H228.959C231.145 88.0972 232.755 89.865 232.57 92.0502L228.037 143.845C227.841 146.031 225.924 147.798 223.737 147.798Z" fill="url(#paint36_linear_2128_49574)"/>
<path opacity="0.4" d="M223.737 147.798H163.552C161.365 147.798 159.756 146.031 159.94 143.845L164.473 92.0502C164.67 89.865 166.586 88.0972 168.773 88.0972H228.959C231.145 88.0972 232.755 89.865 232.57 92.0502L228.037 143.845C227.841 146.031 225.924 147.798 223.737 147.798Z" fill="white" fill-opacity="0.5"/>
<path opacity="0.7" d="M223.961 145.343C224.784 145.343 225.521 144.668 225.595 143.845L230.128 92.05C230.202 91.2275 229.588 90.5522 228.765 90.5522H168.579C167.756 90.5522 167.019 91.2275 166.945 92.05L162.412 143.845C162.339 144.668 162.953 145.343 163.776 145.343H223.961Z" fill="white" fill-opacity="0.5"/>
<path d="M182.131 114.885L162.45 143.33L162.401 143.845C162.327 144.668 162.941 145.343 163.764 145.343H197.868L182.131 114.885Z" fill="url(#paint37_linear_2128_49574)"/>
<path opacity="0.3" d="M182.131 114.885L162.45 143.33L162.401 143.845C162.327 144.668 162.941 145.343 163.764 145.343H197.868L182.131 114.885Z" fill="white" fill-opacity="0.5"/>
<path d="M225.752 141.856L209.277 110.588L184.879 145.343H223.958C224.781 145.343 225.518 144.668 225.592 143.845L225.764 141.856H225.752Z" fill="url(#paint38_linear_2128_49574)"/>
<path d="M202.911 105.063C202.641 108.12 199.95 110.588 196.891 110.588C193.832 110.588 191.572 108.108 191.842 105.063C192.113 102.006 194.803 99.5388 197.862 99.5388C200.921 99.5388 203.181 102.019 202.911 105.063Z" fill="url(#paint39_linear_2128_49574)"/>
<path opacity="0.4" d="M202.911 105.063C202.641 108.12 199.95 110.588 196.891 110.588C193.832 110.588 191.572 108.108 191.842 105.063C192.113 102.006 194.803 99.5388 197.862 99.5388C200.921 99.5388 203.181 102.019 202.911 105.063Z" fill="white" fill-opacity="0.5"/>
<path d="M52.6884 356.808L46.5703 374.928L55.9439 378.746L63.2782 362.025L52.6884 356.808Z" fill="#B97964"/>
<path d="M59.3115 378.292C59.2132 378.243 59.1641 378.132 59.1641 378.022C59.1763 377.911 59.2623 377.813 59.3729 377.788C59.5695 377.739 63.9922 376.757 65.6384 377.813C65.9455 378.009 66.1666 378.304 66.2526 378.66C66.3878 379.065 66.2526 379.507 65.9332 379.777C65.3067 380.219 63.8447 380.035 62.5056 379.618C61.4 379.274 60.3312 378.832 59.2992 378.292H59.3115ZM60.2452 378.206C62.1739 379.077 64.9013 379.9 65.6138 379.348C65.7121 379.286 65.8227 379.151 65.7367 378.771C65.6875 378.55 65.5524 378.365 65.3435 378.255C65.1961 378.157 65.0364 378.083 64.8767 378.046C63.341 377.801 61.7685 377.862 60.2452 378.206Z" fill="url(#paint40_linear_2128_49574)"/>
<path d="M59.1782 378.243C59.1168 378.169 59.1045 378.071 59.1291 377.973C59.1905 377.838 60.3699 375.027 62.0898 374.314C62.5935 374.106 63.1463 374.106 63.65 374.314C64.338 374.597 64.4363 375.027 64.3748 375.321C64.2274 376.61 60.9104 378.145 59.4485 378.317C59.4116 378.317 59.3748 378.317 59.3379 378.292C59.2765 378.292 59.215 378.268 59.1659 378.231L59.1782 378.243ZM63.3306 374.756C63.0112 374.658 62.6549 374.671 62.3478 374.806C61.2544 375.481 60.3944 376.487 59.8907 377.666C61.4755 377.285 63.736 375.984 63.8957 375.235C63.8957 375.162 63.9203 374.965 63.478 374.793L63.3306 374.756Z" fill="url(#paint41_linear_2128_49574)"/>
<path d="M58.6684 376.45L46.8991 372.817C46.4568 372.681 45.9777 372.866 45.7443 373.271L40.6582 382.184C40.2037 382.969 40.4739 383.976 41.2602 384.43C41.3585 384.492 41.469 384.541 41.5796 384.578C45.8426 385.817 49.6879 386.751 54.9705 388.383C61.2114 390.311 59.3932 390.569 66.6906 392.938C71.0887 394.362 73.4475 389.586 71.6538 388.764C63.4105 385.044 63.3245 382.184 60.9657 378.096C60.4251 377.285 59.6143 376.696 58.6684 376.45Z" fill="#263238"/>
<path opacity="0.2" d="M49.7539 365.499L59.5821 370.459L63.2799 362.025L52.6901 356.808L49.7539 365.499Z" fill="#263238"/>
<path d="M94.2393 189.207C94.2393 189.207 81.0327 199.287 83.8583 230.862C84.1162 233.784 85.0622 236.841 85.0745 240.18C85.0745 242.402 84.4602 243.961 83.7354 248.945C82.6789 256.225 80.7378 283.32 78.6862 286.843C76.6591 290.33 75.7992 289.753 70.0374 299.464C63.8333 309.923 55.9094 328.265 49.7422 359.361C49.7422 359.361 55.1108 363.548 63.5385 365.131C63.5385 365.131 97.286 311.949 104.461 292.147C110.873 274.432 118.527 217.898 118.527 217.898L119.141 193.381L94.2147 189.183L94.2393 189.207Z" fill="url(#paint42_linear_2128_49574)"/>
<path opacity="0.1" d="M108.689 230.862H99.1189C99.1189 230.862 95.9739 260.915 106.367 285.984C107.448 281.957 108.554 277.133 109.623 271.915L113.751 245.447C113.161 240.978 112.706 237.565 112.633 237.344C112.424 236.644 108.677 230.862 108.677 230.862H108.689Z" fill="black"/>
<path d="M107.113 364.1L107.175 383.362L118.047 382.626L119.718 364.1H107.113Z" fill="#B97964"/>
<path d="M119.298 382.306C119.187 382.282 119.101 382.208 119.077 382.098C119.052 381.987 119.101 381.877 119.199 381.815C119.371 381.705 123.229 379.323 125.121 379.777C125.477 379.851 125.784 380.072 125.981 380.367C126.251 380.698 126.276 381.164 126.042 381.533C125.6 382.147 124.163 382.466 122.762 382.515C121.607 382.552 120.44 382.49 119.298 382.319V382.306ZM120.145 381.913C122.258 382.098 125.096 381.975 125.6 381.226C125.674 381.128 125.735 380.968 125.526 380.649C125.416 380.452 125.207 380.33 124.986 380.293C124.814 380.256 124.642 380.231 124.47 380.244C122.934 380.526 121.472 381.091 120.145 381.913Z" fill="url(#paint43_linear_2128_49574)"/>
<path d="M119.164 382.294C119.078 382.245 119.029 382.159 119.041 382.061C119.041 381.913 119.237 378.869 120.638 377.641C121.043 377.273 121.572 377.089 122.112 377.138C122.849 377.187 123.095 377.543 123.132 377.85C123.414 379.114 120.798 381.655 119.471 382.294C119.434 382.306 119.397 382.318 119.36 382.306C119.299 382.331 119.237 382.331 119.176 382.306L119.164 382.294ZM121.94 377.641C121.596 377.641 121.277 377.776 121.031 378.009C120.22 379.016 119.741 380.231 119.655 381.52C121.019 380.649 122.739 378.672 122.64 377.911C122.616 377.837 122.579 377.653 122.1 377.629L121.953 377.653L121.94 377.641Z" fill="url(#paint44_linear_2128_49574)"/>
<path d="M118.098 380.772L105.788 381.214C105.322 381.226 104.929 381.57 104.843 382.024L102.975 392.115C102.803 393.011 103.393 393.871 104.277 394.043C104.388 394.067 104.511 394.079 104.621 394.067C109.056 393.834 113 393.453 118.528 393.257C125.052 393.024 123.418 393.871 131.096 393.699C135.715 393.601 136.379 388.322 134.413 388.125C125.408 387.315 124.376 384.651 120.801 381.557C120.027 380.968 119.069 380.686 118.098 380.759V380.772Z" fill="#263238"/>
<path opacity="0.2" d="M107.15 374.056L118.846 373.811L119.718 364.1H107.113L107.15 374.056Z" fill="#263238"/>
<path d="M101.601 185.672C101.601 185.672 88.4186 203.117 98.1854 237.27L109.205 287.089C109.205 287.089 98.7136 309.752 104.254 369.539C104.254 369.539 112.584 370.877 120.532 369.17C120.532 369.17 132.805 306.032 134.673 284.695C136.724 261.21 135.496 190.374 135.496 190.374L101.613 185.647L101.601 185.672Z" fill="url(#paint45_linear_2128_49574)"/>
<path d="M109.56 129.162C109.56 129.162 107.521 120.446 120.605 124.252C133.701 128.07 132.608 135.522 132.608 135.522L109.56 129.162Z" fill="#263238"/>
<path opacity="0.4" d="M109.56 129.162C109.56 129.162 107.521 120.446 120.605 124.252C133.701 128.07 132.608 135.522 132.608 135.522L109.56 129.162Z" fill="black"/>
<path d="M142.042 150.966C142.042 154.023 140.752 158.442 139.597 163.39C139.032 165.735 138.516 168.178 138.172 170.657C136.317 184.174 135.715 198.39 135.715 198.39C135.715 198.39 114.314 204.394 93.5273 190.03C93.5273 190.03 98.6749 185.672 97.6183 155.484C97.1392 141.881 92.2251 125.713 114.719 128.254C133.712 130.402 140.101 136.295 141.636 145.515C141.636 145.625 141.673 145.748 141.698 145.871C141.735 146.153 141.771 146.436 141.808 146.73C141.968 148.068 142.042 149.493 142.042 150.966Z" fill="#263238"/>
<path opacity="0.4" d="M142.04 150.966C142.04 154.023 140.75 158.442 139.595 163.39C134.46 157.214 129.312 145.65 129.312 145.65L133.551 139.413L141.02 142.888C141.278 143.735 141.475 144.606 141.635 145.515C141.635 145.625 141.671 145.748 141.696 145.871C141.733 146.153 141.77 146.436 141.807 146.73C141.966 148.068 142.04 149.492 142.04 150.966Z" fill="black"/>
<path d="M149.804 145.625C149.804 145.625 157.114 152.893 160.087 155.827L185.566 148.191C185.91 145.478 187.876 143.256 190.517 142.581L192.323 142.127L196.156 141.071C197.606 140.666 199.166 141.071 200.235 142.127C201.5 143.379 201.844 145.282 201.095 146.902C199.547 150.217 196.377 152.488 192.741 152.881L189.129 153.274C189.129 153.274 166.377 165.685 159.055 164.998C151.733 164.31 142.113 155.508 142.113 155.508L149.792 145.638L149.804 145.625Z" fill="#B97964"/>
<path d="M131.562 132.415C137.852 133.336 144.277 138.333 154.253 147.147C154.253 147.147 150.985 154.685 143.712 159.326C143.712 159.326 137.889 156.785 130.972 147.982C122.594 137.326 127.717 131.863 131.574 132.428L131.562 132.415Z" fill="#263238"/>
<defs>
<linearGradient id="paint0_linear_2128_49574" x1="144.086" y1="236.785" x2="316.878" y2="236.609" gradientUnits="userSpaceOnUse">
<stop stop-color="#0038FF"/>
<stop offset="1" stop-color="#9747FF"/>
</linearGradient>
<linearGradient id="paint1_linear_2128_49574" x1="235.262" y1="142.353" x2="288.012" y2="142.253" gradientUnits="userSpaceOnUse">
<stop stop-color="#0038FF"/>
<stop offset="1" stop-color="#9747FF"/>
</linearGradient>
<linearGradient id="paint2_linear_2128_49574" x1="230.922" y1="152.02" x2="259.033" y2="151.959" gradientUnits="userSpaceOnUse">
<stop stop-color="#0038FF"/>
<stop offset="1" stop-color="#9747FF"/>
</linearGradient>
<linearGradient id="paint3_linear_2128_49574" x1="264.063" y1="124.923" x2="292.223" y2="124.862" gradientUnits="userSpaceOnUse">
<stop stop-color="#0038FF"/>
<stop offset="1" stop-color="#9747FF"/>
</linearGradient>
<linearGradient id="paint4_linear_2128_49574" x1="122.879" y1="52.1958" x2="150.485" y2="52.1459" gradientUnits="userSpaceOnUse">
<stop stop-color="#0038FF"/>
<stop offset="1" stop-color="#9747FF"/>
</linearGradient>
<linearGradient id="paint5_linear_2128_49574" x1="68.0625" y1="117.743" x2="95.9023" y2="117.693" gradientUnits="userSpaceOnUse">
<stop stop-color="#0038FF"/>
<stop offset="1" stop-color="#9747FF"/>
</linearGradient>
<linearGradient id="paint6_linear_2128_49574" x1="79.7148" y1="112.923" x2="84.2483" y2="112.915" gradientUnits="userSpaceOnUse">
<stop stop-color="#0038FF"/>
<stop offset="1" stop-color="#9747FF"/>
</linearGradient>
<linearGradient id="paint7_linear_2128_49574" x1="353.434" y1="61.922" x2="361.53" y2="61.9107" gradientUnits="userSpaceOnUse">
<stop stop-color="#0038FF"/>
<stop offset="1" stop-color="#9747FF"/>
</linearGradient>
<linearGradient id="paint8_linear_2128_49574" x1="341.859" y1="64.4802" x2="370.436" y2="64.4286" gradientUnits="userSpaceOnUse">
<stop stop-color="#0038FF"/>
<stop offset="1" stop-color="#9747FF"/>
</linearGradient>
<linearGradient id="paint9_linear_2128_49574" x1="355.832" y1="108.833" x2="380.821" y2="108.788" gradientUnits="userSpaceOnUse">
<stop stop-color="#0038FF"/>
<stop offset="1" stop-color="#9747FF"/>
</linearGradient>
<linearGradient id="paint10_linear_2128_49574" x1="316.328" y1="147.082" x2="353.726" y2="147.014" gradientUnits="userSpaceOnUse">
<stop stop-color="#0038FF"/>
<stop offset="1" stop-color="#9747FF"/>
</linearGradient>
<linearGradient id="paint11_linear_2128_49574" x1="298.93" y1="85.4433" x2="333.041" y2="85.366" gradientUnits="userSpaceOnUse">
<stop stop-color="#0038FF"/>
<stop offset="1" stop-color="#9747FF"/>
</linearGradient>
<linearGradient id="paint12_linear_2128_49574" x1="177.887" y1="54.7796" x2="205.051" y2="54.7397" gradientUnits="userSpaceOnUse">
<stop stop-color="#0038FF"/>
<stop offset="1" stop-color="#9747FF"/>
</linearGradient>
<linearGradient id="paint13_linear_2128_49574" x1="217.645" y1="356.391" x2="244.821" y2="356.352" gradientUnits="userSpaceOnUse">
<stop stop-color="#0038FF"/>
<stop offset="1" stop-color="#9747FF"/>
</linearGradient>
<linearGradient id="paint14_linear_2128_49574" x1="423.543" y1="212.634" x2="448.374" y2="212.597" gradientUnits="userSpaceOnUse">
<stop stop-color="#0038FF"/>
<stop offset="1" stop-color="#9747FF"/>
</linearGradient>
<linearGradient id="paint15_linear_2128_49574" x1="327.637" y1="232.807" x2="331.163" y2="232.806" gradientUnits="userSpaceOnUse">
<stop stop-color="#0038FF"/>
<stop offset="1" stop-color="#9747FF"/>
</linearGradient>
<linearGradient id="paint16_linear_2128_49574" x1="292.195" y1="211.911" x2="306.938" y2="211.904" gradientUnits="userSpaceOnUse">
<stop stop-color="#0038FF"/>
<stop offset="1" stop-color="#9747FF"/>
</linearGradient>
<linearGradient id="paint17_linear_2128_49574" x1="295.266" y1="211.911" x2="366.622" y2="211.737" gradientUnits="userSpaceOnUse">
<stop stop-color="#0038FF"/>
<stop offset="1" stop-color="#9747FF"/>
</linearGradient>
<linearGradient id="paint18_linear_2128_49574" x1="316.551" y1="244.383" x2="342.216" y2="244.29" gradientUnits="userSpaceOnUse">
<stop stop-color="#0038FF"/>
<stop offset="1" stop-color="#9747FF"/>
</linearGradient>
<linearGradient id="paint19_linear_2128_49574" x1="321.195" y1="247.276" x2="372.488" y2="246.137" gradientUnits="userSpaceOnUse">
<stop stop-color="#0038FF"/>
<stop offset="1" stop-color="#9747FF"/>
</linearGradient>
<linearGradient id="paint20_linear_2128_49574" x1="321.195" y1="247.276" x2="346.845" y2="246.991" gradientUnits="userSpaceOnUse">
<stop stop-color="#0038FF"/>
<stop offset="1" stop-color="#9747FF"/>
</linearGradient>
<linearGradient id="paint21_linear_2128_49574" x1="275.117" y1="252.811" x2="350.26" y2="251.192" gradientUnits="userSpaceOnUse">
<stop stop-color="#0038FF"/>
<stop offset="1" stop-color="#9747FF"/>
</linearGradient>
<linearGradient id="paint22_linear_2128_49574" x1="346.852" y1="252.811" x2="410.95" y2="251.633" gradientUnits="userSpaceOnUse">
<stop stop-color="#0038FF"/>
<stop offset="1" stop-color="#9747FF"/>
</linearGradient>
<linearGradient id="paint23_linear_2128_49574" x1="375.691" y1="368.843" x2="394.709" y2="368.711" gradientUnits="userSpaceOnUse">
<stop stop-color="#0038FF"/>
<stop offset="1" stop-color="#9747FF"/>
</linearGradient>
<linearGradient id="paint24_linear_2128_49574" x1="342.277" y1="368.843" x2="360.988" y2="368.716" gradientUnits="userSpaceOnUse">
<stop stop-color="#0038FF"/>
<stop offset="1" stop-color="#9747FF"/>
</linearGradient>
<linearGradient id="paint25_linear_2128_49574" x1="414.73" y1="190.43" x2="437.392" y2="190.288" gradientUnits="userSpaceOnUse">
<stop stop-color="#0038FF"/>
<stop offset="1" stop-color="#9747FF"/>
</linearGradient>
<linearGradient id="paint26_linear_2128_49574" x1="399.672" y1="239.142" x2="449.383" y2="239.085" gradientUnits="userSpaceOnUse">
<stop stop-color="#0038FF"/>
<stop offset="1" stop-color="#9747FF"/>
</linearGradient>
<linearGradient id="paint27_linear_2128_49574" x1="388.434" y1="212.634" x2="413.265" y2="212.597" gradientUnits="userSpaceOnUse">
<stop stop-color="#0038FF"/>
<stop offset="1" stop-color="#9747FF"/>
</linearGradient>
<linearGradient id="paint28_linear_2128_49574" x1="367.477" y1="389.341" x2="376.445" y2="389.325" gradientUnits="userSpaceOnUse">
<stop stop-color="#0038FF"/>
<stop offset="1" stop-color="#9747FF"/>
</linearGradient>
<linearGradient id="paint29_linear_2128_49574" x1="450.648" y1="389.341" x2="459.617" y2="389.325" gradientUnits="userSpaceOnUse">
<stop stop-color="#0038FF"/>
<stop offset="1" stop-color="#9747FF"/>
</linearGradient>
<linearGradient id="paint30_linear_2128_49574" x1="409.309" y1="389.341" x2="418.277" y2="389.325" gradientUnits="userSpaceOnUse">
<stop stop-color="#0038FF"/>
<stop offset="1" stop-color="#9747FF"/>
</linearGradient>
<linearGradient id="paint31_linear_2128_49574" x1="348.887" y1="281.12" x2="470.408" y2="280.767" gradientUnits="userSpaceOnUse">
<stop stop-color="#0038FF"/>
<stop offset="1" stop-color="#9747FF"/>
</linearGradient>
<linearGradient id="paint32_linear_2128_49574" x1="386.949" y1="268.798" x2="403.019" y2="268.748" gradientUnits="userSpaceOnUse">
<stop stop-color="#0038FF"/>
<stop offset="1" stop-color="#9747FF"/>
</linearGradient>
<linearGradient id="paint33_linear_2128_49574" x1="349.527" y1="268.798" x2="398.31" y2="268.341" gradientUnits="userSpaceOnUse">
<stop stop-color="#0038FF"/>
<stop offset="1" stop-color="#9747FF"/>
</linearGradient>
<linearGradient id="paint34_linear_2128_49574" x1="412.613" y1="281.124" x2="479.033" y2="281.019" gradientUnits="userSpaceOnUse">
<stop stop-color="#0038FF"/>
<stop offset="1" stop-color="#9747FF"/>
</linearGradient>
<linearGradient id="paint35_linear_2128_49574" x1="123.309" y1="100.415" x2="130.024" y2="100.412" gradientUnits="userSpaceOnUse">
<stop stop-color="#0038FF"/>
<stop offset="1" stop-color="#9747FF"/>
</linearGradient>
<linearGradient id="paint36_linear_2128_49574" x1="159.926" y1="126.374" x2="232.588" y2="126.214" gradientUnits="userSpaceOnUse">
<stop stop-color="#0038FF"/>
<stop offset="1" stop-color="#9747FF"/>
</linearGradient>
<linearGradient id="paint37_linear_2128_49574" x1="162.395" y1="134.413" x2="197.87" y2="134.338" gradientUnits="userSpaceOnUse">
<stop stop-color="#0038FF"/>
<stop offset="1" stop-color="#9747FF"/>
</linearGradient>
<linearGradient id="paint38_linear_2128_49574" x1="184.879" y1="132.871" x2="225.766" y2="132.784" gradientUnits="userSpaceOnUse">
<stop stop-color="#0038FF"/>
<stop offset="1" stop-color="#9747FF"/>
</linearGradient>
<linearGradient id="paint39_linear_2128_49574" x1="191.82" y1="106.623" x2="202.934" y2="106.603" gradientUnits="userSpaceOnUse">
<stop stop-color="#0038FF"/>
<stop offset="1" stop-color="#9747FF"/>
</linearGradient>
<linearGradient id="paint40_linear_2128_49574" x1="59.1641" y1="379.061" x2="66.305" y2="379.027" gradientUnits="userSpaceOnUse">
<stop stop-color="#0038FF"/>
<stop offset="1" stop-color="#9747FF"/>
</linearGradient>
<linearGradient id="paint41_linear_2128_49574" x1="59.1172" y1="376.824" x2="64.3906" y2="376.812" gradientUnits="userSpaceOnUse">
<stop stop-color="#0038FF"/>
<stop offset="1" stop-color="#9747FF"/>
</linearGradient>
<linearGradient id="paint42_linear_2128_49574" x1="49.7422" y1="301.991" x2="119.145" y2="301.942" gradientUnits="userSpaceOnUse">
<stop stop-color="#0038FF"/>
<stop offset="1" stop-color="#9747FF"/>
</linearGradient>
<linearGradient id="paint43_linear_2128_49574" x1="119.07" y1="381.518" x2="126.202" y2="381.486" gradientUnits="userSpaceOnUse">
<stop stop-color="#0038FF"/>
<stop offset="1" stop-color="#9747FF"/>
</linearGradient>
<linearGradient id="paint44_linear_2128_49574" x1="119.039" y1="380.46" x2="123.153" y2="380.455" gradientUnits="userSpaceOnUse">
<stop stop-color="#0038FF"/>
<stop offset="1" stop-color="#9747FF"/>
</linearGradient>
<linearGradient id="paint45_linear_2128_49574" x1="94.582" y1="303.868" x2="135.863" y2="303.851" gradientUnits="userSpaceOnUse">
<stop stop-color="#0038FF"/>
<stop offset="1" stop-color="#9747FF"/>
</linearGradient>
</defs>
</svg>
