<svg width="580" height="442" viewBox="0 0 580 442" fill="none" xmlns="http://www.w3.org/2000/svg">
<g clip-path="url(#clip0_2103_51694)">
<path d="M213.84 430.398H356.17C357.073 430.398 357.792 431.133 357.792 432.023V437.733C357.792 438.637 357.059 439.358 356.17 439.358H213.825C212.923 439.358 212.203 438.623 212.203 437.733V432.037C212.203 431.133 212.937 430.412 213.825 430.412L213.84 430.398Z" fill="#282740"/>
<path d="M310.93 388.115H259.099C259.099 411.702 223.703 431.585 223.703 431.585H346.339C346.339 431.585 310.944 411.716 310.944 388.115H310.93Z" fill="#53538C"/>
<path opacity="0.4" d="M310.929 388.115H273.051C280.429 401.795 293.309 418.64 315.345 431.585H346.325C346.325 431.585 310.929 411.716 310.929 388.115Z" fill="#282740"/>
<path d="M502.252 118.917H67.7707C66.2124 118.917 64.9492 120.182 64.9492 121.743V385.289C64.9492 386.85 66.2124 388.115 67.7707 388.115H502.252C503.81 388.115 505.074 386.85 505.074 385.289V121.743C505.074 120.182 503.81 118.917 502.252 118.917Z" fill="#282740"/>
<path d="M485.606 133.755H84.4035C82.8453 133.755 81.582 135.021 81.582 136.582V370.451C81.582 372.012 82.8453 373.277 84.4035 373.277H485.606C487.164 373.277 488.427 372.012 488.427 370.451V136.582C488.427 135.021 487.164 133.755 485.606 133.755Z" fill="#48CAD9"/>
<path d="M488.441 153.187V136.582C488.441 135.027 487.172 133.755 485.62 133.755H84.4035C82.8517 133.755 81.582 135.027 81.582 136.582V153.187H488.427H488.441Z" fill="#1EB3BA"/>
<path d="M110.942 147.548C113.186 147.548 115.005 145.726 115.005 143.478C115.005 141.23 113.186 139.408 110.942 139.408C108.698 139.408 106.879 141.23 106.879 143.478C106.879 145.726 108.698 147.548 110.942 147.548Z" fill="white"/>
<path d="M94.0122 147.548C96.2561 147.548 98.0751 145.726 98.0751 143.478C98.0751 141.23 96.2561 139.408 94.0122 139.408C91.7683 139.408 89.9492 141.23 89.9492 143.478C89.9492 145.726 91.7683 147.548 94.0122 147.548Z" fill="white"/>
<path d="M127.872 147.548C130.115 147.548 131.934 145.726 131.934 143.478C131.934 141.23 130.115 139.408 127.872 139.408C125.628 139.408 123.809 141.23 123.809 143.478C123.809 145.726 125.628 147.548 127.872 147.548Z" fill="white"/>
<path d="M457.732 168.237H112.297V237.978H457.732V168.237Z" fill="#76E0E5"/>
<path d="M257.829 249.284H112.297V295.749H257.829V249.284Z" fill="#76E0E5"/>
<path d="M257.829 306.023H112.297V312.877H257.829V306.023Z" fill="#76E0E5"/>
<path d="M257.829 320.155H112.297V327.009H257.829V320.155Z" fill="#76E0E5"/>
<path d="M257.829 334.287H112.297V341.141H257.829V334.287Z" fill="#76E0E5"/>
<path d="M257.829 348.419H112.297V355.273H257.829V348.419Z" fill="#76E0E5"/>
<path d="M342.854 249.284H270.906V327.023H342.854V249.284Z" fill="#76E0E5"/>
<path d="M342.739 334.287H270.086V341.141H342.739V334.287Z" fill="#76E0E5"/>
<path d="M342.739 348.419H270.086V355.273H342.739V348.419Z" fill="#76E0E5"/>
<path d="M457.732 249.284H357.809V295.749H457.732V249.284Z" fill="#76E0E5"/>
<path d="M455.982 306.023H357.809V312.877H455.982V306.023Z" fill="#76E0E5"/>
<path d="M455.982 320.155H357.809V327.009H455.982V320.155Z" fill="#76E0E5"/>
<path d="M455.982 334.287H357.809V341.141H455.982V334.287Z" fill="#76E0E5"/>
<path d="M455.982 348.419H357.809V355.273H455.982V348.419Z" fill="#76E0E5"/>
<path opacity="0.1" d="M505.077 385.289V121.743C505.077 120.189 503.807 118.917 502.255 118.917H464.08C452.399 328.747 240.336 388.115 240.336 388.115H502.255C503.807 388.115 505.077 386.844 505.077 385.289Z" fill="#282740"/>
<path d="M101.713 300.992C100.161 300.992 98.5109 302.208 98.0453 303.692L92.6845 320.862C92.2189 322.346 90.5684 323.561 89.0166 323.561H30.2308C28.679 323.561 27.635 324.805 27.9172 326.345L45.2552 422.456C45.5374 423.982 47.0328 425.24 48.5846 425.24H141.694C143.246 425.24 144.699 423.982 144.924 422.442L162.446 303.79C162.672 302.25 161.585 300.992 160.034 300.992H101.727H101.713Z" fill="#282740"/>
<path d="M142.43 393.895H47.9102V259.642H124.288L142.43 278.014V393.895Z" fill="white"/>
<path d="M124.285 259.642L142.427 278.014H124.285V259.642Z" fill="#F4F0E1"/>
<path d="M133.723 295.212H56.5977V297.431H133.723V295.212Z" fill="#B7E5E5"/>
<path d="M133.723 304.101H56.5977V306.32H133.723V304.101Z" fill="#B7E5E5"/>
<path d="M133.723 312.976H56.5977V315.195H133.723V312.976Z" fill="#B7E5E5"/>
<path d="M133.723 321.865H56.5977V324.084H133.723V321.865Z" fill="#B7E5E5"/>
<path d="M133.723 330.754H56.5977V332.973H133.723V330.754Z" fill="#B7E5E5"/>
<path d="M133.723 339.629H56.5977V341.848H133.723V339.629Z" fill="#B7E5E5"/>
<path d="M69.6328 280.148C69.6328 275.781 72.9622 272.686 77.5048 272.686C80.1429 272.686 82.2731 273.647 83.6556 275.385L81.074 277.717C80.1711 276.629 79.0707 276.035 77.7023 276.035C75.3463 276.035 73.7099 277.675 73.7099 280.134C73.7099 282.593 75.3463 284.232 77.7023 284.232C79.0707 284.232 80.1711 283.638 81.074 282.55L83.6556 284.882C82.259 286.62 80.1429 287.581 77.5048 287.581C72.9622 287.581 69.6328 284.486 69.6328 280.12V280.148Z" fill="#ED6332"/>
<path d="M100.559 287.313L100.517 279.71L96.8348 285.899H95.029L91.3752 279.922V287.313H87.6367V272.983H90.9661L95.9883 281.264L100.898 272.983H104.227L104.269 287.313H100.545H100.559Z" fill="#ED6332"/>
<path d="M108.319 286.027L109.645 283.031C110.915 283.864 112.706 284.444 114.371 284.444C116.036 284.444 116.699 283.978 116.699 283.271C116.699 280.996 108.559 282.649 108.559 277.336C108.559 274.778 110.647 272.686 114.893 272.686C116.755 272.686 118.674 273.11 120.084 273.93L118.843 276.94C117.475 276.205 116.12 275.838 114.879 275.838C113.186 275.838 112.565 276.403 112.565 277.124C112.565 279.314 120.677 277.675 120.677 282.96C120.677 285.461 118.589 287.595 114.343 287.595C111.987 287.595 109.659 286.959 108.305 286.013L108.319 286.027Z" fill="#ED6332"/>
<path d="M101.713 315.124C100.161 315.124 98.5109 316.34 98.0453 317.823L92.6845 334.994C92.2189 336.478 90.5684 337.693 89.0166 337.693H30.2308C28.679 337.693 27.635 338.936 27.9172 340.477L45.2552 436.588C45.5374 438.114 47.0328 439.372 48.5846 439.372H141.694C143.246 439.372 144.699 438.114 144.924 436.574L162.446 317.922C162.672 316.382 161.585 315.124 160.034 315.124H101.727H101.713Z" fill="#53538C"/>
<path opacity="0.4" d="M144.911 436.56L162.432 317.908C162.658 316.368 161.572 315.11 160.02 315.11H154.363C144.897 405.328 76.8002 427.642 44.6211 433.154L45.2418 436.56C45.524 438.086 47.0194 439.344 48.5712 439.344H141.68C143.232 439.344 144.685 438.086 144.911 436.546V436.56Z" fill="#282740"/>
<path d="M386.263 310.065H555.92C557.415 310.065 558.628 311.28 558.628 312.778V436.235C558.628 437.733 557.415 438.948 555.92 438.948H386.263C384.768 438.948 383.555 437.733 383.555 436.235V312.778C383.555 311.28 384.768 310.065 386.263 310.065Z" fill="#282740"/>
<path d="M392.935 315.124H549.273C550.656 315.124 551.77 316.241 551.77 317.626V421.891C551.77 423.276 550.656 424.392 549.273 424.392H392.935C391.552 424.392 390.438 423.276 390.438 421.891V317.64C390.438 316.255 391.552 315.138 392.935 315.138V315.124Z" fill="#53538C"/>
<path d="M551.773 431.133C551.773 431.656 551.35 432.094 550.813 432.094H391.385C390.863 432.094 390.426 431.67 390.426 431.133C390.426 430.61 390.849 430.172 391.385 430.172H550.813C551.335 430.172 551.773 430.596 551.773 431.133Z" fill="#53538C"/>
<path d="M497.558 431.133C497.558 431.656 497.135 432.094 496.599 432.094H391.385C390.863 432.094 390.426 431.67 390.426 431.133C390.426 430.61 390.849 430.172 391.385 430.172H496.599C497.121 430.172 497.558 430.596 497.558 431.133Z" fill="url(#paint0_linear_2103_51694)"/>
<path d="M499.984 431.232C499.984 433.295 498.319 434.963 496.26 434.963C494.2 434.963 492.535 433.295 492.535 431.232C492.535 429.169 494.2 427.501 496.26 427.501C498.319 427.501 499.984 429.169 499.984 431.232Z" fill="#ED6332"/>
<path opacity="0.2" d="M514.021 371.284C514.021 395.026 494.807 414.288 471.106 414.288C447.406 414.288 428.191 395.04 428.191 371.284C428.191 347.529 447.406 328.295 471.106 328.295C494.807 328.295 514.021 347.543 514.021 371.284Z" fill="#48CAD9"/>
<path d="M504.638 371.284C504.638 389.84 489.614 404.89 471.091 404.89C452.567 404.89 437.543 389.84 437.543 371.284C437.543 352.729 452.567 337.679 471.091 337.679C489.614 337.679 504.638 352.729 504.638 371.284Z" fill="#48CAD9"/>
<path d="M464.473 357.195V385.374L482.798 371.581L464.473 357.195Z" fill="#53538C"/>
<path opacity="0.2" d="M555.934 438.948C557.429 438.948 558.642 437.718 558.642 436.235V312.778C558.642 311.28 557.415 310.065 555.934 310.065H540.034C540.034 395.549 496.047 427.798 472.375 438.948H555.934Z" fill="#282740"/>
<path d="M430.25 43.3395H259.578C258.814 43.3395 258.195 43.9596 258.195 44.7245V157.257C258.195 158.022 258.814 158.642 259.578 158.642H430.25C431.013 158.642 431.632 158.022 431.632 157.257V44.7245C431.632 43.9596 431.013 43.3395 430.25 43.3395Z" fill="white"/>
<path d="M424.057 50.0804H265.785C265.084 50.0804 264.516 50.6499 264.516 51.3523V150.629C264.516 151.331 265.084 151.901 265.785 151.901H424.057C424.758 151.901 425.327 151.331 425.327 150.629V51.3523C425.327 50.6499 424.758 50.0804 424.057 50.0804Z" fill="#53538C"/>
<path d="M390.296 84.9156C386.628 80.6619 380.619 80.6619 376.951 84.9156L331.652 137.416C327.984 141.669 321.974 141.669 318.306 137.416L297.695 113.533C294.027 109.279 288.017 109.279 284.349 113.533L264.5 136.539V151.971C264.5 152.664 265.064 153.243 265.77 153.243H424.055C424.747 153.243 425.325 152.678 425.325 151.971V125.502L390.296 84.9156Z" fill="#48CAD9"/>
<path d="M337.777 80.5064C337.777 89.7346 330.3 97.2245 321.088 97.2245C311.875 97.2245 304.398 89.7346 304.398 80.5064C304.398 71.2783 311.875 63.7884 321.088 63.7884C330.3 63.7884 337.777 71.2783 337.777 80.5064Z" fill="#48CAD9"/>
<path opacity="0.1" d="M430.25 158.642C431.012 158.642 431.632 158.02 431.632 157.257V44.7245C431.632 43.9613 431.012 43.3395 430.25 43.3395H410.02C406.366 110.904 378.983 143.252 355.551 158.642H430.25Z" fill="#282740"/>
<path d="M166.791 183.782H281.696C282.528 183.782 283.205 184.461 283.205 185.294V267.443C283.205 268.277 282.528 268.955 281.696 268.955H166.791C165.958 268.955 165.281 268.277 165.281 267.443V185.294C165.281 184.461 165.958 183.782 166.791 183.782Z" fill="#282740"/>
<path d="M283.194 194.127V185.294C283.194 184.461 282.517 183.782 281.684 183.782H166.779C165.947 183.782 165.27 184.461 165.27 185.294V194.127H283.18H283.194Z" fill="#53538C"/>
<path d="M183.085 188.955C183.085 190.156 182.111 191.131 180.926 191.131C179.741 191.131 178.754 190.156 178.754 188.955C178.754 187.753 179.727 186.778 180.926 186.778C182.126 186.778 183.085 187.753 183.085 188.955Z" fill="white"/>
<path d="M174.072 188.955C174.072 190.156 173.098 191.131 171.899 191.131C170.7 191.131 169.727 190.156 169.727 188.955C169.727 187.753 170.7 186.778 171.899 186.778C173.098 186.778 174.072 187.753 174.072 188.955Z" fill="white"/>
<path d="M192.103 188.955C192.103 190.156 191.13 191.131 189.93 191.131C188.731 191.131 187.758 190.156 187.758 188.955C187.758 187.753 188.731 186.778 189.93 186.778C191.13 186.778 192.103 187.753 192.103 188.955Z" fill="white"/>
<path d="M274.773 214.774H198.691V217.84H274.773V214.774Z" fill="white"/>
<path d="M196.265 204.881H173.707V207.948H196.265V204.881Z" fill="#76E0E5"/>
<path d="M185.642 224.666H173.707V227.733H185.642V224.666Z" fill="#76E0E5"/>
<path d="M196.265 234.558H173.707V237.625H196.265V234.558Z" fill="#76E0E5"/>
<path d="M191.257 244.451H173.707V247.517H191.257V244.451Z" fill="#76E0E5"/>
<path d="M252.976 204.881H209.172V207.948H252.976V204.881Z" fill="white"/>
<path d="M191.257 214.774H173.707V217.84H191.257V214.774Z" fill="#76E0E5"/>
<path d="M242.463 224.666H190.703V227.733H242.463V224.666Z" fill="white"/>
<path d="M252.976 234.558H209.172V237.625H252.976V234.558Z" fill="white"/>
<path d="M274.773 244.451H198.691V247.517H274.773V244.451Z" fill="white"/>
<path d="M185.642 254.343H173.707V257.41H185.642V254.343Z" fill="#76E0E5"/>
<path d="M242.463 254.343H190.703V257.41H242.463V254.343Z" fill="white"/>
<path opacity="0.4" d="M283.194 185.294C283.194 184.461 282.517 183.782 281.685 183.782H253.484C252.807 236.452 216.79 260.617 200.242 268.941H281.67C282.503 268.941 283.18 268.263 283.18 267.429V185.28L283.194 185.294Z" fill="#282740"/>
<path d="M365.51 139.79H466.307C467.14 139.79 467.817 140.468 467.817 141.302V195.187C467.817 196.021 467.14 196.699 466.307 196.699H365.51C364.677 196.699 364 196.021 364 195.187V141.302C364 140.468 364.677 139.79 365.51 139.79Z" fill="#282740"/>
<path d="M467.817 150.134V141.302C467.817 140.468 467.14 139.79 466.307 139.79H365.51C364.677 139.79 364 140.468 364 141.302V150.134H467.803H467.817Z" fill="#53538C"/>
<path d="M381.804 144.962C381.804 146.163 380.83 147.138 379.645 147.138C378.46 147.138 377.473 146.163 377.473 144.962C377.473 143.761 378.446 142.786 379.645 142.786C380.844 142.786 381.804 143.761 381.804 144.962Z" fill="white"/>
<path d="M372.79 144.962C372.79 146.163 371.817 147.138 370.618 147.138C369.419 147.138 368.445 146.163 368.445 144.962C368.445 143.761 369.419 142.786 370.618 142.786C371.817 142.786 372.79 143.761 372.79 144.962Z" fill="white"/>
<path d="M390.818 144.962C390.818 146.163 389.844 147.138 388.645 147.138C387.446 147.138 386.473 146.163 386.473 144.962C386.473 143.761 387.446 142.786 388.645 142.786C389.844 142.786 390.818 143.761 390.818 144.962Z" fill="white"/>
<path d="M418.341 161.298C415.985 168.463 413.615 175.628 411.259 182.793C410.793 184.206 413.022 184.814 413.488 183.401C415.858 176.236 418.214 169.071 420.584 161.906C421.049 160.479 418.82 159.885 418.355 161.284L418.341 161.298Z" fill="#76E0E5"/>
<path d="M409.792 176.406C407.845 175.063 405.884 173.706 403.923 172.364C405.884 171.021 407.831 169.679 409.792 168.322C411.019 167.488 409.862 165.482 408.621 166.315C406.18 167.997 403.74 169.679 401.299 171.36C400.551 171.869 400.551 172.844 401.299 173.367C403.74 175.049 406.18 176.731 408.621 178.412C409.848 179.26 411.005 177.253 409.792 176.406Z" fill="#76E0E5"/>
<path d="M422.025 176.406C423.971 175.063 425.932 173.706 427.879 172.364C425.918 171.021 423.971 169.679 422.025 168.322C420.811 167.488 421.954 165.482 423.196 166.315C425.636 167.997 428.077 169.679 430.503 171.36C431.251 171.869 431.251 172.844 430.503 173.367C428.063 175.049 425.622 176.731 423.196 178.412C421.968 179.26 420.811 177.253 422.025 176.406Z" fill="#76E0E5"/>
<path opacity="0.4" d="M466.31 196.685C467.142 196.685 467.819 196.006 467.819 195.173V141.288C467.819 140.454 467.142 139.776 466.31 139.776H443.738C442.031 173.212 422.972 189.167 407.312 196.671H466.31V196.685Z" fill="#282740"/>
<path d="M518.705 288.796L517.153 292.584L492.832 282.578C499.786 262.398 489.911 239.985 469.949 231.774C449.268 223.253 425.525 233.187 417.018 253.905C408.525 274.622 418.429 298.406 439.124 306.928C459.072 315.138 481.828 306.165 491.054 286.917L515.375 296.922L513.823 300.71L537.848 310.602L542.73 298.689L518.705 288.796ZM486.272 282.409C479.077 299.932 459.002 308.341 441.494 301.134C424.001 293.94 415.607 273.817 422.802 256.293C429.997 238.77 450.072 230.361 467.579 237.568C485.072 244.776 493.452 264.885 486.272 282.423V282.409Z" fill="white"/>
<path d="M443.509 244.648C439.672 246.245 437.866 250.669 439.474 254.498C441.069 258.342 445.484 260.151 449.307 258.554C453.145 256.957 454.95 252.534 453.356 248.704C451.762 244.86 447.346 243.052 443.509 244.648Z" fill="white"/>
<path d="M578.591 126.619H572.976C572.299 121.913 570.451 117.589 567.742 113.943L571.72 109.971C572.27 109.42 572.27 108.516 571.72 107.979L567.996 104.248C567.446 103.697 566.543 103.697 566.007 104.248L562.043 108.219C558.403 105.506 554.086 103.654 549.388 102.976V97.3517C549.388 96.5744 548.753 95.9385 547.977 95.9385H542.715C541.939 95.9385 541.305 96.5744 541.305 97.3517V102.976C536.607 103.654 532.29 105.506 528.65 108.219L524.686 104.234C524.136 103.683 523.233 103.683 522.697 104.234L518.972 107.965C518.422 108.516 518.422 109.406 518.972 109.957L522.951 113.928C520.242 117.574 518.394 121.899 517.717 126.605H512.102C511.326 126.605 510.691 127.241 510.691 128.018V133.289C510.691 134.066 511.326 134.702 512.102 134.702H517.717C518.394 139.408 520.242 143.733 522.951 147.379L518.972 151.35C518.422 151.901 518.422 152.805 518.972 153.342L522.697 157.073C523.247 157.624 524.136 157.624 524.686 157.073L528.65 153.102C532.29 155.815 536.607 157.667 541.305 158.345V163.969C541.305 164.747 541.939 165.383 542.715 165.383H547.977C548.753 165.383 549.388 164.747 549.388 163.969V158.345C554.086 157.667 558.403 155.815 562.043 153.102L566.007 157.073C566.557 157.624 567.46 157.624 567.996 157.073L571.72 153.342C572.27 152.791 572.27 151.901 571.72 151.35L567.756 147.379C570.465 143.733 572.313 139.408 572.99 134.702H578.605C579.381 134.702 580.015 134.066 580.015 133.289V128.018C580.015 127.241 579.381 126.605 578.605 126.605L578.591 126.619ZM545.325 151.166C534.025 151.166 524.869 141.994 524.869 130.675C524.869 119.355 534.025 110.183 545.325 110.183C556.625 110.183 565.781 119.355 565.781 130.675C565.781 141.994 556.625 151.166 545.325 151.166Z" fill="url(#paint1_linear_2103_51694)"/>
<path d="M522.257 72.1969H517.799C517.263 68.4661 515.796 65.032 513.637 62.1491L516.783 58.9977C517.22 58.5596 517.22 57.853 516.783 57.4149L513.835 54.4614C513.397 54.0233 512.692 54.0233 512.255 54.4614L509.109 57.6128C506.231 55.4506 502.803 53.995 499.078 53.458V48.9923C499.078 48.3705 498.57 47.8759 497.964 47.8759H493.788C493.167 47.8759 492.674 48.3847 492.674 48.9923V53.458C488.949 53.995 485.521 55.4647 482.643 57.6269L479.497 54.4755C479.06 54.0374 478.354 54.0374 477.917 54.4755L474.969 57.4291C474.531 57.8672 474.531 58.5738 474.969 59.0118L478.115 62.1633C475.956 65.0603 474.503 68.4802 473.967 72.211H469.509C468.888 72.211 468.395 72.7198 468.395 73.3275V77.5105C468.395 78.1323 468.902 78.6269 469.509 78.6269H473.967C474.503 82.3577 475.97 85.7777 478.115 88.6747L474.969 91.8261C474.531 92.2642 474.531 92.9708 474.969 93.4089L477.917 96.3624C478.354 96.8005 479.06 96.8005 479.497 96.3624L482.643 93.211C485.521 95.3732 488.949 96.8288 492.674 97.38V101.846C492.674 102.467 493.181 102.962 493.788 102.962H497.964C498.585 102.962 499.078 102.453 499.078 101.846V97.38C502.803 96.8429 506.231 95.3732 509.109 93.2252L512.255 96.3766C512.692 96.8147 513.397 96.8147 513.835 96.3766L516.783 93.423C517.22 92.9849 517.22 92.2783 516.783 91.8403L513.637 88.6888C515.796 85.7918 517.249 82.3719 517.785 78.6411H522.243C522.863 78.6411 523.357 78.1323 523.357 77.5246V73.3416C523.357 72.7198 522.849 72.2252 522.243 72.2252L522.257 72.1969ZM495.876 86.5408C489.739 86.5408 484.759 81.5522 484.759 75.4049C484.759 69.2575 489.739 64.2689 495.876 64.2689C502.013 64.2689 506.993 69.2575 506.993 75.4049C506.993 81.5522 502.013 86.5408 495.876 86.5408Z" fill="url(#paint2_linear_2103_51694)"/>
<path d="M205.685 435.768C205.756 439.103 203.103 441.831 199.774 441.831H196.811C193.482 441.831 190.816 439.103 190.9 435.768L193.045 343.572C193.115 340.237 195.485 337.509 198.307 337.509C201.128 337.509 203.484 340.237 203.569 343.572L205.713 435.768H205.685Z" fill="url(#paint3_linear_2103_51694)"/>
<path d="M196.799 441.831H199.762C200.834 441.831 201.821 441.534 202.682 441.039L201.666 397.358C201.61 395.21 200.086 393.443 198.28 393.443C196.475 393.443 194.937 395.21 194.895 397.358L193.879 441.039C194.739 441.534 195.727 441.831 196.799 441.831Z" fill="#DB3E0E"/>
<path d="M210.739 304.723V321.724L198.282 334.033L185.825 321.724V304.723C177.149 309.231 171.238 318.304 171.238 328.776C171.238 343.741 183.342 355.866 198.282 355.866C213.222 355.866 225.326 343.741 225.326 328.776C225.326 318.318 219.401 309.245 210.725 304.723H210.739Z" fill="url(#paint4_linear_2103_51694)"/>
<path d="M198.296 350.609C188.336 350.609 179.406 346.186 173.34 339.219C177.417 348.998 187.052 355.866 198.296 355.866C209.54 355.866 219.175 348.998 223.252 339.219C217.186 346.2 208.256 350.609 198.296 350.609Z" fill="#DB3E0E"/>
<path d="M220.826 54.2494H111.662C109.527 54.2494 107.797 55.983 107.797 58.1215V115.596C107.797 117.734 109.527 119.468 111.662 119.468H220.826C222.961 119.468 224.691 117.734 224.691 115.596V58.1215C224.691 55.983 222.961 54.2494 220.826 54.2494Z" fill="url(#paint5_linear_2103_51694)"/>
<path d="M220.824 54.2494H111.66C111.11 54.2494 110.602 54.3624 110.137 54.5744L162.673 92.7023C164.648 94.1296 167.864 94.1296 169.839 92.7023L222.376 54.5744C221.91 54.3624 221.388 54.2494 220.852 54.2494H220.824Z" fill="#DB3E0E"/>
<path opacity="0.1" d="M220.824 54.2494H201.13C196.292 94.7797 164.578 112.12 140.609 119.468H220.824C222.955 119.468 224.69 117.73 224.69 115.596V58.1357C224.69 56.0017 222.955 54.2635 220.824 54.2635V54.2494Z" fill="#282740"/>
<path d="M169.021 0.830811C158.539 22.5091 135.078 27.314 135.078 27.314C139.578 65.8375 169.021 73.8645 169.021 73.8645C169.021 73.8645 198.449 65.8375 202.963 27.314C202.963 27.314 179.517 22.495 169.021 0.830811Z" fill="#48CAD9"/>
<path d="M169.021 18.0152C162.631 31.2285 148.34 34.1538 148.34 34.1538C151.091 57.641 169.021 62.5307 169.021 62.5307C169.021 62.5307 186.952 57.641 189.703 34.1538C189.703 34.1538 175.412 31.2144 169.021 18.0152Z" fill="#76E0E5"/>
<path d="M178.035 34.1821C174.931 38.0401 171.813 41.8981 168.71 45.7561C166.706 44.244 164.717 42.7178 162.728 41.2057C160.852 39.7783 159.032 42.958 160.88 44.3571C163.278 46.1801 165.691 48.0172 168.089 49.8403C168.681 50.2925 169.838 50.137 170.304 49.5576C173.746 45.2898 177.174 41.0219 180.616 36.7541C182.084 34.9311 179.516 32.3308 178.035 34.168V34.1821Z" fill="#282740"/>
<path opacity="0.1" d="M149.539 60.9762C158.836 71.0946 169.007 73.8786 169.007 73.8786C169.007 73.8786 198.436 65.8517 202.95 27.3281C202.95 27.3281 195.67 25.816 187.418 20.7568C180.787 44.6821 161.291 56.1289 149.539 60.9903V60.9762Z" fill="#282740"/>
<path d="M76.1097 175.36C74.0218 175.36 72.0045 175.685 70.1141 176.307C67.1938 164.605 56.6414 155.957 44.0576 155.957C29.2165 155.957 17.197 167.997 17.197 182.864C17.197 183.952 17.2675 185.012 17.3945 186.058C16.4634 185.86 15.49 185.761 14.5025 185.761C6.48943 185.761 0 192.276 0 200.288C0 208.301 6.48943 214.816 14.5025 214.816H76.1097C86.9866 214.816 95.8038 205.984 95.8038 195.088C95.8038 184.192 86.9866 175.36 76.1097 175.36Z" fill="white"/>
<path opacity="0.2" d="M86.1681 178.144C87.4095 180.73 88.1149 183.613 88.1149 186.665C88.1149 197.561 79.2977 206.393 68.4209 206.393H6.81359C4.68337 206.393 2.65189 205.927 0.832031 205.093C2.80708 210.76 8.18202 214.83 14.5163 214.83H76.1235C87.0004 214.83 95.8176 205.998 95.8176 195.102C95.8176 187.895 91.938 181.592 86.1681 178.158V178.144Z" fill="#282740"/>
<path d="M63.0734 189.492L56.9508 181.663L50.8281 189.492H54.5525V195.667H59.349V189.492H63.0734Z" fill="#48CAD9"/>
<path d="M29.9062 189.054L36.043 196.883L42.1656 189.054H38.4413V182.878H33.6447V189.054H29.9062Z" fill="#48CAD9"/>
<path d="M433.552 25.0811C431.577 25.0811 429.687 25.392 427.895 25.9715C425.144 14.9344 415.184 6.78033 403.334 6.78033C389.339 6.78033 377.997 18.1282 377.997 32.1471C377.997 33.1646 378.068 34.168 378.18 35.1572C377.306 34.9735 376.389 34.8745 375.458 34.8745C367.896 34.8745 361.773 41.0078 361.773 48.5825C361.773 56.1572 367.896 62.2763 375.458 62.2763H433.552C443.808 62.2763 452.132 53.9526 452.132 43.6787C452.132 33.4048 443.808 25.067 433.552 25.067V25.0811Z" fill="white"/>
<path opacity="0.2" d="M443.031 27.6956C444.202 30.1262 444.865 32.8537 444.865 35.7366C444.865 46.0105 436.542 54.3342 426.3 54.3342H368.205C366.188 54.3342 364.284 53.882 362.562 53.1047C364.425 58.4466 369.489 62.2763 375.471 62.2763H433.565C443.821 62.2763 452.145 53.9526 452.145 43.6787C452.145 36.8813 448.491 30.9459 443.046 27.6956H443.031Z" fill="#282740"/>
<path d="M412.727 35.5388L405.25 25.9856L397.773 35.5388H402.33V43.0711H408.171V35.5388H412.727Z" fill="#48CAD9"/>
<path d="M564.453 221.924C563.085 221.924 561.758 222.136 560.517 222.546C558.598 214.858 551.672 209.177 543.419 209.177C533.685 209.177 525.784 217.077 525.784 226.842C525.784 227.549 525.827 228.255 525.911 228.934C525.305 228.807 524.656 228.736 524.007 228.736C518.745 228.736 514.484 233.018 514.484 238.275C514.484 243.532 518.745 247.814 524.007 247.814H564.453C571.591 247.814 577.39 242.02 577.39 234.869C577.39 227.718 571.605 221.91 564.453 221.91V221.924Z" fill="white"/>
<path opacity="0.2" d="M571.043 223.747C571.861 225.443 572.326 227.337 572.326 229.344C572.326 236.494 566.542 242.288 559.39 242.288H518.944C517.547 242.288 516.221 241.978 515.008 241.426C516.306 245.143 519.833 247.814 523.994 247.814H564.44C571.579 247.814 577.377 242.02 577.377 234.869C577.377 230.135 574.838 226.008 571.043 223.747Z" fill="#282740"/>
<path d="M538.805 227.761L544.321 234.798L549.837 227.761H546.479V222.207H542.162V227.761H538.805Z" fill="#48CAD9"/>
</g>
<defs>
<linearGradient id="paint0_linear_2103_51694" x1="402.239" y1="430.695" x2="402.348" y2="434.11" gradientUnits="userSpaceOnUse">
<stop stop-color="#F05225"/>
<stop offset="1" stop-color="#EEA820"/>
</linearGradient>
<linearGradient id="paint1_linear_2103_51694" x1="518.336" y1="114.826" x2="571.111" y2="144.499" gradientUnits="userSpaceOnUse">
<stop stop-color="#F05225"/>
<stop offset="1" stop-color="#EEA820"/>
</linearGradient>
<linearGradient id="paint2_linear_2103_51694" x1="474.455" y1="62.8585" x2="516.308" y2="86.3775" gradientUnits="userSpaceOnUse">
<stop stop-color="#F05225"/>
<stop offset="1" stop-color="#EEA820"/>
</linearGradient>
<linearGradient id="paint3_linear_2103_51694" x1="192.532" y1="365.883" x2="207.281" y2="367.063" gradientUnits="userSpaceOnUse">
<stop stop-color="#F05225"/>
<stop offset="1" stop-color="#EEA820"/>
</linearGradient>
<linearGradient id="paint4_linear_2103_51694" x1="177.203" y1="318.633" x2="217.204" y2="342.459" gradientUnits="userSpaceOnUse">
<stop stop-color="#F05225"/>
<stop offset="1" stop-color="#EEA820"/>
</linearGradient>
<linearGradient id="paint5_linear_2103_51694" x1="120.687" y1="71.9879" x2="178.696" y2="130.546" gradientUnits="userSpaceOnUse">
<stop stop-color="#F05225"/>
<stop offset="1" stop-color="#EEA820"/>
</linearGradient>
<clipPath id="clip0_2103_51694">
<rect width="580" height="441" fill="white" transform="translate(0 0.830811)"/>
</clipPath>
</defs>
</svg>
